<?xml version="1.0" encoding="UTF-8"?>
<svg width="1440px" height="840px" viewBox="0 0 1440 840" version="1.1" xmlns="http://www.w3.org/2000/svg" xmlns:xlink="http://www.w3.org/1999/xlink">
    <title>编组 84</title>
    <defs>
        <linearGradient x1="1.67551942%" y1="52.2187633%" x2="103.300972%" y2="50%" id="linearGradient-1">
            <stop stop-color="#F6F9FD" offset="0%"></stop>
            <stop stop-color="#DBEEFF" offset="100%"></stop>
        </linearGradient>
        <polygon id="path-2" points="0 549.44 0 840 1440 840 1440 0 0 0"></polygon>
        <filter x="-85.7%" y="-100.0%" width="271.4%" height="300.0%" filterUnits="objectBoundingBox" id="filter-4">
            <feGaussianBlur stdDeviation="8" in="SourceGraphic"></feGaussianBlur>
        </filter>
        <filter x="-266.7%" y="-104.3%" width="633.3%" height="308.7%" filterUnits="objectBoundingBox" id="filter-5">
            <feGaussianBlur stdDeviation="8" in="SourceGraphic"></feGaussianBlur>
        </filter>
        <filter x="-85.7%" y="-82.8%" width="271.4%" height="265.5%" filterUnits="objectBoundingBox" id="filter-6">
            <feGaussianBlur stdDeviation="8" in="SourceGraphic"></feGaussianBlur>
        </filter>
        <filter x="-85.7%" y="-141.2%" width="271.4%" height="382.4%" filterUnits="objectBoundingBox" id="filter-7">
            <feGaussianBlur stdDeviation="8" in="SourceGraphic"></feGaussianBlur>
        </filter>
        <filter x="-114.3%" y="-150.0%" width="328.6%" height="400.0%" filterUnits="objectBoundingBox" id="filter-8">
            <feGaussianBlur stdDeviation="8" in="SourceGraphic"></feGaussianBlur>
        </filter>
        <linearGradient x1="50%" y1="38.2537478%" x2="54.3099214%" y2="63.8574738%" id="linearGradient-9">
            <stop stop-color="#E9F4FE" offset="0%"></stop>
            <stop stop-color="#C2E2FF" offset="100%"></stop>
        </linearGradient>
        <filter x="-50.0%" y="-80.0%" width="200.0%" height="260.0%" filterUnits="objectBoundingBox" id="filter-10">
            <feGaussianBlur stdDeviation="8" in="SourceGraphic"></feGaussianBlur>
        </filter>
        <filter x="-96.0%" y="-109.1%" width="292.0%" height="318.2%" filterUnits="objectBoundingBox" id="filter-11">
            <feGaussianBlur stdDeviation="8" in="SourceGraphic"></feGaussianBlur>
        </filter>
        <filter x="-100.0%" y="-60.0%" width="300.0%" height="220.0%" filterUnits="objectBoundingBox" id="filter-12">
            <feGaussianBlur stdDeviation="8" in="SourceGraphic"></feGaussianBlur>
        </filter>
        <filter x="-100.0%" y="-120.0%" width="300.0%" height="340.0%" filterUnits="objectBoundingBox" id="filter-13">
            <feGaussianBlur stdDeviation="8" in="SourceGraphic"></feGaussianBlur>
        </filter>
        <filter x="-85.7%" y="-120.0%" width="271.4%" height="340.0%" filterUnits="objectBoundingBox" id="filter-14">
            <feGaussianBlur stdDeviation="8" in="SourceGraphic"></feGaussianBlur>
        </filter>
        <filter x="-266.7%" y="-104.3%" width="633.3%" height="308.7%" filterUnits="objectBoundingBox" id="filter-15">
            <feGaussianBlur stdDeviation="8" in="SourceGraphic"></feGaussianBlur>
        </filter>
        <filter x="-88.9%" y="-82.8%" width="277.8%" height="265.5%" filterUnits="objectBoundingBox" id="filter-16">
            <feGaussianBlur stdDeviation="8" in="SourceGraphic"></feGaussianBlur>
        </filter>
        <filter x="-88.9%" y="-150.0%" width="277.8%" height="400.0%" filterUnits="objectBoundingBox" id="filter-17">
            <feGaussianBlur stdDeviation="8" in="SourceGraphic"></feGaussianBlur>
        </filter>
        <filter x="-114.3%" y="-120.0%" width="328.6%" height="340.0%" filterUnits="objectBoundingBox" id="filter-18">
            <feGaussianBlur stdDeviation="8" in="SourceGraphic"></feGaussianBlur>
        </filter>
        <linearGradient x1="5.55111512e-15%" y1="0%" x2="102.246644%" y2="143.678523%" id="linearGradient-19">
            <stop stop-color="#DCEFFE" offset="0%"></stop>
            <stop stop-color="#DCEFFE" offset="100%"></stop>
        </linearGradient>
        <linearGradient x1="5.79758146%" y1="5.18946521%" x2="100%" y2="5.18946521%" id="linearGradient-20">
            <stop stop-color="#2D8CE3" offset="0%"></stop>
            <stop stop-color="#4FB0F1" offset="100%"></stop>
        </linearGradient>
        <linearGradient x1="5.79758146%" y1="5.18946521%" x2="100%" y2="5.18946521%" id="linearGradient-21">
            <stop stop-color="#3B9BF2" offset="0%"></stop>
            <stop stop-color="#6CC3FD" offset="100%"></stop>
        </linearGradient>
        <linearGradient x1="94.2024185%" y1="94.8105348%" x2="-8.8817842e-14%" y2="94.8105348%" id="linearGradient-22">
            <stop stop-color="#91C9FD" offset="0%"></stop>
            <stop stop-color="#B0DFFF" offset="100%"></stop>
        </linearGradient>
        <linearGradient x1="85.6469713%" y1="95.1651665%" x2="-8.07514211e-14%" y2="95.1651665%" id="linearGradient-23">
            <stop stop-color="#BCDFFF" offset="0%"></stop>
            <stop stop-color="#C9E9FF" offset="100%"></stop>
        </linearGradient>
        <linearGradient x1="5.79758146%" y1="5.18946521%" x2="100%" y2="5.18946521%" id="linearGradient-24">
            <stop stop-color="#91C9FD" offset="0%"></stop>
            <stop stop-color="#B0DFFF" offset="100%"></stop>
        </linearGradient>
        <linearGradient x1="5.79758146%" y1="5.18946521%" x2="100%" y2="5.18946521%" id="linearGradient-25">
            <stop stop-color="#BCDFFF" offset="0%"></stop>
            <stop stop-color="#C9E9FF" offset="100%"></stop>
        </linearGradient>
        <linearGradient x1="94.2024185%" y1="94.8105348%" x2="-8.8817842e-14%" y2="94.8105348%" id="linearGradient-26">
            <stop stop-color="#2D8CE3" offset="0%"></stop>
            <stop stop-color="#4FB0F1" offset="100%"></stop>
        </linearGradient>
        <linearGradient x1="94.2024185%" y1="94.8105348%" x2="-8.8817842e-14%" y2="94.8105348%" id="linearGradient-27">
            <stop stop-color="#3B9BF2" offset="0%"></stop>
            <stop stop-color="#6CC3FD" offset="100%"></stop>
        </linearGradient>
    </defs>
    <g id="页面-1" stroke="none" stroke-width="1" fill="none" fill-rule="evenodd">
        <g id="编组-84">
            <mask id="mask-3" fill="white">
                <use xlink:href="#path-2"></use>
            </mask>
            <use id="蒙版" fill="url(#linearGradient-1)" xlink:href="#path-2"></use>
            <g mask="url(#mask-3)">
                <g transform="translate(-563.435265, -471.054221)">
                    <g id="编组" opacity="0.51" stroke="none" stroke-width="1" fill-rule="evenodd" transform="translate(664.035265, 930.094221)">
                        <polygon id="矩形" fill="#BFE4FF" filter="url(#filter-4)" points="5 6.79 27.51 24 33 18.03 24.8 1.16 18.82 0"></polygon>
                        <polygon id="矩形" fill="#5DB7FA" filter="url(#filter-5)" points="25 26.54 27.76 40 34 26.54 33.23 17"></polygon>
                        <polygon id="矩形" fill="#3FA6F3" filter="url(#filter-6)" points="16.44 36 28 23.68 5.39 7 0 22.16 6.72 36"></polygon>
                        <polygon id="矩形" fill="#97D3FF" filter="url(#filter-7)" points="5.39 7 0 22.45 28 24"></polygon>
                        <polygon id="矩形" fill="#389BE5" filter="url(#filter-8)" points="28 40 28 24 7 36.19"></polygon>
                    </g>
                    <path d="M2415.86704,892.936104 C2415.86704,599.716104 1900.06704,361.936104 1264.00704,361.936104 C627.947038,361.936104 112.147038,599.716104 112.147038,892.936104 C112.147038,1186.1561 627.947038,1423.9361 1264.00704,1423.9361 C1900.06704,1423.9361 2415.86704,1186.1561 2415.86704,892.936104 Z" id="椭圆形" stroke="url(#linearGradient-9)" stroke-width="16" stroke-dasharray="0" transform="translate(1264.007038, 892.936104) rotate(-20.000000) translate(-1264.007038, -892.936104) "></path>
                    <g id="Clipped" stroke="none" stroke-width="1" fill-rule="evenodd" transform="translate(672.664899, 535.806192)" opacity="0.883029" stroke-dasharray="0">
                        <path d="M1118.84755,390.747764 C1118.84755,269.267764 877.917554,170.747764 580.817554,170.747764 C283.727554,170.747764 42.7975538,269.267764 42.7975538,390.747764 C42.7975538,512.227764 283.727554,610.747764 580.817554,610.747764 C877.917554,610.747764 1118.84755,512.227764 1118.84755,390.747764 Z" id="椭圆形" stroke="#C3E5FF" stroke-width="14" transform="translate(580.822554, 390.747764) rotate(-20.000000) translate(-580.822554, -390.747764) "></path>
                    </g>
                    <g id="Clipped" stroke="none" stroke-width="1" fill-rule="evenodd" transform="translate(1580.435265, 621.054221)">
                        <g id="编组">
                            <g transform="translate(0.000000, 34.244117)" id="矩形">
                                <polygon fill="#FFFFFF" points="3.7033865 1.89 34.5333865 19.33 42.2233865 15.61 36.3133865 0"></polygon>
                                <polygon fill="#BDB9B2" points="34.5391737 19.3233712 31.5591737 39.3933712 49.5791737 18.2333712 42.2291737 15.6133712"></polygon>
                                <polygon fill="#BDB9B2" points="16.43 32.6759053 34.54 19.3259053 3.7 1.88590532 -6.31088724e-30 32.6759053"></polygon>
                                <polygon fill="#A4A29F" points="31.56 39.3965177 34.54 19.3265177 -6.31088724e-30 32.6765177"></polygon>
                                <polygon fill="#A4A29F" points="42.2305889 15.61 49.5805889 18.23 47.5105889 10.67 36.3105889 5.68434189e-14"></polygon>
                            </g>
                            <g transform="translate(71.783052, 21.508271)" id="矩形">
                                <polygon fill="#FFFFFF" points="2.84217094e-13 12.68 13.25 28.6 36.94 25.62 46.31 27.6 30.65 0 15.99 3.87"></polygon>
                                <polygon fill="#BDB9B2" points="37.731727 25.5494091 30.151727 44.9094091 46.311727 29.3094091"></polygon>
                                <polygon fill="#BDB9B2" points="30.15 45.9410213 0 12.6810213 11.09 35.7210213"></polygon>
                                <polygon fill="#A4A29F" points="29.5521134 44.9394091 37.7321134 25.5494091 13.2521134 28.5994091"></polygon>
                            </g>
                            <polygon id="矩形" fill="#FFFFFF" points="26.0180548 14.23 73.5380548 42.94 89.0580548 36.38 73.5380548 0 57.6980548 0"></polygon>
                            <polygon id="矩形" fill="#BDB9B2" points="73.5438636 42.9362079 70.1338636 63.9962079 89.0538636 42.9362079 89.0538636 36.3762079"></polygon>
                            <polygon id="矩形" fill="#BDB9B2" points="52.8480548 58.1945991 73.5380548 42.9345991 26.0180548 14.2245991 38.2980548 58.1945991"></polygon>
                            <polygon id="矩形" fill="#A4A29F" points="70.1386782 63.997868 73.5386782 42.937868 38.2986782 58.187868"></polygon>
                        </g>
                    </g>
                    <g id="Clipped" stroke="none" stroke-width="1" fill-rule="evenodd" transform="translate(1130.814105, 1118.703724)">
                        <g id="编组" transform="translate(72.374860, 52.881665) rotate(-10.000000) translate(-72.374860, -52.881665) translate(6.297382, 10.835457)">
                            <g transform="translate(0.000000, 20.278490)" id="矩形">
                                <polygon fill="#FFFFFF" points="4.39004791 2.45137498 38.8100479 24.111375 47.3900479 19.501375 40.7900479 0.11137498"></polygon>
                                <polygon fill="#BDB9B2" points="38.2325552 23.4249985 34.9225552 48.7449985 54.9225552 22.0449985 46.7625552 18.7449985"></polygon>
                                <polygon fill="#BDB9B2" points="18.8019312 40.1780357 38.7219312 23.7080357 4.79193125 2.17803571 0.721931248 40.1780357"></polygon>
                                <polygon fill="#A4A29F" points="35.1810445 48.7905772 38 24.2898522 -9.09494702e-13 40.9198522"></polygon>
                                <polygon fill="#A4A29F" points="47.5272353 19.7 55.8372353 23 53.4972353 13.46 40.8372353 0"></polygon>
                            </g>
                            <g transform="translate(95.152101, 16.679563)" id="矩形">
                                <polygon fill="#FFFFFF" points="18.5 19.81 37 24.16 36.45 0 0 2.99"></polygon>
                                <polygon fill="#BDB9B2" points="17.9528549 19.268443 13.1228549 37.998443 25.0528549 36.838443 37.0028549 24.158443"></polygon>
                                <polygon fill="#D4D4D3" points="19.46 19.8042947 0 2.99429472 0 29.7042947 2.37 33.7242947"></polygon>
                                <polygon fill="#A4A29F" points="13.1244383 38 19.4544383 19 2.33443832 33.79"></polygon>
                            </g>
                            <g transform="translate(33.374293, 0.000000)" id="矩形">
                                <polygon fill="#FFFFFF" points="24.2440351 0 3.11403509 17.64 16.8140351 38.19 47.9640351 51.97 71.0040351 31.54 54.1340351 5.78"></polygon>
                                <polygon fill="#CAC8C3" points="47.9561404 51.3563429 68.2161404 68.6063429 70.9961404 31.6463429"></polygon>
                                <polygon fill="#BDB9B2" points="14.86 34.1100444 9.09494702e-13 45.4500444 16.3915208 81.3578701"></polygon>
                                <polygon fill="#D1CFCD" points="4.06561404 17.4800592 1.24561404 45.8100592 15.565614 34.5700592"></polygon>
                                <polygon fill="#A4A29F" points="16.3915208 81.3578701 48.5745614 51.354119 14.3245614 33.494119"></polygon>
                                <polygon fill="#ACA8A3" points="47.9545614 51.355955 14.9965819 81.3096148 42.3545614 83.995955"></polygon>
                                <polygon fill="#95938F" points="47.9584279 50.7400296 42.0775024 84.0924153 68.1463181 68.1769187"></polygon>
                            </g>
                        </g>
                    </g>
                    <g id="Clipped" stroke="none" stroke-width="1" fill-rule="evenodd" transform="translate(1893.435265, 884.054221)">
                        <polygon id="矩形" fill="#FFFFFF" filter="url(#filter-10)" points="0 27.75 30.76 30 48 8.35 9.62 0"></polygon>
                        <polygon id="矩形" fill="#A79C89" filter="url(#filter-11)" points="0 26 10.5 48 25 28.2"></polygon>
                        <polygon id="矩形" fill="#BDB9B2" filter="url(#filter-12)" points="24 29.66 32.44 48 48 8"></polygon>
                        <polygon id="矩形" fill="#ACA79E" filter="url(#filter-13)" points="9 48 33 46.93 23.6 28"></polygon>
                    </g>
                    <g id="Clipped" stroke="none" stroke-width="1" fill-rule="evenodd" transform="translate(786.435265, 1146.054221)">
                        <g id="编组">
                            <g transform="translate(30.000000, 5.000000)" id="矩形">
                                <polygon fill="#FFFFFF" points="10.95 15.0929406 10.95 2.01294056 3.45 9.34294056 0 29.4529406"></polygon>
                                <polygon fill="#BDB9B2" points="10.95 13.9028414 1.42108547e-13 29.4528414 32 18.6928414"></polygon>
                                <polygon fill="#ACA79E" points="13.33 23.9611486 4.61852778e-14 29.4511486 15.34 32.0011486 32 18.6911486"></polygon>
                                <polygon fill="#F0F0F0" points="16.0047088 0 10.1547088 2.01 10.1547088 14.91 32.0047088 18.69"></polygon>
                            </g>
                            <g id="矩形">
                                <polygon fill="#FFFFFF" points="6.71 12.17 0 23.58 23.47 25.49 18.65 0"></polygon>
                                <polygon fill="#969086" points="5.54764706 41.3032432 22.8576471 45.3832432 0.617647059 24.2432432"></polygon>
                                <polygon fill="#D7D4D2" points="21.7276471 23.9651351 21.6176471 45.9951351 31.8076471 40.9151351 41.9976471 21.1351351"></polygon>
                                <polygon fill="#EDEDED" points="17.9117647 0 22.5517647 24.86 42.0017647 21.03"></polygon>
                                <polygon fill="#B1AEA8" points="0 23.6216216 10.73 35.3216216 22.85 45.3816216 22.85 25.5416216"></polygon>
                            </g>
                        </g>
                    </g>
                    <g id="Clipped" stroke="none" stroke-width="1" fill-rule="evenodd" transform="translate(1821.435265, 1135.054221)">
                        <g id="编组">
                            <polygon id="矩形" fill="#7AC5FC" points="13 17.58 73.17 64 92.2 43.08 73.17 9.91 48.69 0"></polygon>
                            <polygon id="矩形" fill="#5DB7FA" points="66 71.458499 73.35 105.998499 94.24 69.538499 92.2 43.078499"></polygon>
                            <polygon id="矩形" fill="#3FA6F3" points="43.46 97 74 63.45 14.24 18 0 59.31 17.77 97"></polygon>
                            <polygon id="矩形" fill="#5DB7FA" points="13 17.58 0 58.9 74 63"></polygon>
                            <polygon id="矩形" fill="#389BE5" points="73 106 74 63 17.77 97"></polygon>
                        </g>
                    </g>
                    <g id="Clipped" stroke="none" stroke-width="1" fill-rule="evenodd" transform="translate(1317.875265, 648.804221)">
                        <g id="编组">
                            <polygon id="矩形" fill="#389BE5" filter="url(#filter-14)" points="29 33.13 8.64 20 1 22.83 8.64 38.83 14.79 40"></polygon>
                            <polygon id="矩形" fill="#97D3FF" filter="url(#filter-15)" points="9 20.87 5.99 0 0 13.48 1.57 23"></polygon>
                            <polygon id="矩形" fill="#77BEF2" filter="url(#filter-16)" points="16.96 4 7 20.27 28.42 33 34 17.84 27.04 4"></polygon>
                            <polygon id="矩形" fill="#4BAAF2" filter="url(#filter-17)" points="28.57 33 34 17 7 19.8"></polygon>
                            <polygon id="矩形" fill="#B6E0FF" filter="url(#filter-18)" points="6 0 7.94 20 27 3.74"></polygon>
                        </g>
                    </g>
                    <path d="M1597.90578,906.20041 C1597.90578,836.90041 1460.46578,780.70041 1290.98578,780.70041 C1121.50578,780.70041 984.065782,836.90041 984.065782,906.20041 C984.065782,975.50041 1121.50578,1031.70041 1290.98578,1031.70041 C1460.46578,1031.70041 1597.90578,975.50041 1597.90578,906.20041 Z" id="椭圆形" stroke="#C3E5FF" stroke-width="12" opacity="0.401122" stroke-dasharray="0" transform="translate(1290.985782, 906.200410) rotate(30.000000) translate(-1290.985782, -906.200410) "></path>
                    <path d="M1011.77486,779.064839 C1012.20486,779.874839 1012.64486,780.684839 1013.11486,781.494839 C1013.23486,781.694839 1013.34486,781.884839 1013.46486,782.084839 C1013.49486,782.134839 1013.52486,782.184839 1013.55486,782.234839 C1013.56486,782.264839 1013.58486,782.284839 1013.59486,782.314839 C1013.61486,782.334839 1013.62486,782.364839 1013.64486,782.384839 C1013.70486,782.484839 1013.76486,782.584839 1013.82486,782.684839 C1014.05486,783.074839 1014.30486,783.474839 1014.54486,783.864839 C1016.45486,786.894839 1018.63486,789.884839 1021.07486,792.814839 C1021.36486,793.174839 1021.66486,793.524839 1021.96486,793.874839 C1022.11486,794.054839 1026.48486,799.124839 1026.48486,799.124839" id="椭圆形" stroke="url(#linearGradient-19)" stroke-width="12" stroke-dasharray="0" transform="translate(1019.129858, 789.094839) rotate(30.000000) translate(-1019.129858, -789.094839) "></path>
                    <g id="编组" stroke="none" stroke-width="1" fill-rule="evenodd" transform="translate(1537.435265, 996.054221)">
                        <polygon id="矩形" fill="#FFFFFF" points="18.23 0 3 8.46 11.88 20.17 40.54 29 52 15.27 34.5 1.3"></polygon>
                        <polygon id="矩形" fill="#CAC8C3" points="40 28.31 42.74 43 47.93 36.5 51 15"></polygon>
                        <polygon id="矩形" fill="#BDB9B2" points="11.42 17 0 34.42 19 44"></polygon>
                        <polygon id="矩形" fill="#D1CFCD" points="3.01 8 0 34 12 17.72"></polygon>
                        <polygon id="矩形" fill="#A4A29F" points="18.5 44 40 29.16 10 17"></polygon>
                        <polygon id="矩形" fill="#ACA8A3" points="40 29 18.5 44 30.16 46"></polygon>
                        <polygon id="矩形" fill="#95938F" points="40.25 28 30 46 43 43.74"></polygon>
                    </g>
                    <g id="Clipped" stroke="none" stroke-width="1" fill-rule="evenodd" transform="translate(1185.935265, 800.197833)">
                        <g id="编组">
                            <g transform="translate(159.000000, 6.000000)" id="矩形">
                                <polygon fill="#7AC5FC" points="19.26 2.4 0 37.4 12.9 49.79 63.9038462 13.1785714 33.3 0"></polygon>
                                <polygon fill="#5DB7FA" points="0 54.5728571 15.21 82.0028571 21.92 54.5728571 1.87 35.1428571"></polygon>
                                <polygon fill="#3FA6F3" points="76.0038462 44.5685714 63.9038462 13.1785714 13.1538462 47.7185714 39.0938462 73.2185714 60.9138462 73.2185714"></polygon>
                                <polygon fill="#5DB7FA" points="76.0038462 45.1185714 63.9038462 13.1785714 13.1538462 48.3185714"></polygon>
                                <polygon fill="#389BE5" points="16.0769231 49.7857143 16.0769231 81.9957143 60.9138462 73.2185714"></polygon>
                            </g>
                            <g transform="translate(48.000000, 0.000000)" id="矩形">
                                <polygon fill="#61BAFB" points="5.84946237 26.94 32.9594624 67.16 135.999462 44.45 60.3694624 0"></polygon>
                                <polygon fill="#389BE5" points="93.5913978 53.2 135.551435 101.96333 134.541398 43.8"></polygon>
                                <polygon fill="#389BE5" points="36.56 67.1 27.76 58.4 0 101.525236 31.74 129.94"></polygon>
                                <polygon fill="#4EAAEE" points="5.84946237 26.94 0 102.2 30.71 62.13"></polygon>
                                <polygon fill="#4EAAEE" points="70.9296774 141.71 99.1796774 133.42 95.0596774 52.56 84.6496774 52.56 30.7096774 61.12"></polygon>
                                <polygon fill="#3195DE" points="35.0596774 69.125 30.7096774 129.545 71.9996774 141.715"></polygon>
                                <polygon fill="#3195DE" points="93.8913218 52.56 98.491798 134.057312 135.551435 101.318178"></polygon>
                            </g>
                            <g transform="translate(0.000000, 47.000000)" id="矩形">
                                <polygon fill="#61BAFB" points="0.575865293 17.97 44.37 28.03 56.05 11.24 32.57 0"></polygon>
                                <path d="M0,41.485 C1.52759879,40.3022184 3.6471957,38.3419494 6.35879072,35.604193 C9.07038573,32.8664366 13.5886268,28.3733722 19.913514,22.125 L0.575865293,17.97 L0,41.485 Z" fill="#389BE5"></path>
                                <polygon fill="#389BE5" points="59.005 40.93 46.685 23.6 42.775 27.19 44.915 53.1"></polygon>
                                <polygon fill="#41A0E7" points="59.005 41.3 55.905 11.8 45.725 25.42"></polygon>
                                <polygon fill="#4EAAEE" points="22.23 22.125 17.7 22.125 23.6 58.7248775 44.1170094 26.55"></polygon>
                                <polygon fill="#3195DE" points="45.725 52.535 43.3859387 26.55 23.1434757 58.7248775"></polygon>
                                <polygon fill="#3195DE" points="23.6 59.005 22.73 37.405 18.88 22.125 0 41.485"></polygon>
                            </g>
                        </g>
                    </g>
                    <g id="Clipped" stroke="none" stroke-width="1" fill-rule="evenodd" transform="translate(1397.435265, 472.054221)">
                        <g id="矩形备份-7">
                            <path d="M393.6,204.65 C380.61,248.05 355.29,275.62 341.15,286.52 C320.3,302.59 296.5,313.11 286.41,315.03 C248.28,322.3 204.92,317.41 171.55,296.61 C158.27,288.28 141.85,277.84 122.76,251.76 C120.62,248.87 112.95,239.17 104.34,219.35 C102.01,213.96 98.87,202.38 98.87,193.62 C98.87,184.86 98.87,177.01 98.87,177.01 L98.87,51.85 C98.87,51.85 100.1,25.69 92.77,13.1 C85.39,0.51 64.21,0 64.21,0 L0,0 L25.99,43.56 L25.99,156.36 C25.99,156.36 24.09,177.28 25.99,198.9 C27.89,220.52 32.61,231.75 37.18,244.53 C46.55,270.92 58.02,287.58 64.45,296.61 C84.78,325 112.19,346.7 132.09,358.47 C152.51,370.51 179.98,384.67 217.91,389.75 C231.86,391.63 254.71,391.39 286.41,389.01 C290.36,388.73 317.83,382.05 345.96,368.36 C363.28,359.95 381.75,346.54 392.6,337.28 C415.55,317.65 447.96,271.24 466.05,216.03 C469.43,205.67 474.29,194.13 475.86,182.05 C476.14,179.63 475.86,171.26 475.86,171.26 L400.462426,171.26 C400.462426,171.26 399.98,178.18 399.13,182.17 C397.84,188.15 395.98,196.71 393.6,204.65 Z" fill="url(#linearGradient-20)"></path>
                            <path d="M123.34,219.35 C121.01,213.96 117.87,202.38 117.87,193.62 C117.87,184.86 117.87,177.01 117.87,177.01 L117.87,51.85 C117.87,51.85 119.1,25.69 111.77,13.1 C104.39,0.51 83.21,0 83.21,0 L19,0 L44.99,43.56 L44.99,156.36 C44.99,156.36 43.09,177.28 44.99,198.9 C46.89,220.52 51.61,231.75 56.18,244.53 C65.55,270.92 77.02,287.58 83.45,296.61 C103.78,325 131.19,346.7 151.09,358.47 C171.51,370.51 198.98,385.67 236.91,390.75 C244.566504,391.781844 254.904043,392.17506 267.91435,391.92634 C273.943923,391.811072 288.567224,391.013527 302.646848,389.135208 C313.53924,387.682087 324.191943,385.373277 329.749612,383.54628 C340.003874,380.175352 352.416319,375.464621 364.96,369.36 C382.28,360.95 401.75,347.54 412.6,338.28 C426.006714,326.812732 442.959191,307.230416 457.514265,281.921278 C467.874988,263.905503 476.527645,242.987945 484.05,220.03 C486.07889,213.811273 490.561288,195.989742 492.449666,185.083804 C493.707204,177.82115 493.86,171.26 493.86,171.26 L417.71607,171.26 C417.71607,171.26 417.98,178.18 417.13,182.17 C415.84,188.15 413.98,196.71 411.6,204.65 C398.61,248.05 374.29,275.62 360.15,286.52 C339.3,302.59 315.5,313.11 305.41,315.03 C267.28,322.3 223.92,317.41 190.55,296.61 C177.27,288.28 160.85,277.84 141.76,251.76 C139.62,248.87 131.95,239.17 123.34,219.35 Z" fill="url(#linearGradient-21)"></path>
                        </g>
                    </g>
                    <path d="M1514.07714,666.738548 C1486.17714,657.398548 1454.72323,648.398001 1422.57332,641.467749" id="椭圆形" stroke="#C7E6FE" stroke-width="14" stroke-dasharray="0" transform="translate(1468.325230, 654.103148) rotate(-20.000000) translate(-1468.325230, -654.103148) "></path>
                    <g id="Clipped" stroke="none" stroke-width="1" fill-rule="evenodd" transform="translate(1751.935265, 402.554221)">
                        <g id="编组">
                            <path d="M110.780032,75.3599682 C97.2300318,80.2299682 85.3600318,84.0499682 75.1900318,86.8299682 C39.7300318,96.5099682 -50.4999682,97.2599682 -50.4999682,97.2599682 L-50.4999682,173.500032 C-50.4999682,173.500032 43.1100318,173.619968 80.4300318,163.429968 C91.5400318,160.389968 103.880032,156.719968 117.460032,152.409968 C134.260032,147.069968 173.500032,133.449968 173.500032,133.449968 L173.500032,50.4999682 C173.500032,50.4999682 128.720032,68.8999682 110.780032,75.3599682 Z" id="矩形备份-20" fill="url(#linearGradient-22)" transform="translate(61.500032, 112.000000) rotate(-90.000000) translate(-61.500032, -112.000000) "></path>
                            <path d="M129.597048,80.859044 C118.497048,84.739044 107.995534,86.5944665 99.3255335,88.9544665 C63.8555335,98.6444665 -26.3644665,99.4044665 -26.3644665,99.4044665 L-26.3644665,175.635534 C-26.3644665,175.635534 9.93813168,175.681076 46.3381144,173.255626 C60.6026655,172.305132 87.3003204,169.606017 106.93641,166.151903 C112.356238,165.198521 122.603618,163.362386 129.597048,161.529577 C136.440154,159.736164 140.073499,157.940085 141.505534,157.504466 C150.595534,154.724466 189.365534,140.564466 189.365534,140.564466 C189.365534,140.564466 189.155534,56.6344665 189.155534,56.6344665 C189.155534,56.6344665 170.515534,63.8644665 167.965534,64.8744665 C153.635534,70.6144665 141.247048,76.789044 129.597048,80.859044 Z" id="矩形备份-18" fill="url(#linearGradient-23)" transform="translate(81.500534, 116.135000) rotate(-90.000000) translate(-81.500534, -116.135000) "></path>
                        </g>
                    </g>
                    <g id="Clipped" stroke="none" stroke-width="1" fill-rule="evenodd" transform="translate(654.364696, 1069.662438)">
                        <g id="编组">
                            <g transform="translate(0.000000, 146.387639)">
                                <path d="M17.763537,91.6091695 C26.113537,88.6091695 33.423537,86.2491695 39.693537,84.5291695 C61.533537,78.5591695 117.123537,78.0991695 117.123537,78.0991695 L117.123537,31.0591204 C117.123537,31.0591204 59.453537,30.9791695 36.463537,37.2791695 C29.613537,39.1491695 22.013537,41.4091695 13.653537,44.0791695 C3.30353696,47.3691695 -20.876463,55.7691695 -20.876463,55.7691695 L-20.876463,106.949169 C-20.876463,106.949169 6.71353696,95.5991695 17.763537,91.6091695 Z" id="矩形备份-20" fill="url(#linearGradient-24)" transform="translate(48.123537, 69.004145) rotate(-90.000000) translate(-48.123537, -69.004145) "></path>
                                <path d="M-1.54813252,85.0133694 C5.29186748,82.6233694 11.3818675,80.6933694 16.7218675,79.2333694 C38.5718675,73.2533694 94.1618675,72.7933694 94.1618675,72.7933694 L94.1618675,26.7533694 C94.1618675,26.7533694 36.4818675,25.6733694 13.5018675,31.9633694 C8.91186748,33.2233694 3.98186748,34.6633694 -1.29813252,36.2633694 C-13.6181325,40.0333694 -31.3081325,96.3933694 -25.5681325,94.0933694 C-16.7381325,90.5533694 -8.71813252,87.5233694 -1.54813252,85.0133694 Z" id="矩形备份-18" fill="url(#linearGradient-25)" transform="translate(33.739534, 60.422334) rotate(-90.000000) translate(-33.739534, -60.422334) "></path>
                            </g>
                            <g transform="translate(0.993456, 0.000000)" id="矩形备份-7">
                                <path d="M228.193427,86.2117838 C229.513427,87.9917838 234.253427,93.9717838 239.573427,106.191784 C241.023427,109.511784 242.963427,116.651784 242.963427,122.051784 C242.963427,127.451784 242.963427,132.291784 242.963427,132.291784 L242.963427,209.431784 C242.963427,209.431784 242.193427,225.561784 246.723427,233.321784 C251.293427,241.081784 264.383427,241.391784 264.383427,241.391784 L304.073427,241.391784 L288.013427,214.541784 L288.013427,145.011784 C288.013427,145.011784 289.193427,132.121784 288.013427,118.791784 C286.833427,105.471784 283.923427,98.5517838 281.093427,90.6717838 C275.303427,74.4017838 268.203427,64.1317838 264.233427,58.5717838 C251.673427,41.0717838 234.723427,27.7017838 222.423427,20.4417838 C209.803427,13.0217838 193.823427,5.2917838 170.363427,2.1617838 C161.743427,1.0017838 146.623427,1.1517838 127.023427,2.6217838 C124.583427,2.7917838 107.603427,5.9117838 90.2134274,14.3417838 C79.5034274,19.5317838 68.0834274,27.7917838 61.3734274,33.5017838 C47.1934274,45.6017838 27.1534274,74.2117838 15.9734274,108.241784 C13.8834274,114.621784 10.8834274,121.731784 9.9134274,129.181784 C9.7334274,130.671784 8.9134274,136.156088 8.9134274,136.156088 L56.9634274,136.156088 C56.9634274,136.156088 57.6560202,131.017226 58.6974535,125.859049 C59.5545046,121.61411 60.7098111,117.459324 61.3734274,115.251784 C69.4134274,88.5017838 84.4434274,71.5117838 93.1834274,64.7917838 C106.073427,54.8817838 120.783427,48.4017838 127.023427,47.2217838 C150.593427,42.7317838 177.403427,45.7517838 198.033427,58.5717838 C206.233427,63.7017838 216.393427,70.1417838 228.193427,86.2117838 Z" fill="url(#linearGradient-26)"></path>
                                <path d="M292.327973,241.391784 L276.267973,214.541784 L276.267973,145.011784 C276.267973,145.011784 277.447973,132.121784 276.267973,118.791784 C275.087973,105.471784 272.177973,98.5517838 269.347973,90.6717838 C263.557973,74.4017838 256.457973,64.1317838 252.487973,58.5717838 C239.927973,41.0717838 223.977973,26.7017838 211.677973,19.4417838 C199.057973,12.0217838 186.287973,1.39226783 157.617973,0.161783796 C152.536394,-0.0563118479 131.453058,-0.543176365 112.083769,2.68009462 C98.2035679,4.98991863 85.7275336,10.8226293 78.4679729,14.3417838 C67.7579729,19.5317838 56.3379729,28.7917838 49.6279729,34.5017838 C35.4479729,46.6017838 15.4079729,74.2117838 4.22797285,108.241784 C3.48815271,110.500182 2.03924325,120.412046 0.498444817,127.794111 C-0.377895066,131.992713 0.167972852,136.302026 0.167972852,136.302026 L45.2179729,136.302026 C45.2179729,136.302026 45.6879729,131.571784 46.2179729,129.111784 C47.0079729,125.421784 48.1579729,120.141784 49.6279729,115.251784 C57.6679729,88.5017838 72.6979729,71.5117838 81.4379729,64.7917838 C87.9234901,59.8056336 94.8697462,55.6877988 100.96608,52.6764658 C106.986242,49.7027584 112.010741,47.9408795 115.111127,47.3545886 C119.31482,46.5538003 123.788419,45.8590887 128.144791,45.5490548 C148.214486,44.1207366 169.337319,48.0382219 186.287973,58.5717838 C194.487973,63.7017838 204.647973,70.1417838 216.447973,86.2117838 C217.767973,87.9917838 222.507973,93.9717838 227.827973,106.191784 C229.277973,109.511784 231.217973,116.651784 231.217973,122.051784 C231.217973,127.451784 231.217973,132.291784 231.217973,132.291784 L231.217973,209.431784 C231.217973,209.431784 230.447973,225.561784 234.977973,233.321784 C239.547973,241.081784 252.637973,241.391784 252.637973,241.391784 L292.327973,241.391784 Z" fill="url(#linearGradient-27)"></path>
                            </g>
                        </g>
                    </g>
                    <path d="M887.718421,1185.61455 C896.39528,1190.59616 902.714343,1193.80051 912.354448,1198.46342 C921.57487,1202.92334 930.211747,1207.73693 940.25933,1211.88328 C941.093918,1212.22769 942.553379,1212.75889 944.637712,1213.47688" id="1" stroke="#C8E6FE" stroke-width="14" stroke-dasharray="0" transform="translate(916.178067, 1199.545717) rotate(-20.000000) translate(-916.178067, -1199.545717) "></path>
                </g>
            </g>
        </g>
    </g>
</svg>