<svg xmlns="http://www.w3.org/2000/svg" xmlns:xlink="http://www.w3.org/1999/xlink" width="1440" height="900" viewBox="0 0 1440 900" fill="none"><g opacity="1"  transform="translate(0 0)  rotate(0)"><mask id="mask-0" fill="white"><path d="M0 900L1440 900L1440 0L0 0L0 900Z"  ></path></mask><g mask="url(#mask-0)"><path id="矩形 1" fill-rule="evenodd" style="fill:#DEEFFE" opacity="1" d="M0 900L1440 900L1440 0L0 0L0 900Z"></path></g><g mask="url(#mask-0)"><path id="椭圆形" style="fill:url(#linear_0); opacity:100" d="M1987.77,-41.8678c-2.73,-7.507 -5.8,-14.6304 -9.35,-21.7376c-55.92,-111.9246 -211.19,-173.9806 -423.74,-183.6536c-213.01,-9.694 -480.27,34.11 -756.365,134.599c-276.089,100.4884 -508.981,238.727 -665.919,383.07c-156.6061,144.036 -235.657,291.375 -206.5521,413.061c1.8481,7.727 4.0766,15.156 6.8089,22.663c2.7336,7.51 5.8035,14.637 9.3566,21.747c55.92892,111.925 211.1936,173.977 423.7436,183.648c213.001,9.692 480.261,-34.114 756.347,-134.6c276.09,-100.488 508.98,-238.723 665.92,-383.063c156.61,-144.033 235.66,-291.37 206.56,-413.0599c-1.85,-7.7308 -4.08,-15.1635 -6.81,-22.6739zM2000.93,-46.6561c2.87,7.89 5.33,16.0897 7.27,24.2061c30.34,126.871 -52.35,280.986 -210.7,426.621c-158.02,145.328 -393.29,284.977 -670.61,385.914c-277.319,100.934 -547.313,145.188 -761.774,135.43c-214.912,-9.779 -377.3199,-74.686 -435.6301,-191.376c-3.7305,-7.465 -7.1171,-15.327 -9.9888,-23.217c-2.8704,-7.886 -5.3287,-16.082 -7.2691,-24.195c-30.344,-126.867 52.3436,-280.984 210.69,-426.622c158.014,-145.331 393.289,-284.9842 670.608,-385.92c277.324,-100.938 547.324,-145.19 761.784,-135.43c214.92,9.781 377.33,74.692 435.63,191.3821c3.73,7.462 7.12,15.3205 9.99,23.2068z"></path></g><g mask="url(#mask-0)"><g opacity="0.8"  transform="translate(1192.499755859375 105.662109375)  rotate(0)"><g opacity="1"  transform="translate(54.70068359375 18.3330078125)  rotate(0)"><g opacity="1"  transform="translate(0 0)  rotate(0)"><path id="矩形" fill-rule="evenodd" style="fill:#A79C89" opacity="1" d="M29.792 18.9321L29.792 33.5821L40.412 25.3721L45.302 2.85205L29.792 18.9321Z"></path><path id="矩形" fill-rule="evenodd" style="fill:#BDB9B2" opacity="1" d="M29.79 20.2621L45.3 2.85205L0 14.9021L29.79 20.2621Z"></path><path id="矩形" fill-rule="evenodd" style="fill:#F6F6F5" opacity="1" d="M26.42 9L45.3 2.85L23.58 0L0 14.9L26.42 9Z"></path><path id="矩形" fill-rule="evenodd" style="fill:#ACA79E" opacity="1" d="M22.65 35.8333L30.92 33.5833L30.92 19.1333L0 14.9033L22.65 35.8333Z"></path></g></g><g opacity="1"  transform="translate(0 0)  rotate(0)"><path id="矩形" fill-rule="evenodd" style="fill:#FFFFFF" opacity="1" d="M33.5305 39.48L74.3605 36.52L62.6905 18.86L41.9105 0L33.5305 39.48Z"></path><path id="矩形" fill-rule="evenodd" style="fill:#A79C89" opacity="1" d="M34.5007 69.2L64.6207 62.9L73.1907 36.52L34.5007 69.2Z"></path><path id="矩形" fill-rule="evenodd" style="fill:#BDB9B2" opacity="1" d="M35.86 70.0025L35.67 36.8525L0 39.6725L35.86 70.0025Z"></path><path id="矩形" fill-rule="evenodd" style="fill:#F6F6F5" opacity="1" d="M34.5 37.99L42.61 0L0 39.67L34.5 37.99Z"></path><path id="矩形" fill-rule="evenodd" style="fill:#ACA79E" opacity="1" d="M34.6973 68.8599L55.7273 53.3899L74.3573 35.3799L34.6973 38.3399L34.6973 68.8599Z"></path></g></g></g><g mask="url(#mask-0)"><g opacity="1"  transform="translate(147.50030517578125 711.6142578125)  rotate(0)"><g opacity="1"  transform="translate(3.5213241577148438 19.97021484375)  rotate(0)"><path id="矩形" fill-rule="evenodd" style="fill:#FFFFFF" opacity="1" d="M4.74903 1.65211L42.4073 17.0061L50.0565 10.9762L40.1897 -6.97314L4.74903 1.65211Z"></path><path id="矩形" fill-rule="evenodd" style="fill:#BDB9B2" opacity="1" d="M41.7194 16.4301L42.8565 41.9402L57.9162 12.1729L49.3072 10.34L41.7194 16.4301Z"></path><path id="矩形" fill-rule="evenodd" style="fill:#BDB9B2" opacity="1" d="M25.4931 36.3027L42.2505 16.6238L5.09734 1.31278L7.6878 39.4422L25.4931 36.3027Z"></path><path id="矩形" fill-rule="evenodd" style="fill:#A4A29F" opacity="1" d="M42.7516 42.512L41.6406 17.3223L7.10566 40.2982L42.7516 42.512Z"></path><path id="矩形" fill-rule="evenodd" style="fill:#A4A29F" opacity="1" d="M50.2261 11.1477L58.9828 12.9545L55.0218 3.96582L40.2168 -7.09131L50.2261 11.1477Z"></path></g><g opacity="1"  transform="translate(96.6029052734375 -0.09716796875)  rotate(0)"><g opacity="1"  transform="translate(0 0)  rotate(0)"><path id="矩形" fill-rule="evenodd" style="fill:#FFFFFF" opacity="1" d="M21.6589 16.2965L40.6332 17.368L35.8962 -6.32948L0.519208 2.94458L21.6589 16.2965Z"></path><path id="矩形" fill-rule="evenodd" style="fill:#BDB9B2" opacity="1" d="M21.026 15.8585L19.5219 35.1427L31.0692 31.9287L40.6358 17.3663L21.026 15.8585Z"></path><path id="矩形" fill-rule="evenodd" style="fill:#D4D4D3" opacity="1" d="M22.6033 16.1242L0.519958 2.94873L5.1581 29.2529L8.19016 32.8003L22.6033 16.1242Z"></path><path id="矩形" fill-rule="evenodd" style="fill:#A4A29F" opacity="1" d="M19.5237 35.1438L22.4582 15.3333L8.16654 32.8715L19.5237 35.1438Z"></path></g></g><g opacity="1"  transform="translate(32.86726379394531 -5.79541015625)  rotate(0)"><path id="矩形" fill-rule="evenodd" style="fill:#FFFFFF" opacity="1" d="M23.8757 -4.2102L6.12988 16.831L23.1902 34.6898L56.2598 42.8513L75.4022 18.7308L54.3153 -3.70836L23.8757 -4.2102Z"></path><path id="矩形" fill-rule="evenodd" style="fill:#CAC8C3" opacity="1" d="M56.1455 42.2485L79.0931 55.7183L75.4129 18.837L56.1455 42.2485Z"></path><path id="矩形" fill-rule="evenodd" style="fill:#BDB9B2" opacity="1" d="M20.5574 31.0114L7.89232 44.7595L29.9199 80.0202L20.5574 31.0114Z"></path><path id="矩形" fill-rule="evenodd" style="fill:#D1CFCD" opacity="1" d="M7.03923 16.5084L9.18152 44.8977L21.3322 31.3418L7.03923 16.5084Z"></path><path id="矩形" fill-rule="evenodd" style="fill:#A4A29F" opacity="1" d="M28.4788 79.019L56.7542 42.1388L19.9231 30.4976L28.4788 79.019Z"></path><path id="矩形" fill-rule="evenodd" style="fill:#ACA8A3" opacity="1" d="M56.1439 42.2486L28.4791 79.0212L56.2968 75.3651L56.1439 42.2486Z"></path><path id="矩形" fill-rule="evenodd" style="fill:#95938F" opacity="1" d="M56.0407 41.6412L55.8188 75.4534L79.2948 55.1789L56.0407 41.6412Z"></path></g></g></g></g><defs><linearGradient id="linear_0" x1="50%" y1="0%" x2="51%" y2="100%" gradientUnits="objectBoundingBox"><stop offset="0" stop-color="#E6F3FF" stop-opacity="1" /><stop offset="1" stop-color="#D6ECFF" stop-opacity="1" /></linearGradient></defs></svg>