<svg xmlns="http://www.w3.org/2000/svg" xmlns:xlink="http://www.w3.org/1999/xlink" width="1440" height="840" viewBox="0 0 1440 840" fill="none"><defs><path id="path_0"
        transform="translate(0 0) rotate(0 720 420)"
        d="M0,549.44L0,840L1440,840L1440,0L0,0L0,549.44Z" /><linearGradient id="linear_0" x1="1.6755194239674656%" y1="52.21876326902807%" x2="101.65651100555888%" y2="41.326553374282994%" gradientUnits="objectBoundingBox"><stop offset="0" stop-color="#F6F9FD" stop-opacity="1" /><stop offset="1" stop-color="#DBEEFF" stop-opacity="1" /></linearGradient><filter id="filter_7" x="0" y="0" width="38" height="24" filterUnits="userSpaceOnUse" color-interpolation-filters="sRGB"><feFlood flood-opacity="0" result="BackgroundImageFix"/>
          <feBlend mode="normal" in="SourceGraphic" in2="BackgroundImageFix" result="shape"/>
          <feGaussianBlur stdDeviation="8" result="effect1_foregroundBlur" /></filter><filter id="filter_9" x="0" y="0" width="59" height="57" filterUnits="userSpaceOnUse" color-interpolation-filters="sRGB"><feFlood flood-opacity="0" result="BackgroundImageFix"/>
          <feBlend mode="normal" in="SourceGraphic" in2="BackgroundImageFix" result="shape"/>
          <feGaussianBlur stdDeviation="8" result="effect1_foregroundBlur" /></filter><filter id="filter_11" x="0" y="0" width="28" height="43" filterUnits="userSpaceOnUse" color-interpolation-filters="sRGB"><feFlood flood-opacity="0" result="BackgroundImageFix"/>
          <feBlend mode="normal" in="SourceGraphic" in2="BackgroundImageFix" result="shape"/>
          <feGaussianBlur stdDeviation="8" result="effect1_foregroundBlur" /></filter><filter id="filter_13" x="0" y="0" width="28" height="31" filterUnits="userSpaceOnUse" color-interpolation-filters="sRGB"><feFlood flood-opacity="0" result="BackgroundImageFix"/>
          <feBlend mode="normal" in="SourceGraphic" in2="BackgroundImageFix" result="shape"/>
          <feGaussianBlur stdDeviation="8" result="effect1_foregroundBlur" /></filter><filter id="filter_15" x="0" y="0" width="35" height="64" filterUnits="userSpaceOnUse" color-interpolation-filters="sRGB"><feFlood flood-opacity="0" result="BackgroundImageFix"/>
          <feBlend mode="normal" in="SourceGraphic" in2="BackgroundImageFix" result="shape"/>
          <feGaussianBlur stdDeviation="8" result="effect1_foregroundBlur" /></filter><linearGradient id="linear_1" x1="50%" y1="0%" x2="51%" y2="100%" gradientUnits="objectBoundingBox"><stop offset="0" stop-color="#E9F4FE" stop-opacity="1" /><stop offset="1" stop-color="#C2E2FF" stop-opacity="1" /></linearGradient><linearGradient id="linear_2" x1="50%" y1="0%" x2="51%" y2="100%" gradientUnits="objectBoundingBox"><stop offset="0" stop-color="#C3E3FF" stop-opacity="1" /><stop offset="1" stop-color="#C3E5FF" stop-opacity="1" /></linearGradient><linearGradient id="linear_3" x1="0%" y1="0%" x2="100%" y2="100%" gradientUnits="objectBoundingBox"><stop offset="0" stop-color="#DDEFFE" stop-opacity="1" /><stop offset="1" stop-color="#DDEFFE" stop-opacity="1" /></linearGradient><filter id="filter_20" x="448.34" y="308.01" width="14.707287020907074" height="20.059095494247003" filterUnits="userSpaceOnUse" color-interpolation-filters="sRGB"></filter><filter id="filter_101" x="0" y="0" width="48" height="30" filterUnits="userSpaceOnUse" color-interpolation-filters="sRGB"><feFlood flood-opacity="0" result="BackgroundImageFix"/>
          <feBlend mode="normal" in="SourceGraphic" in2="BackgroundImageFix" result="shape"/>
          <feGaussianBlur stdDeviation="8" result="effect1_foregroundBlur" /></filter><filter id="filter_103" x="0" y="0" width="25" height="74" filterUnits="userSpaceOnUse" color-interpolation-filters="sRGB"><feFlood flood-opacity="0" result="BackgroundImageFix"/>
          <feBlend mode="normal" in="SourceGraphic" in2="BackgroundImageFix" result="shape"/>
          <feGaussianBlur stdDeviation="8" result="effect1_foregroundBlur" /></filter><filter id="filter_105" x="0" y="0" width="72" height="56" filterUnits="userSpaceOnUse" color-interpolation-filters="sRGB"><feFlood flood-opacity="0" result="BackgroundImageFix"/>
          <feBlend mode="normal" in="SourceGraphic" in2="BackgroundImageFix" result="shape"/>
          <feGaussianBlur stdDeviation="8" result="effect1_foregroundBlur" /></filter><filter id="filter_107" x="0" y="0" width="42" height="76" filterUnits="userSpaceOnUse" color-interpolation-filters="sRGB"><feFlood flood-opacity="0" result="BackgroundImageFix"/>
          <feBlend mode="normal" in="SourceGraphic" in2="BackgroundImageFix" result="shape"/>
          <feGaussianBlur stdDeviation="8" result="effect1_foregroundBlur" /></filter><filter id="filter_149" x="0" y="0" width="30" height="60" filterUnits="userSpaceOnUse" color-interpolation-filters="sRGB"><feFlood flood-opacity="0" result="BackgroundImageFix"/>
          <feBlend mode="normal" in="SourceGraphic" in2="BackgroundImageFix" result="shape"/>
          <feGaussianBlur stdDeviation="10" result="effect1_foregroundBlur" /></filter><filter id="filter_151" x="0" y="0" width="9" height="23" filterUnits="userSpaceOnUse" color-interpolation-filters="sRGB"><feFlood flood-opacity="0" result="BackgroundImageFix"/>
          <feBlend mode="normal" in="SourceGraphic" in2="BackgroundImageFix" result="shape"/>
          <feGaussianBlur stdDeviation="10" result="effect1_foregroundBlur" /></filter><filter id="filter_153" x="0" y="0" width="41" height="37" filterUnits="userSpaceOnUse" color-interpolation-filters="sRGB"><feFlood flood-opacity="0" result="BackgroundImageFix"/>
          <feBlend mode="normal" in="SourceGraphic" in2="BackgroundImageFix" result="shape"/>
          <feGaussianBlur stdDeviation="10" result="effect1_foregroundBlur" /></filter><filter id="filter_155" x="0" y="0" width="41" height="50" filterUnits="userSpaceOnUse" color-interpolation-filters="sRGB"><feFlood flood-opacity="0" result="BackgroundImageFix"/>
          <feBlend mode="normal" in="SourceGraphic" in2="BackgroundImageFix" result="shape"/>
          <feGaussianBlur stdDeviation="10" result="effect1_foregroundBlur" /></filter><filter id="filter_157" x="0" y="0" width="33" height="20" filterUnits="userSpaceOnUse" color-interpolation-filters="sRGB"><feFlood flood-opacity="0" result="BackgroundImageFix"/>
          <feBlend mode="normal" in="SourceGraphic" in2="BackgroundImageFix" result="shape"/>
          <feGaussianBlur stdDeviation="10" result="effect1_foregroundBlur" /></filter><filter id="filter_158" x="420.63073613458636" y="309.6453700905019" width="613.8367276622193" height="251.00000000000006" filterUnits="userSpaceOnUse" color-interpolation-filters="sRGB"></filter><linearGradient id="linear_4" x1="5.797581456175182%" y1="5.189465214861322%" x2="100.00000000000009%" y2="5.189465214861322%" gradientUnits="objectBoundingBox"><stop offset="0" stop-color="#2D8CE3" stop-opacity="1" /><stop offset="1" stop-color="#4FB0F1" stop-opacity="1" /></linearGradient><linearGradient id="linear_5" x1="5.797581456175182%" y1="5.189465214861322%" x2="100.00000000000009%" y2="5.189465214861322%" gradientUnits="objectBoundingBox"><stop offset="0" stop-color="#3B9BF2" stop-opacity="1" /><stop offset="1" stop-color="#6CC3FD" stop-opacity="1" /></linearGradient><linearGradient id="linear_6" x1="50%" y1="0%" x2="51%" y2="100%" gradientUnits="objectBoundingBox"><stop offset="0" stop-color="#C3E3FF" stop-opacity="1" /><stop offset="1" stop-color="#C3E5FF" stop-opacity="1" /></linearGradient><linearGradient id="linear_7" x1="94.20241854382482%" y1="94.81053478513869%" x2="-8.881784197001252e-14%" y2="94.81053478513869%" gradientUnits="objectBoundingBox"><stop offset="0" stop-color="#91C9FD" stop-opacity="1" /><stop offset="1" stop-color="#B0DFFF" stop-opacity="1" /></linearGradient><linearGradient id="linear_8" x1="85.64697132760857%" y1="95.16516651018611%" x2="-8.075142105875779e-14%" y2="95.16516651018611%" gradientUnits="objectBoundingBox"><stop offset="0" stop-color="#BCDFFF" stop-opacity="1" /><stop offset="1" stop-color="#C9E9FF" stop-opacity="1" /></linearGradient><linearGradient id="linear_9" x1="5.797581456175182%" y1="5.189465214861322%" x2="100.00000000000009%" y2="5.189465214861322%" gradientUnits="objectBoundingBox"><stop offset="0" stop-color="#91C9FD" stop-opacity="1" /><stop offset="1" stop-color="#B0DFFF" stop-opacity="1" /></linearGradient><linearGradient id="linear_10" x1="5.797581456175182%" y1="5.189465214861322%" x2="100.00000000000009%" y2="5.189465214861322%" gradientUnits="objectBoundingBox"><stop offset="0" stop-color="#BCDFFF" stop-opacity="1" /><stop offset="1" stop-color="#C9E9FF" stop-opacity="1" /></linearGradient><linearGradient id="linear_11" x1="94.20241854382482%" y1="94.81053478513869%" x2="-8.881784197001252e-14%" y2="94.81053478513869%" gradientUnits="objectBoundingBox"><stop offset="0" stop-color="#2D8CE3" stop-opacity="1" /><stop offset="1" stop-color="#4FB0F1" stop-opacity="1" /></linearGradient><linearGradient id="linear_12" x1="94.20241854382482%" y1="94.81053478513869%" x2="-8.881784197001252e-14%" y2="94.81053478513869%" gradientUnits="objectBoundingBox"><stop offset="0" stop-color="#3B9BF2" stop-opacity="1" /><stop offset="1" stop-color="#6CC3FD" stop-opacity="1" /></linearGradient></defs><g opacity="1" transform="translate(0 0)  rotate(0 720 420)"><mask id="mask-0" fill="white"><use xlink:href="#path_0"></use></mask><g mask="url(#mask-0)"><path id="蒙版" fill-rule="evenodd" fill="url(#linear_0)" transform="translate(0 0)  rotate(0 720 420)" opacity="1" d="M0,549.44L0,840L1440,840L1440,0L0,0L0,549.44Z " /></g><g mask="url(#mask-0)"><g opacity="0.51" transform="translate(100.6 459.03999999999996)  rotate(0 17 20)"><g id="矩形" filter="url(#filter_7)"><path id="矩形" fill-rule="evenodd" style="fill:#BFE4FF" transform="translate(5 0)  rotate(0 14 12)" opacity="1" d="M0,6.79L22.51,24L28,18.03L19.8,1.16L13.82,0L0,6.79Z " /></g><g id="矩形" filter="url(#filter_9)"><path id="矩形" fill-rule="evenodd" style="fill:#5DB7FA" transform="translate(25 17)  rotate(0 4.5 11.5)" opacity="1" d="M0,9.54L2.76,23L9,9.54L8.23,0L0,9.54Z " /></g><g id="矩形" filter="url(#filter_11)"><path id="矩形" fill-rule="evenodd" style="fill:#3FA6F3" transform="translate(0 7)  rotate(0 14 14.5)" opacity="1" d="M16.44,29L28,16.68L5.39,0L0,15.16L6.72,29L16.44,29Z " /></g><g id="矩形" filter="url(#filter_13)"><path id="矩形" fill-rule="evenodd" style="fill:#97D3FF" transform="translate(0 7)  rotate(0 14 8.5)" opacity="1" d="M5.39,0L0,15.45L28,17L5.39,0Z " /></g><g id="矩形" filter="url(#filter_15)"><path id="矩形" fill-rule="evenodd" style="fill:#389BE5" transform="translate(7 24)  rotate(0 10.5 8)" opacity="1" d="M21,16L21,0L0,12.19L21,16Z " /></g></g></g><g mask="url(#mask-0)"><path id="椭圆形" style="stroke:url(#linear_1); stroke-width:16; stroke-opacity:100; stroke-dasharray:0 0" transform="translate(-451.2882845356521 -109.11844275284545)  rotate(-20 1151.860951111178 531)" d="M2303.72,531C2303.72,237.78 1787.92,0 1151.86,0C515.8,0 0,237.78 0,531C0,824.22 515.8,1062 1151.86,1062C1787.92,1062 2303.72,824.22 2303.72,531Z " /></g><g mask="url(#mask-0)"><path id="椭圆形" style="stroke:url(#linear_2); stroke-width:14; stroke-opacity:100; stroke-dasharray:0 0" transform="translate(152.0272345270283 235.5)  rotate(-20 538.0242234489575 220)" d="M1076.05,220C1076.05,98.52 835.12,0 538.02,0C240.93,0 0,98.52 0,220C0,341.48 240.93,440 538.02,440C835.12,440 1076.05,341.48 1076.05,220Z " /></g><g mask="url(#mask-0)"><path id="椭圆形" style="stroke:url(#linear_3); stroke-width:12; stroke-opacity:100; stroke-dasharray:0 0" transform="translate(448.34 308.01)  rotate(30 7.353643510453537 10.029547747123502)" d="M0,0C0.43,0.81 0.87,1.62 1.34,2.43C1.46,2.63 1.57,2.82 1.69,3.02C1.72,3.07 1.75,3.12 1.78,3.17C1.79,3.2 1.81,3.22 1.82,3.25C1.84,3.27 1.85,3.3 1.87,3.32C1.93,3.42 1.99,3.52 2.05,3.62C2.28,4.01 2.53,4.41 2.77,4.8C4.68,7.83 6.86,10.82 9.3,13.75C9.59,14.11 9.89,14.46 10.19,14.81C10.34,14.99 14.71,20.06 14.71,20.06 " /></g><g mask="url(#mask-0)"><g opacity="1" transform="translate(1017 150)  rotate(0 59.0452966885102 36.819097349700485)"><g opacity="1" transform="translate(0 34.24411677517196)  rotate(0 24.788588598519514 19.6970389621145)"><path id="矩形" fill-rule="evenodd" style="fill:#FFFFFF" transform="translate(3.703386502272679 0)  rotate(0 19.26158674893681 9.66325887195217)" opacity="1" d="M0,1.89L30.83,19.33L38.52,15.61L32.61,0L0,1.89Z " /><path id="矩形" fill-rule="evenodd" style="fill:#BDB9B2" transform="translate(31.55917367881329 15.61337121611064)  rotate(0 9.009001759112895 11.890353354059174)" opacity="1" d="M2.98,3.71L0,23.78L18.02,2.62L10.67,0L2.98,3.71Z " /><path id="矩形" fill-rule="evenodd" style="fill:#BDB9B2" transform="translate(5.684341886080801e-14 1.885905318533503)  rotate(0 17.26934208399121 15.393788468780835)" opacity="1" d="M16.43,30.79L34.54,17.44L3.7,0L0,30.79L16.43,30.79Z " /><path id="矩形" fill-rule="evenodd" style="fill:#A4A29F" transform="translate(5.684341886080801e-14 19.32651774390462)  rotate(0 17.269342083991184 10.033780090162194)" opacity="1" d="M31.56,20.07L34.54,0L0,13.35L31.56,20.07Z " /><path id="矩形" fill-rule="evenodd" style="fill:#A4A29F" transform="translate(36.31058886904896 5.684341886080801e-14)  rotate(0 6.633294163995045 9.11584775587353)" opacity="1" d="M5.92,15.61L13.27,18.23L11.2,10.67L0,0L5.92,15.61Z " /></g><g opacity="1" transform="translate(71.78305200282762 21.50827124718637)  rotate(0 23.15377068709636 22.970632906187756)"><path id="矩形" fill-rule="evenodd" style="fill:#FFFFFF" transform="translate(2.842170943040401e-13 0)  rotate(0 23.15377068709622 14.3012450588482)" opacity="1" d="M0,12.68L13.25,28.6L36.94,25.62L46.31,27.6L30.65,0L15.99,3.87L0,12.68Z " /><path id="矩形" fill-rule="evenodd" style="fill:#BDB9B2" transform="translate(30.15172696711284 25.54940914608778)  rotate(0 8.077907203539954 9.68097514924488)" opacity="1" d="M7.58,0L0,19.36L16.16,3.76L7.58,0Z " /><path id="矩形" fill-rule="evenodd" style="fill:#BDB9B2" transform="translate(0 12.6810212951782)  rotate(0 15.075863483556345 16.63012225859869)" opacity="1" d="M30.15,33.26L0,0L11.09,23.04L30.15,33.26Z " /><path id="矩形" fill-rule="evenodd" style="fill:#A4A29F" transform="translate(13.2521133958536 25.54940914608801)  rotate(0 12.238760387399635 9.69592833314378)" opacity="1" d="M16.3,19.39L24.48,0L0,3.05L16.3,19.39Z " /></g><path id="矩形" fill-rule="evenodd" style="fill:#FFFFFF" transform="translate(26.01805478277197 0)  rotate(0 31.51828965161201 21.468934010900814)" opacity="1" d="M0,14.23L47.52,42.94L63.04,36.38L47.52,0L31.68,0L0,14.23Z " /><path id="矩形" fill-rule="evenodd" style="fill:#BDB9B2" transform="translate(70.13386357087461 36.37620789099634)  rotate(0 9.460385257560745 13.811896054501835)" opacity="1" d="M3.41,6.56L0,27.62L18.92,6.56L18.92,0L3.41,6.56Z " /><path id="矩形" fill-rule="evenodd" style="fill:#BDB9B2" transform="translate(26.01805478277197 14.22459909444922)  rotate(0 23.76048181643366 21.98347132778517)" opacity="1" d="M26.83,43.97L47.52,28.71L0,0L12.28,43.97L26.83,43.97Z " /><path id="矩形" fill-rule="evenodd" style="fill:#A4A29F" transform="translate(38.2986782262567 42.93786802180171)  rotate(0 17.620170094691304 10.53106598909917)" opacity="1" d="M31.84,21.06L35.24,0L0,15.25L31.84,21.06Z " /></g></g><g mask="url(#mask-0)"><g opacity="1" transform="translate(573.6682188996085 659.4859096954584)  rotate(-10 66.0760502785509 42.00000000000001)"><g opacity="1" transform="translate(5.684341886080801e-14 20.2784896967496)  rotate(0 27.91861763940352 24.64492611876318)"><path id="矩形" fill-rule="evenodd" style="fill:#FFFFFF" transform="translate(4.390047913037279 0.1113749798823847)  rotate(0 21.5 12)" opacity="1" d="M0,2.34L34.42,24L43,19.39L36.4,0L0,2.34Z " /><path id="矩形" fill-rule="evenodd" style="fill:#BDB9B2" transform="translate(34.92255515780715 18.74499853160819)  rotate(0 10 15)" opacity="1" d="M3.31,4.68L0,30L20,3.3L11.84,0L3.31,4.68Z " /><path id="矩形" fill-rule="evenodd" style="fill:#BDB9B2" transform="translate(0.7219312478130178 2.178035710503195)  rotate(0 19 19)" opacity="1" d="M18.08,38L38,21.53L4.07,0L0,38L18.08,38Z " /><path id="矩形" fill-rule="evenodd" style="fill:#A4A29F" transform="translate(-1.13686837721616e-13 24.28985223752636)  rotate(0 19 12.5)" opacity="1" d="M34.72,25L38,0L0,16.63L34.72,25Z " /><path id="矩形" fill-rule="evenodd" style="fill:#A4A29F" transform="translate(40.83723527880704 0)  rotate(0 7.5 11.5)" opacity="1" d="M6.69,19.7L15,23L12.66,13.46L0,0L6.69,19.7Z " /></g><g opacity="1" transform="translate(95.15210055710185 16.6795630975073)  rotate(0 18.5 19)"><g opacity="1" transform="translate(0 0)  rotate(0 18.5 19)"><path id="矩形" fill-rule="evenodd" style="fill:#FFFFFF" transform="translate(0 0)  rotate(0 18.5 12.079937173709705)" opacity="1" d="M18.5,19.81L37,24.16L36.45,0L0,2.99L18.5,19.81Z " /><path id="矩形" fill-rule="evenodd" style="fill:#BDB9B2" transform="translate(13.12285494423022 19.26844304830467)  rotate(0 11.93857202599986 9.365778475847666)" opacity="1" d="M4.83,0L0,18.73L11.93,17.57L23.88,4.89L4.83,0Z " /><path id="矩形" fill-rule="evenodd" style="fill:#D4D4D3" transform="translate(0 2.994294718097319)  rotate(0 9.72889879002808 15.36555286476674)" opacity="1" d="M19.46,16.81L0,0L0,26.71L2.37,30.73L19.46,16.81Z " /><path id="矩形" fill-rule="evenodd" style="fill:#A4A29F" transform="translate(2.334438322117923 18.99999999999993)  rotate(0 8.56167962896911 9.50000000000002)" opacity="1" d="M10.79,19L17.12,0L0,14.79L10.79,19Z " /></g></g><g opacity="1" transform="translate(33.37429269024028 0)  rotate(0 35.49999999999998 42.00000000000001)"><path id="矩形" fill-rule="evenodd" style="fill:#FFFFFF" transform="translate(3.114035087719287 0)  rotate(0 33.94298245614031 25.98594018131818)" opacity="1" d="M21.13,0L0,17.64L13.7,38.19L44.85,51.97L67.89,31.54L51.02,5.78L21.13,0Z " /><path id="矩形" fill-rule="evenodd" style="fill:#CAC8C3" transform="translate(47.95614035087715 31.64634290046331)  rotate(0 11.52192982456139 18.477761329248196)" opacity="1" d="M0,19.71L20.26,36.96L23.04,0L0,19.71Z " /><path id="矩形" fill-rule="evenodd" style="fill:#BDB9B2" transform="translate(0 34.11004441102989)  rotate(0 7.785087719298235 24.94497779448506)" opacity="1" d="M14.86,0L0,11.34L15.57,49.89L14.86,0Z " /><path id="矩形" fill-rule="evenodd" style="fill:#D1CFCD" transform="translate(1.245614035087726 17.48005921470656)  rotate(0 7.16228070175438 14.16628368575695)" opacity="1" d="M2.82,0L0,28.33L14.32,17.09L2.82,0Z " /><path id="矩形" fill-rule="evenodd" style="fill:#A4A29F" transform="translate(14.32456140350882 33.49411903338819)  rotate(0 17.12719298245612 24.63701510566425)" opacity="1" d="M0,49.27L34.25,17.86L0,0L0,49.27Z " /><path id="矩形" fill-rule="evenodd" style="fill:#ACA8A3" transform="translate(14.32456140350871 51.35595498499481)  rotate(0 16.81578947368419 16.322022507502584)" opacity="1" d="M33.63,0L0,31.41L28.03,32.64L33.63,0Z " /><path id="矩形" fill-rule="evenodd" style="fill:#95938F" transform="translate(41.86842789199312 50.74002960735322)  rotate(0 13.320172018915516 16.62998519632339)" opacity="1" d="M6.09,0L0,33.26L26.64,17.37L6.09,0Z " /></g></g></g><g mask="url(#mask-0)"><g opacity="1" transform="translate(1330 413)  rotate(0 24 24)"><g opacity="1" transform="translate(0 0)  rotate(0 24 24)"><g id="矩形" filter="url(#filter_101)"><path id="矩形" fill-rule="evenodd" style="fill:#FFFFFF" transform="translate(0 0)  rotate(0 24 15)" opacity="1" d="M0,27.75L30.76,30L48,8.35L9.62,0L0,27.75Z " /></g><g id="矩形" filter="url(#filter_103)"><path id="矩形" fill-rule="evenodd" style="fill:#A79C89" transform="translate(0 26)  rotate(0 12.5 11)" opacity="1" d="M0,0L10.5,22L25,2.2L0,0Z " /></g><g id="矩形" filter="url(#filter_105)"><path id="矩形" fill-rule="evenodd" style="fill:#BDB9B2" transform="translate(24 8)  rotate(0 12 20)" opacity="1" d="M0,21.66L8.44,40L24,0L0,21.66Z " /></g><g id="矩形" filter="url(#filter_107)"><path id="矩形" fill-rule="evenodd" style="fill:#ACA79E" transform="translate(9 28)  rotate(0 12 10)" opacity="1" d="M0,20L24,18.93L14.6,0L0,20Z " /></g></g></g></g><g mask="url(#mask-0)"><g opacity="1" transform="translate(223 675)  rotate(0 31 23)"><g opacity="1" transform="translate(29.99999999999998 4.999999999999964)  rotate(0 16.00000000000001 16.00000000000002)"><g opacity="1" transform="translate(0 0)  rotate(0 16.00000000000001 16.00000000000002)"><path id="矩形" fill-rule="evenodd" style="fill:#FFFFFF" transform="translate(0 2.0129405554660593)  rotate(0 5.47729600967291 13.720211942589735)" opacity="1" d="M10.95,13.08L10.95,0L3.45,7.33L0,27.44L10.95,13.08Z " /><path id="矩形" fill-rule="evenodd" style="fill:#BDB9B2" transform="translate(1.4210854715202004e-13 13.90284135029799)  rotate(0 15.99999999999994 7.77526154517394)" opacity="1" d="M10.95,0L0,15.55L32,4.79L10.95,0Z " /><path id="矩形" fill-rule="evenodd" style="fill:#ACA79E" transform="translate(4.618527782440651e-14 18.6911485948307)  rotate(0 15.999999999999945 6.65442570258467)" opacity="1" d="M13.33,5.27L0,10.76L15.34,13.31L32,0L13.33,5.27Z " /><path id="矩形" fill-rule="evenodd" style="fill:#F0F0F0" transform="translate(10.154708803392086 -7.105427357601002e-15)  rotate(0 10.922645598303925 9.345574297415535)" opacity="1" d="M5.85,0L0,2.01L0,14.91L21.85,18.69L5.85,0Z " /></g></g><g opacity="1" transform="translate(0 0)  rotate(0 21 23)"><path id="矩形" fill-rule="evenodd" style="fill:#FFFFFF" transform="translate(0 0)  rotate(0 11.73529411764706 12.74324324324324)" opacity="1" d="M6.71,12.17L0,23.58L23.47,25.49L18.65,0L6.71,12.17Z " /><path id="矩形" fill-rule="evenodd" style="fill:#969086" transform="translate(0.6176470588235219 24.24324324324325)  rotate(0 11.117647058823534 10.567567567567565)" opacity="1" d="M4.93,17.06L22.24,21.14L0,0L4.93,17.06Z " /><path id="矩形" fill-rule="evenodd" style="fill:#D7D4D2" transform="translate(21.61764705882353 21.13513513513513)  rotate(0 10.191176470588236 12.432432432432435)" opacity="1" d="M0.11,2.83L0,24.86L10.19,19.78L20.38,0L0.11,2.83Z " /><path id="矩形" fill-rule="evenodd" style="fill:#EDEDED" transform="translate(17.91176470588236 0)  rotate(0 12.04411764705882 12.43243243243243)" opacity="1" d="M0,0L4.64,24.86L24.09,21.03L0,0Z " /><path id="矩形" fill-rule="evenodd" style="fill:#B1AEA8" transform="translate(0 23.62162162162162)  rotate(0 11.426470588235295 10.87837837837838)" opacity="1" d="M0,0L10.73,11.7L22.85,21.76L22.85,1.92L0,0Z " /></g></g></g><g mask="url(#mask-0)"><g opacity="1" transform="translate(1258 664)  rotate(0 47.12031503628077 53)"><path id="矩形" fill-rule="evenodd" style="fill:#7AC5FC" transform="translate(13 0)  rotate(0 39.59850826593306 32)" opacity="1" d="M0,17.58L60.17,64L79.2,43.08L60.17,9.91L35.69,0L0,17.58Z " /><path id="矩形" fill-rule="evenodd" style="fill:#5DB7FA" transform="translate(66 43.07849899215478)  rotate(0 14.120315036280775 31.46075050392261)" opacity="1" d="M0,28.38L7.35,62.92L28.24,26.46L26.2,0L0,28.38Z " /><path id="矩形" fill-rule="evenodd" style="fill:#3FA6F3" transform="translate(0 18)  rotate(0 37 39.5)" opacity="1" d="M43.46,79L74,45.45L14.24,0L0,41.31L17.77,79L43.46,79Z " /><path id="矩形" fill-rule="evenodd" style="fill:#5DB7FA" transform="translate(0 18)  rotate(0 37 22.5)" opacity="1" d="M14.24,0L0,40.9L74,45L14.24,0Z " /><path id="矩形" fill-rule="evenodd" style="fill:#389BE5" transform="translate(17 63)  rotate(0 28.5 21.5)" opacity="1" d="M56,43L57,0L0,32.52L56,43Z " /></g></g><g mask="url(#mask-0)"><g opacity="1" transform="translate(754.44 177.75)  rotate(0 17 20)"><g id="矩形" filter="url(#filter_149)"><path id="矩形" fill-rule="evenodd" style="fill:#389BE5" transform="translate(1 20)  rotate(0 14 10)" opacity="1" d="M28,13.13L7.64,0L0,2.83L7.64,18.83L13.79,20L28,13.13Z " /></g><g id="矩形" filter="url(#filter_151)"><path id="矩形" fill-rule="evenodd" style="fill:#97D3FF" transform="translate(0 0)  rotate(0 4.5 11.5)" opacity="1" d="M9,20.87L5.99,0L0,13.48L1.57,23L9,20.87Z " /></g><g id="矩形" filter="url(#filter_153)"><path id="矩形" fill-rule="evenodd" style="fill:#77BEF2" transform="translate(7 4)  rotate(0 13.5 14.5)" opacity="1" d="M9.96,0L0,16.27L21.42,29L27,13.84L20.04,0L9.96,0Z " /></g><g id="矩形" filter="url(#filter_155)"><path id="矩形" fill-rule="evenodd" style="fill:#4BAAF2" transform="translate(7 17)  rotate(0 13.5 8)" opacity="1" d="M21.57,16L27,0L0,2.8L21.57,16Z " /></g><g id="矩形" filter="url(#filter_157)"><path id="矩形" fill-rule="evenodd" style="fill:#B6E0FF" transform="translate(6 0)  rotate(0 10.5 10)" opacity="1" d="M0,0L1.94,20L21,3.74L0,0Z " /></g></g></g><g mask="url(#mask-0)"><path  id="椭圆形" style="stroke:#C3E5FF; stroke-width:12; stroke-opacity:1; stroke-dasharray:0 0" transform="translate(420.63073613458636 309.6453700905019)  rotate(30 306.91836383110973 125.5)" d="M613.84,125.5C613.84,56.2 476.4,0 306.92,0C137.44,0 0,56.2 0,125.5C0,194.8 137.44,251 306.92,251C476.4,251 613.84,194.8 613.84,125.5Z " /></g><g mask="url(#mask-0)"><g opacity="1" transform="translate(974 525)  rotate(0 26 23)"><path id="矩形" fill-rule="evenodd" style="fill:#FFFFFF" transform="translate(3 0)  rotate(0 24.5 14.5)" opacity="1" d="M15.23,0L0,8.46L8.88,20.17L37.54,29L49,15.27L31.5,1.3L15.23,0Z " /><path id="矩形" fill-rule="evenodd" style="fill:#CAC8C3" transform="translate(40 15)  rotate(0 5.5 14)" opacity="1" d="M0,13.31L2.74,28L7.93,21.5L11,0L0,13.31Z " /><path id="矩形" fill-rule="evenodd" style="fill:#BDB9B2" transform="translate(0 17)  rotate(0 9.5 13.5)" opacity="1" d="M11.42,0L0,17.42L19,27L11.42,0Z " /><path id="矩形" fill-rule="evenodd" style="fill:#D1CFCD" transform="translate(0 8)  rotate(0 6 13)" opacity="1" d="M3.01,0L0,26L12,9.72L3.01,0Z " /><path id="矩形" fill-rule="evenodd" style="fill:#A4A29F" transform="translate(10 17)  rotate(0 15 13.500000000000004)" opacity="1" d="M8.5,27L30,12.16L0,0L8.5,27Z " /><path id="矩形" fill-rule="evenodd" style="fill:#ACA8A3" transform="translate(18.499999999999886 29)  rotate(0 10.750000000000057 8.5)" opacity="1" d="M21.5,0L0,15L11.66,17L21.5,0Z " /><path id="矩形" fill-rule="evenodd" style="fill:#95938F" transform="translate(30 28)  rotate(0 6.5 9)" opacity="1" d="M10.25,0L0,18L13,15.74L10.25,0Z " /></g></g><g mask="url(#mask-0)"><g opacity="1" transform="translate(602.5 319.14361157406483)  rotate(0 117.5 70.8563884259352)"><g opacity="1" transform="translate(159 6)  rotate(0 37.999999999999986 41.000000000000014)"><path id="矩形" fill-rule="evenodd" style="fill:#7AC5FC" transform="translate(4.263256414560601e-14 0)  rotate(0 32.88461538461538 24.89285714285714)" opacity="1" d="M19.26,2.4L0,37.4L12.9,49.79L65.77,14.08L33.3,0L19.26,2.4Z " /><path id="矩形" fill-rule="evenodd" style="fill:#5DB7FA" transform="translate(-4.263256414560601e-14 35.14285714285717)  rotate(0 10.961538461538465 23.428571428571423)" opacity="1" d="M0,19.43L15.21,46.86L21.92,19.43L1.87,0L0,19.43Z " /><path id="矩形" fill-rule="evenodd" style="fill:#3FA6F3" transform="translate(13.153846153846125 13.17857142857144)  rotate(0 31.423076923076923 30.01785714285714)" opacity="1" d="M62.85,31.39L50.75,0L0,34.54L25.94,60.04L47.76,60.04L62.85,31.39Z " /><path id="矩形" fill-rule="evenodd" style="fill:#5DB7FA" transform="translate(13.153846153846125 13.17857142857144)  rotate(0 31.423076923076923 17.571428571428566)" opacity="1" d="M62.85,31.94L50.75,0L0,35.14L62.85,31.94Z " /><path id="矩形" fill-rule="evenodd" style="fill:#389BE5" transform="translate(16.0769230769231 49.78571428571433)  rotate(0 23.384615384615394 16.10714285714286)" opacity="1" d="M0,0L0,32.21L46.77,24.54L0,0Z " /></g><g opacity="1" transform="translate(48 0)  rotate(0 68 70.8563884259352)"><path id="矩形" fill-rule="evenodd" style="fill:#61BAFB" transform="translate(5.849462365591421 0)  rotate(0 65.0752688172043 33.58000000000002)" opacity="1" d="M0,26.94L27.11,67.16L130.15,44.45L54.52,0L0,26.94Z " /><path id="矩形" fill-rule="evenodd" style="fill:#389BE5" transform="translate(93.59139784946228 43.80000000000007)  rotate(0 20.473118279569874 29.20000000000002)" opacity="1" d="M0,9.4L40.95,58.4L40.95,0L0,9.4Z " /><path id="矩形" fill-rule="evenodd" style="fill:#389BE5" transform="translate(0 58.39999999999998)  rotate(0 18.279569892473116 35.77000000000001)" opacity="1" d="M36.56,8.7L27.76,0L0,42.02L31.74,71.54L36.56,8.7Z " /><path id="矩形" fill-rule="evenodd" style="fill:#4EAAEE" transform="translate(0 27.74000000000007)  rotate(0 15.354838709677415 37.23000000000001)" opacity="1" d="M7.16,0L0,74.46L30.71,34.39L7.16,0Z " /><path id="矩形" fill-rule="evenodd" style="fill:#4EAAEE" transform="translate(30.70967741935488 52.55999999999989)  rotate(0 34.23725043796144 44.576388425935235)" opacity="1" d="M40.22,89.15L68.47,80.86L64.35,0L53.94,0L0,8.56L40.22,89.15Z " /><path id="矩形" fill-rule="evenodd" style="fill:#3195DE" transform="translate(30.70967741935488 69.125)  rotate(0 20.64516129032257 36.29388842593512)" opacity="1" d="M4.35,0L0,60.42L41.29,72.59L4.35,0Z " /><path id="矩形" fill-rule="evenodd" style="fill:#3195DE" transform="translate(93.89132178429111 52.55999999999989)  rotate(0 21.054339107854464 40.845591493398295)" opacity="1" d="M0,0L4.26,81.69L42.11,49.06L0,0Z " /></g><g opacity="1" transform="translate(0 47)  rotate(0 29.5 29.5)"><path id="矩形" fill-rule="evenodd" style="fill:#61BAFB" transform="translate(0 0)  rotate(0 28.025 14.012500000000005)" opacity="1" d="M0,18.55L44.37,28.03L56.05,11.24L32.57,0L0,18.55Z " /><path id="矩形" fill-rule="evenodd" style="fill:#389BE5" transform="translate(1.4750000000000014 18.17500000000001)  rotate(0 8.84975790445084 12.3)" opacity="1" d="M0,24.6L17.7,3.95L0,0L0,24.6Z " /><path id="矩形" fill-rule="evenodd" style="fill:#389BE5" transform="translate(42.775 23.6)  rotate(0 8.1125 14.75)" opacity="1" d="M16.23,17.33L3.91,0L0,3.59L2.14,29.5L16.23,17.33Z " /><path id="矩形" fill-rule="evenodd" style="fill:#4EAAEE" transform="translate(45.725 11.8)  rotate(0 6.6375 14.75)" opacity="1" d="M13.28,29.5L10.18,0L0,13.62L13.28,29.5Z " /><path id="矩形" fill-rule="evenodd" style="fill:#4EAAEE" transform="translate(17.69999999999991 22.125)  rotate(0 14.440736853055125 18.4375)" opacity="1" d="M4.53,0L0,0L4.53,36.88L28.88,3.32L4.53,0Z " /><path id="矩形" fill-rule="evenodd" style="fill:#3195DE" transform="translate(22.125 28.02500000000001)  rotate(0 11.8 15.487499999999995)" opacity="1" d="M23.6,24.51L21.97,0L0,30.97L23.6,24.51Z " /><path id="矩形" fill-rule="evenodd" style="fill:#3195DE" transform="translate(0 22.125)  rotate(0 11.799999999999995 18.4375)" opacity="1" d="M23.6,36.88L22.73,15.28L18.88,0L0,19.36L23.6,36.88Z " /></g></g></g><g mask="url(#mask-0)"><g opacity="1" transform="translate(834 1)  rotate(0 247.5 195.5)"><g opacity="1" transform="translate(0 0)  rotate(0 247.5 195.5)"><path id="矩形备份 7" fill-rule="evenodd" fill="url(#linear_4)" transform="translate(0 0)  rotate(0 238 195.5)" opacity="1" d="M392.6,204.65C379.61,248.05 355.29,275.62 341.15,286.52C320.3,302.59 296.5,313.11 286.41,315.03C248.28,322.3 204.92,317.41 171.55,296.61C158.27,288.28 141.85,277.84 122.76,251.76C120.62,248.87 112.95,239.17 104.34,219.35C102.01,213.96 98.87,202.38 98.87,193.62C98.87,184.86 98.87,177.01 98.87,177.01L98.87,51.85C98.87,51.85 100.1,25.69 92.77,13.1C85.39,0.51 64.21,0 64.21,0L0,0L25.99,43.56L25.99,156.36C25.99,156.36 24.09,177.28 25.99,198.9C27.89,220.52 32.61,231.75 37.18,244.53C46.55,270.92 58.02,287.58 64.45,296.61C84.78,325 112.19,346.7 132.09,358.47C152.51,370.51 179.98,384.67 217.91,389.75C231.86,391.63 254.71,391.39 286.41,389.01C290.36,388.73 317.83,382.05 345.96,368.36C363.28,359.95 381.75,346.54 392.6,337.28C415.55,317.65 447.96,271.24 466.05,216.03C469.43,205.67 474.29,194.13 475.86,182.05C476.14,179.63 475.86,171.26 475.86,171.26L398.13,171.26C398.13,171.26 398.98,178.18 398.13,182.17C396.84,188.15 394.98,196.71 392.6,204.65Z " /><path id="矩形备份 7" fill-rule="evenodd" fill="url(#linear_5)" transform="translate(19 0)  rotate(0 238 195.5)" opacity="1" d="M104.34,219.35C102.01,213.96 98.87,202.38 98.87,193.62C98.87,184.86 98.87,177.01 98.87,177.01L98.87,51.85C98.87,51.85 100.1,25.69 92.77,13.1C85.39,0.51 64.21,0 64.21,0L0,0L25.99,43.56L25.99,156.36C25.99,156.36 24.09,177.28 25.99,198.9C27.89,220.52 32.61,231.75 37.18,244.53C46.55,270.92 58.02,287.58 64.45,296.61C84.78,325 112.19,346.7 132.09,358.47C152.51,370.51 179.98,384.67 217.91,389.75C231.86,391.63 254.71,391.39 286.41,389.01C290.36,388.73 317.83,382.05 345.96,368.36C363.28,359.95 381.75,346.54 392.6,337.28C415.55,317.65 447.96,271.24 466.05,216.03C469.43,205.67 474.29,194.13 475.86,182.05C476.14,179.63 475.86,171.26 475.86,171.26L398.13,171.26C398.13,171.26 398.98,178.18 398.13,182.17C396.84,188.15 394.98,196.71 392.6,204.65C379.61,248.05 355.29,275.62 341.15,286.52C320.3,302.59 296.5,313.11 286.41,315.03C248.28,322.3 204.92,317.41 171.55,296.61C158.27,288.28 141.85,277.84 122.76,251.76C120.62,248.87 112.95,239.17 104.34,219.35Z " /></g></g></g><g mask="url(#mask-0)"><path id="椭圆形" style="stroke:url(#linear_6); stroke-width:14; stroke-opacity:100; stroke-dasharray:0 0" transform="translate(860.47 170.97)  rotate(-20 45.13349144146102 12.24000285768873)" d="M90.27,24.48C62.37,15.14 32.15,6.93 0,0 " /></g><g mask="url(#mask-0)"><g opacity="1" transform="translate(1188.5 -68.5)  rotate(0 70.50003332958423 112)"><path id="矩形备份 20" fill-rule="evenodd" fill="url(#linear_7)" transform="translate(-50.5 50.5)  rotate(-90 112 61.5)" opacity="1" d="M161.28,24.86C147.73,29.73 135.86,33.55 125.69,36.33C90.23,46.01 0,46.76 0,46.76L0,123C0,123 93.61,123.12 130.93,112.93C142.04,109.89 154.38,106.22 167.96,101.91C184.76,96.57 224,82.95 224,82.95L224,0C224,0 179.22,18.4 161.28,24.86Z " /><path id="矩形备份 18" fill-rule="evenodd" fill="url(#linear_8)" transform="translate(-26.366022510253288 56.63391083057818)  rotate(-90 107.86605583983773 59.50003332958403)" opacity="1" d="M155.34,22.96C144.24,26.84 134.36,29.96 125.69,32.32C90.22,42.01 0,42.77 0,42.77L0,119C0,119 93.62,119.12 130.92,108.93C138.38,106.89 159.29,103.48 167.87,100.87C176.96,98.09 215.73,83.93 215.73,83.93C215.73,83.93 215.52,0 215.52,0C215.52,0 196.88,7.23 194.33,8.24C180,13.98 166.99,18.89 155.34,22.96Z " /></g></g><g mask="url(#mask-0)"><g opacity="1" transform="translate(90 599)  rotate(0 153.00042964922096 142)"><g opacity="1" transform="translate(0 0)  rotate(0 153.00042964922096 142)"><g opacity="1" transform="translate(0 145.9999999999999)  rotate(0 43.50042964922091 69.00000000000006)"><path id="矩形备份 20" fill-rule="evenodd" fill="url(#linear_9)" transform="translate(-19.945574416520287 31.05356628503796)  rotate(-90 69 37.9464337149621)" opacity="1" d="M38.64,60.55C46.99,57.55 54.3,55.19 60.57,53.47C82.41,47.5 138,47.04 138,47.04L138,0C138,0 80.33,-0.08 57.34,6.22C50.49,8.09 42.89,10.35 34.53,13.02C24.18,16.31 0,24.71 0,24.71L0,75.89C0,75.89 27.59,64.54 38.64,60.55Z " /><path id="矩形备份 18" fill-rule="evenodd" fill="url(#linear_10)" transform="translate(-26.21385214355601 26.213852143556124)  rotate(-90 60.4179275296121 34.20407538605609)" opacity="1" d="M25.13,59.26C31.97,56.87 38.06,54.94 43.4,53.48C65.25,47.5 120.84,47.04 120.84,47.04L120.84,0C120.84,0 63.16,-0.08 40.18,6.21C35.59,7.47 30.66,8.91 25.38,10.51C13.06,14.28 -4.63,70.64 1.11,68.34C9.94,64.8 17.96,61.77 25.13,59.26Z " /></g><g opacity="1" transform="translate(0.0008592984419237837 0)  rotate(0 153 120.5)"><path id="矩形备份 7" fill-rule="evenodd" fill="url(#linear_11)" transform="translate(11.74545454545455 0)  rotate(0 147.12727272727275 120.5)" opacity="1" d="M218.37,85.82C219.69,87.6 224.43,93.58 229.75,105.8C231.2,109.12 233.14,116.26 233.14,121.66C233.14,127.06 233.14,131.9 233.14,131.9L233.14,209.04C233.14,209.04 232.37,225.17 236.9,232.93C241.47,240.69 254.56,241 254.56,241L294.25,241L278.19,214.15L278.19,144.62C278.19,144.62 279.37,131.73 278.19,118.4C277.01,105.08 274.1,98.16 271.27,90.28C265.48,74.01 258.38,63.74 254.41,58.18C241.85,40.68 224.9,27.31 212.6,20.05C199.98,12.63 183,3.9 159.54,0.77C150.92,-0.39 136.8,-0.24 117.2,1.23C114.76,1.4 97.78,5.52 80.39,13.95C69.68,19.14 58.26,27.4 51.55,33.11C37.37,45.21 17.33,73.82 6.15,107.85C4.06,114.23 1.06,121.34 0.09,128.79C-0.09,130.28 0.09,135.44 0.09,135.44L48.14,135.44C48.14,135.44 47.61,131.18 48.14,128.72C48.93,125.03 50.08,119.75 51.55,114.86C59.59,88.11 74.62,71.12 83.36,64.4C96.25,54.49 110.96,48.01 117.2,46.83C140.77,42.34 167.58,45.36 188.21,58.18C196.41,63.31 206.57,69.75 218.37,85.82Z " /><path id="矩形备份 7" fill-rule="evenodd" fill="url(#linear_12)" transform="translate(0 0)  rotate(0 147.12727272727275 120.5)" opacity="1" d="M294.25,241L278.19,214.15L278.19,144.62C278.19,144.62 279.37,131.73 278.19,118.4C277.01,105.08 274.1,98.16 271.27,90.28C265.48,74.01 258.38,63.74 254.41,58.18C241.85,40.68 224.9,27.31 212.6,20.05C199.98,12.63 183,3.9 159.54,0.77C150.92,-0.39 136.8,-0.24 117.2,1.23C114.76,1.4 97.78,5.52 80.39,13.95C69.68,19.14 58.26,27.4 51.55,33.11C37.37,45.21 17.33,73.82 6.15,107.85C4.06,114.23 1.06,121.34 0.09,128.79C-0.09,130.28 0.09,135.44 0.09,135.44L48.14,135.44C48.14,135.44 47.61,131.18 48.14,128.72C48.93,125.03 50.08,119.75 51.55,114.86C59.59,88.11 74.62,71.12 83.36,64.4C96.25,54.49 110.96,48.01 117.2,46.83C140.77,42.34 167.58,45.36 188.21,58.18C196.41,63.31 206.57,69.75 218.37,85.82C219.69,87.6 224.43,93.58 229.75,105.8C231.2,109.12 233.14,116.26 233.14,121.66C233.14,127.06 233.14,131.9 233.14,131.9L233.14,209.04C233.14,209.04 232.37,225.17 236.9,232.93C241.47,240.69 254.56,241 254.56,241L294.25,241Z " /></g></g></g></g><g mask="url(#mask-0)"><path  id="1" style="stroke:#C3E5FF; stroke-width:14; stroke-opacity:1; stroke-dasharray:0 0" transform="translate(321.13 713.42)  rotate(-20 30.09179003171896 14.46652272741697)" d="M0,0C18.01,10.34 38.16,20.02 60.18,28.93 " /></g></g></svg>