<svg xmlns="http://www.w3.org/2000/svg" xmlns:xlink="http://www.w3.org/1999/xlink" width="1440" height="900" viewBox="0 0 1440 900" fill="none"><defs><path id="path_0"
        transform="translate(0 0) rotate(0 720 450)"
        d="M0,588.69L0,900L1440,900L1440,0L0,0L0,588.69Z" /><linearGradient id="linear_0" x1="1.6755194239674656%" y1="52.21876326902807%" x2="101.65651100555888%" y2="41.326553374282994%" gradientUnits="objectBoundingBox"><stop offset="0" stop-color="#F6F9FD" stop-opacity="1" /><stop offset="1" stop-color="#DBEEFF" stop-opacity="1" /></linearGradient><linearGradient id="linear_1" x1="50%" y1="0%" x2="51%" y2="100%" gradientUnits="objectBoundingBox"><stop offset="0" stop-color="#E9F4FE" stop-opacity="1" /><stop offset="1" stop-color="#C2E2FF" stop-opacity="1" /></linearGradient><linearGradient id="linear_2" x1="50%" y1="0%" x2="51%" y2="100%" gradientUnits="objectBoundingBox"><stop offset="0" stop-color="#C3E3FF" stop-opacity="1" /><stop offset="1" stop-color="#C3E5FF" stop-opacity="1" /></linearGradient><filter id="filter_8" x="420.63073613458636" y="369.6453700905019" width="613.8367276622193" height="251.00000000000006" filterUnits="userSpaceOnUse" color-interpolation-filters="sRGB"></filter><filter id="filter_10" x="448.7734259731764" y="370.3557964566181" width="14.707287020907074" height="20.059095494247003" filterUnits="userSpaceOnUse" color-interpolation-filters="sRGB"></filter><linearGradient id="linear_3" x1="5.797581456175182%" y1="5.189465214861322%" x2="100.00000000000009%" y2="5.189465214861322%" gradientUnits="objectBoundingBox"><stop offset="0" stop-color="#2D8CE3" stop-opacity="1" /><stop offset="1" stop-color="#4FB0F1" stop-opacity="1" /></linearGradient><linearGradient id="linear_4" x1="5.797581456175182%" y1="5.189465214861322%" x2="100.00000000000009%" y2="5.189465214861322%" gradientUnits="objectBoundingBox"><stop offset="0" stop-color="#3B9BF2" stop-opacity="1" /><stop offset="1" stop-color="#6CC3FD" stop-opacity="1" /></linearGradient><linearGradient id="linear_5" x1="94.20241854382482%" y1="94.81053478513869%" x2="-8.881784197001252e-14%" y2="94.81053478513869%" gradientUnits="objectBoundingBox"><stop offset="0" stop-color="#91C9FD" stop-opacity="1" /><stop offset="1" stop-color="#B0DFFF" stop-opacity="1" /></linearGradient><linearGradient id="linear_6" x1="94.20241854382482%" y1="94.81053478513869%" x2="-8.881784197001252e-14%" y2="94.81053478513869%" gradientUnits="objectBoundingBox"><stop offset="0" stop-color="#BCDFFF" stop-opacity="1" /><stop offset="1" stop-color="#C9E9FF" stop-opacity="1" /></linearGradient><linearGradient id="linear_7" x1="5.797581456175182%" y1="5.189465214861322%" x2="100.00000000000009%" y2="5.189465214861322%" gradientUnits="objectBoundingBox"><stop offset="0" stop-color="#91C9FD" stop-opacity="1" /><stop offset="1" stop-color="#B0DFFF" stop-opacity="1" /></linearGradient><linearGradient id="linear_8" x1="5.797581456175182%" y1="5.189465214861322%" x2="100.00000000000009%" y2="5.189465214861322%" gradientUnits="objectBoundingBox"><stop offset="0" stop-color="#BCDFFF" stop-opacity="1" /><stop offset="1" stop-color="#C9E9FF" stop-opacity="1" /></linearGradient><linearGradient id="linear_9" x1="94.20241854382482%" y1="94.81053478513869%" x2="-8.881784197001252e-14%" y2="94.81053478513869%" gradientUnits="objectBoundingBox"><stop offset="0" stop-color="#2D8CE3" stop-opacity="1" /><stop offset="1" stop-color="#4FB0F1" stop-opacity="1" /></linearGradient><linearGradient id="linear_10" x1="94.20241854382482%" y1="94.81053478513869%" x2="-8.881784197001252e-14%" y2="94.81053478513869%" gradientUnits="objectBoundingBox"><stop offset="0" stop-color="#3B9BF2" stop-opacity="1" /><stop offset="1" stop-color="#6CC3FD" stop-opacity="1" /></linearGradient></defs><g opacity="1" transform="translate(0 0)  rotate(0 720 450)"><mask id="mask-0" fill="white"><use xlink:href="#path_0"></use></mask><g mask="url(#mask-0)"><path id="蒙版" fill-rule="evenodd" fill="url(#linear_0)" transform="translate(0 0)  rotate(0 720 450)" opacity="1" d="M0,588.69L0,900L1440,900L1440,0L0,0L0,588.69Z " /></g><g mask="url(#mask-0)"><path id="椭圆形" style="stroke:url(#linear_1); stroke-width:16; stroke-opacity:100; stroke-dasharray:0 0" transform="translate(-451.2882845356521 -49.11844275284545)  rotate(-20 1151.860951111178 531)" d="M2303.72,531C2303.72,237.78 1787.92,0 1151.86,0C515.8,0 0,237.78 0,531C0,824.22 515.8,1062 1151.86,1062C1787.92,1062 2303.72,824.22 2303.72,531Z " /></g><g mask="url(#mask-0)"><path id="椭圆形" style="stroke:url(#linear_2); stroke-width:14; stroke-opacity:100; stroke-dasharray:0 0" transform="translate(152.0272345270283 295.5)  rotate(-20 538.0242234489575 220)" d="M1076.05,220C1076.05,98.52 835.12,0 538.02,0C240.93,0 0,98.52 0,220C0,341.48 240.93,440 538.02,440C835.12,440 1076.05,341.48 1076.05,220Z " /></g><g mask="url(#mask-0)"><path  id="椭圆形" style="stroke:#C3E5FF; stroke-width:12; stroke-opacity:1; stroke-dasharray:0 0" transform="translate(420.63073613458636 369.6453700905019)  rotate(30 306.91836383110973 125.5)" d="M613.84,125.5C613.84,56.2 476.4,0 306.92,0C137.44,0 0,56.2 0,125.5C0,194.8 137.44,251 306.92,251C476.4,251 613.84,194.8 613.84,125.5Z " /></g><g mask="url(#mask-0)"><path  id="椭圆形" style="stroke:#DCEFFE; stroke-width:12; stroke-opacity:1; stroke-dasharray:0 0" transform="translate(448.7734259731764 370.3557964566181)  rotate(30 7.353643510453537 10.029547747123502)" d="M14.71,20.06C14.71,20.06 10.34,14.99 10.19,14.81C9.89,14.46 9.59,14.11 9.3,13.75C6.86,10.82 4.68,7.83 2.77,4.8C2.53,4.41 2.28,4.01 2.05,3.62C1.99,3.52 1.93,3.42 1.87,3.32C1.85,3.3 1.84,3.27 1.82,3.25C1.81,3.22 1.79,3.2 1.78,3.17C1.75,3.12 1.72,3.07 1.69,3.02C1.57,2.82 1.46,2.63 1.34,2.43C0.87,1.62 0.43,0.81 0,0 " /></g><g mask="url(#mask-0)"><g opacity="1" transform="translate(834 61)  rotate(0 247.5 195.5)"><g opacity="1" transform="translate(0 0)  rotate(0 247.5 195.5)"><path id="矩形备份 7" fill-rule="evenodd" fill="url(#linear_3)" transform="translate(0 0)  rotate(0 238 195.5)" opacity="1" d="M392.6,204.65C379.61,248.05 355.29,275.62 341.15,286.52C320.3,302.59 296.5,313.11 286.41,315.03C248.28,322.3 204.92,317.41 171.55,296.61C158.27,288.28 141.85,277.84 122.76,251.76C120.62,248.87 112.95,239.17 104.34,219.35C102.01,213.96 98.87,202.38 98.87,193.62C98.87,184.86 98.87,177.01 98.87,177.01L98.87,51.85C98.87,51.85 100.1,25.69 92.77,13.1C85.39,0.51 64.21,0 64.21,0L0,0L25.99,43.56L25.99,156.36C25.99,156.36 24.09,177.28 25.99,198.9C27.89,220.52 32.61,231.75 37.18,244.53C46.55,270.92 58.02,287.58 64.45,296.61C84.78,325 112.19,346.7 132.09,358.47C152.51,370.51 179.98,384.67 217.91,389.75C231.86,391.63 254.71,391.39 286.41,389.01C290.36,388.73 317.83,382.05 345.96,368.36C363.28,359.95 381.75,346.54 392.6,337.28C415.55,317.65 447.96,271.24 466.05,216.03C469.43,205.67 474.29,194.13 475.86,182.05C476.14,179.63 475.86,171.26 475.86,171.26L398.13,171.26C398.13,171.26 398.98,178.18 398.13,182.17C396.84,188.15 394.98,196.71 392.6,204.65Z " /><path id="矩形备份 7" fill-rule="evenodd" fill="url(#linear_4)" transform="translate(19 0)  rotate(0 238 195.5)" opacity="1" d="M104.34,219.35C102.01,213.96 98.87,202.38 98.87,193.62C98.87,184.86 98.87,177.01 98.87,177.01L98.87,51.85C98.87,51.85 100.1,25.69 92.77,13.1C85.39,0.51 64.21,0 64.21,0L0,0L25.99,43.56L25.99,156.36C25.99,156.36 24.09,177.28 25.99,198.9C27.89,220.52 32.61,231.75 37.18,244.53C46.55,270.92 58.02,287.58 64.45,296.61C84.78,325 112.19,346.7 132.09,358.47C152.51,370.51 179.98,384.67 217.91,389.75C231.86,391.63 254.71,391.39 286.41,389.01C290.36,388.73 317.83,382.05 345.96,368.36C363.28,359.95 381.75,346.54 392.6,337.28C415.55,317.65 447.96,271.24 466.05,216.03C469.43,205.67 474.29,194.13 475.86,182.05C476.14,179.63 475.86,171.26 475.86,171.26L398.13,171.26C398.13,171.26 398.98,178.18 398.13,182.17C396.84,188.15 394.98,196.71 392.6,204.65C379.61,248.05 355.29,275.62 341.15,286.52C320.3,302.59 296.5,313.11 286.41,315.03C248.28,322.3 204.92,317.41 171.55,296.61C158.27,288.28 141.85,277.84 122.76,251.76C120.62,248.87 112.95,239.17 104.34,219.35Z " /></g></g></g><g mask="url(#mask-0)"><g opacity="1" transform="translate(1188.5 -8.5)  rotate(0 70.49999999999994 112)"><path id="矩形备份 20" fill-rule="evenodd" fill="url(#linear_5)" transform="translate(-50.500000000000114 50.49999999999999)  rotate(-90 112 61.5)" opacity="1" d="M161.28,24.86C147.73,29.73 135.86,33.55 125.69,36.33C90.23,46.01 0,46.76 0,46.76L0,123C0,123 93.61,123.12 130.93,112.93C142.04,109.89 154.38,106.22 167.96,101.91C184.76,96.57 224,82.95 224,82.95L224,0C224,0 179.22,18.4 161.28,24.86Z " /><path id="矩形备份 18" fill-rule="evenodd" fill="url(#linear_6)" transform="translate(-12.503025471851288 70.49697452814888)  rotate(-90 98.0696794683559 55.4333460034952)" opacity="1" d="M155.34,14.82C144.24,18.7 134.36,21.83 125.69,24.19C90.22,33.88 0,34.63 0,34.63L0,110.87C0,110.87 93.62,110.99 130.92,100.8C138.38,98.76 146.38,96.44 154.95,93.83C174.94,87.73 203.65,-3.61 194.33,0.11C180,5.84 166.99,10.75 155.34,14.82Z " /></g></g><g mask="url(#mask-0)"><g opacity="1" transform="translate(90 659)  rotate(0 153.00042964922096 142)"><g opacity="1" transform="translate(0 0)  rotate(0 153.00042964922096 142)"><g opacity="1" transform="translate(0 145.9999999999999)  rotate(0 43.50042964922091 69.00000000000006)"><path id="矩形备份 20" fill-rule="evenodd" fill="url(#linear_7)" transform="translate(-19.945574416520287 31.05356628503796)  rotate(-90 69 37.9464337149621)" opacity="1" d="M38.64,60.55C46.99,57.55 54.3,55.19 60.57,53.47C82.41,47.5 138,47.04 138,47.04L138,0C138,0 80.33,-0.08 57.34,6.22C50.49,8.09 42.89,10.35 34.53,13.02C24.18,16.31 0,24.71 0,24.71L0,75.89C0,75.89 27.59,64.54 38.64,60.55Z " /><path id="矩形备份 18" fill-rule="evenodd" fill="url(#linear_8)" transform="translate(-26.21385214355601 26.213852143556124)  rotate(-90 60.4179275296121 34.20407538605609)" opacity="1" d="M25.13,59.26C31.97,56.87 38.06,54.94 43.4,53.48C65.25,47.5 120.84,47.04 120.84,47.04L120.84,0C120.84,0 63.16,-0.08 40.18,6.21C35.59,7.47 30.66,8.91 25.38,10.51C13.06,14.28 -4.63,70.64 1.11,68.34C9.94,64.8 17.96,61.77 25.13,59.26Z " /></g><g opacity="1" transform="translate(0.0008592984419237837 0)  rotate(0 153 120.5)"><path id="矩形备份 7" fill-rule="evenodd" fill="url(#linear_9)" transform="translate(11.74545454545455 0)  rotate(0 147.12727272727275 120.5)" opacity="1" d="M218.37,85.82C219.69,87.6 224.43,93.58 229.75,105.8C231.2,109.12 233.14,116.26 233.14,121.66C233.14,127.06 233.14,131.9 233.14,131.9L233.14,209.04C233.14,209.04 232.37,225.17 236.9,232.93C241.47,240.69 254.56,241 254.56,241L294.25,241L278.19,214.15L278.19,144.62C278.19,144.62 279.37,131.73 278.19,118.4C277.01,105.08 274.1,98.16 271.27,90.28C265.48,74.01 258.38,63.74 254.41,58.18C241.85,40.68 224.9,27.31 212.6,20.05C199.98,12.63 183,3.9 159.54,0.77C150.92,-0.39 136.8,-0.24 117.2,1.23C114.76,1.4 97.78,5.52 80.39,13.95C69.68,19.14 58.26,27.4 51.55,33.11C37.37,45.21 17.33,73.82 6.15,107.85C4.06,114.23 1.06,121.34 0.09,128.79C-0.09,130.28 0.09,135.44 0.09,135.44L48.14,135.44C48.14,135.44 47.61,131.18 48.14,128.72C48.93,125.03 50.08,119.75 51.55,114.86C59.59,88.11 74.62,71.12 83.36,64.4C96.25,54.49 110.96,48.01 117.2,46.83C140.77,42.34 167.58,45.36 188.21,58.18C196.41,63.31 206.57,69.75 218.37,85.82Z " /><path id="矩形备份 7" fill-rule="evenodd" fill="url(#linear_10)" transform="translate(0 0)  rotate(0 147.12727272727275 120.5)" opacity="1" d="M294.25,241L278.19,214.15L278.19,144.62C278.19,144.62 279.37,131.73 278.19,118.4C277.01,105.08 274.1,98.16 271.27,90.28C265.48,74.01 258.38,63.74 254.41,58.18C241.85,40.68 224.9,27.31 212.6,20.05C199.98,12.63 183,3.9 159.54,0.77C150.92,-0.39 136.8,-0.24 117.2,1.23C114.76,1.4 97.78,5.52 80.39,13.95C69.68,19.14 58.26,27.4 51.55,33.11C37.37,45.21 17.33,73.82 6.15,107.85C4.06,114.23 1.06,121.34 0.09,128.79C-0.09,130.28 0.09,135.44 0.09,135.44L48.14,135.44C48.14,135.44 47.61,131.18 48.14,128.72C48.93,125.03 50.08,119.75 51.55,114.86C59.59,88.11 74.62,71.12 83.36,64.4C96.25,54.49 110.96,48.01 117.2,46.83C140.77,42.34 167.58,45.36 188.21,58.18C196.41,63.31 206.57,69.75 218.37,85.82C219.69,87.6 224.43,93.58 229.75,105.8C231.2,109.12 233.14,116.26 233.14,121.66C233.14,127.06 233.14,131.9 233.14,131.9L233.14,209.04C233.14,209.04 232.37,225.17 236.9,232.93C241.47,240.69 254.56,241 254.56,241L294.25,241Z " /></g></g></g></g></g></svg>