<svg xmlns="http://www.w3.org/2000/svg" xmlns:xlink="http://www.w3.org/1999/xlink" width="1440" height="900" viewBox="0 0 1440 900" fill="none"><defs><path id="path_0"
        transform="translate(0 0) rotate(0 720 450)"
        d="M0,900L1440,900L1440,0L0,0L0,900Z" /><linearGradient id="linear_0" x1="1.6755194239674656%" y1="52.21876326902807%" x2="100%" y2="100%" gradientUnits="objectBoundingBox"><stop offset="0" stop-color="#62C4F9" stop-opacity="1" /><stop offset="1" stop-color="#3292E5" stop-opacity="1" /></linearGradient><linearGradient id="linear_1" x1="67.43%" y1="9.823%" x2="27.631%" y2="89.608%" gradientUnits="objectBoundingBox"><stop offset="0" stop-color="#5AB0ED" stop-opacity="1" /><stop offset="1" stop-color="#62C4F9" stop-opacity="1" /></linearGradient></defs><g opacity="1" transform="translate(0 0)  rotate(0 720 450)"><g opacity="1" transform="translate(0 0)  rotate(0 720 450)"><mask id="mask-0" fill="white"><use xlink:href="#path_0"></use></mask><g mask="url(#mask-0)"><path id="矩形 1" fill-rule="evenodd" fill="url(#linear_0)" transform="translate(0 0)  rotate(0 720 450)" opacity="1" d="M0,900L1440,900L1440,0L0,0L0,900Z " /></g><g mask="url(#mask-0)"><path id="椭圆形" style="stroke:url(#linear_1); stroke-width:16; stroke-opacity:100; stroke-dasharray:0 0" transform="translate(-91.10153466929688 -16.620073497894715)  rotate(10 1005.8664104407593 450)" d="M2011.73,450C2011.73,201.51 1561.31,0 1005.87,0C450.43,0 0,201.51 0,450C0,698.49 450.43,900 1005.87,900C1561.31,900 2011.73,698.49 2011.73,450Z " /></g></g><g opacity="1" transform="translate(266 677)  rotate(0 69.5 41.99999999999997)"><g opacity="1" transform="translate(93 4)  rotate(0 23 24.499999999999996)"><path id="矩形" fill-rule="evenodd" style="fill:#7AC5FC" transform="translate(2.1316282072803006e-14 0)  rotate(0 19.90384615384615 14.87499999999999)" opacity="1" d="M11.66,1.44L0,22.35L7.81,29.75L39.81,8.41L20.15,0L11.66,1.44Z " /><path id="矩形" fill-rule="evenodd" style="fill:#5DB7FA" transform="translate(0 21)  rotate(0 6.634615384615385 13.999999999999986)" opacity="1" d="M0,11.61L9.2,28L13.27,11.61L1.13,0L0,11.61Z " /><path id="矩形" fill-rule="evenodd" style="fill:#3FA6F3" transform="translate(7.961538461538453 7.875)  rotate(0 19.019230769230774 17.937499999999986)" opacity="1" d="M38.04,18.76L30.72,0L0,20.64L15.7,35.87L28.91,35.87L38.04,18.76Z " /><path id="矩形" fill-rule="evenodd" style="fill:#5DB7FA" transform="translate(7.961538461538453 7.875)  rotate(0 19.019230769230774 10.49999999999999)" opacity="1" d="M38.04,19.09L30.72,0L0,21L38.04,19.09Z " /><path id="矩形" fill-rule="evenodd" style="fill:#389BE5" transform="translate(9.730769230769226 29.75)  rotate(0 14.15384615384616 9.625)" opacity="1" d="M0,0L0,19.25L28.31,14.66L0,0Z " /></g><g opacity="1" transform="translate(28 0)  rotate(0 40.50000000000002 41.99999999999997)"><path id="矩形" fill-rule="evenodd" style="fill:#61BAFB" transform="translate(3.48387096774195 0)  rotate(0 38.758064516129025 19.904486120884126)" opacity="1" d="M0,15.97L16.15,39.81L77.52,26.35L32.47,0L0,15.97Z " /><path id="矩形" fill-rule="evenodd" style="fill:#389BE5" transform="translate(55.74193548387098 25.96237320115324)  rotate(0 12.193548387096754 17.308248800768794)" opacity="1" d="M0,5.57L24.39,34.62L24.39,0L0,5.57Z " /><path id="矩形" fill-rule="evenodd" style="fill:#389BE5" transform="translate(0 34.6164976015375)  rotate(0 10.887096774193544 21.202604780941776)" opacity="1" d="M21.77,5.16L16.53,0L0,24.91L18.9,42.41L21.77,5.16Z " /><path id="矩形" fill-rule="evenodd" style="fill:#4EAAEE" transform="translate(0 16.44283636073055)  rotate(0 9.145161290322575 22.06801722098021)" opacity="1" d="M4.26,0L0,44.14L18.29,20.38L4.26,0Z " /><path id="矩形" fill-rule="evenodd" style="fill:#4EAAEE" transform="translate(18.29032258064518 31.1548478413838)  rotate(0 20.39130356966821 26.42257607930812)" opacity="1" d="M23.95,52.85L40.78,47.93L38.32,0L32.12,0L0,5.07L23.95,52.85Z " /><path id="矩形" fill-rule="evenodd" style="fill:#3195DE" transform="translate(18.29032258064518 40.97372254634047)  rotate(0 12.296015180265645 21.51313872682973)" opacity="1" d="M2.59,0L0,35.82L24.59,43.03L2.59,0Z " /><path id="矩形" fill-rule="evenodd" style="fill:#3195DE" transform="translate(55.9205666509381 31.1548478413838)  rotate(0 12.539716674530965 24.21115273911996)" opacity="1" d="M0,0L2.54,48.42L25.08,29.08L0,0Z " /></g><g opacity="1" transform="translate(0 28)  rotate(0 17.5 17.5)"><path id="矩形" fill-rule="evenodd" style="fill:#61BAFB" transform="translate(0 0)  rotate(0 16.625 8.3125)" opacity="1" d="M0,11L26.32,16.63L33.25,6.67L19.32,0L0,11Z " /><path id="矩形" fill-rule="evenodd" style="fill:#389BE5" transform="translate(0.875 10.78177966101695)  rotate(0 5.249856383996265 7.296610169491525)" opacity="1" d="M0,14.59L10.5,2.34L0,0L0,14.59Z " /><path id="矩形" fill-rule="evenodd" style="fill:#389BE5" transform="translate(25.375 14)  rotate(0 4.812500000000001 8.75)" opacity="1" d="M9.63,10.28L2.32,0L0,2.13L1.27,17.5L9.63,10.28Z " /><path id="矩形" fill-rule="evenodd" style="fill:#4EAAEE" transform="translate(27.125 7)  rotate(0 3.9375 8.75)" opacity="1" d="M7.88,17.5L6.04,0L0,8.08L7.88,17.5Z " /><path id="矩形" fill-rule="evenodd" style="fill:#4EAAEE" transform="translate(10.49999999999995 13.125)  rotate(0 8.566538811134395 10.9375)" opacity="1" d="M2.69,0L0,0L2.69,21.88L17.13,1.97L2.69,0Z " /><path id="矩形" fill-rule="evenodd" style="fill:#3195DE" transform="translate(13.125 16.625)  rotate(0 7 9.1875)" opacity="1" d="M14,14.54L13.03,0L0,18.38L14,14.54Z " /><path id="矩形" fill-rule="evenodd" style="fill:#3195DE" transform="translate(0 13.125)  rotate(0 6.999999999999995 10.9375)" opacity="1" d="M14,21.88L13.48,9.07L11.2,0L0,11.49L14,21.88Z " /></g></g></g></svg>