<svg xmlns="http://www.w3.org/2000/svg" xmlns:xlink="http://www.w3.org/1999/xlink" width="30" height="30" viewBox="0 0 30 30" fill="none"><g opacity="1" transform="translate(0 0)  rotate(0 15 15)"><path id="椭圆形" fill-rule="evenodd" style="fill:#000000" transform="translate(0 0)  rotate(0 15 15)" opacity="1" d="M30,15C30,6.72 23.28,0 15,0C6.72,0 0,6.72 0,15C0,23.28 6.72,30 15,30C23.28,30 30,23.28 30,15Z " /><g opacity="1" transform="translate(8.333333333333318 6.666666666666603)  rotate(0 6.90234724095169 8.333333333333394)"><g opacity="1" transform="translate(0 -1.263187085795734e-13)  rotate(0 6.90234724095169 8.3333333333334)"><path id="矩形" fill-rule="evenodd" style="fill:#00EFFF" transform="translate(0 1.263187085795734e-13)  rotate(0 6.526265539348695 4.976025943257318)" opacity="1" d="M4.39,0C4.39,0 3.64,0.04 3.37,0.11C2.03,0.48 1.39,1.11 1.02,1.57C-0.02,2.89 -0.02,4.39 0.01,5.14C0.05,5.89 0.35,6.66 0.7,7.13C1.01,7.54 1.75,8.33 2.92,9.5C2.95,9.52 3.01,9.58 3.01,9.58C3.07,9.65 3.95,10.15 4.74,9.87C5.15,9.73 5.76,9.21 5.92,8.61C6.07,8.04 5.91,7.54 5.8,7.33C5.63,6.99 5.38,6.74 5.38,6.74C4.88,6.32 4.33,5.88 3.95,5.37C3.68,5.03 3.64,4.44 3.72,4.24C4.04,3.42 4.66,3.42 4.66,3.42L13.05,3.42L13.05,0L4.39,0Z " /><path id="矩形" fill-rule="evenodd" style="fill:#00EFFF" transform="translate(0.6143647528731184 6.40726004342355)  rotate(0 6.59516486451513 5.129703311621625)" opacity="1" d="M7.94,3.61C8.29,3.96 9.5,5.17 9.5,5.17C9.5,5.17 9.64,5.35 9.64,5.58C9.64,6.1 9.32,6.39 9.21,6.53C9,6.77 8.53,6.84 8.53,6.84L8.18,6.84L0.18,6.84L0.02,6.84L0,10.26L9.32,10.26C9.32,10.26 9.68,10.22 9.84,10.17C10.01,10.13 10.13,10.07 10.35,9.96C12.24,9.01 13.19,7.59 13.19,5.69C13.19,3.97 12.11,2.29 10.21,0.65C10.01,0.47 9.38,-0.22 8.25,0.07C8.19,0.09 7.93,0.18 7.67,0.38C7.46,0.54 7.25,0.77 7.12,1.06C7.07,1.16 7.03,1.27 7,1.39C6.93,1.67 6.91,1.99 6.98,2.25C7.05,2.53 7.16,2.77 7.29,2.95C7.41,3.11 7.55,3.22 7.6,3.27C7.68,3.35 7.8,3.47 7.94,3.61Z " /><path id="椭圆形" fill-rule="evenodd" style="fill:#FFFFFF" transform="translate(7.549857549856766 6.410256410253822)  rotate(70 1.8518518518518494 1.851851851851847)" opacity="1" d="M3.7,1.85C3.7,0.83 2.87,0 1.85,0C0.83,0 0,0.83 0,1.85C0,2.87 0.83,3.7 1.85,3.7C2.87,3.7 3.7,2.87 3.7,1.85Z " /><path id="椭圆形" fill-rule="evenodd" style="fill:#FFFFFF" transform="translate(2.279202279201643 6.267806267805351)  rotate(70 1.8518518518518494 1.851851851851848)" opacity="1" d="M3.7,1.85C3.7,0.83 2.87,0 1.85,0C0.83,0 0,0.83 0,1.85C0,2.87 0.83,3.7 1.85,3.7C2.87,3.7 3.7,2.87 3.7,1.85Z " /><path id="矩形" fill-rule="evenodd" style="fill:#00C8E6" transform="translate(9.116809116809153 0)  rotate(0 1.9943019943019884 1.709401709401707)" opacity="1" d="M0,3.42L3.99,3.42L3.99,0L0,0L0,3.42Z " /><path id="矩形备份 2" fill-rule="evenodd" style="fill:#00C8E6" transform="translate(0.5698005698006152 13.24786324786336)  rotate(0 1.9943019943019924 1.7094017094017084)" opacity="1" d="M0,3.42L3.99,3.42L3.99,0L0,0L0,3.42Z " /><path id="形状结合备份" fill-rule="evenodd" style="fill:#FFB93C" transform="translate(2.279202279202272 6.267806267806516)  rotate(-100 1.85185185185185 1.85185185185185)" opacity="1" d="M1.85 0C2.87 0 3.7 0.83 3.7 1.85C3.7 2.87 2.87 3.7 1.85 3.7L1.84275 3.69999C1.81412 3.67304 1.70431 3.56844 1.66964 3.51643C1.58964 3.38643 1.59964 3.26643 1.61964 3.19643C1.69964 2.86643 2.21964 2.64643 2.31964 2.54643C2.37964 2.47643 2.41964 2.36643 2.40964 2.23643C2.40964 2.17643 2.36964 2.03643 2.36964 2.03643C2.36964 2.03643 2.14964 2.19643 1.99964 2.28643C1.62015 2.49615 1.09106 2.79563 1.25896 3.60318C1.05952 3.53576 0.875205 3.43518 0.712606 3.30806C0.702117 3.25211 0.605261 2.69934 0.823486 2.45265C1.18349 2.02265 1.96349 1.64265 2.17349 1.42265C2.23349 1.35265 2.29349 1.26265 2.28349 1.13265C2.28349 1.07265 2.22349 0.912648 2.22349 0.912648C2.22349 0.912648 2.02349 1.09265 1.88349 1.17265C1.49349 1.39265 1.08349 1.61265 0.823486 1.85265C0.494951 2.14136 0.315087 2.46972 0.274027 2.81799C0.100305 2.53621 0 2.20459 0 1.85C0 0.83 0.83 0 1.85 0Z " /><path id="形状结合备份 2" fill-rule="evenodd" style="fill:#FFB93C" transform="translate(7.549857549857584 6.410256410256481)  rotate(70 1.8518518518518505 1.851851851851849)" opacity="1" d="M1.85 0C2.87 0 3.7 0.83 3.7 1.85C3.7 2.87 2.87 3.7 1.85 3.7L1.84275 3.69999C1.81412 3.67304 1.70431 3.56844 1.66964 3.51643C1.58964 3.38643 1.59964 3.26643 1.61964 3.19643C1.69964 2.86643 2.21964 2.64643 2.31964 2.54643C2.37964 2.47643 2.41964 2.36643 2.40964 2.23643C2.40964 2.17643 2.36964 2.03643 2.36964 2.03643C2.36964 2.03643 2.14964 2.19643 1.99964 2.28643C1.62015 2.49615 1.09106 2.79563 1.25896 3.60318C1.05952 3.53576 0.875205 3.43518 0.712606 3.30806C0.702117 3.25211 0.605261 2.69934 0.823486 2.45265C1.18349 2.02265 1.96349 1.64265 2.17349 1.42265C2.23349 1.35265 2.29349 1.26265 2.28349 1.13265C2.28349 1.07265 2.22349 0.912648 2.22349 0.912648C2.22349 0.912648 2.02349 1.09265 1.88349 1.17265C1.49349 1.39265 1.08349 1.61265 0.823486 1.85265C0.494951 2.14136 0.315087 2.46972 0.274027 2.81799C0.100305 2.53621 0 2.20459 0 1.85C0 0.83 0.83 0 1.85 0Z " /></g></g></g></svg>