<svg xmlns="http://www.w3.org/2000/svg" xmlns:xlink="http://www.w3.org/1999/xlink" width="138.84387310802413" height="40" viewBox="0 0 138.84387310802413 40" fill="none"><defs><linearGradient id="linear_0" x1="73.51985202429407%" y1="19.302756345730536%" x2="29.14327285324659%" y2="100%" gradientUnits="objectBoundingBox"><stop offset="0" stop-color="#62C4F9" stop-opacity="1" /><stop offset="1" stop-color="#2280DE" stop-opacity="1" /></linearGradient><linearGradient id="linear_1" x1="-8.348016012258341%" y1="50.00000000000142%" x2="95.94203344158885%" y2="70.40916467174156%" gradientUnits="objectBoundingBox"><stop offset="0" stop-color="#FBFEFF" stop-opacity="1" /><stop offset="1" stop-color="#51B1F2" stop-opacity="1" /></linearGradient><linearGradient id="linear_2" x1="108.34801601225834%" y1="49.99999999999858%" x2="4.6904306271351%" y2="22.180630060488227%" gradientUnits="objectBoundingBox"><stop offset="0" stop-color="#FBFEFF" stop-opacity="1" /><stop offset="1" stop-color="#41A1EB" stop-opacity="1" /></linearGradient><linearGradient id="linear_3" x1="108.34801601225834%" y1="49.99999999999858%" x2="-7.105427357601002e-13%" y2="1.4210854715202004e-12%" gradientUnits="objectBoundingBox"><stop offset="0" stop-color="#FBFEFF" stop-opacity="1" /><stop offset="1" stop-color="#47A7ED" stop-opacity="1" /></linearGradient><linearGradient id="linear_4" x1="-8.348016012258341%" y1="50.00000000000142%" x2="95.50343316838052%" y2="61.96999577957456%" gradientUnits="objectBoundingBox"><stop offset="0" stop-color="#FBFEFF" stop-opacity="1" /><stop offset="1" stop-color="#4AAAEF" stop-opacity="1" /></linearGradient><linearGradient id="linear_5" x1="5.523051698319215%" y1="94.81053478513869%" x2="100.00000000000009%" y2="94.81053478513869%" gradientUnits="objectBoundingBox"><stop offset="0.002905785620629371" stop-color="#FFFFFF" stop-opacity="1" /><stop offset="1" stop-color="#CEE9FA" stop-opacity="1" /></linearGradient><linearGradient id="linear_6" x1="5.523051698319215%" y1="94.81053478513869%" x2="100.00000000000009%" y2="94.81053478513869%" gradientUnits="objectBoundingBox"><stop offset="0.002905785620629371" stop-color="#FFFFFF" stop-opacity="1" /><stop offset="1" stop-color="#CEE9FA" stop-opacity="1" /></linearGradient><linearGradient id="linear_7" x1="5.523051698319215%" y1="94.81053478513869%" x2="100.00000000000009%" y2="94.81053478513869%" gradientUnits="objectBoundingBox"><stop offset="0.002905785620629371" stop-color="#FFFFFF" stop-opacity="1" /><stop offset="1" stop-color="#CEE9FA" stop-opacity="1" /></linearGradient><linearGradient id="linear_8" x1="94.47694830168078%" y1="5.189465214861322%" x2="-8.881784197001252e-14%" y2="5.189465214861322%" gradientUnits="objectBoundingBox"><stop offset="0.002905785620629371" stop-color="#FFFFFF" stop-opacity="1" /><stop offset="1" stop-color="#CEE9FA" stop-opacity="1" /></linearGradient><linearGradient id="linear_9" x1="0%" y1="50%" x2="117.50997540507271%" y2="51.15414112998273%" gradientUnits="objectBoundingBox"><stop offset="0" stop-color="#474848" stop-opacity="1" /><stop offset="0.1913000404324942" stop-color="#5B5C5B" stop-opacity="1" /><stop offset="0.5261301101808602" stop-color="#474846" stop-opacity="1" /><stop offset="0.8300114938587168" stop-color="#5B5C5B" stop-opacity="1" /><stop offset="1" stop-color="#545454" stop-opacity="1" /></linearGradient><filter id="filter_38" x="1.399543852374045" y="0" width="15.81671159029651" height="18" filterUnits="userSpaceOnUse" color-interpolation-filters="sRGB"></filter><filter id="filter_40" x="20.06012855069459" y="0" width="15.816711590296503" height="18" filterUnits="userSpaceOnUse" color-interpolation-filters="sRGB"></filter><filter id="filter_42" x="1.77635683940025e-15" y="0" width="16.74974082521258" height="18" filterUnits="userSpaceOnUse" color-interpolation-filters="sRGB"></filter><filter id="filter_44" x="18.66058469832057" y="0" width="16.74974082521259" height="18" filterUnits="userSpaceOnUse" color-interpolation-filters="sRGB"></filter></defs><g opacity="1" transform="translate(0 0)  rotate(0 69.42193655401206 20)"><g opacity="1" transform="translate(0 0)  rotate(0 20 20)"><path id="多边形备份" fill-rule="evenodd" fill="url(#linear_0)" transform="translate(0 0)  rotate(0 20 20)" opacity="1" d="M2.68,12.31L2.68,27.69C2.68,29.12 3.44,30.44 4.68,31.15L18,38.85C19.24,39.56 20.76,39.56 22,38.85L35.32,31.15C36.56,30.44 37.32,29.12 37.32,27.69L37.32,12.31C37.32,10.88 36.56,9.56 35.32,8.85L22,1.15C20.76,0.44 19.24,0.44 18,1.15L4.68,8.85C3.44,9.56 2.68,10.88 2.68,12.31Z " /><g opacity="1" transform="translate(8 8)  rotate(0 12 12)"><path id="矩形" fill-rule="evenodd" fill="url(#linear_1)" transform="translate(7.837174331260785 5.482643564398988)  rotate(0 2.9093747349522996 1.5865853371329035)" opacity="1" d="M5.82,1.03C5.82,1.03 4.37,0.52 3.4,0.26C2.43,0 0,0 0,0L0,1.97C0,1.97 2.34,1.99 3.26,2.24C4.19,2.49 5.82,3.17 5.82,3.17L5.82,1.03Z " /><path id="矩形备份 19" fill-rule="evenodd" fill="url(#linear_2)" transform="translate(10.34364930407179 15.22881063535826)  rotate(0 2.9093747349523476 1.5865853371329024)" opacity="1" d="M0,2.14C0,2.14 1.45,2.65 2.42,2.91C3.39,3.18 5.82,3.17 5.82,3.17L5.82,1.21C5.82,1.21 3.47,1.19 2.55,0.94C1.63,0.69 0,0 0,0L0,2.14Z " /><path id="矩形备份 18" fill-rule="evenodd" fill="url(#linear_3)" transform="translate(4.206794973444164 11.82054072191101)  rotate(90 2.893972314134528 1.5950295281524276)" opacity="1" d="M0,2.15C0,2.15 1.44,2.66 2.4,2.93C3.37,3.19 5.79,3.19 5.79,3.19L5.79,1.21C5.79,1.21 3.46,1.19 2.54,0.94C1.62,0.69 0,0 0,0L0,2.15Z " /><path id="矩形备份 13" fill-rule="evenodd" fill="url(#linear_4)" transform="translate(14.00483350352361 9.100680143968674)  rotate(90 2.8939723141345546 1.595029528152442)" opacity="1" d="M5.79,1.04C5.79,1.04 4.35,0.53 3.38,0.26C2.42,0 0,0 0,0L0,1.98C0,1.98 2.33,2 3.25,2.25C4.16,2.5 5.79,3.19 5.79,3.19L5.79,1.04Z " /><path id="矩形备份 3" fill-rule="evenodd" fill="url(#linear_5)" transform="translate(-1.111495944857089 6.982426380207535)  rotate(-90 6.225591332592055 5.114095387734965)" opacity="1" d="M2.59,5.01C2.59,5.01 3.11,3.79 3.21,3.64C3.71,2.96 4.14,2.69 4.49,2.47C5.36,1.92 6.49,1.8 7.49,1.99C7.76,2.04 8.38,2.31 8.92,2.73C9.29,3.02 9.93,3.74 10.27,4.87C10.33,5.08 10.38,5.31 10.41,5.46C10.44,5.57 10.41,5.75 10.41,5.75L12.45,5.75C12.45,5.75 12.45,5.53 12.45,5.47C12.41,5.15 12.28,4.85 12.19,4.58C11.72,3.13 10.87,1.92 10.27,1.41C9.99,1.16 9.5,0.81 9.05,0.59C8.31,0.23 7.6,0.06 7.49,0.05C6.66,-0.01 6.06,-0.02 5.7,0.03C4.71,0.17 3.99,0.54 3.46,0.85C2.93,1.16 2.22,1.73 1.69,2.47C1.52,2.71 1.22,3.14 0.97,3.83C0.85,4.17 0.68,5.03 0.68,5.03L0.68,9.09L0,10.23L1.68,10.23C1.68,10.23 2.23,10.21 2.43,9.89C2.62,9.56 2.59,8.87 2.59,8.87L2.59,5.01Z " /><path id="矩形备份 8" fill-rule="evenodd" fill="url(#linear_6)" transform="translate(5.747782248960473 0)  rotate(0 6.2587254358714 5.08702103106383)" opacity="1" d="M1.69,2.46C1.53,2.69 1.22,3.12 0.98,3.81C0.86,4.14 0.68,5 0.68,5L0.68,9.04L0,10.17L1.69,10.17C1.69,10.17 2.25,10.16 2.44,9.83C2.63,9.51 2.6,8.82 2.6,8.82L2.6,4.98C2.6,4.98 3.12,3.77 3.23,3.62C3.73,2.94 4.16,2.67 4.51,2.46C5.39,1.91 6.53,1.79 7.53,1.98C7.8,2.03 8.42,2.3 8.97,2.72C9.34,3 9.98,3.72 10.32,4.85C10.39,5.06 10.44,5.28 10.47,5.43C10.49,5.54 10.47,5.65 10.47,5.65L12.51,5.65C12.51,5.65 12.52,5.5 12.51,5.44C12.47,5.12 12.34,4.82 12.26,4.55C11.78,3.12 10.93,1.91 10.32,1.4C10.04,1.16 9.55,0.81 9.1,0.59C8.36,0.23 7.64,0.06 7.53,0.05C6.7,-0.01 6.1,-0.02 5.73,0.03C4.73,0.16 4.01,0.53 3.47,0.85C2.95,1.15 2.23,1.72 1.69,2.46Z " /><path id="矩形备份 9" fill-rule="evenodd" fill="url(#linear_7)" transform="translate(12.66031327967302 7.002311387028589)  rotate(90 6.22559133259202 5.114095387734945)" opacity="1" d="M10.27,1.41C9.99,1.16 9.5,0.81 9.05,0.59C8.31,0.23 7.6,0.06 7.49,0.05C6.66,-0.01 6.06,-0.02 5.7,0.03C4.71,0.17 3.99,0.54 3.46,0.85C2.93,1.16 2.22,1.73 1.69,2.47C1.52,2.71 1.22,3.14 0.97,3.83C0.85,4.17 0.68,5.03 0.68,5.03L0.68,9.09L0,10.23L1.68,10.23C1.68,10.23 2.23,10.21 2.43,9.89C2.62,9.56 2.59,8.87 2.59,8.87L2.59,5.01C2.59,5.01 3.11,3.79 3.21,3.64C3.71,2.96 4.14,2.69 4.49,2.47C5.36,1.92 6.49,1.8 7.49,1.99C7.76,2.04 8.38,2.31 8.92,2.73C9.29,3.02 9.93,3.74 10.27,4.87C10.33,5.08 10.38,5.31 10.41,5.46C10.44,5.57 10.41,5.73 10.41,5.73L12.45,5.73C12.45,5.73 12.45,5.53 12.45,5.47C12.41,5.15 12.28,4.85 12.19,4.58C11.72,3.13 10.87,1.92 10.27,1.41Z " /><path id="矩形备份 12" fill-rule="evenodd" fill="url(#linear_8)" transform="translate(5.747782248960473 13.82595793787246)  rotate(0 6.25872543587141 5.087021031063765)" opacity="1" d="M10.82,7.72C10.99,7.48 11.29,7.05 11.54,6.36C11.66,6.03 11.83,5.18 11.83,5.18L11.83,1.13L12.52,0L10.83,0C10.83,0 10.27,0.01 10.08,0.34C9.89,0.67 9.92,1.35 9.92,1.35L9.92,5.19C9.92,5.19 9.4,6.41 9.29,6.55C8.79,7.23 8.36,7.5 8.01,7.72C7.13,8.26 5.99,8.39 4.99,8.2C4.72,8.15 4.09,7.87 3.55,7.46C3.17,7.17 2.53,6.45 2.19,5.33C2.13,5.12 2.08,4.9 2.05,4.74C2.03,4.64 2.05,4.42 2.05,4.42L0,4.42C0,4.42 0,4.67 0,4.74C0.05,5.05 0.17,5.35 0.26,5.62C0.74,7.06 1.59,8.27 2.19,8.78C2.48,9.02 2.96,9.37 3.42,9.58C4.16,9.94 4.88,10.12 4.99,10.12C5.82,10.18 6.42,10.19 6.79,10.14C7.78,10.01 8.51,9.64 9.04,9.33C9.57,9.02 10.29,8.46 10.82,7.72Z " /></g></g><g opacity="1" transform="translate(47 11)  rotate(0 45.92193655401206 9)"><path id="形状结合" fill-rule="evenodd" style="fill:#3D3D3B" transform="translate(39.50818992328429 0.3396226415093588)  rotate(0 7.398921832884105 8.660377358490585)" opacity="1" d="M12.71 14.99C14.09 13.51 14.8 11.4 14.8 8.66C14.8 5.89 14.09 3.78 12.71 2.33C11.26 0.78 9.15 0 6.33 0L0 0L0 17.32L6.33 17.32C9.15 17.32 11.26 16.54 12.71 14.99Z M10.5283 13.3959C11.4983 12.3759 11.9883 10.7959 11.9883 8.65588C11.9883 6.47588 11.4983 4.87588 10.5283 3.90588C9.53827 2.91588 7.95827 2.42588 5.79827 2.42588L2.83827 2.42588L2.83827 14.8959L5.79827 14.8959C7.95827 14.8959 9.53827 14.3859 10.5283 13.3959Z " /><path id="形状结合" fill-rule="evenodd" style="fill:#3D3D3B" transform="translate(56.67592784573923 0.3396226415093323)  rotate(0 8.23584905660377 8.660377358490585)" opacity="1" d="M4.61 12.98L11.86 12.98L13.44 17.32L16.47 17.32L9.85 0L6.62 0L0 17.32L3.03 17.32L4.61 12.98Z M8.29822 3.0566L8.19822 3.0566L5.45822 10.6466L11.0182 10.6466L8.29822 3.0566Z " /><path id="形状结合" fill-rule="evenodd" style="fill:#4E4E4D" transform="translate(55.27638399336519 0.3396226415093588)  rotate(0 8.235849056603776 8.660377358490585)" opacity="1" d="M4.61 12.98L11.86 12.98L13.44 17.32L16.47 17.32L9.85 0L6.62 0L0 17.32L3.03 17.32L4.61 12.98Z M8.29822 3.0566L8.19822 3.0566L5.45822 10.6466L11.0182 10.6466L8.29822 3.0566Z " /><path id="形状结合" fill-rule="evenodd" style="fill:#3D3D3B" transform="translate(74.9840348330915 0)  rotate(0 8.429919137466305 9)" opacity="1" d="M14.68 15.45C16.13 13.83 16.86 11.69 16.86 9.02C16.86 6.36 16.13 4.2 14.68 2.57C13.15 0.85 11.06 0 8.42 0C5.75 0 3.66 0.85 2.16 2.6C0.7 4.24 0 6.38 0 9.02C0 11.64 0.7 13.78 2.16 15.43C3.66 17.13 5.75 18 8.42 18C11.06 18 13.15 17.15 14.68 15.45Z M12.5683 13.7787C13.5083 12.6387 13.9983 11.0587 13.9983 9.02865C13.9983 6.98865 13.5083 5.38865 12.5683 4.21865C11.5983 3.05865 10.2183 2.49865 8.41827 2.49865C6.61827 2.49865 5.23828 3.10865 4.24827 4.31865C3.29827 5.47865 2.83827 7.03865 2.83827 9.02865C2.83827 10.9887 3.29827 12.5387 4.24827 13.7087C5.21828 14.8987 6.61827 15.4987 8.41827 15.4987C10.2183 15.4987 11.5983 14.9187 12.5683 13.7787Z " /><path id="形状结合" fill-rule="evenodd" fill="url(#linear_9)" transform="translate(73.1179763632594 0)  rotate(0 8.429919137466316 9)" opacity="1" d="M14.68 15.45C16.13 13.83 16.86 11.69 16.86 9.02C16.86 6.36 16.13 4.2 14.68 2.57C13.15 0.85 11.06 0 8.42 0C5.75 0 3.66 0.85 2.16 2.6C0.7 4.24 0 6.38 0 9.02C0 11.64 0.7 13.78 2.16 15.43C3.66 17.13 5.75 18 8.42 18C11.06 18 13.15 17.15 14.68 15.45Z M12.5683 13.7787C13.5083 12.6387 13.9983 11.0587 13.9983 9.02865C13.9983 6.98865 13.5083 5.38865 12.5683 4.21865C11.5983 3.05865 10.2183 2.49865 8.41827 2.49865C6.61827 2.49865 5.23828 3.10865 4.24827 4.31865C3.29827 5.47865 2.83827 7.03865 2.83827 9.02865C2.83827 10.9887 3.29827 12.5387 4.24827 13.7087C5.21828 14.8987 6.61827 15.4987 8.41827 15.4987C10.2183 15.4987 11.5983 14.9187 12.5683 13.7787Z " /><path id="形状结合" fill-rule="evenodd" style="fill:#4E4E4D" transform="translate(38.10864607091023 0.3396226415093323)  rotate(0 7.398921832884115 8.660377358490585)" opacity="1" d="M12.71 14.99C14.09 13.51 14.8 11.4 14.8 8.66C14.8 5.89 14.09 3.78 12.71 2.33C11.26 0.78 9.15 0 6.33 0L0 0L0 17.32L6.33 17.32C9.15 17.32 11.26 16.54 12.71 14.99Z M10.5283 13.3959C11.4983 12.3759 11.9883 10.7959 11.9883 8.65588C11.9883 6.47588 11.4983 4.87588 10.5283 3.90588C9.53827 2.91588 7.95827 2.42588 5.79827 2.42588L2.83827 2.42588L2.83827 14.8959L5.79827 14.8959C7.95827 14.8959 9.53827 14.3859 10.5283 13.3959Z " /><path id="路径" fill-rule="evenodd" style="fill:#3D3D3B" transform="translate(1.399543852374045 0)  rotate(0 7.908355795148255 9)" opacity="1" d="M15.82,11.64L13.05,11.64C12.71,12.95 12.13,13.95 11.3,14.6C10.53,15.19 9.51,15.5 8.27,15.5C6.38,15.5 4.97,14.9 4.08,13.73C3.25,12.64 2.84,11.06 2.84,9.02C2.84,7.03 3.25,5.48 4.1,4.37C5.02,3.11 6.38,2.5 8.2,2.5C9.41,2.5 10.41,2.74 11.18,3.27C11.98,3.81 12.52,4.63 12.81,5.77L15.57,5.77C15.31,4.03 14.55,2.62 13.29,1.6C11.98,0.53 10.29,0 8.25,0C5.48,0 3.37,0.9 1.92,2.74C0.63,4.34 0,6.45 0,9.02C0,11.64 0.61,13.73 1.84,15.28C3.25,17.08 5.41,18 8.3,18C10.16,18 11.77,17.47 13.1,16.4C14.53,15.26 15.43,13.68 15.82,11.64Z " /><path id="路径" fill-rule="evenodd" style="fill:#3D3D3B" transform="translate(20.06012855069459 0)  rotate(0 7.90835579514825 9)" opacity="1" d="M12.81,5.77L15.57,5.77C15.31,4.03 14.55,2.62 13.29,1.6C11.98,0.53 10.29,0 8.25,0C5.48,0 3.37,0.9 1.92,2.74C0.63,4.34 0,6.45 0,9.02C0,11.64 0.61,13.73 1.84,15.28C3.25,17.08 5.41,18 8.3,18C10.16,18 11.77,17.47 13.1,16.4C14.53,15.26 15.43,13.68 15.82,11.64L13.05,11.64C12.71,12.95 12.13,13.95 11.3,14.6C10.53,15.19 9.51,15.5 8.27,15.5C6.38,15.5 4.97,14.9 4.08,13.73C3.25,12.64 2.84,11.06 2.84,9.02C2.84,7.03 3.25,5.48 4.1,4.37C5.02,3.11 6.38,2.5 8.2,2.5C9.41,2.5 10.41,2.74 11.18,3.27C11.98,3.81 12.52,4.63 12.81,5.77Z " /><path id="路径" fill-rule="evenodd" style="fill:#4E4E4D" transform="translate(1.77635683940025e-15 0)  rotate(0 8.37487041260629 9)" opacity="1" d="M2.84,9.02C2.84,7.03 3.25,5.48 4.1,4.37C5.02,3.11 6.38,2.5 8.2,2.5C9.41,2.5 11.34,2.74 12.12,3.27C12.92,3.81 13.45,4.63 13.74,5.77L16.51,5.77C16.24,4.03 15.49,2.62 14.23,1.6C12.92,0.53 10.29,0 8.25,0C5.48,0 3.37,0.9 1.92,2.74C0.63,4.34 0,6.45 0,9.02C0,11.64 0.61,13.73 1.84,15.28C3.25,17.08 5.41,18 8.3,18C10.16,18 12.7,17.47 14.03,16.4C15.46,15.26 16.36,13.68 16.75,11.64L13.98,11.64C13.64,12.95 13.06,13.95 12.24,14.6C11.46,15.19 9.51,15.5 8.27,15.5C6.38,15.5 4.97,14.9 4.08,13.73C3.25,12.64 2.84,11.06 2.84,9.02Z " /><path id="路径" fill-rule="evenodd" style="fill:#4E4E4D" transform="translate(18.66058469832057 0)  rotate(0 8.374870412606295 9)" opacity="1" d="M1.84,15.28C3.25,17.08 5.41,18 8.3,18C10.16,18 12.7,17.47 14.03,16.4C15.46,15.26 16.36,13.68 16.75,11.64L13.98,11.64C13.64,12.95 13.06,13.95 12.24,14.6C11.46,15.19 9.51,15.5 8.27,15.5C6.38,15.5 4.97,14.9 4.08,13.73C3.25,12.64 2.84,11.06 2.84,9.02C2.84,7.03 3.25,5.48 4.1,4.37C5.02,3.11 6.38,2.5 8.2,2.5C9.41,2.5 11.34,2.74 12.12,3.27C12.92,3.81 13.45,4.63 13.74,5.77L16.51,5.77C16.24,4.03 15.49,2.62 14.23,1.6C12.92,0.53 10.29,0 8.25,0C5.48,0 3.37,0.9 1.92,2.74C0.63,4.34 0,6.45 0,9.02C0,11.64 0.61,13.73 1.84,15.28Z " /></g></g></svg>