<svg xmlns="http://www.w3.org/2000/svg" xmlns:xlink="http://www.w3.org/1999/xlink" width="30" height="30" viewBox="0 0 30 30" fill="none"><defs><rect id="path_0" x="0" y="0" width="30" height="30" /></defs><g opacity="1" transform="translate(0 0)  rotate(0 15 15)"><mask id="bg-mask-0" fill="white"><use xlink:href="#path_0"></use></mask><g mask="url(#bg-mask-0)" ><path id="矩形 1" fill-rule="evenodd" style="fill:#C4C4C4" transform="translate(0 0)  rotate(0 15 15)" opacity="0" d="M0,30L30,30L30,0L0,0L0,30Z " /><g opacity="1" transform="translate(9 8.99999999569809)  rotate(0 6 6.0000000043020005)"><g opacity="1" transform="translate(0 0)  rotate(0 6 6.0000000043020005)"><g opacity="1" transform="translate(0 0)  rotate(0 5.999999999999863 6.000000004301537)"><path id="路径" fill-rule="evenodd" style="fill:#99A5BE" transform="translate(0 0)  rotate(0 5.999999999999864 6.000000004301537)" opacity="1" d="M10.51,11.74C10.73,11.96 11.05,12.05 11.35,11.97C11.65,11.89 11.89,11.66 11.97,11.35C12.05,11.05 11.96,10.73 11.74,10.51L7.43,6L11.75,1.49C11.96,1.27 12.05,0.95 11.97,0.65C11.89,0.35 11.66,0.11 11.35,0.03C11.05,-0.05 10.73,0.04 10.51,0.26L6,4.52L1.49,0.25C1.15,-0.08 0.6,-0.08 0.26,0.25C-0.08,0.59 -0.08,1.15 0.26,1.49L4.42,6L0.25,10.51C-0.08,10.85 -0.08,11.4 0.25,11.74C0.59,12.08 1.15,12.08 1.49,11.74L6,7.43L10.51,11.74Z " /></g></g></g></g></g></svg>