<svg xmlns="http://www.w3.org/2000/svg" xmlns:xlink="http://www.w3.org/1999/xlink" width="74" height="20.5" viewBox="0 0 74 20.5" fill="none"><defs><linearGradient id="linear_0" x1="73.51985202429407%" y1="19.302756345730536%" x2="29.14327285324659%" y2="100%" gradientUnits="objectBoundingBox"><stop offset="0" stop-color="#62C4F9" stop-opacity="1" /><stop offset="1" stop-color="#2280DE" stop-opacity="1" /></linearGradient><linearGradient id="linear_1" x1="-8.348016012258341%" y1="50.00000000000142%" x2="95.94203344158885%" y2="70.40916467174156%" gradientUnits="objectBoundingBox"><stop offset="0" stop-color="#FBFEFF" stop-opacity="1" /><stop offset="1" stop-color="#51B1F2" stop-opacity="1" /></linearGradient><linearGradient id="linear_2" x1="108.34801601225834%" y1="49.99999999999858%" x2="4.6904306271351%" y2="22.180630060488227%" gradientUnits="objectBoundingBox"><stop offset="0" stop-color="#FBFEFF" stop-opacity="1" /><stop offset="1" stop-color="#41A1EB" stop-opacity="1" /></linearGradient><linearGradient id="linear_3" x1="108.34801601225834%" y1="49.99999999999858%" x2="-7.105427357601002e-13%" y2="1.4210854715202004e-12%" gradientUnits="objectBoundingBox"><stop offset="0" stop-color="#FBFEFF" stop-opacity="1" /><stop offset="1" stop-color="#47A7ED" stop-opacity="1" /></linearGradient><linearGradient id="linear_4" x1="-8.348016012258341%" y1="50.00000000000142%" x2="95.50343316838052%" y2="61.96999577957456%" gradientUnits="objectBoundingBox"><stop offset="0" stop-color="#FBFEFF" stop-opacity="1" /><stop offset="1" stop-color="#4AAAEF" stop-opacity="1" /></linearGradient><linearGradient id="linear_5" x1="5.523051698319215%" y1="94.81053478513869%" x2="100.00000000000009%" y2="94.81053478513869%" gradientUnits="objectBoundingBox"><stop offset="0.002905785620629371" stop-color="#FFFFFF" stop-opacity="1" /><stop offset="1" stop-color="#CEE9FA" stop-opacity="1" /></linearGradient><linearGradient id="linear_6" x1="5.523051698319215%" y1="94.81053478513869%" x2="100.00000000000009%" y2="94.81053478513869%" gradientUnits="objectBoundingBox"><stop offset="0.002905785620629371" stop-color="#FFFFFF" stop-opacity="1" /><stop offset="1" stop-color="#CEE9FA" stop-opacity="1" /></linearGradient><linearGradient id="linear_7" x1="5.523051698319215%" y1="94.81053478513869%" x2="100.00000000000009%" y2="94.81053478513869%" gradientUnits="objectBoundingBox"><stop offset="0.002905785620629371" stop-color="#FFFFFF" stop-opacity="1" /><stop offset="1" stop-color="#CEE9FA" stop-opacity="1" /></linearGradient><linearGradient id="linear_8" x1="94.47694830168078%" y1="5.189465214861322%" x2="-8.881784197001252e-14%" y2="5.189465214861322%" gradientUnits="objectBoundingBox"><stop offset="0.002905785620629371" stop-color="#FFFFFF" stop-opacity="1" /><stop offset="1" stop-color="#CEE9FA" stop-opacity="1" /></linearGradient></defs><g opacity="1" transform="translate(0 0)  rotate(0 37 10.25)"><g opacity="1" transform="translate(28 0)  rotate(0 23 10)"><text><tspan x="0" y="13" font-size="14" line-height="0" fill="#399AE8" opacity="1" font-family="Roboto-Regular" letter-spacing="-1.4" >CCDAO</tspan></text></g><g opacity="1" transform="translate(0 0.5)  rotate(0 10 10)"><path id="多边形备份" fill-rule="evenodd" fill="url(#linear_0)" transform="translate(0 0)  rotate(0 10 10)" opacity="1" d="M1.34,7.31L1.34,12.69C1.34,14.12 2.1,15.44 3.34,16.15L8,18.85C9.24,19.56 10.76,19.56 12,18.85L16.66,16.15C17.9,15.44 18.66,14.12 18.66,12.69L18.66,7.31C18.66,5.88 17.9,4.56 16.66,3.85L12,1.15C10.76,0.44 9.24,0.44 8,1.15L3.34,3.85C2.1,4.56 1.34,5.88 1.34,7.31Z " /><g opacity="1" transform="translate(3.999999999999999 3.999999999999999)  rotate(0 6 6)"><path id="矩形" fill-rule="evenodd" fill="url(#linear_1)" transform="translate(3.9185871656303948 2.7413217821994946)  rotate(0 1.45468736747615 0.7932926685664519)" opacity="1" d="M2.91,0.52C2.91,0.52 2.19,0.26 1.7,0.13C1.22,0 0,0 0,0L0,0.98C0,0.98 1.17,0.99 1.63,1.12C2.09,1.24 2.91,1.59 2.91,1.59L2.91,0.52Z " /><path id="矩形备份 19" fill-rule="evenodd" fill="url(#linear_2)" transform="translate(5.171824652035895 7.614405317679131)  rotate(0 1.4546873674761738 0.7932926685664512)" opacity="1" d="M0,1.07C0,1.07 0.72,1.33 1.21,1.46C1.69,1.59 2.91,1.59 2.91,1.59L2.91,0.6C2.91,0.6 1.74,0.59 1.28,0.47C0.82,0.34 0,0 0,0L0,1.07Z " /><path id="矩形备份 18" fill-rule="evenodd" fill="url(#linear_3)" transform="translate(2.1033974867220833 5.910270360955504)  rotate(90 1.446986157067264 0.7975147640762138)" opacity="1" d="M0,1.08C0,1.08 0.72,1.33 1.2,1.46C1.68,1.6 2.89,1.6 2.89,1.6L2.89,0.61C2.89,0.61 1.73,0.6 1.27,0.47C0.81,0.35 0,0 0,0L0,1.08Z " /><path id="矩形备份 13" fill-rule="evenodd" fill="url(#linear_4)" transform="translate(7.002416751761807 4.5503400719843405)  rotate(90 1.446986157067277 0.7975147640762209)" opacity="1" d="M2.89,0.52C2.89,0.52 2.17,0.26 1.69,0.13C1.21,0 0,0 0,0L0,0.99C0,0.99 1.17,1 1.62,1.12C2.08,1.25 2.89,1.6 2.89,1.6L2.89,0.52Z " /><path id="矩形备份 3" fill-rule="evenodd" fill="url(#linear_5)" transform="translate(-0.5557479724285441 3.4912131901037666)  rotate(-90 3.1127956662960274 2.5570476938674824)" opacity="1" d="M4.52,0.3C4.16,0.12 3.8,0.03 3.75,0.03C3.33,-0.01 3.03,-0.01 2.85,0.02C2.35,0.08 1.99,0.27 1.73,0.43C1.47,0.58 1.11,0.86 0.84,1.23C0.76,1.35 0.61,1.57 0.49,1.92C0.43,2.08 0.34,2.51 0.34,2.51L0.34,4.54L0,5.11L0.84,5.11C0.84,5.11 1.12,5.11 1.21,4.94C1.31,4.78 1.29,4.44 1.29,4.44L1.29,2.5C1.29,2.5 1.55,1.89 1.61,1.82C1.86,1.48 2.07,1.34 2.24,1.23C2.68,0.96 3.25,0.9 3.75,0.99C3.88,1.02 4.19,1.16 4.46,1.37C4.65,1.51 4.96,1.87 5.13,2.44C5.17,2.54 5.19,2.65 5.21,2.73C5.22,2.78 5.21,2.87 5.21,2.87L6.22,2.87C6.22,2.87 6.23,2.76 6.22,2.73C6.2,2.57 6.14,2.42 6.1,2.29C5.86,1.57 5.43,0.96 5.13,0.7C4.99,0.58 4.75,0.41 4.52,0.3Z " /><path id="矩形备份 8" fill-rule="evenodd" fill="url(#linear_6)" transform="translate(2.8738911244802363 0)  rotate(0 3.1293627179357 2.5435105155319144)" opacity="1" d="M6.26,2.72C6.24,2.56 6.17,2.41 6.13,2.28C5.89,1.56 5.46,0.95 5.16,0.7C5.02,0.58 4.78,0.4 4.55,0.29C4.18,0.12 3.82,0.03 3.77,0.03C3.35,-0.01 3.05,-0.01 2.87,0.02C2.37,0.08 2.01,0.27 1.74,0.42C1.48,0.58 1.11,0.86 0.85,1.23C0.76,1.35 0.61,1.56 0.49,1.91C0.43,2.07 0.34,2.5 0.34,2.5L0.34,4.52L0,5.09L0.84,5.09C0.84,5.09 1.12,5.08 1.22,4.92C1.32,4.75 1.3,4.41 1.3,4.41L1.3,2.49C1.3,2.49 1.56,1.88 1.61,1.81C1.87,1.47 2.08,1.34 2.26,1.23C2.69,0.96 3.26,0.89 3.77,0.99C3.9,1.01 4.21,1.15 4.49,1.36C4.67,1.5 4.99,1.86 5.16,2.42C5.19,2.53 5.22,2.64 5.23,2.72C5.25,2.77 5.23,2.83 5.23,2.83L6.26,2.83C6.26,2.83 6.26,2.75 6.26,2.72Z " /><path id="矩形备份 9" fill-rule="evenodd" fill="url(#linear_7)" transform="translate(6.3301566398365114 3.5011556935142982)  rotate(90 3.1127956662960097 2.557047693867473)" opacity="1" d="M1.29,2.5C1.29,2.5 1.55,1.89 1.61,1.82C1.86,1.48 2.07,1.34 2.24,1.23C2.68,0.96 3.25,0.9 3.75,0.99C3.88,1.02 4.19,1.16 4.46,1.37C4.65,1.51 4.96,1.87 5.13,2.44C5.17,2.54 5.19,2.65 5.21,2.73C5.22,2.78 5.21,2.87 5.21,2.87L6.22,2.87C6.22,2.87 6.23,2.76 6.22,2.73C6.2,2.57 6.14,2.42 6.1,2.29C5.86,1.57 5.43,0.96 5.13,0.7C4.99,0.58 4.75,0.41 4.52,0.3C4.16,0.12 3.8,0.03 3.75,0.03C3.33,-0.01 3.03,-0.01 2.85,0.02C2.35,0.08 1.99,0.27 1.73,0.43C1.47,0.58 1.11,0.86 0.84,1.23C0.76,1.35 0.61,1.57 0.49,1.92C0.43,2.08 0.34,2.51 0.34,2.51L0.34,4.54L0,5.11L0.84,5.11C0.84,5.11 1.12,5.11 1.21,4.94C1.31,4.78 1.29,4.44 1.29,4.44L1.29,2.5Z " /><path id="矩形备份 12" fill-rule="evenodd" fill="url(#linear_8)" transform="translate(2.8738911244802363 6.9129789689362315)  rotate(0 3.1293627179357055 2.5435105155318825)" opacity="1" d="M4.96,0.67L4.96,2.6C4.96,2.6 4.7,3.2 4.64,3.28C4.39,3.61 4.18,3.75 4,3.86C3.56,4.13 2.99,4.19 2.49,4.1C2.36,4.07 2.05,3.94 1.77,3.73C1.59,3.59 1.27,3.23 1.1,2.66C1.07,2.56 1.04,2.45 1.02,2.37C1.01,2.32 1.02,2.21 1.02,2.21L0,2.21C0,2.21 0,2.34 0,2.37C0.02,2.53 0.09,2.68 0.13,2.81C0.37,3.53 0.79,4.13 1.1,4.39C1.24,4.51 1.48,4.68 1.71,4.79C2.08,4.97 2.44,5.06 2.49,5.06C2.91,5.09 3.21,5.1 3.39,5.07C3.89,5 4.25,4.82 4.52,4.66C4.78,4.51 5.14,4.23 5.41,3.86C5.5,3.74 5.65,3.52 5.77,3.18C5.83,3.02 5.92,2.59 5.92,2.59L5.92,0.57L6.26,0L5.41,0C5.41,0 5.14,0.01 5.04,0.17C4.94,0.33 4.96,0.67 4.96,0.67Z " /></g></g></g></svg>