<svg xmlns="http://www.w3.org/2000/svg" xmlns:xlink="http://www.w3.org/1999/xlink" width="40" height="40" viewBox="0 0 40 40" fill="none"><g opacity="1" transform="translate(0 0)  rotate(0 20 20)"><path id="路径" fill-rule="evenodd" style="fill:#FFFFFF" transform="translate(4.999999999999993 5.0000000000000036)  rotate(90 15 15)" opacity="1" d="M0.43 27.58L12.98 15.07L0.53 2.47C-0.05 1.89 -0.05 1.02 0.53 0.44C1.11 -0.15 1.98 -0.15 2.56 0.44L15 13.04L27.45 0.53C28.03 -0.05 28.9 -0.05 29.48 0.53C30.06 1.12 30.06 1.99 29.48 2.57L17.03 15.07L29.57 27.58C30.14 28.16 30.14 29.03 29.57 29.61C29.28 29.9 28.89 30 28.51 30C28.12 30 27.74 29.9 27.45 29.61L15 17.11L2.55 29.61C2.26 29.9 1.88 30 1.49 30C1.11 30 0.72 29.9 0.43 29.61C-0.14 29.03 -0.14 28.16 0.43 27.58Z" /></g></svg>