<svg xmlns="http://www.w3.org/2000/svg" xmlns:xlink="http://www.w3.org/1999/xlink" width="120" height="120" viewBox="0 0 120 120" fill="none"><defs><filter id="filter_2" x="-5" y="-5" width="130" height="130" filterUnits="userSpaceOnUse" color-interpolation-filters="sRGB"><feFlood flood-opacity="0" result="BackgroundImageFix"/>
          <feColorMatrix in="SourceAlpha" type="matrix" values="0 0 0 0 0 0 0 0 0 0 0 0 0 0 0 0 0 0 127 0"/>
          <feOffset dx="0" dy="1"/>
          <feGaussianBlur stdDeviation="2.5"/>
          <feColorMatrix type="matrix" values="0 0 0 0 0.788235294117647 0 0 0 0 0.8745098039215686 0 0 0 0 0.9411764705882353 0 0 0 1 0"/>
          <feBlend mode="normal" in2="BackgroundImageFix" result="effect1_Shadow"/>
          <feBlend mode="normal" in="SourceGraphic" in2="effect1_Shadow" result="shape"/></filter><linearGradient id="linear_0" x1="-8.348016012258341%" y1="50.00000000000142%" x2="95.94203344158885%" y2="70.40916467174156%" gradientUnits="objectBoundingBox"><stop offset="0" stop-color="#FBFEFF" stop-opacity="1" /><stop offset="1" stop-color="#51B1F2" stop-opacity="1" /></linearGradient><linearGradient id="linear_1" x1="108.34801601225834%" y1="49.99999999999858%" x2="4.6904306271351%" y2="22.180630060488227%" gradientUnits="objectBoundingBox"><stop offset="0" stop-color="#FBFEFF" stop-opacity="1" /><stop offset="1" stop-color="#41A1EB" stop-opacity="1" /></linearGradient><linearGradient id="linear_2" x1="108.34801601225834%" y1="49.99999999999858%" x2="-7.105427357601002e-13%" y2="1.4210854715202004e-12%" gradientUnits="objectBoundingBox"><stop offset="0" stop-color="#FBFEFF" stop-opacity="1" /><stop offset="1" stop-color="#47A7ED" stop-opacity="1" /></linearGradient><linearGradient id="linear_3" x1="-8.348016012258341%" y1="50.00000000000142%" x2="95.50343316838052%" y2="61.96999577957456%" gradientUnits="objectBoundingBox"><stop offset="0" stop-color="#FBFEFF" stop-opacity="1" /><stop offset="1" stop-color="#4AAAEF" stop-opacity="1" /></linearGradient><linearGradient id="linear_4" x1="5.523051698319215%" y1="94.81053478513869%" x2="100.00000000000009%" y2="94.81053478513869%" gradientUnits="objectBoundingBox"><stop offset="0.002905785620629371" stop-color="#FFFFFF" stop-opacity="1" /><stop offset="1" stop-color="#CEE9FA" stop-opacity="1" /></linearGradient><linearGradient id="linear_5" x1="5.523051698319215%" y1="94.81053478513869%" x2="100.00000000000009%" y2="94.81053478513869%" gradientUnits="objectBoundingBox"><stop offset="0.002905785620629371" stop-color="#FFFFFF" stop-opacity="1" /><stop offset="1" stop-color="#CEE9FA" stop-opacity="1" /></linearGradient><linearGradient id="linear_6" x1="5.523051698319215%" y1="94.81053478513869%" x2="100.00000000000009%" y2="94.81053478513869%" gradientUnits="objectBoundingBox"><stop offset="0.002905785620629371" stop-color="#FFFFFF" stop-opacity="1" /><stop offset="1" stop-color="#CEE9FA" stop-opacity="1" /></linearGradient><linearGradient id="linear_7" x1="94.47694830168078%" y1="5.189465214861322%" x2="-8.881784197001252e-14%" y2="5.189465214861322%" gradientUnits="objectBoundingBox"><stop offset="0.002905785620629371" stop-color="#FFFFFF" stop-opacity="1" /><stop offset="1" stop-color="#CEE9FA" stop-opacity="1" /></linearGradient></defs><g opacity="1" transform="translate(0 0)  rotate(0 60 60)"><g id="多边形备份" filter="url(#filter_2)"><path id="多边形备份" fill-rule="evenodd" style="fill:#61C78A" transform="translate(0 0)  rotate(0 60 60)" opacity="1" d="M115.94,38.53L115.94,38.53C115.19,36.58 114.34,34.66 113.39,32.8L113.39,32.8C112.44,30.94 111.39,29.12 110.25,27.37L110.25,27.37C109.11,25.61 107.88,23.92 106.56,22.29L106.56,22.29C105.25,20.66 103.85,19.11 102.37,17.63L102.37,17.63C100.89,16.15 99.34,14.75 97.71,13.44L97.71,13.44C96.08,12.12 94.39,10.89 92.63,9.75L92.63,9.75C90.88,8.61 89.06,7.56 87.2,6.61L87.2,6.61C85.34,5.66 83.42,4.81 81.47,4.06L81.47,4.06C79.52,3.31 77.53,2.66 75.51,2.12L75.51,2.12C73.49,1.58 71.44,1.15 69.37,0.82L69.37,0.82C67.31,0.49 65.23,0.27 63.14,0.16L63.14,0.16C61.05,0.05 58.95,0.05 56.86,0.16L56.86,0.16C54.77,0.27 52.69,0.49 50.63,0.82L50.63,0.82C48.56,1.15 46.51,1.58 44.49,2.12L44.49,2.12C42.47,2.66 40.48,3.31 38.53,4.06L38.53,4.06C36.58,4.81 34.66,5.66 32.8,6.61L32.8,6.61C30.94,7.56 29.12,8.61 27.37,9.75L27.37,9.75C25.61,10.89 23.92,12.12 22.29,13.44L22.29,13.44C20.66,14.75 19.11,16.15 17.63,17.63L17.63,17.63C16.15,19.11 14.75,20.66 13.44,22.29L13.44,22.29C12.12,23.92 10.89,25.61 9.75,27.37L9.75,27.37C8.61,29.12 7.56,30.94 6.61,32.8L6.61,32.8C5.66,34.66 4.81,36.58 4.06,38.53L4.06,38.53C3.31,40.48 2.66,42.47 2.12,44.49L2.12,44.49C1.58,46.51 1.15,48.56 0.82,50.63L0.82,50.63C0.49,52.69 0.27,54.77 0.16,56.86L0.16,56.86C0.05,58.95 0.05,61.05 0.16,63.14L0.16,63.14C0.27,65.23 0.49,67.31 0.82,69.37L0.82,69.37C1.15,71.44 1.58,73.49 2.12,75.51L2.12,75.51C2.66,77.53 3.31,79.52 4.06,81.47L4.06,81.47C4.81,83.42 5.66,85.34 6.61,87.2L6.61,87.2C7.56,89.06 8.61,90.88 9.75,92.63L9.75,92.63C10.89,94.39 12.12,96.08 13.44,97.71L13.44,97.71C14.75,99.34 16.15,100.89 17.63,102.37L17.63,102.37C19.11,103.85 20.66,105.25 22.29,106.56L22.29,106.56C23.92,107.88 25.61,109.11 27.37,110.25L27.37,110.25C29.12,111.39 30.94,112.44 32.8,113.39L32.8,113.39C34.66,114.34 36.58,115.19 38.53,115.94L38.53,115.94C40.48,116.69 42.47,117.34 44.49,117.88L44.49,117.88C46.51,118.42 48.56,118.85 50.63,119.18L50.63,119.18C52.69,119.51 54.77,119.73 56.86,119.84L56.86,119.84C58.95,119.95 61.05,119.95 63.14,119.84L63.14,119.84C65.23,119.73 67.31,119.51 69.37,119.18L69.37,119.18C71.44,118.85 73.49,118.42 75.51,117.88L75.51,117.88C77.53,117.34 79.52,116.69 81.47,115.94L81.47,115.94C83.42,115.19 85.34,114.34 87.2,113.39L87.2,113.39C89.06,112.44 90.88,111.39 92.63,110.25L92.63,110.25C94.39,109.11 96.08,107.88 97.71,106.56L97.71,106.56C99.34,105.25 100.89,103.85 102.37,102.37L102.37,102.37C103.85,100.89 105.25,99.34 106.56,97.71L106.56,97.71C107.88,96.08 109.11,94.39 110.25,92.63L110.25,92.63C111.39,90.88 112.44,89.06 113.39,87.2L113.39,87.2C114.34,85.34 115.19,83.42 115.94,81.47L115.94,81.47C116.69,79.52 117.34,77.53 117.88,75.51L117.88,75.51C118.42,73.49 118.85,71.44 119.18,69.37L119.18,69.37C119.51,67.31 119.73,65.23 119.84,63.14L119.84,63.14C119.95,61.05 119.95,58.95 119.84,56.86L119.84,56.86C119.73,54.77 119.51,52.69 119.18,50.63L119.18,50.63C118.85,48.56 118.42,46.51 117.88,44.49L117.88,44.49C117.34,42.47 116.69,40.48 115.94,38.53Z " /></g><path id="矩形 3" fill-rule="evenodd" style="fill:#FFFFFF" transform="translate(41 43.75)  rotate(0 18.999999999999993 16.25000000000004)" opacity="1" d="M16.75,32.5L27.37,18.89L32.68,12.08L35.33,8.68L36.66,6.98C36.66,6.98 38.14,5.02 37.99,2.95C37.84,0.88 35.5,0 33.5,0C31.5,0 28.5,4 28.5,4L14.91,21.57L6.88,16.08C6.88,16.08 3.08,13.76 0.75,16.88C-1.57,19.99 2.23,23.04 2.23,23.04L16.75,32.5Z " /><g opacity="0.2" transform="translate(16 16)  rotate(0 44 44)"><path id="矩形" fill-rule="evenodd" fill="url(#linear_0)" transform="translate(28.736305881289546 20.10302640279629)  rotate(0 10.667707361491765 5.817479569487312)" opacity="1" d="M21.34,3.79C21.34,3.79 16.03,1.92 12.47,0.95C8.92,-0.01 0,0 0,0L0,7.21C0,7.21 8.59,7.28 11.97,8.2C15.35,9.11 21.34,11.63 21.34,11.63L21.34,3.79Z " /><path id="矩形备份 19" fill-rule="evenodd" fill="url(#linear_1)" transform="translate(37.926714114929894 55.83897232964696)  rotate(0 10.66770736149194 5.8174795694873085)" opacity="1" d="M0,7.85C0,7.85 5.31,9.72 8.86,10.68C12.42,11.65 21.34,11.63 21.34,11.63L21.34,4.42C21.34,4.42 12.74,4.35 9.36,3.44C5.99,2.52 0,0 0,0L0,7.85Z " /><path id="矩形备份 18" fill-rule="evenodd" fill="url(#linear_2)" transform="translate(15.4249149026286 43.341982647007036)  rotate(90 10.611231818493268 5.848441603225568)" opacity="1" d="M0,7.89C0,7.89 5.28,9.77 8.82,10.74C12.35,11.71 21.22,11.7 21.22,11.7L21.22,4.45C21.22,4.45 12.67,4.38 9.31,3.46C5.96,2.53 0,0 0,0L0,7.89Z " /><path id="矩形备份 13" fill-rule="evenodd" fill="url(#linear_3)" transform="translate(51.35105617958657 33.36916052788514)  rotate(90 10.611231818493366 5.848441603225621)" opacity="1" d="M21.22,3.81C21.22,3.81 15.94,1.93 12.4,0.96C8.87,-0.01 0,0 0,0L0,7.25C0,7.25 8.55,7.32 11.91,8.24C15.27,9.16 21.22,11.7 21.22,11.7L21.22,3.81Z " /><path id="矩形备份 3" fill-rule="evenodd" fill="url(#linear_4)" transform="translate(-4.07548513114266 25.602230060760963)  rotate(-90 22.827168219504202 18.751683088361535)" opacity="1" d="M8.9,36.25C9.6,35.04 9.48,32.53 9.48,32.53L9.48,18.36C9.48,18.36 11.39,13.88 11.77,13.35C13.6,10.85 15.18,9.85 16.45,9.05C19.65,7.06 23.81,6.59 27.47,7.29C28.44,7.47 30.72,8.48 32.72,10.02C34.08,11.07 36.41,13.71 37.66,17.87C37.88,18.64 38.06,19.46 38.19,20.03C38.27,20.41 38.19,21.08 38.19,21.08L45.64,21.08C45.64,21.08 45.67,20.27 45.64,20.04C45.49,18.88 45.02,17.78 44.7,16.78C42.97,11.49 39.86,7.04 37.66,5.15C36.61,4.26 34.84,2.98 33.18,2.17C30.48,0.86 27.85,0.22 27.47,0.19C24.43,-0.04 22.24,-0.06 20.9,0.12C17.26,0.61 14.63,1.97 12.67,3.12C10.76,4.25 8.13,6.33 6.18,9.05C5.57,9.92 4.46,11.52 3.57,14.05C3.13,15.28 2.49,18.43 2.49,18.43L2.49,33.33L0,37.5L6.16,37.5C6.16,37.5 8.19,37.45 8.9,36.25Z " /><path id="矩形备份 8" fill-rule="evenodd" fill="url(#linear_5)" transform="translate(21.075201579521732 0)  rotate(0 22.94865993152847 18.652410447234043)" opacity="1" d="M27.62,7.25C28.59,7.43 30.88,8.43 32.89,9.97C34.26,11.01 36.6,13.64 37.86,17.78C38.09,18.54 38.26,19.35 38.39,19.92C38.47,20.31 38.39,20.73 38.39,20.73L45.88,20.73C45.88,20.73 45.91,20.17 45.88,19.94C45.73,18.78 45.26,17.68 44.94,16.69C43.19,11.43 40.07,7 37.86,5.13C36.81,4.24 35.03,2.96 33.36,2.16C30.65,0.85 28,0.22 27.62,0.19C24.56,-0.04 22.36,-0.06 21.01,0.12C17.35,0.6 14.71,1.95 12.74,3.1C10.82,4.23 8.17,6.3 6.21,9.01C5.59,9.87 4.49,11.46 3.58,13.97C3.14,15.19 2.51,18.33 2.51,18.33L2.51,33.15L0,37.3L6.19,37.3C6.19,37.3 8.23,37.26 8.95,36.06C9.65,34.85 9.53,32.36 9.53,32.36L9.53,18.26C9.53,18.26 11.45,13.81 11.84,13.28C13.68,10.8 15.26,9.8 16.54,9.01C19.76,7.02 23.94,6.55 27.62,7.25Z " /><path id="矩形备份 9" fill-rule="evenodd" fill="url(#linear_6)" transform="translate(46.42114869213441 25.675141752438165)  rotate(90 22.827168219504074 18.751683088361467)" opacity="1" d="M9.48,18.36C9.48,18.36 11.39,13.88 11.77,13.35C13.6,10.85 15.18,9.85 16.45,9.05C19.65,7.06 23.81,6.59 27.47,7.29C28.44,7.47 30.72,8.48 32.72,10.02C34.08,11.07 36.41,13.71 37.66,17.87C37.88,18.64 38.06,19.46 38.19,20.03C38.27,20.41 38.19,21.02 38.19,21.02L45.64,21.02C45.64,21.02 45.67,20.27 45.64,20.04C45.49,18.88 45.02,17.78 44.7,16.78C42.97,11.49 39.86,7.04 37.66,5.15C36.61,4.26 34.84,2.98 33.18,2.17C30.48,0.86 27.85,0.22 27.47,0.19C24.43,-0.04 22.24,-0.06 20.9,0.12C17.26,0.61 14.63,1.97 12.67,3.12C10.76,4.25 8.13,6.33 6.18,9.05C5.57,9.92 4.46,11.52 3.57,14.05C3.13,15.28 2.49,18.43 2.49,18.43L2.49,33.33L0,37.5L6.16,37.5C6.16,37.5 8.19,37.45 8.9,36.25C9.6,35.04 9.48,32.53 9.48,32.53L9.48,18.36Z " /><path id="矩形备份 12" fill-rule="evenodd" fill="url(#linear_7)" transform="translate(21.075201579521732 50.695179105532354)  rotate(0 22.948659931528507 18.65241044723381)" opacity="1" d="M8.04,32.18C9.09,33.06 10.87,34.34 12.54,35.14C15.25,36.45 17.9,37.09 18.28,37.11C21.34,37.34 23.54,37.36 24.89,37.19C28.54,36.7 31.19,35.35 33.16,34.2C35.08,33.08 37.72,31.01 39.68,28.3C40.3,27.44 41.41,25.85 42.31,23.33C42.75,22.11 43.39,18.98 43.39,18.98L43.39,4.16L45.9,0L39.71,0C39.71,0 37.66,0.05 36.95,1.25C36.25,2.45 36.36,4.95 36.36,4.95L36.36,19.04C36.36,19.04 34.45,23.49 34.06,24.02C32.22,26.51 30.64,27.5 29.36,28.3C26.14,30.28 21.96,30.75 18.28,30.06C17.31,29.87 15.01,28.87 13,27.34C11.64,26.3 9.29,23.67 8.04,19.53C7.81,18.77 7.63,17.95 7.51,17.38C7.43,17 7.51,16.21 7.51,16.21L0.01,16.21C0.01,16.21 -0.01,17.14 0.01,17.37C0.17,18.52 0.63,19.62 0.96,20.61C2.7,25.88 5.83,30.31 8.04,32.18Z " /></g></g></svg>