<svg xmlns="http://www.w3.org/2000/svg" xmlns:xlink="http://www.w3.org/1999/xlink" width="261.55224609375" height="125.5009765625" viewBox="0 0 261.55224609375 125.5009765625" fill="none"><g opacity="1"  transform="translate(0 1.5908203125)  rotate(0)"><g opacity="1"  transform="translate(0 0)  rotate(0)"><path id="矩形 3" fill-rule="evenodd" style="fill:#FFFFFF" opacity="1" d="M10 123.91L250 123.91C255.52 123.91 260 119.43 260 113.91L260 10C260 4.48 255.52 0 250 0L10 0C4.48 0 0 4.48 0 10L0 113.91C0 119.43 4.48 123.91 10 123.91Z"></path><path id="矩形备份 356" fill-rule="evenodd" style="fill:#F7F7F8" opacity="1" d="M24.4445 40.339L60.7745 40.339C66.2944 40.339 70.7745 35.859 70.7745 30.339L70.7745 24.4091C70.7745 18.8891 66.2944 14.4092 60.7745 14.4092L24.4445 14.4092C18.9245 14.4092 14.4445 18.8891 14.4445 24.4091L14.4445 30.339C14.4445 35.859 18.9245 40.339 24.4445 40.339Z"></path><path id="矩形备份 355" fill-rule="evenodd" style="fill:#F7F7F8" opacity="1" d="M88 40.339L122.89 40.339C128.41 40.339 132.89 35.859 132.89 30.339L132.89 24.4091C132.89 18.8891 128.41 14.4092 122.89 14.4092L88 14.4092C82.48 14.4092 78 18.8891 78 24.4091L78 30.339C78 35.859 82.48 40.339 88 40.339Z"></path><path id="矩形备份 353" fill-rule="evenodd" style="fill:#F7F7F8" opacity="1" d="M150.111 40.339L185.001 40.339C190.521 40.339 195.001 35.859 195.001 30.339L195.001 24.4091C195.001 18.8891 190.521 14.4092 185.001 14.4092L150.111 14.4092C144.591 14.4092 140.111 18.8891 140.111 24.4091L140.111 30.339C140.111 35.859 144.591 40.339 150.111 40.339Z"></path><g id="矩形备份 351" filter="url(#filter_7)"><path id="矩形备份 351" fill-rule="evenodd" style="fill:#F7F7F8" opacity="1" d="M212.222 40.339L235.552 40.339C241.072 40.339 245.552 35.859 245.552 30.339L245.552 24.4091C245.552 18.8891 241.072 14.4092 235.552 14.4092L212.222 14.4092C206.702 14.4092 202.222 18.8891 202.222 24.4091L202.222 30.339C202.222 35.859 206.702 40.339 212.222 40.339Z"></path></g><path id="矩形备份 350" fill-rule="evenodd" style="fill:#F7F7F8" opacity="1" d="M24.4445 109.495L57.8844 109.495C63.4044 109.495 67.8844 105.015 67.8844 99.4948L67.8844 93.5649C67.8844 88.0449 63.4044 83.5649 57.8844 83.5649L24.4445 83.5649C18.9245 83.5649 14.4445 88.0449 14.4445 93.5649L14.4445 99.4948C14.4445 105.015 18.9245 109.495 24.4445 109.495Z"></path><path id="矩形备份 349" fill-rule="evenodd" style="fill:#F7F7F8" opacity="1" d="M200.667 109.495L235.557 109.495C241.077 109.495 245.557 105.015 245.557 99.4948L245.557 93.5649C245.557 88.0449 241.077 83.5649 235.557 83.5649L200.667 83.5649C195.147 83.5649 190.667 88.0449 190.667 93.5649L190.667 99.4948C190.667 105.015 195.147 109.495 200.667 109.495Z"></path><path id="矩形备份 346" fill-rule="evenodd" style="fill:#F7F7F8" opacity="1" d="M86.5555 109.495L109.886 109.495C115.406 109.495 119.886 105.015 119.886 99.4948L119.886 93.5649C119.886 88.0449 115.406 83.5649 109.886 83.5649L86.5555 83.5649C81.0355 83.5649 76.5555 88.0449 76.5555 93.5649L76.5555 99.4948C76.5555 105.015 81.0355 109.495 86.5555 109.495Z"></path><path id="矩形备份 345" fill-rule="evenodd" style="fill:#F7F7F8" opacity="1" d="M137.472 109.495L175.252 109.495C180.772 109.495 185.252 105.015 185.252 99.4948L185.252 93.5649C185.252 88.0449 180.772 83.5649 175.252 83.5649L137.472 83.5649C131.952 83.5649 127.472 88.0449 127.472 93.5649L127.472 99.4948C127.472 105.015 131.952 109.495 137.472 109.495Z"></path><path id="矩形备份 347" fill-rule="evenodd" style="fill:#F7F7F8" opacity="1" d="M200.667 74.9156L235.557 74.9156C241.077 74.9156 245.557 70.4357 245.557 64.9157L245.557 58.9858C245.557 53.4658 241.077 48.9858 235.557 48.9858L200.667 48.9858C195.147 48.9858 190.667 53.4658 190.667 58.9858L190.667 64.9157C190.667 70.4357 195.147 74.9156 200.667 74.9156Z"></path><path id="矩形备份 354" fill-rule="evenodd" style="fill:#F7F7F8" opacity="1" d="M76.8054 74.9156L111.695 74.9156C117.215 74.9156 121.695 70.4357 121.695 64.9157L121.695 58.9858C121.695 53.4658 117.215 48.9858 111.695 48.9858L76.8054 48.9858C71.2854 48.9858 66.8054 53.4658 66.8054 58.9858L66.8054 64.9157C66.8054 70.4357 71.2854 74.9156 76.8054 74.9156Z"></path><path id="矩形备份 352" fill-rule="evenodd" style="fill:#F7F7F8" opacity="1" d="M25.889 74.9156L49.219 74.9156C54.739 74.9156 59.219 70.4357 59.219 64.9157L59.219 58.9858C59.219 53.4658 54.739 48.9858 49.219 48.9858L25.889 48.9858C20.369 48.9858 15.889 53.4658 15.889 58.9858L15.889 64.9157C15.889 70.4357 20.369 74.9156 25.889 74.9156Z"></path><path id="矩形备份 348" fill-rule="evenodd" style="fill:#F7F7F8" opacity="1" d="M139.278 74.9156L174.168 74.9156C179.688 74.9156 184.168 70.4357 184.168 64.9157L184.168 58.9858C184.168 53.4658 179.688 48.9858 174.168 48.9858L139.278 48.9858C133.758 48.9858 129.278 53.4658 129.278 58.9858L129.278 64.9157C129.278 70.4357 133.758 74.9156 139.278 74.9156Z"></path><path id="矩形 3" fill-rule="evenodd" style="fill:#D1D7DE" opacity="1" d="M28.521 29.1731L57.421 29.1731C58.611 29.1731 59.581 28.2031 59.581 27.0131L59.581 27.0131C59.581 25.823 58.611 24.853 57.421 24.853L28.521 24.853C27.331 24.853 26.361 25.823 26.361 27.0131L26.361 27.0131C26.361 28.2031 27.331 29.1731 28.521 29.1731Z"></path><path id="矩形 3" fill-rule="evenodd" style="fill:#D1D7DE" opacity="1" d="M95.6879 29.1731L117.368 29.1731C118.558 29.1731 119.528 28.2031 119.528 27.0131L119.528 27.0131C119.528 25.823 118.558 24.853 117.368 24.853L95.6879 24.853C94.4979 24.853 93.5279 25.823 93.5279 27.0131L93.5279 27.0131C93.5279 28.2031 94.4979 29.1731 95.6879 29.1731Z"></path><path id="矩形 3" fill-rule="evenodd" style="fill:#D1D7DE" opacity="1" d="M158.521 29.1731L178.751 29.1731C179.951 29.1731 180.921 28.2131 180.921 27.0131L180.921 27.0131C180.921 25.813 179.951 24.853 178.751 24.853L158.521 24.853C157.331 24.853 156.361 25.823 156.361 27.0131L156.361 27.0131C156.361 28.2031 157.331 29.1731 158.521 29.1731Z"></path><path id="矩形 3" fill-rule="evenodd" style="fill:#D1D7DE" opacity="1" d="M217.021 29.1731L231.481 29.1731C232.671 29.1731 233.641 28.2031 233.641 27.0131L233.641 27.0131C233.641 25.823 232.671 24.853 231.481 24.853L217.021 24.853C215.831 24.853 214.861 25.823 214.861 27.0131L214.861 27.0131C214.861 28.2031 215.831 29.1731 217.021 29.1731Z"></path><path id="矩形 3" fill-rule="evenodd" style="fill:#D1D7DE" opacity="1" d="M209.077 63.0334L227.867 63.0334C229.057 63.0334 230.027 62.0634 230.027 60.8734L230.027 60.8734C230.027 59.6834 229.057 58.7134 227.867 58.7134L209.077 58.7134C207.887 58.7134 206.917 59.6834 206.917 60.8734L206.917 60.8734C206.917 62.0634 207.887 63.0334 209.077 63.0334Z"></path><path id="矩形 3" fill-rule="evenodd" style="fill:#D1D7DE" opacity="1" d="M149.854 63.0334L165.754 63.0334C166.944 63.0334 167.914 62.0634 167.914 60.8734L167.914 60.8734C167.914 59.6834 166.944 58.7134 165.754 58.7134L149.854 58.7134C148.664 58.7134 147.694 59.6834 147.694 60.8734L147.694 60.8734C147.694 62.0634 148.664 63.0334 149.854 63.0334Z"></path><path id="矩形 3" fill-rule="evenodd" style="fill:#D1D7DE" opacity="1" d="M82.6878 63.0334L108.698 63.0334C109.888 63.0334 110.858 62.0634 110.858 60.8734L110.858 60.8734C110.858 59.6834 109.888 58.7134 108.698 58.7134L82.6878 58.7134C81.4978 58.7134 80.5278 59.6834 80.5278 60.8734L80.5278 60.8734C80.5278 62.0634 81.4978 63.0334 82.6878 63.0334Z"></path><path id="矩形 3" fill-rule="evenodd" style="fill:#D1D7DE" opacity="1" d="M29.2432 63.0334L46.5932 63.0334C47.7832 63.0334 48.7532 62.0634 48.7532 60.8734L48.7532 60.8734C48.7532 59.6834 47.7832 58.7134 46.5932 58.7134L29.2432 58.7134C28.0532 58.7134 27.0832 59.6834 27.0832 60.8734L27.0832 60.8734C27.0832 62.0634 28.0532 63.0334 29.2432 63.0334Z"></path><path id="矩形 3" fill-rule="evenodd" style="fill:#D1D7DE" opacity="1" d="M34.299 96.8904L48.759 96.8904C49.949 96.8904 50.919 95.9203 50.919 94.7303L50.919 94.7303C50.919 93.5403 49.949 92.5703 48.759 92.5703L34.299 92.5703C33.109 92.5703 32.139 93.5403 32.139 94.7303L32.139 94.7303C32.139 95.9203 33.109 96.8904 34.299 96.8904Z"></path><path id="矩形 3" fill-rule="evenodd" style="fill:#D1D7DE" opacity="1" d="M92.0768 97.6091L105.087 97.6091C106.277 97.6091 107.247 96.6391 107.247 95.4491L107.247 95.4491C107.247 94.2591 106.277 93.2891 105.087 93.2891L92.0768 93.2891C90.8868 93.2891 89.9168 94.2591 89.9168 95.4491L89.9168 95.4491C89.9168 96.6391 90.8868 97.6091 92.0768 97.6091Z"></path><path id="矩形 3" fill-rule="evenodd" style="fill:#D1D7DE" opacity="1" d="M139.021 98.3298L173.701 98.3298C174.891 98.3298 175.861 97.3598 175.861 96.1698L175.861 96.1698C175.861 94.9798 174.891 94.0098 173.701 94.0098L139.021 94.0098C137.831 94.0098 136.861 94.9798 136.861 96.1698L136.861 96.1698C136.861 97.3598 137.831 98.3298 139.021 98.3298Z"></path><path id="矩形 3" fill-rule="evenodd" style="fill:#D1D7DE" opacity="1" d="M209.799 99.0515L230.029 99.0515C231.229 99.0515 232.199 98.0915 232.199 96.8915L232.199 96.8915C232.199 95.6915 231.229 94.7314 230.029 94.7314L209.799 94.7314C208.609 94.7314 207.639 95.7015 207.639 96.8915L207.639 96.8915C207.639 98.0815 208.609 99.0515 209.799 99.0515Z"></path></g></g><defs><filter id="filter_7" x="194.22222900390625" y="6.4091796875" width="59.33331298828125" height="41.93408203125" filterUnits="userSpaceOnUse" color-interpolation-filters="sRGB"><feFlood flood-opacity="0" result="BackgroundImageFix"/>
          <feBlend mode="normal" in="SourceGraphic" in2="BackgroundImageFix" result="shape"/>
          <feGaussianBlur stdDeviation="4" result="effect1_foregroundBlur" /></filter></defs></svg>