<svg xmlns="http://www.w3.org/2000/svg" xmlns:xlink="http://www.w3.org/1999/xlink" width="160" height="116.92304687500003" viewBox="0 0 160 116.92304687500003" fill="none"><g opacity="1"  transform="translate(0 0)  rotate(0)"><g opacity="1"  transform="translate(0 0)  rotate(0)"><g opacity="1"  transform="translate(0 0)  rotate(0)"><path id="矩形备份 373" fill-rule="evenodd" style="fill:#E9F3FC" opacity="1" d="M0 6.00001L0 110.92C0 114.23 2.69 116.92 6 116.92L154 116.92C157.31 116.92 160 114.23 160 110.92L160 6.00001C160 2.69001 157.31 0 154 0L6 0C2.69 0 0 2.69001 0 6.00001Z"></path><path id="矩形备份 17" fill-rule="evenodd" style="fill:#FFFFFF" opacity="1" d="M18.3037 101.421L141.684 101.421C144.994 101.421 147.684 98.7314 147.684 95.4214L147.684 82.8013C147.684 79.4913 144.994 76.8013 141.684 76.8013L18.3037 76.8013C14.9937 76.8013 12.3037 79.4913 12.3037 82.8013L12.3037 95.4214C12.3037 98.7314 14.9937 101.421 18.3037 101.421Z"></path><path id="矩形备份 17" fill-rule="evenodd" style="fill:#FFFFFF" opacity="1" d="M18.3037 70.772L141.684 70.772C144.994 70.772 147.684 68.082 147.684 64.772L147.684 52.1519C147.684 48.8419 144.994 46.1519 141.684 46.1519L18.3037 46.1519C14.9937 46.1519 12.3037 48.8419 12.3037 52.1519L12.3037 64.772C12.3037 68.082 14.9937 70.772 18.3037 70.772Z"></path><path  id="矩形备份 17" style="fill:#2F8DE3; opacity:1;" d="M18.3037,69.772h123.3803c2.761,0 5,-2.2386 5,-5v-12.6201c0,-2.7614 -2.239,-5 -5,-5h-123.3803c-2.7614,0 -5,2.2386 -5,5v12.6201c0,2.7614 2.2386,5 5,5zM18.3037,71.772c-3.866,0 -7,-3.134 -7,-7v-12.6201c0,-3.866 3.134,-7.0001 7,-7.0001h123.3803c3.866,0 7,3.1341 7,7.0001v12.6201c0,3.866 -3.134,7 -7,7z"></path><path id="文本 8" fill-rule="evenodd" style="fill:#232323" opacity="1" d="M19.1987,91.1711v-5.8698h1.67c1.31,0 2.19,0.4399 2.19,1.7199c0,1.24 -0.87,1.81 -2.16,1.81h-0.96v2.3399zM20.8087,88.2312c1.03,0 1.52,-0.37 1.52,-1.21c0,-0.85 -0.52,-1.12 -1.55,-1.12h-0.84v2.33zM25.8787,91.2711c-1.06,0 -2.01,-0.8299 -2.01,-2.2699c0,-1.45 0.95,-2.29 2.01,-2.29c1.06,0 2.01,0.84 2.01,2.29c0,1.44 -0.95,2.2699 -2.01,2.2699zM27.1387,89.0012c0,-1 -0.51,-1.67 -1.26,-1.67c-0.75,0 -1.26,0.67 -1.26,1.67c0,1 0.51,1.66 1.26,1.66c0.75,0 1.26,-0.66 1.26,-1.66zM29.8087,91.2711c-0.55,0 -0.77,-0.3499 -0.77,-0.9699v-5.4999h0.74v5.5499c0,0.23 0.08,0.31 0.2,0.31c0.04,0 0.07,0 0.15,-0.01l0.1,0.5599c-0.1,0.03 -0.22,0.06 -0.42,0.06zM31.3787,93.0411c-0.2,0 -0.37,-0.03 -0.51,-0.09l0.15,-0.58c0.08,0.03 0.21,0.07 0.33,0.07c0.49,0 0.79,-0.4 0.98,-0.94l0.09,-0.32l-1.74,-4.3599h0.76l0.88,2.41c0.14,0.39 0.28,0.83 0.43,1.23h0.04c0.11,-0.4 0.24,-0.84 0.35,-1.23l0.79,-2.41h0.71l-1.63,4.7199c-0.31,0.84 -0.76,1.5 -1.63,1.5zM36.9387,93.1711c-1.05,0 -1.79,-0.42 -1.79,-1.16c0,-0.38 0.23,-0.74 0.64,-0.99v-0.04c-0.22,-0.1299 -0.39,-0.3599 -0.39,-0.7099c0,-0.36 0.25,-0.65 0.48,-0.81v-0.03c-0.29,-0.22 -0.57,-0.65 -0.57,-1.17c0,-0.95 0.75,-1.55 1.63,-1.55c0.24,0 0.46,0.05 0.61,0.11h1.51v0.56h-0.88c0.2,0.2 0.35,0.52 0.35,0.9c0,0.93 -0.7,1.51 -1.59,1.51c-0.21,0 -0.45,-0.05 -0.64,-0.15c-0.16,0.14 -0.28,0.28 -0.28,0.52c0,0.27 0.17,0.47 0.76,0.47h0.85c1,0 1.51,0.3099 1.51,1.0299c0,0.81 -0.85,1.51 -2.2,1.51zM37.8587,88.2612c0,-0.64 -0.4,-1.01 -0.92,-1.01c-0.51,0 -0.92,0.37 -0.92,1.01c0,0.64 0.42,1.04 0.92,1.04c0.5,0 0.92,-0.4 0.92,-1.04zM38.4187,91.7811c0,-0.4 -0.3,-0.55 -0.88,-0.55h-0.75c-0.16,0 -0.37,-0.01 -0.56,-0.06c-0.31,0.22 -0.44,0.49 -0.44,0.73c0,0.47 0.47,0.76 1.26,0.76c0.84,0 1.37,-0.43 1.37,-0.88zM41.6787,91.2711c-1.06,0 -2.01,-0.8299 -2.01,-2.2699c0,-1.45 0.95,-2.29 2.01,-2.29c1.06,0 2.01,0.84 2.01,2.29c0,1.44 -0.95,2.2699 -2.01,2.2699zM42.9387,89.0012c0,-1 -0.51,-1.67 -1.26,-1.67c-0.75,0 -1.26,0.67 -1.26,1.67c0,1 0.51,1.66 1.26,1.66c0.75,0 1.26,-0.66 1.26,-1.66zM44.8387,91.1711v-4.3499h0.6l0.07,0.64h0.02c0.41,-0.42 0.86,-0.75 1.45,-0.75c0.92,0 1.33,0.6 1.33,1.71v2.7499h-0.73v-2.6599c0,-0.81 -0.24,-1.16 -0.82,-1.16c-0.45,0 -0.75,0.23 -1.18,0.67v3.1499zM51.5787,91.1711v-5.8698h0.89l1.12,3.1399c0.15,0.4 0.28,0.82 0.43,1.22h0.03c0.15,-0.4 0.27,-0.82 0.41,-1.22l1.12,-3.1399h0.88v5.8698h-0.68v-3.2499c0,-0.5 0.05,-1.22 0.09,-1.73h-0.03l-0.47,1.34l-1.11,3.05h-0.49l-1.11,-3.05l-0.48,-1.34h-0.03c0.05,0.51 0.1,1.23 0.1,1.73v3.2499zM59.0087,91.2711c-0.73,0 -1.27,-0.4499 -1.27,-1.2299c0,-0.94 0.82,-1.42 2.67,-1.62c0,-0.56 -0.19,-1.1 -0.9,-1.1c-0.5,0 -0.96,0.23 -1.3,0.46l-0.28,-0.5c0.39,-0.26 1,-0.57 1.7,-0.57c1.07,0 1.51,0.71 1.51,1.79v2.6699h-0.6l-0.07,-0.5199h-0.02c-0.42,0.3399 -0.91,0.6199 -1.44,0.6199zM60.4087,90.1112v-1.21c-1.47,0.17 -1.96,0.53 -1.96,1.09c0,0.5 0.33,0.69 0.77,0.69c0.41,0 0.76,-0.19 1.19,-0.57zM62.5087,91.1711v-4.3499h0.74v4.3499zM62.8787,85.9312c-0.29,0 -0.48,-0.19 -0.48,-0.4899c0,-0.28 0.19,-0.47 0.48,-0.47c0.29,0 0.49,0.19 0.49,0.47c0,0.2999 -0.2,0.4899 -0.49,0.4899zM64.7087,91.1711v-4.3499h0.6l0.07,0.64h0.02c0.41,-0.42 0.86,-0.75 1.46,-0.75c0.91,0 1.32,0.6 1.32,1.71v2.7499h-0.72v-2.6599c0,-0.81 -0.25,-1.16 -0.83,-1.16c-0.45,0 -0.75,0.23 -1.18,0.67v3.1499zM69.5887,91.1711v-4.3499h0.6l0.07,0.64h0.02c0.41,-0.42 0.86,-0.75 1.46,-0.75c0.91,0 1.32,0.6 1.32,1.71v2.7499h-0.72v-2.6599c0,-0.81 -0.25,-1.16 -0.83,-1.16c-0.45,0 -0.75,0.23 -1.18,0.67v3.1499zM76.2287,91.2711c-1.16,0 -2.08,-0.8399 -2.08,-2.2699c0,-1.42 0.95,-2.29 1.95,-2.29c1.11,0 1.73,0.8 1.73,2.04c0,0.16 -0.01,0.31 -0.03,0.42h-2.93c0.05,0.93 0.62,1.52 1.44,1.52c0.43,0 0.76,-0.13 1.09,-0.35l0.26,0.49c-0.38,0.2499 -0.84,0.4399 -1.43,0.4399zM77.1887,88.6512c0,-0.88 -0.4,-1.35 -1.08,-1.35c-0.61,0 -1.16,0.48 -1.25,1.35zM80.2587,91.2711c-0.92,0 -1.23,-0.5699 -1.23,-1.4499v-2.4h-0.65v-0.56l0.69,-0.04l0.08,-1.2199h0.61v1.2199h1.18v0.6h-1.18v2.43c0,0.53 0.17,0.83 0.67,0.83c0.16,0 0.35,-0.06 0.5,-0.12l0.14,0.5499c-0.25,0.08 -0.53,0.16 -0.81,0.16z"></path><path id="文本 8" fill-rule="evenodd" style="fill:#2F8DE3" opacity="1" d="M21.2987,61.7921c-0.81,0 -1.56,-0.33 -2.1,-0.87l0.54,-0.64c0.43,0.41 1,0.69 1.58,0.69c0.7,0 1.1,-0.33 1.1,-0.83c0,-0.53 -0.4,-0.7 -0.94,-0.94l-0.82,-0.35c-0.57,-0.24 -1.2,-0.68 -1.2,-1.55c0,-0.93 0.81,-1.62 1.94,-1.62c0.7,0 1.34,0.29 1.78,0.74l-0.48,0.59c-0.36,-0.32 -0.78,-0.52 -1.3,-0.52c-0.6,0 -0.98,0.29 -0.98,0.75c0,0.51 0.47,0.69 0.94,0.89l0.81,0.35c0.7,0.29 1.2,0.73 1.2,1.59c0,0.94 -0.79,1.72 -2.07,1.72zM25.0787,61.6821l-1.19,-5.9h0.95l0.55,3.07c0.11,0.63 0.21,1.25 0.32,1.89h0.03c0.12,-0.64 0.27,-1.27 0.4,-1.89l0.76,-3.07h0.82l0.76,3.07c0.14,0.62 0.26,1.25 0.4,1.89h0.04c0.1,-0.64 0.2,-1.27 0.3,-1.89l0.56,-3.07h0.88l-1.16,5.9h-1.14l-0.79,-3.27c-0.1,-0.47 -0.19,-0.91 -0.27,-1.36h-0.04c-0.08,0.45 -0.18,0.89 -0.28,1.36l-0.77,3.27zM32.8188,61.6821v-5.11h-1.72v-0.79h4.4v0.79h-1.73v5.11zM38.8188,61.7921c-1.48,0 -2.63,-1.11 -2.63,-3.05c0,-1.91 1.18,-3.06 2.67,-3.06c0.73,0 1.31,0.35 1.67,0.74l-0.5,0.59c-0.31,-0.3 -0.68,-0.52 -1.15,-0.52c-1.02,0 -1.73,0.84 -1.73,2.23c0,1.39 0.67,2.25 1.71,2.25c0.53,0 0.94,-0.24 1.29,-0.63l0.51,0.59c-0.48,0.56 -1.08,0.86 -1.84,0.86zM43.4888,61.6821v-5.9h1.07l1.07,2.99c0.14,0.38 0.27,0.79 0.39,1.18h0.04c0.14,-0.39 0.26,-0.8 0.39,-1.18l1.05,-2.99h1.08v5.9h-0.86v-2.91c0,-0.53 0.07,-1.29 0.13,-1.83h-0.04l-0.47,1.36l-1.03,2.81h-0.57l-1.04,-2.81l-0.47,-1.36h-0.03c0.06,0.54 0.13,1.3 0.13,1.83v2.91zM51.0888,61.7921c-0.76,0 -1.3,-0.5 -1.3,-1.28c0,-0.95 0.8,-1.44 2.63,-1.64c0,-0.5 -0.19,-0.95 -0.84,-0.95c-0.46,0 -0.89,0.21 -1.27,0.45l-0.34,-0.63c0.45,-0.29 1.07,-0.57 1.77,-0.57c1.1,0 1.6,0.68 1.6,1.86v2.65h-0.75l-0.07,-0.51h-0.03c-0.4,0.35 -0.87,0.62 -1.4,0.62zM52.4188,60.5321v-1.07c-1.3,0.15 -1.74,0.49 -1.74,0.98c0,0.44 0.3,0.61 0.69,0.61c0.38,0 0.69,-0.18 1.05,-0.52zM54.6488,61.6821v-4.41h0.92v4.41zM55.1088,56.4521c-0.34,0 -0.57,-0.21 -0.57,-0.56c0,-0.32 0.23,-0.54 0.57,-0.54c0.34,0 0.57,0.22 0.57,0.54c0,0.35 -0.23,0.56 -0.57,0.56zM56.9488,61.6821v-4.41h0.75l0.08,0.62h0.02c0.4,-0.4 0.86,-0.72 1.46,-0.72c0.93,0 1.35,0.62 1.35,1.74v2.77h-0.92v-2.66c0,-0.76 -0.23,-1.05 -0.75,-1.05c-0.4,0 -0.68,0.2 -1.07,0.59v3.12zM61.9388,61.6821v-4.41h0.76l0.08,0.62h0.01c0.4,-0.4 0.86,-0.72 1.46,-0.72c0.93,0 1.35,0.62 1.35,1.74v2.77h-0.92v-2.66c0,-0.76 -0.22,-1.05 -0.74,-1.05c-0.41,0 -0.68,0.2 -1.08,0.59v3.12zM68.7788,61.7921c-1.21,0 -2.16,-0.86 -2.16,-2.31c0,-1.43 0.99,-2.31 2.01,-2.31c1.17,0 1.8,0.84 1.8,2.08c0,0.18 -0.02,0.36 -0.05,0.47h-2.85c0.07,0.84 0.6,1.34 1.36,1.34c0.39,0 0.73,-0.12 1.05,-0.33l0.32,0.59c-0.4,0.27 -0.92,0.47 -1.48,0.47zM69.6288,59.0821c0,-0.75 -0.34,-1.19 -0.98,-1.19c-0.55,0 -1.04,0.42 -1.13,1.19zM72.9388,61.7921c-0.98,0 -1.33,-0.62 -1.33,-1.55v-2.23h-0.64v-0.68l0.69,-0.06l0.1,-1.22h0.77v1.22h1.14v0.74h-1.14v2.24c0,0.52 0.18,0.8 0.65,0.8c0.14,0 0.33,-0.06 0.46,-0.11l0.17,0.68c-0.24,0.08 -0.55,0.17 -0.87,0.17z"></path><g opacity="1"  transform="translate(134.15185546875 54.76806640625)  rotate(0)"><path id="椭圆形" fill-rule="evenodd" style="fill:#43A2F4" opacity="1" d="M7.37985 3.69041C7.37985 1.65045 5.72988 0.000488281 3.68992 0.000488281C1.64997 0.000488281 0 1.65045 0 3.69041C0 5.73037 1.64997 7.38034 3.68992 7.38034C5.72988 7.38034 7.37985 5.73037 7.37985 3.69041Z"></path><path id="形状结合" fill-rule="evenodd" style="fill:#FFFFFF" opacity="1" d="M3.80326,5.30371c-0.01297,0.01756 -0.02737,0.03432 -0.04317,0.05013c-0.17676,0.17675 -0.47371,0.17674 -0.65048,-0.00002l-1.30807,-1.30808c-0.17677,-0.17677 -0.17678,-0.47372 -0.00003,-0.65048c0.17676,-0.17675 0.47371,-0.17674 0.65048,0.00003l0.97922,0.97922l1.95972,-1.95973c0.17679,-0.17679 0.47381,-0.17678 0.65061,0.00002c0.1768,0.1768 0.17682,0.47382 0.00003,0.65061z"></path></g><g opacity="1"  transform="translate(134.15185546875 85.53564453125)  rotate(0)"><path  id="椭圆形" style="fill:#B2B2B2; opacity:1;" d="M6.37987,3.68992c0,-1.48561 -1.20433,-2.68994 -2.68995,-2.68994c-1.48561,0 -2.68994,1.20433 -2.68994,2.68994c0,1.48562 1.20433,2.68995 2.68994,2.68995c1.48562,0 2.68995,-1.20433 2.68995,-2.68995zM8.37983,3.68992c0,2.59017 -2.09974,4.68991 -4.68991,4.68991c-2.59016,0 -4.6899,-2.09974 -4.6899,-4.68991c0,-2.59016 2.09974,-4.6899 4.6899,-4.6899c2.59017,0 4.68991,2.09974 4.68991,4.6899z"></path></g><path id="矩形备份 17" fill-rule="evenodd" style="fill:#FFFFFF" opacity="1" d="M18.3037 40.0044L141.684 40.0044C144.994 40.0044 147.684 37.3144 147.684 34.0044L147.684 21.3843C147.684 18.0743 144.994 15.3843 141.684 15.3843L18.3037 15.3843C14.9937 15.3843 12.3037 18.0743 12.3037 21.3843L12.3037 34.0044C12.3037 37.3144 14.9937 40.0044 18.3037 40.0044Z"></path><g opacity="1"  transform="translate(132.91943359375 23.38427734375)  rotate(0)"><path  id="椭圆形" style="fill:#B2B2B2; opacity:1;" d="M7.62013,4.31007c0,-1.82809 -1.48196,-3.31005 -3.31005,-3.31005c-1.8281,0 -3.31006,1.48196 -3.31006,3.31005c0,1.8281 1.48196,3.31006 3.31006,3.31006c1.82809,0 3.31005,-1.48196 3.31005,-3.31006zM9.62017,4.31007c0,2.93269 -2.37741,5.3101 -5.31009,5.3101c-2.93269,0 -5.3101,-2.37741 -5.3101,-5.3101c0,-2.93268 2.37741,-5.31009 5.3101,-5.31009c2.93268,0 5.31009,2.37741 5.31009,5.31009z"></path></g><path id="如果我向任何人透露分享我的助记词，我的资" fill-rule="evenodd" style="fill:#232323" opacity="1" d="M19.1987,24.64h4.36v0.61h-3.65v2.06h3.44v0.61h-3.44v2.2601h3.8v0.61h-4.51zM25.7887,24.9v1.44h1.1v0.58h-1.1v2.83c0,0.16 0.03,0.2801 0.1,0.3501c0.06,0.07 0.17,0.11 0.32,0.11h0.57v0.58h-0.67c-0.36,0 -0.63,-0.09 -0.78,-0.28c-0.15,-0.17 -0.22,-0.42 -0.22,-0.7601v-2.83h-0.9v-0.58h0.9v-1.16zM27.6587,24.52h0.69v2.55c0.15,-0.28 0.36,-0.5 0.62,-0.65c0.24,-0.13 0.51,-0.2 0.81,-0.2c0.5201,0 0.9201,0.14 1.2001,0.45c0.27,0.31 0.41,0.74 0.41,1.31v2.8101h-0.69v-2.7001c0,-0.42 -0.1,-0.74 -0.29,-0.96c-0.2101,-0.22 -0.49,-0.34 -0.8601,-0.34c-0.35,0 -0.63,0.14 -0.86,0.42c-0.23,0.27 -0.34,0.63 -0.34,1.04v2.5401h-0.69zM34.2888,26.22c0.71,0 1.25,0.24 1.62,0.72c0.32,0.43 0.49,1.04 0.51,1.82h-3.51c0.03,0.5 0.16,0.89 0.4,1.1601c0.24,0.28 0.58,0.42 1,0.42c0.36,0 0.66,-0.1 0.89,-0.28c0.19,-0.16 0.33,-0.3901 0.45,-0.7001h0.69c-0.11,0.4301 -0.31,0.7801 -0.61,1.0501c-0.37,0.33 -0.84,0.5 -1.42,0.5c-0.64,0 -1.15,-0.21 -1.53,-0.63c-0.4,-0.4301 -0.59,-1.0001 -0.59,-1.7201c0,-0.65 0.18,-1.21 0.56,-1.64c0.38,-0.47 0.89,-0.7 1.54,-0.7zM33.3488,27.18c-0.24,0.26 -0.38,0.61 -0.43,1.04h2.79c-0.09,-0.95 -0.56,-1.43 -1.41,-1.43c-0.39,0 -0.71,0.13 -0.95,0.39zM39.1888,26.22c0.24,0 0.45,0.03 0.61,0.1v0.69c-0.22,-0.07 -0.45,-0.09 -0.66,-0.09c-0.35,0 -0.64,0.14 -0.87,0.45c-0.25,0.29 -0.36,0.65 -0.36,1.06v2.3601h-0.68v-4.4501h0.68v0.77c0.12,-0.26 0.28,-0.46 0.47,-0.61c0.23,-0.19 0.5,-0.28 0.81,-0.28zM42.2088,26.22c0.72,0 1.26,0.24 1.62,0.72c0.33,0.43 0.5,1.04 0.52,1.82h-3.52c0.04,0.5 0.17,0.89 0.41,1.1601c0.24,0.28 0.58,0.42 1,0.42c0.36,0 0.66,-0.1 0.88,-0.28c0.19,-0.16 0.34,-0.3901 0.45,-0.7001h0.69c-0.1,0.4301 -0.3,0.7801 -0.6,1.0501c-0.37,0.33 -0.85,0.5 -1.42,0.5c-0.64,0 -1.16,-0.21 -1.54,-0.63c-0.39,-0.4301 -0.58,-1.0001 -0.58,-1.7201c0,-0.65 0.18,-1.21 0.56,-1.64c0.38,-0.47 0.89,-0.7 1.53,-0.7zM41.2688,27.18c-0.24,0.26 -0.38,0.61 -0.42,1.04h2.78c-0.08,-0.95 -0.56,-1.43 -1.4,-1.43c-0.4,0 -0.72,0.13 -0.96,0.39zM45.1588,26.34h0.69v2.72c0,0.42 0.08,0.74 0.26,0.9501c0.19,0.2 0.48,0.32 0.88,0.32c0.3,0 0.56,-0.12 0.8,-0.35c0.24,-0.2401 0.38,-0.5501 0.44,-0.9301v-2.71h0.68v4.4501h-0.68v-0.69c-0.37,0.54 -0.85,0.81 -1.45,0.81c-1.09,0 -1.62,-0.61 -1.62,-1.8201zM51.9288,26.22c0.68,0 1.15,0.27 1.4,0.84c0.17,-0.29 0.37,-0.51 0.62,-0.64c0.21,-0.13 0.47,-0.2 0.78,-0.2c0.47,0 0.84,0.14 1.13,0.44c0.27,0.3 0.42,0.7 0.42,1.21v2.9201h-0.69v-2.8101c0,-0.39 -0.08,-0.69 -0.25,-0.88c-0.17,-0.2 -0.45,-0.3 -0.83,-0.3c-0.29,0 -0.54,0.11 -0.73,0.33c-0.2,0.22 -0.3,0.51 -0.3,0.87v2.7901h-0.69v-2.8101c0,-0.79 -0.34,-1.18 -1.02,-1.18c-0.32,0 -0.58,0.12 -0.79,0.38c-0.2,0.24 -0.31,0.54 -0.31,0.9v2.7101h-0.69v-4.4501h0.69v0.59c0.34,-0.48 0.76,-0.71 1.26,-0.71zM60.2988,24.64h0.88l2.29,5.25h0.03l2.28,-5.25h0.88v6.1501h-0.7v-4.8901h-0.03l-2.13,4.8901h-0.64l-2.12,-4.8901h-0.03v4.8901h-0.71zM69.7488,26.22c0.64,0 1.11,0.16 1.42,0.5c0.26,0.29 0.39,0.69 0.39,1.21v2.8601h-0.64v-0.75c-0.17,0.24 -0.41,0.44 -0.68,0.6c-0.33,0.18 -0.7,0.27 -1.11,0.27c-0.45,0 -0.81,-0.11 -1.07,-0.33c-0.28,-0.24 -0.42,-0.54 -0.42,-0.9001c0,-0.51 0.2,-0.89 0.62,-1.15c0.36,-0.24 0.87,-0.37 1.55,-0.37l1.06,-0.02v-0.23c0,-0.75 -0.38,-1.12 -1.16,-1.12c-0.33,0 -0.59,0.06 -0.8,0.19c-0.23,0.14 -0.38,0.36 -0.45,0.64l-0.68,-0.05c0.1,-0.47 0.33,-0.82 0.69,-1.04c0.33,-0.21 0.75,-0.31 1.28,-0.31zM69.8488,28.67c-1,0.02 -1.5,0.35 -1.5,0.99c0,0.2101 0.08,0.3701 0.25,0.5101c0.17,0.13 0.4,0.2 0.67,0.2c0.42,0 0.8,-0.14 1.12,-0.41c0.32,-0.2701 0.48,-0.5801 0.48,-0.9301v-0.37zM73.1988,24.66c0.15,0 0.27,0.04 0.37,0.14c0.1,0.09 0.16,0.21 0.16,0.37c0,0.14 -0.06,0.26 -0.16,0.37c-0.1,0.09 -0.22,0.14 -0.37,0.14c-0.15,0 -0.27,-0.05 -0.37,-0.14c-0.1,-0.11 -0.15,-0.23 -0.15,-0.37c0,-0.16 0.05,-0.28 0.15,-0.37c0.1,-0.1 0.22,-0.14 0.37,-0.14zM72.8588,26.34h0.69v4.4501h-0.69zM76.9188,26.22c1.11,0 1.67,0.61 1.67,1.83v2.7401h-0.69v-2.6901c0,-0.87 -0.4,-1.3 -1.18,-1.3c-0.31,0 -0.57,0.12 -0.8,0.34c-0.24,0.24 -0.37,0.56 -0.39,0.96v2.6901h-0.69v-4.4501h0.69v0.65c0.15,-0.25 0.35,-0.44 0.59,-0.57c0.24,-0.13 0.51,-0.2 0.8,-0.2zM81.7388,26.22c1.1,0 1.66,0.61 1.66,1.83v2.7401h-0.69v-2.6901c0,-0.87 -0.39,-1.3 -1.17,-1.3c-0.31,0 -0.58,0.12 -0.8,0.34c-0.24,0.24 -0.37,0.56 -0.4,0.96v2.6901h-0.69v-4.4501h0.69v0.65c0.16,-0.25 0.36,-0.44 0.6,-0.57c0.24,-0.13 0.51,-0.2 0.8,-0.2zM86.3089,26.22c0.71,0 1.25,0.24 1.61,0.72c0.33,0.43 0.5,1.04 0.52,1.82h-3.5101c0.03,0.5 0.16,0.89 0.4,1.1601c0.2401,0.28 0.5801,0.42 1,0.42c0.3601,0 0.6601,-0.1 0.89,-0.28c0.1901,-0.16 0.3301,-0.3901 0.4501,-0.7001h0.69c-0.11,0.4301 -0.31,0.7801 -0.61,1.0501c-0.37,0.33 -0.84,0.5 -1.4201,0.5c-0.6399,0 -1.15,-0.21 -1.53,-0.63c-0.4,-0.4301 -0.59,-1.0001 -0.59,-1.7201c0,-0.65 0.18,-1.21 0.56,-1.64c0.38,-0.47 0.8901,-0.7 1.5401,-0.7zM85.3689,27.18c-0.2501,0.26 -0.3801,0.61 -0.4301,1.04h2.7901c-0.09,-0.95 -0.56,-1.43 -1.41,-1.43c-0.39,0 -0.71,0.13 -0.95,0.39zM90.4389,24.9v1.44h1.1v0.58h-1.1v2.83c0,0.16 0.03,0.2801 0.1,0.3501c0.06,0.07 0.17,0.11 0.32,0.11h0.57v0.58h-0.67c-0.36,0 -0.63,-0.09 -0.78,-0.28c-0.15,-0.17 -0.22,-0.42 -0.22,-0.7601v-2.83h-0.9v-0.58h0.9v-1.16z"></path></g></g><g opacity="1"  transform="translate(0 0)  rotate(0)"><g opacity="1"  transform="translate(0 0)  rotate(0)"><g opacity="1"  transform="translate(0 0)  rotate(0)"><path id="矩形备份 373" fill-rule="evenodd" style="fill:#E9F3FC" opacity="1" d="M0 6.00001L0 110.92C0 114.23 2.69 116.92 6 116.92L154 116.92C157.31 116.92 160 114.23 160 110.92L160 6.00001C160 2.69001 157.31 0 154 0L6 0C2.69 0 0 2.69001 0 6.00001Z"></path><path id="矩形备份 17" fill-rule="evenodd" style="fill:#FFFFFF" opacity="1" d="M18.3037 101.421L141.684 101.421C144.994 101.421 147.684 98.7314 147.684 95.4214L147.684 82.8013C147.684 79.4913 144.994 76.8013 141.684 76.8013L18.3037 76.8013C14.9937 76.8013 12.3037 79.4913 12.3037 82.8013L12.3037 95.4214C12.3037 98.7314 14.9937 101.421 18.3037 101.421Z"></path><path id="矩形备份 17" fill-rule="evenodd" style="fill:#FFFFFF" opacity="1" d="M18.3037 70.772L141.684 70.772C144.994 70.772 147.684 68.082 147.684 64.772L147.684 52.1519C147.684 48.8419 144.994 46.1519 141.684 46.1519L18.3037 46.1519C14.9937 46.1519 12.3037 48.8419 12.3037 52.1519L12.3037 64.772C12.3037 68.082 14.9937 70.772 18.3037 70.772Z"></path><path  id="矩形备份 17" style="fill:#2F8DE3; opacity:1;" d="M18.3037,69.772h123.3803c2.761,0 5,-2.2386 5,-5v-12.6201c0,-2.7614 -2.239,-5 -5,-5h-123.3803c-2.7614,0 -5,2.2386 -5,5v12.6201c0,2.7614 2.2386,5 5,5zM18.3037,71.772c-3.866,0 -7,-3.134 -7,-7v-12.6201c0,-3.866 3.134,-7.0001 7,-7.0001h123.3803c3.866,0 7,3.1341 7,7.0001v12.6201c0,3.866 -3.134,7 -7,7z"></path><path id="文本 8" fill-rule="evenodd" style="fill:#232323" opacity="1" d="M19.1987,91.1711v-5.8698h1.67c1.31,0 2.19,0.4399 2.19,1.7199c0,1.24 -0.87,1.81 -2.16,1.81h-0.96v2.3399zM20.8087,88.2312c1.03,0 1.52,-0.37 1.52,-1.21c0,-0.85 -0.52,-1.12 -1.55,-1.12h-0.84v2.33zM25.8787,91.2711c-1.06,0 -2.01,-0.8299 -2.01,-2.2699c0,-1.45 0.95,-2.29 2.01,-2.29c1.06,0 2.01,0.84 2.01,2.29c0,1.44 -0.95,2.2699 -2.01,2.2699zM27.1387,89.0012c0,-1 -0.51,-1.67 -1.26,-1.67c-0.75,0 -1.26,0.67 -1.26,1.67c0,1 0.51,1.66 1.26,1.66c0.75,0 1.26,-0.66 1.26,-1.66zM29.8087,91.2711c-0.55,0 -0.77,-0.3499 -0.77,-0.9699v-5.4999h0.74v5.5499c0,0.23 0.08,0.31 0.2,0.31c0.04,0 0.07,0 0.15,-0.01l0.1,0.5599c-0.1,0.03 -0.22,0.06 -0.42,0.06zM31.3787,93.0411c-0.2,0 -0.37,-0.03 -0.51,-0.09l0.15,-0.58c0.08,0.03 0.21,0.07 0.33,0.07c0.49,0 0.79,-0.4 0.98,-0.94l0.09,-0.32l-1.74,-4.3599h0.76l0.88,2.41c0.14,0.39 0.28,0.83 0.43,1.23h0.04c0.11,-0.4 0.24,-0.84 0.35,-1.23l0.79,-2.41h0.71l-1.63,4.7199c-0.31,0.84 -0.76,1.5 -1.63,1.5zM36.9387,93.1711c-1.05,0 -1.79,-0.42 -1.79,-1.16c0,-0.38 0.23,-0.74 0.64,-0.99v-0.04c-0.22,-0.1299 -0.39,-0.3599 -0.39,-0.7099c0,-0.36 0.25,-0.65 0.48,-0.81v-0.03c-0.29,-0.22 -0.57,-0.65 -0.57,-1.17c0,-0.95 0.75,-1.55 1.63,-1.55c0.24,0 0.46,0.05 0.61,0.11h1.51v0.56h-0.88c0.2,0.2 0.35,0.52 0.35,0.9c0,0.93 -0.7,1.51 -1.59,1.51c-0.21,0 -0.45,-0.05 -0.64,-0.15c-0.16,0.14 -0.28,0.28 -0.28,0.52c0,0.27 0.17,0.47 0.76,0.47h0.85c1,0 1.51,0.3099 1.51,1.0299c0,0.81 -0.85,1.51 -2.2,1.51zM37.8587,88.2612c0,-0.64 -0.4,-1.01 -0.92,-1.01c-0.51,0 -0.92,0.37 -0.92,1.01c0,0.64 0.42,1.04 0.92,1.04c0.5,0 0.92,-0.4 0.92,-1.04zM38.4187,91.7811c0,-0.4 -0.3,-0.55 -0.88,-0.55h-0.75c-0.16,0 -0.37,-0.01 -0.56,-0.06c-0.31,0.22 -0.44,0.49 -0.44,0.73c0,0.47 0.47,0.76 1.26,0.76c0.84,0 1.37,-0.43 1.37,-0.88zM41.6787,91.2711c-1.06,0 -2.01,-0.8299 -2.01,-2.2699c0,-1.45 0.95,-2.29 2.01,-2.29c1.06,0 2.01,0.84 2.01,2.29c0,1.44 -0.95,2.2699 -2.01,2.2699zM42.9387,89.0012c0,-1 -0.51,-1.67 -1.26,-1.67c-0.75,0 -1.26,0.67 -1.26,1.67c0,1 0.51,1.66 1.26,1.66c0.75,0 1.26,-0.66 1.26,-1.66zM44.8387,91.1711v-4.3499h0.6l0.07,0.64h0.02c0.41,-0.42 0.86,-0.75 1.45,-0.75c0.92,0 1.33,0.6 1.33,1.71v2.7499h-0.73v-2.6599c0,-0.81 -0.24,-1.16 -0.82,-1.16c-0.45,0 -0.75,0.23 -1.18,0.67v3.1499zM51.5787,91.1711v-5.8698h0.89l1.12,3.1399c0.15,0.4 0.28,0.82 0.43,1.22h0.03c0.15,-0.4 0.27,-0.82 0.41,-1.22l1.12,-3.1399h0.88v5.8698h-0.68v-3.2499c0,-0.5 0.05,-1.22 0.09,-1.73h-0.03l-0.47,1.34l-1.11,3.05h-0.49l-1.11,-3.05l-0.48,-1.34h-0.03c0.05,0.51 0.1,1.23 0.1,1.73v3.2499zM59.0087,91.2711c-0.73,0 -1.27,-0.4499 -1.27,-1.2299c0,-0.94 0.82,-1.42 2.67,-1.62c0,-0.56 -0.19,-1.1 -0.9,-1.1c-0.5,0 -0.96,0.23 -1.3,0.46l-0.28,-0.5c0.39,-0.26 1,-0.57 1.7,-0.57c1.07,0 1.51,0.71 1.51,1.79v2.6699h-0.6l-0.07,-0.5199h-0.02c-0.42,0.3399 -0.91,0.6199 -1.44,0.6199zM60.4087,90.1112v-1.21c-1.47,0.17 -1.96,0.53 -1.96,1.09c0,0.5 0.33,0.69 0.77,0.69c0.41,0 0.76,-0.19 1.19,-0.57zM62.5087,91.1711v-4.3499h0.74v4.3499zM62.8787,85.9312c-0.29,0 -0.48,-0.19 -0.48,-0.4899c0,-0.28 0.19,-0.47 0.48,-0.47c0.29,0 0.49,0.19 0.49,0.47c0,0.2999 -0.2,0.4899 -0.49,0.4899zM64.7087,91.1711v-4.3499h0.6l0.07,0.64h0.02c0.41,-0.42 0.86,-0.75 1.46,-0.75c0.91,0 1.32,0.6 1.32,1.71v2.7499h-0.72v-2.6599c0,-0.81 -0.25,-1.16 -0.83,-1.16c-0.45,0 -0.75,0.23 -1.18,0.67v3.1499zM69.5887,91.1711v-4.3499h0.6l0.07,0.64h0.02c0.41,-0.42 0.86,-0.75 1.46,-0.75c0.91,0 1.32,0.6 1.32,1.71v2.7499h-0.72v-2.6599c0,-0.81 -0.25,-1.16 -0.83,-1.16c-0.45,0 -0.75,0.23 -1.18,0.67v3.1499zM76.2287,91.2711c-1.16,0 -2.08,-0.8399 -2.08,-2.2699c0,-1.42 0.95,-2.29 1.95,-2.29c1.11,0 1.73,0.8 1.73,2.04c0,0.16 -0.01,0.31 -0.03,0.42h-2.93c0.05,0.93 0.62,1.52 1.44,1.52c0.43,0 0.76,-0.13 1.09,-0.35l0.26,0.49c-0.38,0.2499 -0.84,0.4399 -1.43,0.4399zM77.1887,88.6512c0,-0.88 -0.4,-1.35 -1.08,-1.35c-0.61,0 -1.16,0.48 -1.25,1.35zM80.2587,91.2711c-0.92,0 -1.23,-0.5699 -1.23,-1.4499v-2.4h-0.65v-0.56l0.69,-0.04l0.08,-1.2199h0.61v1.2199h1.18v0.6h-1.18v2.43c0,0.53 0.17,0.83 0.67,0.83c0.16,0 0.35,-0.06 0.5,-0.12l0.14,0.5499c-0.25,0.08 -0.53,0.16 -0.81,0.16z"></path><path id="文本 8" fill-rule="evenodd" style="fill:#2F8DE3" opacity="1" d="M21.2987,61.7921c-0.81,0 -1.56,-0.33 -2.1,-0.87l0.54,-0.64c0.43,0.41 1,0.69 1.58,0.69c0.7,0 1.1,-0.33 1.1,-0.83c0,-0.53 -0.4,-0.7 -0.94,-0.94l-0.82,-0.35c-0.57,-0.24 -1.2,-0.68 -1.2,-1.55c0,-0.93 0.81,-1.62 1.94,-1.62c0.7,0 1.34,0.29 1.78,0.74l-0.48,0.59c-0.36,-0.32 -0.78,-0.52 -1.3,-0.52c-0.6,0 -0.98,0.29 -0.98,0.75c0,0.51 0.47,0.69 0.94,0.89l0.81,0.35c0.7,0.29 1.2,0.73 1.2,1.59c0,0.94 -0.79,1.72 -2.07,1.72zM25.0787,61.6821l-1.19,-5.9h0.95l0.55,3.07c0.11,0.63 0.21,1.25 0.32,1.89h0.03c0.12,-0.64 0.27,-1.27 0.4,-1.89l0.76,-3.07h0.82l0.76,3.07c0.14,0.62 0.26,1.25 0.4,1.89h0.04c0.1,-0.64 0.2,-1.27 0.3,-1.89l0.56,-3.07h0.88l-1.16,5.9h-1.14l-0.79,-3.27c-0.1,-0.47 -0.19,-0.91 -0.27,-1.36h-0.04c-0.08,0.45 -0.18,0.89 -0.28,1.36l-0.77,3.27zM32.8188,61.6821v-5.11h-1.72v-0.79h4.4v0.79h-1.73v5.11zM38.8188,61.7921c-1.48,0 -2.63,-1.11 -2.63,-3.05c0,-1.91 1.18,-3.06 2.67,-3.06c0.73,0 1.31,0.35 1.67,0.74l-0.5,0.59c-0.31,-0.3 -0.68,-0.52 -1.15,-0.52c-1.02,0 -1.73,0.84 -1.73,2.23c0,1.39 0.67,2.25 1.71,2.25c0.53,0 0.94,-0.24 1.29,-0.63l0.51,0.59c-0.48,0.56 -1.08,0.86 -1.84,0.86zM43.4888,61.6821v-5.9h1.07l1.07,2.99c0.14,0.38 0.27,0.79 0.39,1.18h0.04c0.14,-0.39 0.26,-0.8 0.39,-1.18l1.05,-2.99h1.08v5.9h-0.86v-2.91c0,-0.53 0.07,-1.29 0.13,-1.83h-0.04l-0.47,1.36l-1.03,2.81h-0.57l-1.04,-2.81l-0.47,-1.36h-0.03c0.06,0.54 0.13,1.3 0.13,1.83v2.91zM51.0888,61.7921c-0.76,0 -1.3,-0.5 -1.3,-1.28c0,-0.95 0.8,-1.44 2.63,-1.64c0,-0.5 -0.19,-0.95 -0.84,-0.95c-0.46,0 -0.89,0.21 -1.27,0.45l-0.34,-0.63c0.45,-0.29 1.07,-0.57 1.77,-0.57c1.1,0 1.6,0.68 1.6,1.86v2.65h-0.75l-0.07,-0.51h-0.03c-0.4,0.35 -0.87,0.62 -1.4,0.62zM52.4188,60.5321v-1.07c-1.3,0.15 -1.74,0.49 -1.74,0.98c0,0.44 0.3,0.61 0.69,0.61c0.38,0 0.69,-0.18 1.05,-0.52zM54.6488,61.6821v-4.41h0.92v4.41zM55.1088,56.4521c-0.34,0 -0.57,-0.21 -0.57,-0.56c0,-0.32 0.23,-0.54 0.57,-0.54c0.34,0 0.57,0.22 0.57,0.54c0,0.35 -0.23,0.56 -0.57,0.56zM56.9488,61.6821v-4.41h0.75l0.08,0.62h0.02c0.4,-0.4 0.86,-0.72 1.46,-0.72c0.93,0 1.35,0.62 1.35,1.74v2.77h-0.92v-2.66c0,-0.76 -0.23,-1.05 -0.75,-1.05c-0.4,0 -0.68,0.2 -1.07,0.59v3.12zM61.9388,61.6821v-4.41h0.76l0.08,0.62h0.01c0.4,-0.4 0.86,-0.72 1.46,-0.72c0.93,0 1.35,0.62 1.35,1.74v2.77h-0.92v-2.66c0,-0.76 -0.22,-1.05 -0.74,-1.05c-0.41,0 -0.68,0.2 -1.08,0.59v3.12zM68.7788,61.7921c-1.21,0 -2.16,-0.86 -2.16,-2.31c0,-1.43 0.99,-2.31 2.01,-2.31c1.17,0 1.8,0.84 1.8,2.08c0,0.18 -0.02,0.36 -0.05,0.47h-2.85c0.07,0.84 0.6,1.34 1.36,1.34c0.39,0 0.73,-0.12 1.05,-0.33l0.32,0.59c-0.4,0.27 -0.92,0.47 -1.48,0.47zM69.6288,59.0821c0,-0.75 -0.34,-1.19 -0.98,-1.19c-0.55,0 -1.04,0.42 -1.13,1.19zM72.9388,61.7921c-0.98,0 -1.33,-0.62 -1.33,-1.55v-2.23h-0.64v-0.68l0.69,-0.06l0.1,-1.22h0.77v1.22h1.14v0.74h-1.14v2.24c0,0.52 0.18,0.8 0.65,0.8c0.14,0 0.33,-0.06 0.46,-0.11l0.17,0.68c-0.24,0.08 -0.55,0.17 -0.87,0.17z"></path><g opacity="1"  transform="translate(134 54.77001953125)  rotate(0)"><path id="椭圆形" fill-rule="evenodd" style="fill:#43A2F4" opacity="1" d="M7.37985 3.69041C7.37985 1.65045 5.72988 0.000488281 3.68992 0.000488281C1.64997 0.000488281 0 1.65045 0 3.69041C0 5.73037 1.64997 7.38034 3.68992 7.38034C5.72988 7.38034 7.37985 5.73037 7.37985 3.69041Z"></path><path id="形状结合" fill-rule="evenodd" style="fill:#FFFFFF" opacity="1" d="M3.80305,5.30392c-0.01298,0.01756 -0.02737,0.03433 -0.04317,0.05013c-0.17676,0.17676 -0.47371,0.17674 -0.65048,-0.00002l-1.30808,-1.30808c-0.17676,-0.17676 -0.17677,-0.47372 -0.00002,-0.65047c0.17675,-0.17676 0.47371,-0.17675 0.65048,0.00002l0.97921,0.97922l1.95966,-1.95966c0.17679,-0.17679 0.47381,-0.17678 0.65061,0.00003c0.1768,0.1768 0.17681,0.47381 0.00002,0.6506z"></path></g><g opacity="1"  transform="translate(134 85.5400390625)  rotate(0)"><path  id="椭圆形" style="fill:#B2B2B2; opacity:1;" d="M6.37987,3.68992c0,-1.48561 -1.20433,-2.68994 -2.68995,-2.68994c-1.48561,0 -2.68994,1.20433 -2.68994,2.68994c0,1.48562 1.20433,2.68995 2.68994,2.68995c1.48562,0 2.68995,-1.20433 2.68995,-2.68995zM8.37983,3.68992c0,2.59017 -2.09974,4.68991 -4.68991,4.68991c-2.59016,0 -4.6899,-2.09974 -4.6899,-4.68991c0,-2.59016 2.09974,-4.6899 4.6899,-4.6899c2.59017,0 4.68991,2.09974 4.68991,4.6899z"></path></g><path id="矩形备份 17" fill-rule="evenodd" style="fill:#FFFFFF" opacity="1" d="M18.3037 40.0044L141.684 40.0044C144.994 40.0044 147.684 37.3144 147.684 34.0044L147.684 21.3843C147.684 18.0743 144.994 15.3843 141.684 15.3843L18.3037 15.3843C14.9937 15.3843 12.3037 18.0743 12.3037 21.3843L12.3037 34.0044C12.3037 37.3144 14.9937 40.0044 18.3037 40.0044Z"></path><g opacity="1"  transform="translate(134 23.969970703125)  rotate(0)"><path  id="椭圆形" style="fill:#B2B2B2; opacity:1;" d="M6.37987,3.68992c0,-1.48561 -1.20433,-2.68994 -2.68995,-2.68994c-1.48561,0 -2.68994,1.20433 -2.68994,2.68994c0,1.48562 1.20433,2.68995 2.68994,2.68995c1.48562,0 2.68995,-1.20433 2.68995,-2.68995zM8.37983,3.68992c0,2.59017 -2.09974,4.68991 -4.68991,4.68991c-2.59016,0 -4.6899,-2.09974 -4.6899,-4.68991c0,-2.59016 2.09974,-4.6899 4.6899,-4.6899c2.59017,0 4.68991,2.09974 4.68991,4.6899z"></path></g><path id="如果我向任何人透露分享我的助记词，我的资" fill-rule="evenodd" style="fill:#232323" opacity="1" d="M19.1987,24.64h4.36v0.61h-3.65v2.06h3.44v0.61h-3.44v2.2601h3.8v0.61h-4.51zM25.7887,24.9v1.44h1.1v0.58h-1.1v2.83c0,0.16 0.03,0.2801 0.1,0.3501c0.06,0.07 0.17,0.11 0.32,0.11h0.57v0.58h-0.67c-0.36,0 -0.63,-0.09 -0.78,-0.28c-0.15,-0.17 -0.22,-0.42 -0.22,-0.7601v-2.83h-0.9v-0.58h0.9v-1.16zM27.6587,24.52h0.69v2.55c0.15,-0.28 0.36,-0.5 0.62,-0.65c0.24,-0.13 0.51,-0.2 0.81,-0.2c0.5201,0 0.9201,0.14 1.2001,0.45c0.27,0.31 0.41,0.74 0.41,1.31v2.8101h-0.69v-2.7001c0,-0.42 -0.1,-0.74 -0.29,-0.96c-0.2101,-0.22 -0.49,-0.34 -0.8601,-0.34c-0.35,0 -0.63,0.14 -0.86,0.42c-0.23,0.27 -0.34,0.63 -0.34,1.04v2.5401h-0.69zM34.2888,26.22c0.71,0 1.25,0.24 1.62,0.72c0.32,0.43 0.49,1.04 0.51,1.82h-3.51c0.03,0.5 0.16,0.89 0.4,1.1601c0.24,0.28 0.58,0.42 1,0.42c0.36,0 0.66,-0.1 0.89,-0.28c0.19,-0.16 0.33,-0.3901 0.45,-0.7001h0.69c-0.11,0.4301 -0.31,0.7801 -0.61,1.0501c-0.37,0.33 -0.84,0.5 -1.42,0.5c-0.64,0 -1.15,-0.21 -1.53,-0.63c-0.4,-0.4301 -0.59,-1.0001 -0.59,-1.7201c0,-0.65 0.18,-1.21 0.56,-1.64c0.38,-0.47 0.89,-0.7 1.54,-0.7zM33.3488,27.18c-0.24,0.26 -0.38,0.61 -0.43,1.04h2.79c-0.09,-0.95 -0.56,-1.43 -1.41,-1.43c-0.39,0 -0.71,0.13 -0.95,0.39zM39.1888,26.22c0.24,0 0.45,0.03 0.61,0.1v0.69c-0.22,-0.07 -0.45,-0.09 -0.66,-0.09c-0.35,0 -0.64,0.14 -0.87,0.45c-0.25,0.29 -0.36,0.65 -0.36,1.06v2.3601h-0.68v-4.4501h0.68v0.77c0.12,-0.26 0.28,-0.46 0.47,-0.61c0.23,-0.19 0.5,-0.28 0.81,-0.28zM42.2088,26.22c0.72,0 1.26,0.24 1.62,0.72c0.33,0.43 0.5,1.04 0.52,1.82h-3.52c0.04,0.5 0.17,0.89 0.41,1.1601c0.24,0.28 0.58,0.42 1,0.42c0.36,0 0.66,-0.1 0.88,-0.28c0.19,-0.16 0.34,-0.3901 0.45,-0.7001h0.69c-0.1,0.4301 -0.3,0.7801 -0.6,1.0501c-0.37,0.33 -0.85,0.5 -1.42,0.5c-0.64,0 -1.16,-0.21 -1.54,-0.63c-0.39,-0.4301 -0.58,-1.0001 -0.58,-1.7201c0,-0.65 0.18,-1.21 0.56,-1.64c0.38,-0.47 0.89,-0.7 1.53,-0.7zM41.2688,27.18c-0.24,0.26 -0.38,0.61 -0.42,1.04h2.78c-0.08,-0.95 -0.56,-1.43 -1.4,-1.43c-0.4,0 -0.72,0.13 -0.96,0.39zM45.1588,26.34h0.69v2.72c0,0.42 0.08,0.74 0.26,0.9501c0.19,0.2 0.48,0.32 0.88,0.32c0.3,0 0.56,-0.12 0.8,-0.35c0.24,-0.2401 0.38,-0.5501 0.44,-0.9301v-2.71h0.68v4.4501h-0.68v-0.69c-0.37,0.54 -0.85,0.81 -1.45,0.81c-1.09,0 -1.62,-0.61 -1.62,-1.8201zM51.9288,26.22c0.68,0 1.15,0.27 1.4,0.84c0.17,-0.29 0.37,-0.51 0.62,-0.64c0.21,-0.13 0.47,-0.2 0.78,-0.2c0.47,0 0.84,0.14 1.13,0.44c0.27,0.3 0.42,0.7 0.42,1.21v2.9201h-0.69v-2.8101c0,-0.39 -0.08,-0.69 -0.25,-0.88c-0.17,-0.2 -0.45,-0.3 -0.83,-0.3c-0.29,0 -0.54,0.11 -0.73,0.33c-0.2,0.22 -0.3,0.51 -0.3,0.87v2.7901h-0.69v-2.8101c0,-0.79 -0.34,-1.18 -1.02,-1.18c-0.32,0 -0.58,0.12 -0.79,0.38c-0.2,0.24 -0.31,0.54 -0.31,0.9v2.7101h-0.69v-4.4501h0.69v0.59c0.34,-0.48 0.76,-0.71 1.26,-0.71zM60.2988,24.64h0.88l2.29,5.25h0.03l2.28,-5.25h0.88v6.1501h-0.7v-4.8901h-0.03l-2.13,4.8901h-0.64l-2.12,-4.8901h-0.03v4.8901h-0.71zM69.7488,26.22c0.64,0 1.11,0.16 1.42,0.5c0.26,0.29 0.39,0.69 0.39,1.21v2.8601h-0.64v-0.75c-0.17,0.24 -0.41,0.44 -0.68,0.6c-0.33,0.18 -0.7,0.27 -1.11,0.27c-0.45,0 -0.81,-0.11 -1.07,-0.33c-0.28,-0.24 -0.42,-0.54 -0.42,-0.9001c0,-0.51 0.2,-0.89 0.62,-1.15c0.36,-0.24 0.87,-0.37 1.55,-0.37l1.06,-0.02v-0.23c0,-0.75 -0.38,-1.12 -1.16,-1.12c-0.33,0 -0.59,0.06 -0.8,0.19c-0.23,0.14 -0.38,0.36 -0.45,0.64l-0.68,-0.05c0.1,-0.47 0.33,-0.82 0.69,-1.04c0.33,-0.21 0.75,-0.31 1.28,-0.31zM69.8488,28.67c-1,0.02 -1.5,0.35 -1.5,0.99c0,0.2101 0.08,0.3701 0.25,0.5101c0.17,0.13 0.4,0.2 0.67,0.2c0.42,0 0.8,-0.14 1.12,-0.41c0.32,-0.2701 0.48,-0.5801 0.48,-0.9301v-0.37zM73.1988,24.66c0.15,0 0.27,0.04 0.37,0.14c0.1,0.09 0.16,0.21 0.16,0.37c0,0.14 -0.06,0.26 -0.16,0.37c-0.1,0.09 -0.22,0.14 -0.37,0.14c-0.15,0 -0.27,-0.05 -0.37,-0.14c-0.1,-0.11 -0.15,-0.23 -0.15,-0.37c0,-0.16 0.05,-0.28 0.15,-0.37c0.1,-0.1 0.22,-0.14 0.37,-0.14zM72.8588,26.34h0.69v4.4501h-0.69zM76.9188,26.22c1.11,0 1.67,0.61 1.67,1.83v2.7401h-0.69v-2.6901c0,-0.87 -0.4,-1.3 -1.18,-1.3c-0.31,0 -0.57,0.12 -0.8,0.34c-0.24,0.24 -0.37,0.56 -0.39,0.96v2.6901h-0.69v-4.4501h0.69v0.65c0.15,-0.25 0.35,-0.44 0.59,-0.57c0.24,-0.13 0.51,-0.2 0.8,-0.2zM81.7388,26.22c1.1,0 1.66,0.61 1.66,1.83v2.7401h-0.69v-2.6901c0,-0.87 -0.39,-1.3 -1.17,-1.3c-0.31,0 -0.58,0.12 -0.8,0.34c-0.24,0.24 -0.37,0.56 -0.4,0.96v2.6901h-0.69v-4.4501h0.69v0.65c0.16,-0.25 0.36,-0.44 0.6,-0.57c0.24,-0.13 0.51,-0.2 0.8,-0.2zM86.3089,26.22c0.71,0 1.25,0.24 1.61,0.72c0.33,0.43 0.5,1.04 0.52,1.82h-3.5101c0.03,0.5 0.16,0.89 0.4,1.1601c0.2401,0.28 0.5801,0.42 1,0.42c0.3601,0 0.6601,-0.1 0.89,-0.28c0.1901,-0.16 0.3301,-0.3901 0.4501,-0.7001h0.69c-0.11,0.4301 -0.31,0.7801 -0.61,1.0501c-0.37,0.33 -0.84,0.5 -1.4201,0.5c-0.6399,0 -1.15,-0.21 -1.53,-0.63c-0.4,-0.4301 -0.59,-1.0001 -0.59,-1.7201c0,-0.65 0.18,-1.21 0.56,-1.64c0.38,-0.47 0.8901,-0.7 1.5401,-0.7zM85.3689,27.18c-0.2501,0.26 -0.3801,0.61 -0.4301,1.04h2.7901c-0.09,-0.95 -0.56,-1.43 -1.41,-1.43c-0.39,0 -0.71,0.13 -0.95,0.39zM90.4389,24.9v1.44h1.1v0.58h-1.1v2.83c0,0.16 0.03,0.2801 0.1,0.3501c0.06,0.07 0.17,0.11 0.32,0.11h0.57v0.58h-0.67c-0.36,0 -0.63,-0.09 -0.78,-0.28c-0.15,-0.17 -0.22,-0.42 -0.22,-0.7601v-2.83h-0.9v-0.58h0.9v-1.16z"></path></g></g><g opacity="1"  transform="translate(0 0)  rotate(0)"><g opacity="1"  transform="translate(0 0)  rotate(0)"><g opacity="1"  transform="translate(0 0)  rotate(0)"><path id="矩形备份 373" fill-rule="evenodd" style="fill:#E9F3FC" opacity="1" d="M0 6.00001L0 110.92C0 114.23 2.69 116.92 6 116.92L154 116.92C157.31 116.92 160 114.23 160 110.92L160 6.00001C160 2.69001 157.31 0 154 0L6 0C2.69 0 0 2.69001 0 6.00001Z"></path><path id="矩形备份 17" fill-rule="evenodd" style="fill:#FFFFFF" opacity="1" d="M18.3037 101.421L141.684 101.421C144.994 101.421 147.684 98.7314 147.684 95.4214L147.684 82.8013C147.684 79.4913 144.994 76.8013 141.684 76.8013L18.3037 76.8013C14.9937 76.8013 12.3037 79.4913 12.3037 82.8013L12.3037 95.4214C12.3037 98.7314 14.9937 101.421 18.3037 101.421Z"></path><path id="矩形备份 17" fill-rule="evenodd" style="fill:#FFFFFF" opacity="1" d="M18.3037 70.772L141.684 70.772C144.994 70.772 147.684 68.082 147.684 64.772L147.684 52.1519C147.684 48.8419 144.994 46.1519 141.684 46.1519L18.3037 46.1519C14.9937 46.1519 12.3037 48.8419 12.3037 52.1519L12.3037 64.772C12.3037 68.082 14.9937 70.772 18.3037 70.772Z"></path><path  id="矩形备份 17" style="fill:#2F8DE3; opacity:1;" d="M18.3037,69.772h123.3803c2.761,0 5,-2.2386 5,-5v-12.6201c0,-2.7614 -2.239,-5 -5,-5h-123.3803c-2.7614,0 -5,2.2386 -5,5v12.6201c0,2.7614 2.2386,5 5,5zM18.3037,71.772c-3.866,0 -7,-3.134 -7,-7v-12.6201c0,-3.866 3.134,-7.0001 7,-7.0001h123.3803c3.866,0 7,3.1341 7,7.0001v12.6201c0,3.866 -3.134,7 -7,7z"></path><path id="文本 8" fill-rule="evenodd" style="fill:#232323" opacity="1" d="M19.1987,91.1711v-5.8698h1.67c1.31,0 2.19,0.4399 2.19,1.7199c0,1.24 -0.87,1.81 -2.16,1.81h-0.96v2.3399zM20.8087,88.2312c1.03,0 1.52,-0.37 1.52,-1.21c0,-0.85 -0.52,-1.12 -1.55,-1.12h-0.84v2.33zM25.8787,91.2711c-1.06,0 -2.01,-0.8299 -2.01,-2.2699c0,-1.45 0.95,-2.29 2.01,-2.29c1.06,0 2.01,0.84 2.01,2.29c0,1.44 -0.95,2.2699 -2.01,2.2699zM27.1387,89.0012c0,-1 -0.51,-1.67 -1.26,-1.67c-0.75,0 -1.26,0.67 -1.26,1.67c0,1 0.51,1.66 1.26,1.66c0.75,0 1.26,-0.66 1.26,-1.66zM29.8087,91.2711c-0.55,0 -0.77,-0.3499 -0.77,-0.9699v-5.4999h0.74v5.5499c0,0.23 0.08,0.31 0.2,0.31c0.04,0 0.07,0 0.15,-0.01l0.1,0.5599c-0.1,0.03 -0.22,0.06 -0.42,0.06zM31.3787,93.0411c-0.2,0 -0.37,-0.03 -0.51,-0.09l0.15,-0.58c0.08,0.03 0.21,0.07 0.33,0.07c0.49,0 0.79,-0.4 0.98,-0.94l0.09,-0.32l-1.74,-4.3599h0.76l0.88,2.41c0.14,0.39 0.28,0.83 0.43,1.23h0.04c0.11,-0.4 0.24,-0.84 0.35,-1.23l0.79,-2.41h0.71l-1.63,4.7199c-0.31,0.84 -0.76,1.5 -1.63,1.5zM36.9387,93.1711c-1.05,0 -1.79,-0.42 -1.79,-1.16c0,-0.38 0.23,-0.74 0.64,-0.99v-0.04c-0.22,-0.1299 -0.39,-0.3599 -0.39,-0.7099c0,-0.36 0.25,-0.65 0.48,-0.81v-0.03c-0.29,-0.22 -0.57,-0.65 -0.57,-1.17c0,-0.95 0.75,-1.55 1.63,-1.55c0.24,0 0.46,0.05 0.61,0.11h1.51v0.56h-0.88c0.2,0.2 0.35,0.52 0.35,0.9c0,0.93 -0.7,1.51 -1.59,1.51c-0.21,0 -0.45,-0.05 -0.64,-0.15c-0.16,0.14 -0.28,0.28 -0.28,0.52c0,0.27 0.17,0.47 0.76,0.47h0.85c1,0 1.51,0.3099 1.51,1.0299c0,0.81 -0.85,1.51 -2.2,1.51zM37.8587,88.2612c0,-0.64 -0.4,-1.01 -0.92,-1.01c-0.51,0 -0.92,0.37 -0.92,1.01c0,0.64 0.42,1.04 0.92,1.04c0.5,0 0.92,-0.4 0.92,-1.04zM38.4187,91.7811c0,-0.4 -0.3,-0.55 -0.88,-0.55h-0.75c-0.16,0 -0.37,-0.01 -0.56,-0.06c-0.31,0.22 -0.44,0.49 -0.44,0.73c0,0.47 0.47,0.76 1.26,0.76c0.84,0 1.37,-0.43 1.37,-0.88zM41.6787,91.2711c-1.06,0 -2.01,-0.8299 -2.01,-2.2699c0,-1.45 0.95,-2.29 2.01,-2.29c1.06,0 2.01,0.84 2.01,2.29c0,1.44 -0.95,2.2699 -2.01,2.2699zM42.9387,89.0012c0,-1 -0.51,-1.67 -1.26,-1.67c-0.75,0 -1.26,0.67 -1.26,1.67c0,1 0.51,1.66 1.26,1.66c0.75,0 1.26,-0.66 1.26,-1.66zM44.8387,91.1711v-4.3499h0.6l0.07,0.64h0.02c0.41,-0.42 0.86,-0.75 1.45,-0.75c0.92,0 1.33,0.6 1.33,1.71v2.7499h-0.73v-2.6599c0,-0.81 -0.24,-1.16 -0.82,-1.16c-0.45,0 -0.75,0.23 -1.18,0.67v3.1499zM51.5787,91.1711v-5.8698h0.89l1.12,3.1399c0.15,0.4 0.28,0.82 0.43,1.22h0.03c0.15,-0.4 0.27,-0.82 0.41,-1.22l1.12,-3.1399h0.88v5.8698h-0.68v-3.2499c0,-0.5 0.05,-1.22 0.09,-1.73h-0.03l-0.47,1.34l-1.11,3.05h-0.49l-1.11,-3.05l-0.48,-1.34h-0.03c0.05,0.51 0.1,1.23 0.1,1.73v3.2499zM59.0087,91.2711c-0.73,0 -1.27,-0.4499 -1.27,-1.2299c0,-0.94 0.82,-1.42 2.67,-1.62c0,-0.56 -0.19,-1.1 -0.9,-1.1c-0.5,0 -0.96,0.23 -1.3,0.46l-0.28,-0.5c0.39,-0.26 1,-0.57 1.7,-0.57c1.07,0 1.51,0.71 1.51,1.79v2.6699h-0.6l-0.07,-0.5199h-0.02c-0.42,0.3399 -0.91,0.6199 -1.44,0.6199zM60.4087,90.1112v-1.21c-1.47,0.17 -1.96,0.53 -1.96,1.09c0,0.5 0.33,0.69 0.77,0.69c0.41,0 0.76,-0.19 1.19,-0.57zM62.5087,91.1711v-4.3499h0.74v4.3499zM62.8787,85.9312c-0.29,0 -0.48,-0.19 -0.48,-0.4899c0,-0.28 0.19,-0.47 0.48,-0.47c0.29,0 0.49,0.19 0.49,0.47c0,0.2999 -0.2,0.4899 -0.49,0.4899zM64.7087,91.1711v-4.3499h0.6l0.07,0.64h0.02c0.41,-0.42 0.86,-0.75 1.46,-0.75c0.91,0 1.32,0.6 1.32,1.71v2.7499h-0.72v-2.6599c0,-0.81 -0.25,-1.16 -0.83,-1.16c-0.45,0 -0.75,0.23 -1.18,0.67v3.1499zM69.5887,91.1711v-4.3499h0.6l0.07,0.64h0.02c0.41,-0.42 0.86,-0.75 1.46,-0.75c0.91,0 1.32,0.6 1.32,1.71v2.7499h-0.72v-2.6599c0,-0.81 -0.25,-1.16 -0.83,-1.16c-0.45,0 -0.75,0.23 -1.18,0.67v3.1499zM76.2287,91.2711c-1.16,0 -2.08,-0.8399 -2.08,-2.2699c0,-1.42 0.95,-2.29 1.95,-2.29c1.11,0 1.73,0.8 1.73,2.04c0,0.16 -0.01,0.31 -0.03,0.42h-2.93c0.05,0.93 0.62,1.52 1.44,1.52c0.43,0 0.76,-0.13 1.09,-0.35l0.26,0.49c-0.38,0.2499 -0.84,0.4399 -1.43,0.4399zM77.1887,88.6512c0,-0.88 -0.4,-1.35 -1.08,-1.35c-0.61,0 -1.16,0.48 -1.25,1.35zM80.2587,91.2711c-0.92,0 -1.23,-0.5699 -1.23,-1.4499v-2.4h-0.65v-0.56l0.69,-0.04l0.08,-1.2199h0.61v1.2199h1.18v0.6h-1.18v2.43c0,0.53 0.17,0.83 0.67,0.83c0.16,0 0.35,-0.06 0.5,-0.12l0.14,0.5499c-0.25,0.08 -0.53,0.16 -0.81,0.16z"></path><path id="文本 8" fill-rule="evenodd" style="fill:#2F8DE3" opacity="1" d="M21.2987,61.7921c-0.81,0 -1.56,-0.33 -2.1,-0.87l0.54,-0.64c0.43,0.41 1,0.69 1.58,0.69c0.7,0 1.1,-0.33 1.1,-0.83c0,-0.53 -0.4,-0.7 -0.94,-0.94l-0.82,-0.35c-0.57,-0.24 -1.2,-0.68 -1.2,-1.55c0,-0.93 0.81,-1.62 1.94,-1.62c0.7,0 1.34,0.29 1.78,0.74l-0.48,0.59c-0.36,-0.32 -0.78,-0.52 -1.3,-0.52c-0.6,0 -0.98,0.29 -0.98,0.75c0,0.51 0.47,0.69 0.94,0.89l0.81,0.35c0.7,0.29 1.2,0.73 1.2,1.59c0,0.94 -0.79,1.72 -2.07,1.72zM25.0787,61.6821l-1.19,-5.9h0.95l0.55,3.07c0.11,0.63 0.21,1.25 0.32,1.89h0.03c0.12,-0.64 0.27,-1.27 0.4,-1.89l0.76,-3.07h0.82l0.76,3.07c0.14,0.62 0.26,1.25 0.4,1.89h0.04c0.1,-0.64 0.2,-1.27 0.3,-1.89l0.56,-3.07h0.88l-1.16,5.9h-1.14l-0.79,-3.27c-0.1,-0.47 -0.19,-0.91 -0.27,-1.36h-0.04c-0.08,0.45 -0.18,0.89 -0.28,1.36l-0.77,3.27zM32.8188,61.6821v-5.11h-1.72v-0.79h4.4v0.79h-1.73v5.11zM38.8188,61.7921c-1.48,0 -2.63,-1.11 -2.63,-3.05c0,-1.91 1.18,-3.06 2.67,-3.06c0.73,0 1.31,0.35 1.67,0.74l-0.5,0.59c-0.31,-0.3 -0.68,-0.52 -1.15,-0.52c-1.02,0 -1.73,0.84 -1.73,2.23c0,1.39 0.67,2.25 1.71,2.25c0.53,0 0.94,-0.24 1.29,-0.63l0.51,0.59c-0.48,0.56 -1.08,0.86 -1.84,0.86zM43.4888,61.6821v-5.9h1.07l1.07,2.99c0.14,0.38 0.27,0.79 0.39,1.18h0.04c0.14,-0.39 0.26,-0.8 0.39,-1.18l1.05,-2.99h1.08v5.9h-0.86v-2.91c0,-0.53 0.07,-1.29 0.13,-1.83h-0.04l-0.47,1.36l-1.03,2.81h-0.57l-1.04,-2.81l-0.47,-1.36h-0.03c0.06,0.54 0.13,1.3 0.13,1.83v2.91zM51.0888,61.7921c-0.76,0 -1.3,-0.5 -1.3,-1.28c0,-0.95 0.8,-1.44 2.63,-1.64c0,-0.5 -0.19,-0.95 -0.84,-0.95c-0.46,0 -0.89,0.21 -1.27,0.45l-0.34,-0.63c0.45,-0.29 1.07,-0.57 1.77,-0.57c1.1,0 1.6,0.68 1.6,1.86v2.65h-0.75l-0.07,-0.51h-0.03c-0.4,0.35 -0.87,0.62 -1.4,0.62zM52.4188,60.5321v-1.07c-1.3,0.15 -1.74,0.49 -1.74,0.98c0,0.44 0.3,0.61 0.69,0.61c0.38,0 0.69,-0.18 1.05,-0.52zM54.6488,61.6821v-4.41h0.92v4.41zM55.1088,56.4521c-0.34,0 -0.57,-0.21 -0.57,-0.56c0,-0.32 0.23,-0.54 0.57,-0.54c0.34,0 0.57,0.22 0.57,0.54c0,0.35 -0.23,0.56 -0.57,0.56zM56.9488,61.6821v-4.41h0.75l0.08,0.62h0.02c0.4,-0.4 0.86,-0.72 1.46,-0.72c0.93,0 1.35,0.62 1.35,1.74v2.77h-0.92v-2.66c0,-0.76 -0.23,-1.05 -0.75,-1.05c-0.4,0 -0.68,0.2 -1.07,0.59v3.12zM61.9388,61.6821v-4.41h0.76l0.08,0.62h0.01c0.4,-0.4 0.86,-0.72 1.46,-0.72c0.93,0 1.35,0.62 1.35,1.74v2.77h-0.92v-2.66c0,-0.76 -0.22,-1.05 -0.74,-1.05c-0.41,0 -0.68,0.2 -1.08,0.59v3.12zM68.7788,61.7921c-1.21,0 -2.16,-0.86 -2.16,-2.31c0,-1.43 0.99,-2.31 2.01,-2.31c1.17,0 1.8,0.84 1.8,2.08c0,0.18 -0.02,0.36 -0.05,0.47h-2.85c0.07,0.84 0.6,1.34 1.36,1.34c0.39,0 0.73,-0.12 1.05,-0.33l0.32,0.59c-0.4,0.27 -0.92,0.47 -1.48,0.47zM69.6288,59.0821c0,-0.75 -0.34,-1.19 -0.98,-1.19c-0.55,0 -1.04,0.42 -1.13,1.19zM72.9388,61.7921c-0.98,0 -1.33,-0.62 -1.33,-1.55v-2.23h-0.64v-0.68l0.69,-0.06l0.1,-1.22h0.77v1.22h1.14v0.74h-1.14v2.24c0,0.52 0.18,0.8 0.65,0.8c0.14,0 0.33,-0.06 0.46,-0.11l0.17,0.68c-0.24,0.08 -0.55,0.17 -0.87,0.17z"></path><g opacity="1"  transform="translate(134 54.77001953125)  rotate(0)"><path id="椭圆形" fill-rule="evenodd" style="fill:#43A2F4" opacity="1" d="M7.37985 3.69041C7.37985 1.65045 5.72988 0.000488281 3.68992 0.000488281C1.64997 0.000488281 0 1.65045 0 3.69041C0 5.73037 1.64997 7.38034 3.68992 7.38034C5.72988 7.38034 7.37985 5.73037 7.37985 3.69041Z"></path><path id="形状结合" fill-rule="evenodd" style="fill:#FFFFFF" opacity="1" d="M3.80305,5.30392c-0.01298,0.01756 -0.02737,0.03433 -0.04317,0.05013c-0.17676,0.17676 -0.47371,0.17674 -0.65048,-0.00002l-1.30808,-1.30808c-0.17676,-0.17676 -0.17677,-0.47372 -0.00002,-0.65047c0.17675,-0.17676 0.47371,-0.17675 0.65048,0.00002l0.97921,0.97922l1.95966,-1.95966c0.17679,-0.17679 0.47381,-0.17678 0.65061,0.00003c0.1768,0.1768 0.17681,0.47381 0.00002,0.6506z"></path></g><g opacity="1"  transform="translate(134 85.5400390625)  rotate(0)"><path  id="椭圆形" style="fill:#B2B2B2; opacity:1;" d="M6.37987,3.68992c0,-1.48561 -1.20433,-2.68994 -2.68995,-2.68994c-1.48561,0 -2.68994,1.20433 -2.68994,2.68994c0,1.48562 1.20433,2.68995 2.68994,2.68995c1.48562,0 2.68995,-1.20433 2.68995,-2.68995zM8.37983,3.68992c0,2.59017 -2.09974,4.68991 -4.68991,4.68991c-2.59016,0 -4.6899,-2.09974 -4.6899,-4.68991c0,-2.59016 2.09974,-4.6899 4.6899,-4.6899c2.59017,0 4.68991,2.09974 4.68991,4.6899z"></path></g><path id="矩形备份 17" fill-rule="evenodd" style="fill:#FFFFFF" opacity="1" d="M18.3037 40.0044L141.684 40.0044C144.994 40.0044 147.684 37.3144 147.684 34.0044L147.684 21.3843C147.684 18.0743 144.994 15.3843 141.684 15.3843L18.3037 15.3843C14.9937 15.3843 12.3037 18.0743 12.3037 21.3843L12.3037 34.0044C12.3037 37.3144 14.9937 40.0044 18.3037 40.0044Z"></path><g opacity="1"  transform="translate(134 23.969970703125)  rotate(0)"><path  id="椭圆形" style="fill:#B2B2B2; opacity:1;" d="M6.37987,3.68992c0,-1.48561 -1.20433,-2.68994 -2.68995,-2.68994c-1.48561,0 -2.68994,1.20433 -2.68994,2.68994c0,1.48562 1.20433,2.68995 2.68994,2.68995c1.48562,0 2.68995,-1.20433 2.68995,-2.68995zM8.37983,3.68992c0,2.59017 -2.09974,4.68991 -4.68991,4.68991c-2.59016,0 -4.6899,-2.09974 -4.6899,-4.68991c0,-2.59016 2.09974,-4.6899 4.6899,-4.6899c2.59017,0 4.68991,2.09974 4.68991,4.6899z"></path></g><path id="如果我向任何人透露分享我的助记词，我的资" fill-rule="evenodd" style="fill:#232323" opacity="1" d="M19.1987,24.64h4.36v0.61h-3.65v2.06h3.44v0.61h-3.44v2.2601h3.8v0.61h-4.51zM25.7887,24.9v1.44h1.1v0.58h-1.1v2.83c0,0.16 0.03,0.2801 0.1,0.3501c0.06,0.07 0.17,0.11 0.32,0.11h0.57v0.58h-0.67c-0.36,0 -0.63,-0.09 -0.78,-0.28c-0.15,-0.17 -0.22,-0.42 -0.22,-0.7601v-2.83h-0.9v-0.58h0.9v-1.16zM27.6587,24.52h0.69v2.55c0.15,-0.28 0.36,-0.5 0.62,-0.65c0.24,-0.13 0.51,-0.2 0.81,-0.2c0.5201,0 0.9201,0.14 1.2001,0.45c0.27,0.31 0.41,0.74 0.41,1.31v2.8101h-0.69v-2.7001c0,-0.42 -0.1,-0.74 -0.29,-0.96c-0.2101,-0.22 -0.49,-0.34 -0.8601,-0.34c-0.35,0 -0.63,0.14 -0.86,0.42c-0.23,0.27 -0.34,0.63 -0.34,1.04v2.5401h-0.69zM34.2888,26.22c0.71,0 1.25,0.24 1.62,0.72c0.32,0.43 0.49,1.04 0.51,1.82h-3.51c0.03,0.5 0.16,0.89 0.4,1.1601c0.24,0.28 0.58,0.42 1,0.42c0.36,0 0.66,-0.1 0.89,-0.28c0.19,-0.16 0.33,-0.3901 0.45,-0.7001h0.69c-0.11,0.4301 -0.31,0.7801 -0.61,1.0501c-0.37,0.33 -0.84,0.5 -1.42,0.5c-0.64,0 -1.15,-0.21 -1.53,-0.63c-0.4,-0.4301 -0.59,-1.0001 -0.59,-1.7201c0,-0.65 0.18,-1.21 0.56,-1.64c0.38,-0.47 0.89,-0.7 1.54,-0.7zM33.3488,27.18c-0.24,0.26 -0.38,0.61 -0.43,1.04h2.79c-0.09,-0.95 -0.56,-1.43 -1.41,-1.43c-0.39,0 -0.71,0.13 -0.95,0.39zM39.1888,26.22c0.24,0 0.45,0.03 0.61,0.1v0.69c-0.22,-0.07 -0.45,-0.09 -0.66,-0.09c-0.35,0 -0.64,0.14 -0.87,0.45c-0.25,0.29 -0.36,0.65 -0.36,1.06v2.3601h-0.68v-4.4501h0.68v0.77c0.12,-0.26 0.28,-0.46 0.47,-0.61c0.23,-0.19 0.5,-0.28 0.81,-0.28zM42.2088,26.22c0.72,0 1.26,0.24 1.62,0.72c0.33,0.43 0.5,1.04 0.52,1.82h-3.52c0.04,0.5 0.17,0.89 0.41,1.1601c0.24,0.28 0.58,0.42 1,0.42c0.36,0 0.66,-0.1 0.88,-0.28c0.19,-0.16 0.34,-0.3901 0.45,-0.7001h0.69c-0.1,0.4301 -0.3,0.7801 -0.6,1.0501c-0.37,0.33 -0.85,0.5 -1.42,0.5c-0.64,0 -1.16,-0.21 -1.54,-0.63c-0.39,-0.4301 -0.58,-1.0001 -0.58,-1.7201c0,-0.65 0.18,-1.21 0.56,-1.64c0.38,-0.47 0.89,-0.7 1.53,-0.7zM41.2688,27.18c-0.24,0.26 -0.38,0.61 -0.42,1.04h2.78c-0.08,-0.95 -0.56,-1.43 -1.4,-1.43c-0.4,0 -0.72,0.13 -0.96,0.39zM45.1588,26.34h0.69v2.72c0,0.42 0.08,0.74 0.26,0.9501c0.19,0.2 0.48,0.32 0.88,0.32c0.3,0 0.56,-0.12 0.8,-0.35c0.24,-0.2401 0.38,-0.5501 0.44,-0.9301v-2.71h0.68v4.4501h-0.68v-0.69c-0.37,0.54 -0.85,0.81 -1.45,0.81c-1.09,0 -1.62,-0.61 -1.62,-1.8201zM51.9288,26.22c0.68,0 1.15,0.27 1.4,0.84c0.17,-0.29 0.37,-0.51 0.62,-0.64c0.21,-0.13 0.47,-0.2 0.78,-0.2c0.47,0 0.84,0.14 1.13,0.44c0.27,0.3 0.42,0.7 0.42,1.21v2.9201h-0.69v-2.8101c0,-0.39 -0.08,-0.69 -0.25,-0.88c-0.17,-0.2 -0.45,-0.3 -0.83,-0.3c-0.29,0 -0.54,0.11 -0.73,0.33c-0.2,0.22 -0.3,0.51 -0.3,0.87v2.7901h-0.69v-2.8101c0,-0.79 -0.34,-1.18 -1.02,-1.18c-0.32,0 -0.58,0.12 -0.79,0.38c-0.2,0.24 -0.31,0.54 -0.31,0.9v2.7101h-0.69v-4.4501h0.69v0.59c0.34,-0.48 0.76,-0.71 1.26,-0.71zM60.2988,24.64h0.88l2.29,5.25h0.03l2.28,-5.25h0.88v6.1501h-0.7v-4.8901h-0.03l-2.13,4.8901h-0.64l-2.12,-4.8901h-0.03v4.8901h-0.71zM69.7488,26.22c0.64,0 1.11,0.16 1.42,0.5c0.26,0.29 0.39,0.69 0.39,1.21v2.8601h-0.64v-0.75c-0.17,0.24 -0.41,0.44 -0.68,0.6c-0.33,0.18 -0.7,0.27 -1.11,0.27c-0.45,0 -0.81,-0.11 -1.07,-0.33c-0.28,-0.24 -0.42,-0.54 -0.42,-0.9001c0,-0.51 0.2,-0.89 0.62,-1.15c0.36,-0.24 0.87,-0.37 1.55,-0.37l1.06,-0.02v-0.23c0,-0.75 -0.38,-1.12 -1.16,-1.12c-0.33,0 -0.59,0.06 -0.8,0.19c-0.23,0.14 -0.38,0.36 -0.45,0.64l-0.68,-0.05c0.1,-0.47 0.33,-0.82 0.69,-1.04c0.33,-0.21 0.75,-0.31 1.28,-0.31zM69.8488,28.67c-1,0.02 -1.5,0.35 -1.5,0.99c0,0.2101 0.08,0.3701 0.25,0.5101c0.17,0.13 0.4,0.2 0.67,0.2c0.42,0 0.8,-0.14 1.12,-0.41c0.32,-0.2701 0.48,-0.5801 0.48,-0.9301v-0.37zM73.1988,24.66c0.15,0 0.27,0.04 0.37,0.14c0.1,0.09 0.16,0.21 0.16,0.37c0,0.14 -0.06,0.26 -0.16,0.37c-0.1,0.09 -0.22,0.14 -0.37,0.14c-0.15,0 -0.27,-0.05 -0.37,-0.14c-0.1,-0.11 -0.15,-0.23 -0.15,-0.37c0,-0.16 0.05,-0.28 0.15,-0.37c0.1,-0.1 0.22,-0.14 0.37,-0.14zM72.8588,26.34h0.69v4.4501h-0.69zM76.9188,26.22c1.11,0 1.67,0.61 1.67,1.83v2.7401h-0.69v-2.6901c0,-0.87 -0.4,-1.3 -1.18,-1.3c-0.31,0 -0.57,0.12 -0.8,0.34c-0.24,0.24 -0.37,0.56 -0.39,0.96v2.6901h-0.69v-4.4501h0.69v0.65c0.15,-0.25 0.35,-0.44 0.59,-0.57c0.24,-0.13 0.51,-0.2 0.8,-0.2zM81.7388,26.22c1.1,0 1.66,0.61 1.66,1.83v2.7401h-0.69v-2.6901c0,-0.87 -0.39,-1.3 -1.17,-1.3c-0.31,0 -0.58,0.12 -0.8,0.34c-0.24,0.24 -0.37,0.56 -0.4,0.96v2.6901h-0.69v-4.4501h0.69v0.65c0.16,-0.25 0.36,-0.44 0.6,-0.57c0.24,-0.13 0.51,-0.2 0.8,-0.2zM86.3089,26.22c0.71,0 1.25,0.24 1.61,0.72c0.33,0.43 0.5,1.04 0.52,1.82h-3.5101c0.03,0.5 0.16,0.89 0.4,1.1601c0.2401,0.28 0.5801,0.42 1,0.42c0.3601,0 0.6601,-0.1 0.89,-0.28c0.1901,-0.16 0.3301,-0.3901 0.4501,-0.7001h0.69c-0.11,0.4301 -0.31,0.7801 -0.61,1.0501c-0.37,0.33 -0.84,0.5 -1.4201,0.5c-0.6399,0 -1.15,-0.21 -1.53,-0.63c-0.4,-0.4301 -0.59,-1.0001 -0.59,-1.7201c0,-0.65 0.18,-1.21 0.56,-1.64c0.38,-0.47 0.8901,-0.7 1.5401,-0.7zM85.3689,27.18c-0.2501,0.26 -0.3801,0.61 -0.4301,1.04h2.7901c-0.09,-0.95 -0.56,-1.43 -1.41,-1.43c-0.39,0 -0.71,0.13 -0.95,0.39zM90.4389,24.9v1.44h1.1v0.58h-1.1v2.83c0,0.16 0.03,0.2801 0.1,0.3501c0.06,0.07 0.17,0.11 0.32,0.11h0.57v0.58h-0.67c-0.36,0 -0.63,-0.09 -0.78,-0.28c-0.15,-0.17 -0.22,-0.42 -0.22,-0.7601v-2.83h-0.9v-0.58h0.9v-1.16z"></path></g></g></g></g></g></svg>