<svg xmlns="http://www.w3.org/2000/svg" xmlns:xlink="http://www.w3.org/1999/xlink" width="200" height="146.15380859375" viewBox="0 0 200 146.15380859375" fill="none"><g opacity="1"  transform="translate(0 0)  rotate(0)"><g opacity="1"  transform="translate(0 0)  rotate(0)"><g opacity="1"  transform="translate(0 0)  rotate(0)"><path id="矩形备份 373" fill-rule="evenodd" style="fill:#E9F3FC" opacity="1" d="M0 10L0 136.15C0 141.67 4.48 146.15 10 146.15L190 146.15C195.52 146.15 200 141.67 200 136.15L200 10C200 4.48 195.52 0 190 0L10 0C4.48 0 0 4.48 0 10Z"></path><path id="矩形备份 17" fill-rule="evenodd" style="fill:#FFFFFF" opacity="1" d="M25.38 126.77L174.61 126.77C180.13 126.77 184.61 122.29 184.61 116.77L184.61 106C184.61 100.48 180.13 96 174.61 96L25.38 96C19.86 96 15.38 100.48 15.38 106L15.38 116.77C15.38 122.29 19.86 126.77 25.38 126.77Z"></path><path id="矩形备份 17" fill-rule="evenodd" style="fill:#FFFFFF" opacity="1" d="M25.38 88.4601L174.61 88.4601C180.13 88.4601 184.61 83.9801 184.61 78.4601L184.61 67.69C184.61 62.17 180.13 57.6899 174.61 57.6899L25.38 57.6899C19.86 57.6899 15.38 62.17 15.38 67.69L15.38 78.4601C15.38 83.9801 19.86 88.4601 25.38 88.4601Z"></path><path  id="矩形备份 17" style="fill:#2F8DE3; opacity:1;" d="M25.38,87.4601h149.23c4.971,0 9,-4.0294 9,-9v-10.7701c0,-4.9706 -4.029,-9.0001 -9,-9.0001h-149.23c-4.9706,0 -9,4.0295 -9,9.0001v10.7701c0,4.9706 4.0294,9 9,9zM25.38,89.4601c-6.0751,0 -11,-4.9249 -11,-11v-10.7701c0,-6.0752 4.9249,-11.0001 11,-11.0001h149.23c6.075,0 11,4.9249 11,11.0001v10.7701c0,6.0751 -4.925,11 -11,11z"></path><path id="文本 8" fill-rule="evenodd" style="fill:#232323" opacity="1" d="M24,113.96v-7.33h2.09c1.64,0 2.74,0.55 2.74,2.15c0,1.55 -1.09,2.26 -2.7,2.26h-1.21v2.92zM26.01,110.29c1.29,0 1.9,-0.46 1.9,-1.51c0,-1.07 -0.65,-1.4 -1.94,-1.4h-1.05v2.91zM32.35,114.09c-1.33,0 -2.51,-1.04 -2.51,-2.84c0,-1.81 1.18,-2.86 2.51,-2.86c1.33,0 2.51,1.05 2.51,2.86c0,1.8 -1.18,2.84 -2.51,2.84zM33.93,111.25c0,-1.25 -0.64,-2.09 -1.58,-2.09c-0.94,0 -1.57,0.84 -1.57,2.09c0,1.25 0.63,2.08 1.57,2.08c0.94,0 1.58,-0.83 1.58,-2.08zM37.26,114.09c-0.68,0 -0.96,-0.44 -0.96,-1.21v-6.88h0.92v6.94c0,0.28 0.11,0.39 0.25,0.39c0.05,0 0.09,0 0.19,-0.02l0.13,0.7c-0.13,0.04 -0.28,0.08 -0.53,0.08zM39.23,116.3c-0.25,0 -0.47,-0.04 -0.64,-0.11l0.18,-0.73c0.11,0.04 0.27,0.09 0.42,0.09c0.61,0 0.99,-0.5 1.22,-1.17l0.12,-0.41l-2.18,-5.44h0.95l1.1,3.01c0.17,0.48 0.35,1.03 0.54,1.54h0.05c0.14,-0.5 0.3,-1.05 0.44,-1.54l0.98,-3.01h0.89l-2.04,5.89c-0.38,1.06 -0.95,1.88 -2.03,1.88zM46.18,116.46c-1.32,0 -2.24,-0.52 -2.24,-1.45c0,-0.47 0.29,-0.92 0.8,-1.23v-0.05c-0.28,-0.17 -0.49,-0.46 -0.49,-0.89c0,-0.45 0.31,-0.81 0.6,-1.01v-0.04c-0.36,-0.28 -0.71,-0.81 -0.71,-1.46c0,-1.19 0.94,-1.94 2.03,-1.94c0.31,0 0.58,0.06 0.77,0.14h1.89v0.7h-1.11c0.26,0.25 0.44,0.65 0.44,1.12c0,1.16 -0.87,1.89 -1.99,1.89c-0.26,0 -0.56,-0.07 -0.8,-0.19c-0.2,0.17 -0.35,0.35 -0.35,0.65c0,0.34 0.22,0.59 0.95,0.59h1.07c1.25,0 1.89,0.39 1.89,1.29c0,1.01 -1.07,1.88 -2.75,1.88zM47.33,110.33c0,-0.8 -0.51,-1.27 -1.16,-1.27c-0.63,0 -1.15,0.47 -1.15,1.27c0,0.79 0.53,1.29 1.15,1.29c0.63,0 1.16,-0.5 1.16,-1.29zM48.03,114.73c0,-0.51 -0.38,-0.69 -1.1,-0.69h-0.94c-0.2,0 -0.46,-0.02 -0.7,-0.08c-0.39,0.28 -0.55,0.61 -0.55,0.92c0,0.58 0.58,0.95 1.57,0.95c1.05,0 1.72,-0.54 1.72,-1.1zM52.1,114.09c-1.33,0 -2.51,-1.04 -2.51,-2.84c0,-1.81 1.18,-2.86 2.51,-2.86c1.33,0 2.51,1.05 2.51,2.86c0,1.8 -1.18,2.84 -2.51,2.84zM53.68,111.25c0,-1.25 -0.64,-2.09 -1.58,-2.09c-0.94,0 -1.57,0.84 -1.57,2.09c0,1.25 0.63,2.08 1.57,2.08c0.94,0 1.58,-0.83 1.58,-2.08zM56.05,113.96v-5.43h0.75l0.09,0.79h0.02c0.51,-0.52 1.08,-0.93 1.82,-0.93c1.14,0 1.66,0.75 1.66,2.13v3.44h-0.91v-3.32c0,-1.02 -0.31,-1.45 -1.03,-1.45c-0.56,0 -0.94,0.28 -1.48,0.83v3.94zM64.48,113.96v-7.33h1.11l1.4,3.92c0.19,0.5 0.35,1.02 0.53,1.53h0.04c0.19,-0.51 0.34,-1.03 0.51,-1.53l1.4,-3.92h1.11v7.33h-0.86v-4.06c0,-0.63 0.07,-1.52 0.12,-2.16h-0.04l-0.59,1.67l-1.38,3.81h-0.62l-1.39,-3.81l-0.59,-1.67h-0.04c0.06,0.64 0.12,1.53 0.12,2.16v4.06zM73.76,114.09c-0.91,0 -1.58,-0.56 -1.58,-1.54c0,-1.18 1.02,-1.77 3.33,-2.03c0,-0.7 -0.23,-1.37 -1.12,-1.37c-0.63,0 -1.2,0.29 -1.63,0.58l-0.35,-0.63c0.49,-0.32 1.25,-0.71 2.13,-0.71c1.33,0 1.88,0.88 1.88,2.23v3.34h-0.75l-0.08,-0.65h-0.03c-0.52,0.43 -1.13,0.78 -1.8,0.78zM75.51,112.64v-1.51c-1.83,0.21 -2.45,0.66 -2.45,1.36c0,0.62 0.42,0.86 0.96,0.86c0.52,0 0.96,-0.24 1.49,-0.71zM78.14,113.96v-5.43h0.92v5.43zM78.6,107.41c-0.36,0 -0.6,-0.24 -0.6,-0.61c0,-0.35 0.24,-0.59 0.6,-0.59c0.36,0 0.61,0.24 0.61,0.59c0,0.37 -0.25,0.61 -0.61,0.61zM80.89,113.96v-5.43h0.75l0.09,0.79h0.02c0.51,-0.52 1.08,-0.93 1.82,-0.93c1.14,0 1.66,0.75 1.66,2.13v3.44h-0.91v-3.32c0,-1.02 -0.31,-1.45 -1.03,-1.45c-0.56,0 -0.94,0.28 -1.48,0.83v3.94zM86.99,113.96v-5.43h0.75l0.09,0.79h0.02c0.51,-0.52 1.08,-0.93 1.82,-0.93c1.14,0 1.66,0.75 1.66,2.13v3.44h-0.91v-3.32c0,-1.02 -0.31,-1.45 -1.03,-1.45c-0.56,0 -0.94,0.28 -1.48,0.83v3.94zM95.29,114.09c-1.45,0 -2.6,-1.05 -2.6,-2.84c0,-1.77 1.19,-2.86 2.43,-2.86c1.39,0 2.17,1 2.17,2.55c0,0.2 -0.02,0.38 -0.04,0.52h-3.66c0.06,1.16 0.77,1.9 1.8,1.9c0.53,0 0.95,-0.16 1.36,-0.43l0.32,0.61c-0.47,0.31 -1.05,0.55 -1.78,0.55zM96.49,110.81c0,-1.1 -0.5,-1.69 -1.35,-1.69c-0.77,0 -1.45,0.61 -1.56,1.69zM100.33,114.09c-1.15,0 -1.54,-0.72 -1.54,-1.81v-3.01h-0.81v-0.69l0.86,-0.05l0.1,-1.53h0.76v1.53h1.48v0.74h-1.48v3.04c0,0.66 0.21,1.04 0.84,1.04c0.2,0 0.44,-0.07 0.62,-0.15l0.18,0.69c-0.31,0.1 -0.67,0.2 -1.01,0.2z"></path><path id="文本 8" fill-rule="evenodd" style="fill:#2F8DE3" opacity="1" d="M26.62,77.2399c-1.01,0 -1.95,-0.41 -2.62,-1.09l0.68,-0.8c0.53,0.52 1.25,0.87 1.97,0.87c0.88,0 1.37,-0.42 1.37,-1.04c0,-0.67 -0.49,-0.88 -1.17,-1.18l-1.02,-0.44c-0.72,-0.3 -1.5,-0.85 -1.5,-1.93c0,-1.16 1.01,-2.03 2.42,-2.03c0.87,0 1.68,0.36 2.22,0.93l-0.59,0.74c-0.46,-0.41 -0.98,-0.66 -1.63,-0.66c-0.75,0 -1.23,0.37 -1.23,0.94c0,0.64 0.59,0.87 1.18,1.12l1.01,0.43c0.88,0.37 1.5,0.91 1.5,1.99c0,1.18 -0.98,2.15 -2.59,2.15zM31.35,77.0999l-1.49,-7.37h1.19l0.69,3.83c0.13,0.79 0.26,1.57 0.4,2.37h0.04c0.15,-0.8 0.33,-1.59 0.5,-2.37l0.94,-3.83h1.03l0.95,3.83c0.17,0.78 0.33,1.57 0.5,2.37h0.05c0.13,-0.8 0.25,-1.59 0.37,-2.37l0.7,-3.83h1.11l-1.45,7.37h-1.43l-0.99,-4.09c-0.12,-0.58 -0.24,-1.13 -0.34,-1.69h-0.04c-0.11,0.56 -0.23,1.11 -0.35,1.69l-0.97,4.09zM41.03,77.0999v-6.39h-2.15v-0.98h5.49v0.98h-2.16v6.39zM48.52,77.2399c-1.85,0 -3.28,-1.39 -3.28,-3.81c0,-2.39 1.47,-3.83 3.34,-3.83c0.91,0 1.63,0.44 2.08,0.93l-0.62,0.74c-0.39,-0.38 -0.85,-0.66 -1.44,-0.66c-1.27,0 -2.16,1.06 -2.16,2.79c0,1.74 0.83,2.82 2.13,2.82c0.67,0 1.18,-0.31 1.62,-0.79l0.63,0.74c-0.6,0.69 -1.34,1.07 -2.3,1.07zM54.36,77.0999v-7.37h1.34l1.34,3.73c0.17,0.48 0.33,0.99 0.49,1.48h0.05c0.17,-0.49 0.32,-1 0.48,-1.48l1.32,-3.73h1.35v7.37h-1.08v-3.64c0,-0.66 0.09,-1.61 0.16,-2.28h-0.05l-0.59,1.7l-1.28,3.51h-0.72l-1.29,-3.51l-0.59,-1.7h-0.04c0.07,0.67 0.16,1.62 0.16,2.28v3.64zM63.86,77.2399c-0.95,0 -1.62,-0.63 -1.62,-1.6c0,-1.19 1,-1.8 3.29,-2.05c-0.01,-0.63 -0.24,-1.19 -1.05,-1.19c-0.58,0 -1.12,0.26 -1.59,0.56l-0.43,-0.78c0.57,-0.36 1.34,-0.72 2.22,-0.72c1.37,0 2,0.86 2,2.33v3.31h-0.94l-0.09,-0.63h-0.04c-0.5,0.43 -1.09,0.77 -1.75,0.77zM65.53,75.6699v-1.34c-1.63,0.19 -2.18,0.61 -2.18,1.22c0,0.55 0.37,0.77 0.86,0.77c0.48,0 0.87,-0.23 1.32,-0.65zM68.31,77.0999v-5.51h1.15v5.51zM68.89,70.5699c-0.43,0 -0.72,-0.27 -0.72,-0.7c0,-0.4 0.29,-0.68 0.72,-0.68c0.42,0 0.71,0.28 0.71,0.68c0,0.43 -0.29,0.7 -0.71,0.7zM71.19,77.0999v-5.51h0.94l0.1,0.77h0.02c0.5,-0.5 1.07,-0.9 1.82,-0.9c1.17,0 1.69,0.78 1.69,2.18v3.46h-1.15v-3.32c0,-0.95 -0.28,-1.32 -0.93,-1.32c-0.51,0 -0.85,0.25 -1.34,0.74v3.9zM77.43,77.0999v-5.51h0.94l0.1,0.77h0.02c0.5,-0.5 1.07,-0.9 1.82,-0.9c1.17,0 1.69,0.78 1.69,2.18v3.46h-1.15v-3.32c0,-0.95 -0.28,-1.32 -0.93,-1.32c-0.51,0 -0.85,0.25 -1.34,0.74v3.9zM85.97,77.2399c-1.51,0 -2.69,-1.07 -2.69,-2.89c0,-1.79 1.23,-2.89 2.51,-2.89c1.46,0 2.25,1.05 2.25,2.6c0,0.23 -0.03,0.45 -0.06,0.59h-3.57c0.09,1.05 0.75,1.68 1.7,1.68c0.49,0 0.91,-0.15 1.31,-0.41l0.4,0.73c-0.5,0.34 -1.14,0.59 -1.85,0.59zM87.04,73.8499c0,-0.94 -0.43,-1.48 -1.23,-1.48c-0.69,0 -1.3,0.52 -1.41,1.48zM91.18,77.2399c-1.23,0 -1.67,-0.78 -1.67,-1.94v-2.78h-0.8v-0.86l0.86,-0.07l0.13,-1.52h0.96v1.52h1.43v0.93h-1.43v2.79c0,0.66 0.23,1 0.81,1c0.18,0 0.42,-0.07 0.58,-0.13l0.21,0.85c-0.3,0.1 -0.68,0.21 -1.08,0.21z"></path><g opacity="1"  transform="translate(167.68994140625 68.45947265625)  rotate(0)"><path id="椭圆形" fill-rule="evenodd" style="fill:#43A2F4" opacity="1" d="M9.23005 4.62039C9.23005 2.07045 7.16004 0.000488281 4.62003 0.000488281C2.07001 0.000488281 0 2.07045 0 4.62039C0 7.16034 2.07001 9.2303 4.62003 9.2303C7.16004 9.2303 9.23005 7.16034 9.23005 4.62039Z"></path><path id="形状结合" fill-rule="evenodd" style="fill:#FFFFFF" opacity="1" d="M4.73467,6.64905c-0.01055,0.01252 -0.02173,0.02471 -0.03355,0.03653c-0.06256,0.06256 -0.13594,0.10783 -0.21415,0.1358c-0.20272,0.07549 -0.43702,0.03399 -0.60086,-0.12985c-0.00575,-0.00575 -0.01135,-0.01159 -0.01681,-0.01752l-1.61476,-1.61476c-0.22628,-0.22627 -0.22627,-0.59397 0.00001,-0.82025c0.22628,-0.22628 0.5869,-0.21921 0.81318,0.00706l1.2218,1.2218l2.45335,-2.45335c0.22628,-0.22628 0.5869,-0.21921 0.81318,0.00706c0.2192,0.2192 0.21919,0.5869 -0.00001,0.80611z"></path></g><g opacity="1"  transform="translate(167.68994140625 106.919921875)  rotate(0)"><path  id="椭圆形" style="fill:#B2B2B2; opacity:1;" d="M8.23005,4.61991c0,-1.08253 -0.36969,-1.88964 -1.10005,-2.59898c-0.70119,-0.68101 -1.47541,-1.02095 -2.50997,-1.02095c-1.99929,0 -3.62002,1.6207 -3.62002,3.61993c0,1.03454 0.33994,1.80874 1.02098,2.50991c0.70936,0.73034 1.51648,1.10001 2.59904,1.10001c1.99376,0 3.61002,-1.61622 3.61002,-3.60992zM10.2301,4.61991c0,3.09825 -2.51174,5.60989 -5.61007,5.60989c-1.5188,0 -3.06326,-0.7074 -4.03373,-1.70657c-0.9325,-0.96007 -1.58631,-2.44905 -1.58631,-3.90332c0,-3.10378 2.51618,-5.61989 5.62004,-5.61989c1.45431,0 2.94333,0.65379 3.90342,1.58626c0.99919,0.97044 1.70665,2.51487 1.70665,4.03363z"></path></g><path id="矩形备份 17" fill-rule="evenodd" style="fill:#FFFFFF" opacity="1" d="M25.38 50.0002L174.61 50.0002C180.13 50.0002 184.61 45.5201 184.61 40.0001L184.61 29.23C184.61 23.71 180.13 19.23 174.61 19.23L25.38 19.23C19.86 19.23 15.38 23.71 15.38 29.23L15.38 40.0001C15.38 45.5201 19.86 50.0002 25.38 50.0002Z"></path><g opacity="1"  transform="translate(166.1500244140625 29.22998046875)  rotate(0)"><path  id="椭圆形" style="fill:#B2B2B2; opacity:1;" d="M9.76995,5.38009c0,-1.25068 -0.42533,-2.21749 -1.24571,-3.05737c-0.8477,-0.86786 -1.84698,-1.3227 -3.14427,-1.3227c-2.41899,0 -4.37997,1.96102 -4.37997,4.38007c0,1.29732 0.45484,2.29662 1.32268,3.14435c0.83986,0.82039 1.80664,1.24573 3.0573,1.24573c2.42452,0 4.38998,-1.9655 4.38998,-4.39008zM11.7699,5.38009c0,3.52916 -2.86085,6.39011 -6.38993,6.39011c-1.67115,0 -3.35519,-0.7409 -4.45481,-1.81502c-1.13559,-1.10926 -1.92516,-2.84402 -1.92516,-4.57509c0,-3.52363 2.8564,-6.38011 6.37997,-6.38011c1.73103,0 3.46575,0.78959 4.57498,1.9252c1.07405,1.09964 1.81495,2.78372 1.81495,4.45491z"></path></g><path id="如果我向任何人透露分享我的助记词，我的资" fill-rule="evenodd" style="fill:#232323" opacity="1" d="M24,30.7999h5.45v0.77h-4.57v2.57h4.31v0.76h-4.31v2.83h4.75v0.76h-5.63zM32.24,31.1199v1.8h1.38v0.72h-1.38v3.55c0,0.2 0.03,0.35 0.12,0.44c0.07,0.08 0.21,0.14 0.41,0.14h0.71v0.72h-0.84c-0.46,0 -0.79,-0.12 -0.98,-0.36c-0.19,-0.21 -0.27,-0.52 -0.27,-0.94v-3.55h-1.12v-0.72h1.12v-1.44zM34.58,30.6499h0.86v3.19c0.19,-0.36 0.45,-0.63 0.77,-0.81c0.3,-0.17 0.64,-0.26 1.01,-0.26c0.65,0 1.16,0.18 1.5,0.57c0.35,0.38 0.52,0.93 0.52,1.64v3.51h-0.86v-3.38c0,-0.52 -0.13,-0.92 -0.37,-1.2c-0.26,-0.28 -0.61,-0.42 -1.08,-0.42c-0.43,0 -0.78,0.18 -1.06,0.52c-0.29,0.34 -0.43,0.79 -0.43,1.3v3.18h-0.86zM42.86,32.7699c0.89,0 1.57,0.3 2.02,0.91c0.41,0.53 0.63,1.3 0.65,2.27h-4.4c0.05,0.62 0.21,1.11 0.51,1.45c0.3,0.35 0.72,0.52 1.25,0.52c0.45,0 0.83,-0.12 1.11,-0.35c0.24,-0.19 0.42,-0.48 0.56,-0.87h0.86c-0.13,0.54 -0.38,0.97 -0.75,1.32c-0.47,0.41 -1.06,0.62 -1.78,0.62c-0.8,0 -1.44,-0.27 -1.92,-0.79c-0.49,-0.53 -0.73,-1.24 -0.73,-2.15c0,-0.82 0.23,-1.51 0.7,-2.06c0.47,-0.58 1.11,-0.87 1.92,-0.87zM41.68,33.9799c-0.3,0.32 -0.47,0.75 -0.52,1.3h3.47c-0.1,-1.19 -0.7,-1.79 -1.75,-1.79c-0.5,0 -0.9,0.16 -1.2,0.49zM48.98,32.7699c0.31,0 0.56,0.04 0.77,0.13v0.86c-0.28,-0.08 -0.56,-0.12 -0.83,-0.12c-0.43,0 -0.8,0.19 -1.09,0.57c-0.3,0.37 -0.44,0.81 -0.44,1.33v2.95h-0.85v-5.57h0.85v0.97c0.15,-0.32 0.35,-0.58 0.58,-0.76c0.29,-0.24 0.63,-0.36 1.01,-0.36zM52.76,32.7699c0.9,0 1.58,0.3 2.03,0.91c0.41,0.53 0.62,1.3 0.65,2.27h-4.4c0.04,0.62 0.21,1.11 0.51,1.45c0.3,0.35 0.72,0.52 1.25,0.52c0.45,0 0.83,-0.12 1.11,-0.35c0.23,-0.19 0.42,-0.48 0.56,-0.87h0.86c-0.13,0.54 -0.38,0.97 -0.76,1.32c-0.46,0.41 -1.05,0.62 -1.77,0.62c-0.8,0 -1.45,-0.27 -1.92,-0.79c-0.5,-0.53 -0.73,-1.24 -0.73,-2.15c0,-0.82 0.22,-1.51 0.7,-2.06c0.47,-0.58 1.11,-0.87 1.91,-0.87zM51.59,33.9799c-0.3,0.32 -0.47,0.75 -0.53,1.3h3.48c-0.11,-1.19 -0.7,-1.79 -1.75,-1.79c-0.5,0 -0.9,0.16 -1.2,0.49zM56.45,32.9199h0.86v3.41c0,0.52 0.11,0.92 0.33,1.18c0.23,0.26 0.6,0.4 1.1,0.4c0.37,0 0.7,-0.15 0.99,-0.43c0.3,-0.3 0.49,-0.69 0.55,-1.17v-3.39h0.86v5.57h-0.86v-0.86c-0.45,0.67 -1.05,1.01 -1.81,1.01c-1.35,0 -2.02,-0.76 -2.02,-2.27zM64.91,32.7699c0.85,0 1.43,0.35 1.75,1.06c0.21,-0.37 0.47,-0.64 0.77,-0.8c0.27,-0.17 0.59,-0.26 0.98,-0.26c0.58,0 1.05,0.18 1.41,0.55c0.35,0.38 0.53,0.88 0.53,1.52v3.65h-0.86v-3.51c0,-0.5 -0.11,-0.86 -0.31,-1.1c-0.22,-0.26 -0.56,-0.38 -1.04,-0.38c-0.36,0 -0.68,0.13 -0.91,0.41c-0.26,0.28 -0.38,0.64 -0.38,1.09v3.49h-0.86v-3.51c0,-0.99 -0.43,-1.48 -1.28,-1.48c-0.4,0 -0.72,0.15 -0.98,0.48c-0.26,0.3 -0.39,0.68 -0.39,1.12v3.39h-0.86v-5.57h0.86v0.75c0.42,-0.61 0.95,-0.9 1.57,-0.9zM75.38,30.7999h1.1l2.86,6.56h0.04l2.85,-6.56h1.1v7.69h-0.89v-6.12h-0.03l-2.66,6.12h-0.79l-2.66,-6.12h-0.04v6.12h-0.88zM87.19,32.7699c0.8,0 1.38,0.21 1.77,0.63c0.32,0.36 0.5,0.87 0.5,1.51v3.58h-0.81v-0.94c-0.22,0.3 -0.51,0.55 -0.85,0.75c-0.41,0.22 -0.88,0.34 -1.39,0.34c-0.56,0 -1,-0.14 -1.34,-0.42c-0.34,-0.29 -0.51,-0.67 -0.51,-1.12c0,-0.63 0.24,-1.11 0.76,-1.43c0.45,-0.3 1.1,-0.46 1.94,-0.48l1.33,-0.02v-0.29c0,-0.93 -0.48,-1.4 -1.45,-1.4c-0.41,0 -0.74,0.08 -1,0.25c-0.29,0.17 -0.48,0.44 -0.56,0.8l-0.85,-0.07c0.12,-0.58 0.41,-1.02 0.86,-1.3c0.41,-0.26 0.94,-0.39 1.6,-0.39zM87.31,35.8399c-1.25,0.02 -1.87,0.43 -1.87,1.24c0,0.26 0.1,0.46 0.31,0.63c0.22,0.17 0.5,0.25 0.84,0.25c0.53,0 0.99,-0.17 1.4,-0.51c0.4,-0.34 0.6,-0.73 0.6,-1.16v-0.47zM91.5,30.8199c0.18,0 0.34,0.06 0.46,0.19c0.13,0.1 0.2,0.25 0.2,0.45c0,0.18 -0.07,0.33 -0.2,0.46c-0.12,0.12 -0.28,0.18 -0.46,0.18c-0.18,0 -0.33,-0.06 -0.46,-0.18c-0.13,-0.13 -0.18,-0.28 -0.18,-0.46c0,-0.2 0.05,-0.35 0.18,-0.45c0.13,-0.13 0.28,-0.19 0.46,-0.19zM91.07,32.9199h0.86v5.57h-0.86zM96.15,32.7699c1.38,0 2.08,0.77 2.08,2.3v3.42h-0.86v-3.36c0,-1.09 -0.49,-1.63 -1.46,-1.63c-0.39,0 -0.73,0.14 -1.01,0.42c-0.3,0.31 -0.46,0.7 -0.49,1.21v3.36h-0.86v-5.57h0.86v0.82c0.19,-0.31 0.44,-0.55 0.74,-0.71c0.3,-0.17 0.64,-0.26 1,-0.26zM102.17,32.7699c1.38,0 2.08,0.77 2.08,2.3v3.42h-0.86v-3.36c0,-1.09 -0.49,-1.63 -1.46,-1.63c-0.39,0 -0.73,0.14 -1.01,0.42c-0.3,0.31 -0.46,0.7 -0.49,1.21v3.36h-0.86v-5.57h0.86v0.82c0.19,-0.31 0.44,-0.55 0.74,-0.71c0.3,-0.17 0.64,-0.26 1,-0.26zM107.88,32.7699c0.9,0 1.57,0.3 2.03,0.91c0.41,0.53 0.62,1.3 0.64,2.27h-4.39c0.04,0.62 0.2,1.11 0.5,1.45c0.31,0.35 0.73,0.52 1.25,0.52c0.46,0 0.83,-0.12 1.11,-0.35c0.24,-0.19 0.42,-0.48 0.56,-0.87h0.86c-0.12,0.54 -0.37,0.97 -0.75,1.32c-0.46,0.41 -1.05,0.62 -1.78,0.62c-0.79,0 -1.44,-0.27 -1.91,-0.79c-0.5,-0.53 -0.74,-1.24 -0.74,-2.15c0,-0.82 0.23,-1.51 0.7,-2.06c0.48,-0.58 1.11,-0.87 1.92,-0.87zM106.71,33.9799c-0.3,0.32 -0.48,0.75 -0.53,1.3h3.48c-0.11,-1.19 -0.7,-1.79 -1.76,-1.79c-0.49,0 -0.89,0.16 -1.19,0.49zM113.05,31.1199v1.8h1.38v0.72h-1.38v3.55c0,0.2 0.03,0.35 0.12,0.44c0.07,0.08 0.21,0.14 0.41,0.14h0.71v0.72h-0.84c-0.45,0 -0.79,-0.12 -0.98,-0.36c-0.18,-0.21 -0.27,-0.52 -0.27,-0.94v-3.55h-1.12v-0.72h1.12v-1.44z"></path></g></g></g></svg>