<svg xmlns="http://www.w3.org/2000/svg" xmlns:xlink="http://www.w3.org/1999/xlink" width="640" height="640" viewBox="0 0 640 640" fill="none"><defs><path id="path_0"
        transform="translate(0 0) rotate(0 319.99999999999994 320)"
        d="M0,640L640,640L640,0L0,0L0,640Z" /><linearGradient id="linear_0" x1="50%" y1="0%" x2="51%" y2="100%" gradientUnits="objectBoundingBox"><stop offset="0" stop-color="#E6F3FF" stop-opacity="1" /><stop offset="1" stop-color="#D6ECFF" stop-opacity="1" /></linearGradient></defs><g opacity="1" transform="translate(0 0)  rotate(0 320 320)"><g opacity="1" transform="translate(0 0)  rotate(0 319.99999999999994 320)"><mask id="mask-0" fill="white"><use xlink:href="#path_0"></use></mask><g mask="url(#mask-0)"><path id="矩形 1" fill-rule="evenodd" style="fill:#DEEFFE" transform="translate(0 0)  rotate(0 319.99999999999994 320)" opacity="1" d="M0,640L640,640L640,0L0,0L0,640Z " /></g><g mask="url(#mask-0)"><path id="椭圆形" style="stroke:url(#linear_0); stroke-width:14; stroke-opacity:100; stroke-dasharray:0 0" transform="translate(-58.501309413481486 -106.07064876308586)  rotate(-20 489.11293040814326 352.83629260854457)" d="M978.23,352.84C978.23,158 759.2,0 489.11,0C219.02,0 0,158 0,352.84C0,547.67 219.02,705.67 489.11,705.67C759.2,705.67 978.23,547.67 978.23,352.84Z " /></g></g><g opacity="1" transform="translate(46 61)  rotate(0 14.76433519493091 15.164999999999992)"><path id="矩形" fill-rule="evenodd" style="fill:#FFFFFF" transform="translate(0 0)  rotate(0 14.76433519493091 9.641697223121449)" opacity="1" d="M14.76,15.81L29.53,19.28L29.09,0L0,2.39L14.76,15.81Z " /><path id="矩形" fill-rule="evenodd" style="fill:#BDB9B2" transform="translate(10.472985357355201 15.379259938291582)  rotate(0 9.52784211571283 7.475370030854197)" opacity="1" d="M3.85,0L0,14.95L9.52,14.02L19.06,3.9L3.85,0Z " /><path id="矩形" fill-rule="evenodd" style="fill:#D4D4D3" transform="translate(0 2.3899199684182)  rotate(0 7.764363395326071 12.264137326009863)" opacity="1" d="M15.53,13.42L0,0L0,21.32L1.89,24.53L15.53,13.42Z " /><path id="矩形" fill-rule="evenodd" style="fill:#A4A29F" transform="translate(1.8630502637643855 15.164999999999926)  rotate(0 6.832838263443872 7.582500000000011)" opacity="1" d="M8.61,15.17L13.67,0L0,11.8L8.61,15.17Z " /></g><g opacity="1" transform="translate(507 543)  rotate(0 41.78571428571438 30)"><g opacity="1" transform="translate(44.28571428571435 15.714285714285744)  rotate(0 19.642857142857203 15.357142857142884)"><g opacity="1" transform="translate(0 0)  rotate(0 19.642857142857203 15.357142857142884)"><path id="矩形" fill-rule="evenodd" style="fill:#A79C89" transform="translate(25.83699640482095 2.4443153806302966)  rotate(0 6.724358940446672 13.168953427039249)" opacity="1" d="M0,13.79L0,26.34L9.21,19.3L13.45,0L0,13.79Z " /><path id="矩形" fill-rule="evenodd" style="fill:#BDB9B2" transform="translate(0 2.4443153806301403)  rotate(0 19.642857142857114 7.462862643805338)" opacity="1" d="M25.84,14.93L39.29,0L0,10.33L25.84,14.93Z " /><path id="矩形" fill-rule="evenodd" style="fill:#F6F6F5" transform="translate(1.6342482922482304e-13 0)  rotate(0 19.64285714285712 6.387060384177248)" opacity="1" d="M22.92,7.71L39.29,2.44L20.45,0L0,12.77L22.92,7.71Z " /><path id="矩形" fill-rule="evenodd" style="fill:#ACA79E" transform="translate(1.6342482922482304e-13 12.774120768354166)  rotate(0 13.409497944346363 8.970082472965792)" opacity="1" d="M19.64,17.94L26.82,16.01L26.82,3.63L0,0L19.64,17.94Z " /></g></g><g opacity="1" transform="translate(0 0)  rotate(0 31.07142857142864 30)"><path id="矩形" fill-rule="evenodd" style="fill:#FFFFFF" transform="translate(28.021911690883638 0)  rotate(0 17.060472725986713 16.917958441727368)" opacity="1" d="M0,33.84L34.12,31.3L24.37,16.16L7,0L0,33.84Z " /><path id="矩形" fill-rule="evenodd" style="fill:#A79C89" transform="translate(28.832855754729522 31.303012707341487)  rotate(0 16.167383779783393 14.005758521526696)" opacity="1" d="M0,28.01L25.17,22.61L32.33,0L0,28.01Z " /><path id="矩形" fill-rule="evenodd" style="fill:#BDB9B2" transform="translate(0 31.588090773720705)  rotate(0 14.986189674002475 14.205954613139653)" opacity="1" d="M29.97,28.41L29.81,0L0,2.42L29.97,28.41Z " /><path id="矩形" fill-rule="evenodd" style="fill:#F6F6F5" transform="translate(1.624097681737375e-13 0)  rotate(0 17.805383998203002 17.00218508420042)" opacity="1" d="M28.83,32.57L35.61,0L0,34L28.83,32.57Z " /><path id="矩形" fill-rule="evenodd" style="fill:#ACA79E" transform="translate(28.997145519444384 30.325680995412064)  rotate(0 16.572855811706432 14.348493646328984)" opacity="1" d="M0,28.7L17.58,15.43L33.15,0L0,2.53L0,28.7Z " /></g></g></g></svg>