<svg xmlns="http://www.w3.org/2000/svg" xmlns:xlink="http://www.w3.org/1999/xlink" width="604.2790697674418" height="812" viewBox="0 0 604.2790697674418 812" fill="none"><defs><path id="path_0"
        transform="translate(0 0) rotate(0 302.1395348837209 405.99999999999994)"
        d="M0,812L604.28,812L604.28,0L0,0L0,812Z" /><linearGradient id="linear_0" x1="1.6755194239674656%" y1="52.21876326902807%" x2="100%" y2="100%" gradientUnits="objectBoundingBox"><stop offset="0" stop-color="#62C4F9" stop-opacity="1" /><stop offset="1" stop-color="#3292E5" stop-opacity="1" /></linearGradient><linearGradient id="linear_1" x1="67.43%" y1="9.823%" x2="27.631%" y2="89.608%" gradientUnits="objectBoundingBox"><stop offset="0" stop-color="#5AB0ED" stop-opacity="1" /><stop offset="1" stop-color="#62C4F9" stop-opacity="1" /></linearGradient><filter id="filter_7" x="0" y="0" width="35.87906976744188" height="42.488372093023244" filterUnits="userSpaceOnUse" color-interpolation-filters="sRGB"><feFlood flood-opacity="0" result="BackgroundImageFix"/>
          <feBlend mode="normal" in="SourceGraphic" in2="BackgroundImageFix" result="shape"/>
          <feGaussianBlur stdDeviation="8" result="effect1_foregroundBlur" /></filter></defs><g opacity="1" transform="translate(0 0)  rotate(0 302 406)"><mask id="mask-0" fill="white"><use xlink:href="#path_0"></use></mask><g mask="url(#mask-0)"><path id="矩形 1" fill-rule="evenodd" fill="url(#linear_0)" transform="translate(0 0)  rotate(0 302.1395348837209 405.99999999999994)" opacity="1" d="M0,812L604.28,812L604.28,0L0,0L0,812Z " /></g><g mask="url(#mask-0)"><path id="椭圆形" style="stroke:url(#linear_1); stroke-width:16; stroke-opacity:100; stroke-dasharray:0 0" transform="translate(-186.86620692177453 -39.488095977772176)  rotate(10 489.37514683732223 357.28555755222095)" d="M978.75,357.29C978.75,159.99 759.61,0 489.38,0C219.14,0 0,159.99 0,357.29C0,554.58 219.14,714.57 489.38,714.57C759.61,714.57 978.75,554.58 978.75,357.29Z " /></g><g mask="url(#mask-0)"><g opacity="0.62" transform="translate(515.5255813953488 81.19999999999999)  rotate(0 17.93953488372094 21.244186046511622)"><g id="undefined" filter="url(#filter_7)"></g><path id="矩形" fill-rule="evenodd" style="fill:#BFE4FF" transform="translate(5.276333789329669 0)  rotate(0 14.773734610123132 12.746511627906973)" opacity="1" d="M0,7.21L23.75,25.49L29.55,19.15L20.9,1.23L14.59,0L0,7.21Z " /><path id="矩形" fill-rule="evenodd" style="fill:#5DB7FA" transform="translate(26.38166894664846 18.057558139534862)  rotate(0 4.748700410396719 12.215406976744182)" opacity="1" d="M0,10.13L2.91,24.43L9.5,10.13L8.69,0L0,10.13Z " /><path id="矩形" fill-rule="evenodd" style="fill:#3FA6F3" transform="translate(0 7.435465116279062)  rotate(0 14.773734610123132 15.402034883720928)" opacity="1" d="M17.35,30.8L29.55,17.72L5.68,0L0,16.11L7.09,30.8L17.35,30.8Z " /><path id="矩形" fill-rule="evenodd" style="fill:#97D3FF" transform="translate(0 7.435465116279062)  rotate(0 14.773734610123132 9.028779069767442)" opacity="1" d="M5.68,0L0,16.41L29.55,18.06L5.68,0Z " /><path id="矩形" fill-rule="evenodd" style="fill:#389BE5" transform="translate(7.386867305061514 25.493023255813938)  rotate(0 11.080300957592344 8.497674418604648)" opacity="1" d="M22.16,17L22.16,0L0,12.95L22.16,17Z " /></g></g><g mask="url(#mask-0)"><g opacity="1" transform="translate(145.40465116279069 624.2202790697673)  rotate(0 46.872093023255815 37.6563611491108)"><g opacity="1" transform="translate(62.720930232558175 3.5863201094392707)  rotate(0 15.511627906976747 21.96621067031464)"><path id="矩形" fill-rule="evenodd" style="fill:#7AC5FC" transform="translate(0 0)  rotate(0 13.423524150268335 13.336627906976736)" opacity="1" d="M7.86,1.29L0,20.04L5.27,26.67L26.85,7.54L13.59,0L7.86,1.29Z " /><path id="矩形" fill-rule="evenodd" style="fill:#5DB7FA" transform="translate(0 18.82818057455529)  rotate(0 4.474508050089447 12.55212038303693)" opacity="1" d="M0,10.41L6.21,25.1L8.95,10.41L0.76,0L0,10.41Z " /><path id="矩形" fill-rule="evenodd" style="fill:#3FA6F3" transform="translate(5.369409660107323 7.060567715458205)  rotate(0 12.82692307692308 16.08240424076607)" opacity="1" d="M25.65,16.82L20.72,0L0,18.5L10.59,32.16L19.49,32.16L25.65,16.82Z " /><path id="矩形" fill-rule="evenodd" style="fill:#5DB7FA" transform="translate(5.369409660107323 7.060567715458205)  rotate(0 12.82692307692308 9.414090287277697)" opacity="1" d="M25.65,17.11L20.72,0L0,18.83L25.65,17.11Z " /><path id="矩形" fill-rule="evenodd" style="fill:#389BE5" transform="translate(6.562611806797804 26.67325581395346)  rotate(0 9.545617173524155 8.6295827633379)" opacity="1" d="M0,0L0,17.26L19.09,13.15L0,0Z " /></g><g opacity="1" transform="translate(18.883720930232556 0)  rotate(0 27.313953488372107 37.6563611491108)"><path id="矩形" fill-rule="evenodd" style="fill:#61BAFB" transform="translate(2.3495873968492162 0)  rotate(0 26.139159789947485 17.845964710844683)" opacity="1" d="M0,14.32L10.89,35.69L52.28,23.62L21.9,0L0,14.32Z " /><path id="矩形" fill-rule="evenodd" style="fill:#389BE5" transform="translate(37.593398349587375 23.27734527501491)  rotate(0 8.22355588897223 15.518230183343192)" opacity="1" d="M0,5L16.45,31.04L16.45,0L0,5Z " /><path id="矩形" fill-rule="evenodd" style="fill:#389BE5" transform="translate(0 31.036460366686242)  rotate(0 7.342460615153785 19.009831974595414)" opacity="1" d="M14.68,4.62L11.15,0L0,22.33L12.75,38.02L14.68,4.62Z " /><path id="矩形" fill-rule="evenodd" style="fill:#4EAAEE" transform="translate(0 14.742318674176317)  rotate(0 6.167666916729179 19.785743483762573)" opacity="1" d="M2.87,0L0,39.57L12.34,18.27L2.87,0Z " /><path id="矩形" fill-rule="evenodd" style="fill:#4EAAEE" transform="translate(12.335333833458378 27.932814330017777)  rotate(0 13.752274500473911 23.689953984101994)" opacity="1" d="M16.15,47.38L27.5,42.97L25.85,0L21.67,0L0,4.55L16.15,47.38Z " /><path id="矩形" fill-rule="evenodd" style="fill:#3195DE" transform="translate(12.335333833458378 36.73622128163015)  rotate(0 8.292661400644274 19.28825050829577)" opacity="1" d="M1.75,0L0,32.11L16.59,38.58L1.75,0Z " /><path id="矩形" fill-rule="evenodd" style="fill:#3195DE" transform="translate(37.71387053202801 27.932814330017777)  rotate(0 8.457018222358093 21.707235985252026)" opacity="1" d="M0,0L1.71,43.41L16.91,26.07L0,0Z " /></g><g opacity="1" transform="translate(0 25.104240766073872)  rotate(0 11.80232558139535 15.690150478796175)"><path id="矩形" fill-rule="evenodd" style="fill:#61BAFB" transform="translate(0 0)  rotate(0 11.212209302325581 7.452821477428183)" opacity="1" d="M0,9.86L17.75,14.91L22.42,5.98L13.03,0L0,9.86Z " /><path id="矩形" fill-rule="evenodd" style="fill:#389BE5" transform="translate(0.5901162790697754 9.666728303461696)  rotate(0 3.54060081711376 6.541994945396371)" opacity="1" d="M0,13.08L7.08,2.1L0,0L0,13.08Z " /><path id="矩形" fill-rule="evenodd" style="fill:#389BE5" transform="translate(17.11337209302326 12.552120383036936)  rotate(0 3.245639534883723 7.845075239398088)" opacity="1" d="M6.49,9.22L1.56,0L0,1.91L0.86,15.69L6.49,9.22Z " /><path id="矩形" fill-rule="evenodd" style="fill:#4EAAEE" transform="translate(18.29360465116278 6.276060191518468)  rotate(0 2.655523255813953 7.845075239398088)" opacity="1" d="M5.31,15.69L4.07,0L0,7.25L5.31,15.69Z " /><path id="矩形" fill-rule="evenodd" style="fill:#4EAAEE" transform="translate(7.081395348837191 11.767612859097085)  rotate(0 5.7774331516952895 9.80634404924761)" opacity="1" d="M1.81,0L0,0L1.81,19.61L11.55,1.76L1.81,0Z " /><path id="矩形" fill-rule="evenodd" style="fill:#3195DE" transform="translate(8.851744186046517 14.905642954856376)  rotate(0 4.72093023255814 8.237329001367995)" opacity="1" d="M9.44,13.04L8.79,0L0,16.47L9.44,13.04Z " /><path id="矩形" fill-rule="evenodd" style="fill:#3195DE" transform="translate(0 11.767612859097085)  rotate(0 4.7209302325581355 9.80634404924761)" opacity="1" d="M9.44,19.61L9.09,8.13L7.55,0L0,10.3L9.44,19.61Z " /></g></g></g></g></svg>