<svg xmlns="http://www.w3.org/2000/svg" xmlns:xlink="http://www.w3.org/1999/xlink" width="640" height="640" viewBox="0 0 640 640" fill="none"><defs><path id="path_0"
        transform="translate(0 0) rotate(0 320 320)"
        d="M0,418.62L0,640L640,640L640,320L640,0L0,0L0,418.62Z" /><linearGradient id="linear_0" x1="1.6755194239674656%" y1="52.21876326902807%" x2="101.65651100555888%" y2="41.326553374282994%" gradientUnits="objectBoundingBox"><stop offset="0" stop-color="#F6F9FD" stop-opacity="1" /><stop offset="1" stop-color="#DBEEFF" stop-opacity="1" /></linearGradient><filter id="filter_7" x="0" y="0" width="30.215277777777775" height="19.085714285714285" filterUnits="userSpaceOnUse" color-interpolation-filters="sRGB"><feFlood flood-opacity="0" result="BackgroundImageFix"/>
          <feBlend mode="normal" in="SourceGraphic" in2="BackgroundImageFix" result="shape"/>
          <feGaussianBlur stdDeviation="8" result="effect1_foregroundBlur" /></filter><filter id="filter_9" x="0" y="0" width="46.91319444444443" height="45.32857142857144" filterUnits="userSpaceOnUse" color-interpolation-filters="sRGB"><feFlood flood-opacity="0" result="BackgroundImageFix"/>
          <feBlend mode="normal" in="SourceGraphic" in2="BackgroundImageFix" result="shape"/>
          <feGaussianBlur stdDeviation="8" result="effect1_foregroundBlur" /></filter><filter id="filter_11" x="0" y="0" width="22.26388888888889" height="34.1952380952382" filterUnits="userSpaceOnUse" color-interpolation-filters="sRGB"><feFlood flood-opacity="0" result="BackgroundImageFix"/>
          <feBlend mode="normal" in="SourceGraphic" in2="BackgroundImageFix" result="shape"/>
          <feGaussianBlur stdDeviation="8" result="effect1_foregroundBlur" /></filter><filter id="filter_13" x="0" y="0" width="22.26388888888889" height="24.65238095238106" filterUnits="userSpaceOnUse" color-interpolation-filters="sRGB"><feFlood flood-opacity="0" result="BackgroundImageFix"/>
          <feBlend mode="normal" in="SourceGraphic" in2="BackgroundImageFix" result="shape"/>
          <feGaussianBlur stdDeviation="8" result="effect1_foregroundBlur" /></filter><filter id="filter_15" x="0" y="0" width="27.829861111111097" height="50.8952380952381" filterUnits="userSpaceOnUse" color-interpolation-filters="sRGB"><feFlood flood-opacity="0" result="BackgroundImageFix"/>
          <feBlend mode="normal" in="SourceGraphic" in2="BackgroundImageFix" result="shape"/>
          <feGaussianBlur stdDeviation="8" result="effect1_foregroundBlur" /></filter><linearGradient id="linear_1" x1="50%" y1="0%" x2="51%" y2="100%" gradientUnits="objectBoundingBox"><stop offset="0" stop-color="#E9F4FE" stop-opacity="1" /><stop offset="1" stop-color="#C2E2FF" stop-opacity="1" /></linearGradient><linearGradient id="linear_2" x1="50%" y1="0%" x2="51%" y2="100%" gradientUnits="objectBoundingBox"><stop offset="0" stop-color="#C3E3FF" stop-opacity="1" /><stop offset="1" stop-color="#C3E5FF" stop-opacity="1" /></linearGradient><filter id="filter_21" x="0" y="0" width="25.309342252994036" height="30" filterUnits="userSpaceOnUse" color-interpolation-filters="sRGB"><feFlood flood-opacity="0" result="BackgroundImageFix"/>
          <feBlend mode="normal" in="SourceGraphic" in2="BackgroundImageFix" result="shape"/>
          <feGaussianBlur stdDeviation="8" result="effect1_foregroundBlur" /></filter><linearGradient id="linear_3" x1="0%" y1="0%" x2="100%" y2="100%" gradientUnits="objectBoundingBox"><stop offset="0" stop-color="#DDEFFE" stop-opacity="1" /><stop offset="1" stop-color="#DDEFFE" stop-opacity="1" /></linearGradient><filter id="filter_32" x="356.49256944444437" y="196.9412857142857" width="11.694335860374053" height="15.951756893044035" filterUnits="userSpaceOnUse" color-interpolation-filters="sRGB"></filter><filter id="filter_113" x="0" y="0" width="38.166666666666664" height="23.857142857142858" filterUnits="userSpaceOnUse" color-interpolation-filters="sRGB"><feFlood flood-opacity="0" result="BackgroundImageFix"/>
          <feBlend mode="normal" in="SourceGraphic" in2="BackgroundImageFix" result="shape"/>
          <feGaussianBlur stdDeviation="8" result="effect1_foregroundBlur" /></filter><filter id="filter_115" x="0" y="0" width="19.87847222222222" height="58.847619047619034" filterUnits="userSpaceOnUse" color-interpolation-filters="sRGB"><feFlood flood-opacity="0" result="BackgroundImageFix"/>
          <feBlend mode="normal" in="SourceGraphic" in2="BackgroundImageFix" result="shape"/>
          <feGaussianBlur stdDeviation="8" result="effect1_foregroundBlur" /></filter><filter id="filter_117" x="0" y="0" width="57.2500000000003" height="44.533333333333374" filterUnits="userSpaceOnUse" color-interpolation-filters="sRGB"><feFlood flood-opacity="0" result="BackgroundImageFix"/>
          <feBlend mode="normal" in="SourceGraphic" in2="BackgroundImageFix" result="shape"/>
          <feGaussianBlur stdDeviation="8" result="effect1_foregroundBlur" /></filter><filter id="filter_119" x="0" y="0" width="33.39583333333333" height="60.43809523809521" filterUnits="userSpaceOnUse" color-interpolation-filters="sRGB"><feFlood flood-opacity="0" result="BackgroundImageFix"/>
          <feBlend mode="normal" in="SourceGraphic" in2="BackgroundImageFix" result="shape"/>
          <feGaussianBlur stdDeviation="8" result="effect1_foregroundBlur" /></filter><filter id="filter_158" x="159.36" y="201.06" width="518.289969822822" height="211.9570359301817" filterUnits="userSpaceOnUse" color-interpolation-filters="sRGB"></filter><linearGradient id="linear_4" x1="5.797581456175182%" y1="5.189465214861322%" x2="100.00000000000009%" y2="5.189465214861322%" gradientUnits="objectBoundingBox"><stop offset="0" stop-color="#2D8CE3" stop-opacity="1" /><stop offset="1" stop-color="#4FB0F1" stop-opacity="1" /></linearGradient><linearGradient id="linear_5" x1="5.797581456175182%" y1="5.189465214861322%" x2="100.00000000000009%" y2="5.189465214861322%" gradientUnits="objectBoundingBox"><stop offset="0" stop-color="#3B9BF2" stop-opacity="1" /><stop offset="1" stop-color="#6CC3FD" stop-opacity="1" /></linearGradient><linearGradient id="linear_6" x1="50%" y1="0%" x2="51%" y2="100%" gradientUnits="objectBoundingBox"><stop offset="0" stop-color="#C3E3FF" stop-opacity="1" /><stop offset="1" stop-color="#C3E5FF" stop-opacity="1" /></linearGradient><linearGradient id="linear_7" x1="94.20241854382482%" y1="94.81053478513869%" x2="-8.881784197001252e-14%" y2="94.81053478513869%" gradientUnits="objectBoundingBox"><stop offset="0" stop-color="#91C9FD" stop-opacity="1" /><stop offset="1" stop-color="#B0DFFF" stop-opacity="1" /></linearGradient><linearGradient id="linear_8" x1="85.64697132760857%" y1="95.16516651018611%" x2="-8.075142105875779e-14%" y2="95.16516651018611%" gradientUnits="objectBoundingBox"><stop offset="0" stop-color="#BCDFFF" stop-opacity="1" /><stop offset="1" stop-color="#C9E9FF" stop-opacity="1" /></linearGradient><linearGradient id="linear_9" x1="5.797581456175182%" y1="5.189465214861322%" x2="100.00000000000009%" y2="5.189465214861322%" gradientUnits="objectBoundingBox"><stop offset="0" stop-color="#91C9FD" stop-opacity="1" /><stop offset="1" stop-color="#B0DFFF" stop-opacity="1" /></linearGradient><linearGradient id="linear_10" x1="5.797581456175182%" y1="5.189465214861322%" x2="100.00000000000009%" y2="5.189465214861322%" gradientUnits="objectBoundingBox"><stop offset="0" stop-color="#BCDFFF" stop-opacity="1" /><stop offset="1" stop-color="#C9E9FF" stop-opacity="1" /></linearGradient><linearGradient id="linear_11" x1="94.20241854382482%" y1="94.81053478513869%" x2="-8.881784197001252e-14%" y2="94.81053478513869%" gradientUnits="objectBoundingBox"><stop offset="0" stop-color="#2D8CE3" stop-opacity="1" /><stop offset="1" stop-color="#4FB0F1" stop-opacity="1" /></linearGradient><linearGradient id="linear_12" x1="94.20241854382482%" y1="94.81053478513869%" x2="-8.881784197001252e-14%" y2="94.81053478513869%" gradientUnits="objectBoundingBox"><stop offset="0" stop-color="#3B9BF2" stop-opacity="1" /><stop offset="1" stop-color="#6CC3FD" stop-opacity="1" /></linearGradient></defs><g opacity="1" transform="translate(0 0)  rotate(0 320 320)"><mask id="mask-0" fill="white"><use xlink:href="#path_0"></use></mask><g mask="url(#mask-0)"><path id="蒙版" fill-rule="evenodd" fill="url(#linear_0)" transform="translate(0 0)  rotate(0 320 320)" opacity="1" d="M0,418.62L0,640L640,640L640,320L640,0L0,0L0,418.62Z " /></g><g mask="url(#mask-0)"><g opacity="0.51" transform="translate(-90.01 317.05)  rotate(0 13.51736111111111 15.904761904761905)"><g id="矩形" filter="url(#filter_7)"><path id="矩形" fill-rule="evenodd" style="fill:#BFE4FF" transform="translate(3.975694444444443 0)  rotate(0 11.131944444444445 9.542857142857143)" opacity="1" d="M0,5.4L17.9,19.09L22.26,14.34L15.75,0.92L10.99,0L0,5.4Z " /></g><g id="矩形" filter="url(#filter_9)"><path id="矩形" fill-rule="evenodd" style="fill:#5DB7FA" transform="translate(19.878472222222214 13.519047619047626)  rotate(0 3.578125 9.145238095238096)" opacity="1" d="M0,7.59L2.19,18.29L7.16,7.59L6.55,0L0,7.59Z " /></g><g id="矩形" filter="url(#filter_11)"><path id="矩形" fill-rule="evenodd" style="fill:#3FA6F3" transform="translate(0 5.56666666666672)  rotate(0 11.131944444444445 11.530952380952382)" opacity="1" d="M13.08,23.06L22.26,13.27L4.28,0L0,12.06L5.35,23.06L13.08,23.06Z " /></g><g id="矩形" filter="url(#filter_13)"><path id="矩形" fill-rule="evenodd" style="fill:#97D3FF" transform="translate(0 5.56666666666672)  rotate(0 11.131944444444445 6.7595238095238095)" opacity="1" d="M4.28,0L0,12.29L22.26,13.52L4.28,0Z " /></g><g id="矩形" filter="url(#filter_15)"><path id="矩形" fill-rule="evenodd" style="fill:#389BE5" transform="translate(5.565972222222214 19.08571428571429)  rotate(0 8.348958333333334 6.3619047619047615)" opacity="1" d="M16.7,12.72L16.7,0L0,9.69L16.7,12.72Z " /></g></g></g><g mask="url(#mask-0)"><path id="椭圆形" style="stroke:url(#linear_1); stroke-width:16; stroke-opacity:100; stroke-dasharray:0 0" transform="translate(-528.84 -134.78)  rotate(-20 915.8894368210409 422.2714285714286)" d="M1831.78,422.27C1831.78,189.09 1421.64,0 915.89,0C410.14,0 0,189.09 0,422.27C0,655.45 410.14,844.54 915.89,844.54C1421.64,844.54 1831.78,655.45 1831.78,422.27Z " /></g><g mask="url(#mask-0)"><path id="椭圆形" style="stroke:url(#linear_2); stroke-width:12; stroke-opacity:100; stroke-dasharray:0 0" transform="translate(-48.61 131.14)  rotate(-20 429.99988395314426 197.11172599400464)" d="M860,197.11C860,88.27 667.45,0 430,0C192.55,0 0,88.27 0,197.11C0,305.96 192.55,394.22 430,394.22C667.45,394.22 860,305.96 860,197.11Z " /></g><g mask="url(#mask-0)"><g opacity="0.62" transform="translate(432.38 85.01)  rotate(0 12.654671126497018 15)"><g id="undefined" filter="url(#filter_21)"></g><path id="矩形" fill-rule="evenodd" style="fill:#BFE4FF" transform="translate(3.721962096028618 0)  rotate(0 10.421493868879901 9)" opacity="1" d="M0,5.09L16.75,18L20.84,13.52L14.74,0.87L10.29,0L0,5.09Z " /><path id="矩形" fill-rule="evenodd" style="fill:#5DB7FA" transform="translate(18.60981048014275 12.75)  rotate(0 3.3497658864256814 8.625)" opacity="1" d="M0,7.15L2.05,17.25L6.7,7.15L6.13,0L0,7.15Z " /><path id="矩形" fill-rule="evenodd" style="fill:#3FA6F3" transform="translate(0 5.2500000000000036)  rotate(0 10.421493868879901 10.875000000000002)" opacity="1" d="M12.24,21.75L20.84,12.51L4.01,0L0,11.37L5,21.75L12.24,21.75Z " /><path id="矩形" fill-rule="evenodd" style="fill:#97D3FF" transform="translate(0 5.2500000000000036)  rotate(0 10.421493868879901 6.374999999999999)" opacity="1" d="M4.01,0L0,11.59L20.84,12.75L4.01,0Z " /><path id="矩形" fill-rule="evenodd" style="fill:#389BE5" transform="translate(5.210746934439984 18.000000000000004)  rotate(0 7.816120401659924 5.999999999999999)" opacity="1" d="M15.63,12L15.63,0L0,9.14L15.63,12Z " /></g></g><g mask="url(#mask-0)"><path id="椭圆形" style="stroke:url(#linear_3); stroke-width:12; stroke-opacity:100; stroke-dasharray:0 0" transform="translate(356.49256944444437 196.9412857142857)  rotate(30 5.847167930187014 7.975878446522023)" d="M0,0C0.34,0.65 0.7,1.29 1.07,1.93C1.16,2.09 1.25,2.25 1.34,2.4C1.37,2.44 1.39,2.48 1.41,2.52C1.43,2.54 1.44,2.56 1.45,2.58C1.46,2.6 1.47,2.62 1.49,2.64C1.53,2.72 1.58,2.8 1.63,2.88C1.82,3.19 2.01,3.5 2.21,3.82C3.72,6.23 5.45,8.6 7.39,10.94C7.62,11.22 7.86,11.5 8.1,11.78C8.22,11.92 11.69,15.95 11.69,15.95 " /></g><g mask="url(#mask-0)"><g opacity="1" transform="translate(638.66 71.29)  rotate(0 46.94921160301679 29.27994884476181)"><g opacity="1" transform="translate(0 27.232226197398646)  rotate(0 19.71037079535059 15.663835746062484)"><path id="矩形" fill-rule="evenodd" style="fill:#FFFFFF" transform="translate(2.9447066285432584 0)  rotate(0 15.31563668578656 7.684591579123869)" opacity="1" d="M0,1.5L24.52,15.37L30.63,12.42L25.93,0L0,1.5Z " /><path id="矩形" fill-rule="evenodd" style="fill:#BDB9B2" transform="translate(25.093926293223035 12.416347586145122)  rotate(0 7.163407648739074 9.455661952989914)" opacity="1" d="M2.37,2.95L0,18.91L14.33,2.08L8.48,0L2.37,2.95Z " /><path id="矩形" fill-rule="evenodd" style="fill:#BDB9B2" transform="translate(0 1.4997437533099856)  rotate(0 13.7315254765069 12.241727020411426)" opacity="1" d="M13.07,24.48L27.46,13.87L2.94,0L0,24.48L13.07,24.48Z " /><path id="矩形" fill-rule="evenodd" style="fill:#A4A29F" transform="translate(0 15.36918315824795)  rotate(0 13.73152547650688 7.979244166938507)" opacity="1" d="M25.09,15.96L27.46,0L0,10.61L25.09,15.96Z " /><path id="矩形" fill-rule="evenodd" style="fill:#A4A29F" transform="translate(28.87196128823689 5.684341886080802e-14)  rotate(0 5.274390151232171 7.24926940586133)" opacity="1" d="M4.7,12.42L10.55,14.5L8.91,8.49L0,0L4.7,12.42Z " /></g><g opacity="1" transform="translate(57.077496210581785 17.104196658476766)  rotate(0 18.410463497725928 18.267122358730262)"><path id="矩形" fill-rule="evenodd" style="fill:#FFFFFF" transform="translate(2.2737367544323206e-13 0)  rotate(0 18.410463497725814 11.372894880131664)" opacity="1" d="M0,10.09L10.54,22.75L29.38,20.37L36.82,21.95L24.37,0L12.72,3.08L0,10.09Z " /><path id="矩形" fill-rule="evenodd" style="fill:#BDB9B2" transform="translate(23.97481067871115 20.31786346379363)  rotate(0 6.423058158370311 7.698680237732833)" opacity="1" d="M6.03,0L0,15.4L12.85,2.99L6.03,0Z " /><path id="矩形" fill-rule="evenodd" style="fill:#BDB9B2" transform="translate(0 10.08443122045125)  rotate(0 11.987405339355567 13.224906748504669)" opacity="1" d="M23.97,26.45L0,0L8.82,18.32L23.97,26.45Z " /><path id="矩形" fill-rule="evenodd" style="fill:#A4A29F" transform="translate(10.537270721008781 20.3178634637938)  rotate(0 9.731514335814293 7.7105715792143386)" opacity="1" d="M12.96,15.42L19.46,0L0,2.43L12.96,15.42Z " /></g><path id="矩形" fill-rule="evenodd" style="fill:#FFFFFF" transform="translate(20.68796717102373 0)  rotate(0 25.061417813260938 17.072914189621123)" opacity="1" d="M0,11.31L37.79,34.15L50.12,28.93L37.79,0L25.19,0L0,11.31Z " /><path id="矩形" fill-rule="evenodd" style="fill:#BDB9B2" transform="translate(55.76616235323013 28.927746275220912)  rotate(0 7.522320222157677 10.983745910008603)" opacity="1" d="M2.71,5.22L0,21.97L15.04,5.22L15.04,0L2.71,5.22Z " /><path id="矩形" fill-rule="evenodd" style="fill:#BDB9B2" transform="translate(20.68796717102373 11.311943089395314)  rotate(0 18.89288311098371 17.48209386542916)" opacity="1" d="M21.33,34.96L37.79,22.84L0,0L9.76,34.96L21.33,34.96Z " /><path id="矩形" fill-rule="evenodd" style="fill:#A4A29F" transform="translate(30.45276845073886 34.1458283792423)  rotate(0 14.01048247112607 8.37470485799791)" opacity="1" d="M25.31,16.75L28.02,0L0,12.13L25.31,16.75Z " /></g></g><g mask="url(#mask-0)"><g opacity="1" transform="translate(456.1459101667026 476.4483186625788)  rotate(-10 52.539637200653324 33.400000000000006)"><g opacity="1" transform="translate(0 16.126227520748557)  rotate(0 22.199178609109047 19.598584103968815)"><path id="矩形" fill-rule="evenodd" style="fill:#FFFFFF" transform="translate(3.490697819741513 0.08856962685877079)  rotate(0 17.09548611111111 9.542857142857143)" opacity="1" d="M0,1.86L27.37,19.09L34.19,15.42L28.94,0L0,1.86Z " /><path id="矩形" fill-rule="evenodd" style="fill:#BDB9B2" transform="translate(27.76828170533986 14.906736927516931)  rotate(0 7.951388888888889 11.928571428571429)" opacity="1" d="M2.63,3.72L0,23.86L15.9,2.63L9.41,0L2.63,3.72Z " /><path id="矩形" fill-rule="evenodd" style="fill:#BDB9B2" transform="translate(0.5740356102403439 1.7320569697810697)  rotate(0 15.10763888888889 15.10952380952381)" opacity="1" d="M14.38,30.22L30.22,17.12L3.24,0L0,30.22L14.38,30.22Z " /><path id="矩形" fill-rule="evenodd" style="fill:#A4A29F" transform="translate(0 19.31621582698517)  rotate(0 15.10763888888889 9.94047619047619)" opacity="1" d="M27.61,19.88L30.22,0L0,13.22L27.61,19.88Z " /><path id="矩形" fill-rule="evenodd" style="fill:#A4A29F" transform="translate(32.471273884884795 0)  rotate(0 5.963541666666667 9.145238095238096)" opacity="1" d="M5.32,15.66L11.93,18.29L10.07,10.71L0,0L5.32,15.66Z " /></g><g opacity="1" transform="translate(75.65913551241783 13.264223987065293)  rotate(0 14.710069444444445 15.10952380952381)"><g opacity="1" transform="translate(0 0)  rotate(0 14.710069444444445 15.10952380952381)"><path id="矩形" fill-rule="evenodd" style="fill:#FFFFFF" transform="translate(-5.684341886080802e-14 0)  rotate(0 14.710069444444445 9.606426228616765)" opacity="1" d="M14.71,15.75L29.42,19.21L28.98,0L0,2.38L14.71,15.75Z " /><path id="矩形" fill-rule="evenodd" style="fill:#BDB9B2" transform="translate(10.434492299405122 15.32299994793766)  rotate(0 9.4928228956735 7.448023835555048)" opacity="1" d="M3.84,0L0,14.9L9.49,13.97L18.99,3.89L3.84,0Z " /><path id="矩形" fill-rule="evenodd" style="fill:#D4D4D3" transform="translate(-5.684341886080802e-14 2.3811772282012953)  rotate(0 7.735825774015382 12.219272992457359)" opacity="1" d="M15.47,13.37L0,0L0,21.24L1.89,24.44L15.47,13.37Z " /><path id="矩形" fill-rule="evenodd" style="fill:#A4A29F" transform="translate(1.8562026936284042 15.109523809523807)  rotate(0 6.807724427201132 7.55476190476192)" opacity="1" d="M8.58,15.11L13.62,0L0,11.76L8.58,15.11Z " /></g></g><g opacity="1" transform="translate(26.53719800717022 0)  rotate(0 28.22743055555554 33.400000000000006)"><path id="矩形" fill-rule="evenodd" style="fill:#FFFFFF" transform="translate(2.4760903996100865 0)  rotate(0 26.98938535575045 20.665009572762553)" opacity="1" d="M16.8,0L0,14.03L10.89,30.37L35.66,41.33L53.98,25.08L40.57,4.6L16.8,0Z " /><path id="矩形" fill-rule="evenodd" style="fill:#CAC8C3" transform="translate(38.13179215399606 25.16637744941613)  rotate(0 9.161534478557494 14.694219723735472)" opacity="1" d="M0,15.67L16.11,29.39L18.32,0L0,15.67Z " /><path id="矩形" fill-rule="evenodd" style="fill:#BDB9B2" transform="translate(5.684341886080802e-14 27.125606745914297)  rotate(0 6.190225999025333 19.837196627042882)" opacity="1" d="M11.82,0L0,9.02L12.38,39.67L11.82,0Z " /><path id="矩形" fill-rule="evenodd" style="fill:#D1CFCD" transform="translate(0.9904361598440232 13.900808994552335)  rotate(0 5.695007919103309 11.265568454863859)" opacity="1" d="M2.24,0L0,22.53L11.39,13.59L2.24,0Z " /><path id="矩形" fill-rule="evenodd" style="fill:#A4A29F" transform="translate(11.390015838206693 26.63579942178967)  rotate(0 13.618497197855735 19.59229296498062)" opacity="1" d="M0,39.18L27.24,14.2L0,0L0,39.18Z " /><path id="矩形" fill-rule="evenodd" style="fill:#ACA8A3" transform="translate(11.39001583820658 40.84021182140066)  rotate(0 13.370888157894719 12.979894089299675)" opacity="1" d="M26.74,0L0,24.98L22.28,25.96L26.74,0Z " /><path id="矩形" fill-rule="evenodd" style="fill:#95938F" transform="translate(33.291215233563946 40.350404497276145)  rotate(0 10.591386778929351 13.224797751361933)" opacity="1" d="M4.84,0L0,26.45L21.18,13.81L4.84,0Z " /></g></g></g><g mask="url(#mask-0)"><g opacity="1" transform="translate(1057.5347222222222 280.43333333333334)  rotate(0 19.083333333333332 19.085714285714285)"><g opacity="1" transform="translate(0 0)  rotate(0 19.083333333333332 19.085714285714285)"><g id="矩形" filter="url(#filter_113)"><path id="矩形" fill-rule="evenodd" style="fill:#FFFFFF" transform="translate(0 0)  rotate(0 19.083333333333332 11.928571428571429)" opacity="1" d="M0,22.07L24.46,23.86L38.17,6.64L7.65,0L0,22.07Z " /></g><g id="矩形" filter="url(#filter_115)"><path id="矩形" fill-rule="evenodd" style="fill:#A79C89" transform="translate(0 20.67619047619047)  rotate(0 9.93923611111111 8.747619047619047)" opacity="1" d="M0,0L8.35,17.5L19.88,1.75L0,0Z " /></g><g id="矩形" filter="url(#filter_117)"><path id="矩形" fill-rule="evenodd" style="fill:#BDB9B2" transform="translate(19.083333333333485 6.361904761904782)  rotate(0 9.541666666666666 15.904761904761905)" opacity="1" d="M0,17.23L6.71,31.81L19.08,0L0,17.23Z " /></g><g id="矩形" filter="url(#filter_119)"><path id="矩形" fill-rule="evenodd" style="fill:#ACA79E" transform="translate(7.15625 22.26666666666665)  rotate(0 9.541666666666666 7.9523809523809526)" opacity="1" d="M0,15.9L19.08,15.05L11.61,0L0,15.9Z " /></g></g></g></g><g mask="url(#mask-0)"><g opacity="1" transform="translate(177.31597222222223 488.78571428571433)  rotate(0 24.649305555555557 18.29047619047619)"><g opacity="1" transform="translate(23.85416666666663 3.9761904761904816)  rotate(0 12.72222222222223 12.72380952380954)"><g opacity="1" transform="translate(0 0)  rotate(0 12.72222222222223 12.72380952380954)"><path id="矩形" fill-rule="evenodd" style="fill:#FFFFFF" transform="translate(7.105427357601002e-15 1.6007670131562861)  rotate(0 4.3552110632468635 10.910835211488028)" opacity="1" d="M8.71,10.4L8.71,0L2.75,5.83L0,21.82L8.71,10.4Z " /><path id="矩形" fill-rule="evenodd" style="fill:#BDB9B2" transform="translate(1.2079226507921703e-13 11.056069073808288)  rotate(0 12.722222222222173 6.183184181162133)" opacity="1" d="M8.71,0L0,12.37L25.44,3.81L8.71,0Z " /><path id="矩形" fill-rule="evenodd" style="fill:#ACA79E" transform="translate(6.394884621840902e-14 14.863913406365299)  rotate(0 12.722222222222179 5.291852820626857)" opacity="1" d="M10.6,4.19L0,8.56L12.2,10.58L25.44,0L10.6,4.19Z " /><path id="矩形" fill-rule="evenodd" style="fill:#F0F0F0" transform="translate(8.074403874919433 -2.842170943040401e-14)  rotate(0 8.685020284762496 7.431956703182831)" opacity="1" d="M4.65,0L0,1.6L0,11.86L17.37,14.86L4.65,0Z " /></g></g><g opacity="1" transform="translate(0 0)  rotate(0 16.697916666666668 18.29047619047619)"><path id="矩形" fill-rule="evenodd" style="fill:#FFFFFF" transform="translate(0 0)  rotate(0 9.331188725490197 10.133912483912482)" opacity="1" d="M5.33,9.68L0,18.75L18.66,20.27L14.83,0L5.33,9.68Z " /><path id="矩形" fill-rule="evenodd" style="fill:#969086" transform="translate(0.4911151960783968 19.279150579150496)  rotate(0 8.840073529411768 8.403732303732301)" opacity="1" d="M3.92,13.57L17.68,16.81L0,0L3.92,13.57Z " /><path id="矩形" fill-rule="evenodd" style="fill:#D7D4D2" transform="translate(17.18903186274514 16.807464607464567)  rotate(0 8.103400735294118 9.88674388674389)" opacity="1" d="M0.09,2.25L0,19.77L8.1,15.73L16.21,0L0.09,2.25Z " /><path id="矩形" fill-rule="evenodd" style="fill:#EDEDED" transform="translate(14.242340686274531 0)  rotate(0 9.57674632352941 9.886743886743885)" opacity="1" d="M0,0L3.69,19.77L19.15,16.72L0,0Z " /><path id="矩形" fill-rule="evenodd" style="fill:#B1AEA8" transform="translate(0 18.784813384813333)  rotate(0 9.08563112745098 8.650900900900902)" opacity="1" d="M0,0L8.54,9.3L18.17,17.3L18.17,1.53L0,0Z " /></g></g></g><g mask="url(#mask-0)"><g opacity="1" transform="translate(830.28 480.03999999999996)  rotate(0 37.467194942042696 42.147619047619045)"><path id="矩形" fill-rule="evenodd" style="fill:#7AC5FC" transform="translate(10.33680555555577 0)  rotate(0 31.486313864231494 25.447619047619046)" opacity="1" d="M0,13.98L47.85,50.9L62.97,34.26L47.85,7.88L28.38,0L0,13.98Z " /><path id="矩形" fill-rule="evenodd" style="fill:#5DB7FA" transform="translate(52.47916666666674 34.257663484237355)  rotate(0 11.227611608709367 25.01878730550036)" opacity="1" d="M0,22.57L5.85,50.04L22.46,21.05L20.83,0L0,22.57Z " /><path id="矩形" fill-rule="evenodd" style="fill:#3FA6F3" transform="translate(0 14.314285714285688)  rotate(0 29.42013888888889 31.411904761904765)" opacity="1" d="M34.56,62.82L58.84,36.14L11.32,0L0,32.85L14.13,62.82L34.56,62.82Z " /><path id="矩形" fill-rule="evenodd" style="fill:#5DB7FA" transform="translate(0 14.314285714285688)  rotate(0 29.42013888888889 17.892857142857142)" opacity="1" d="M11.32,0L0,32.53L58.84,35.79L11.32,0Z " /><path id="矩形" fill-rule="evenodd" style="fill:#389BE5" transform="translate(13.517361111111313 50.10000000000002)  rotate(0 22.661458333333332 17.097619047619048)" opacity="1" d="M44.53,34.2L45.32,0L0,25.86L44.53,34.2Z " /></g></g><g mask="url(#mask-0)"><path  id="椭圆形" style="stroke:#C3E5FF; stroke-width:10; stroke-opacity:1; stroke-dasharray:0 0" transform="translate(159.36 201.06)  rotate(30 259.144984911411 105.97851796509083)" d="M518.29,105.98C518.29,47.46 402.24,0 259.14,0C116.05,0 0,47.46 0,105.98C0,164.5 116.05,211.96 259.14,211.96C402.24,211.96 518.29,164.5 518.29,105.98Z " /></g><g mask="url(#mask-0)"><g opacity="1" transform="translate(620.47 426.5)  rotate(0 20.67361111111111 18.29047619047619)"><path id="矩形" fill-rule="evenodd" style="fill:#FFFFFF" transform="translate(2.3854166666666288 0)  rotate(0 19.48090277777778 11.530952380952382)" opacity="1" d="M12.11,0L0,6.73L7.06,16.04L29.85,23.06L38.96,12.15L25.05,1.04L12.11,0Z " /><path id="矩形" fill-rule="evenodd" style="fill:#CAC8C3" transform="translate(31.805555555555543 11.928571428571445)  rotate(0 4.373263888888889 11.133333333333333)" opacity="1" d="M0,10.59L2.18,22.27L6.3,17.09L8.75,0L0,10.59Z " /><path id="矩形" fill-rule="evenodd" style="fill:#BDB9B2" transform="translate(0 13.519047619047626)  rotate(0 7.553819444444445 10.735714285714286)" opacity="1" d="M9.08,0L0,13.85L15.11,21.47L9.08,0Z " /><path id="矩形" fill-rule="evenodd" style="fill:#D1CFCD" transform="translate(0 6.361904761904839)  rotate(0 4.770833333333333 10.338095238095239)" opacity="1" d="M2.39,0L0,20.68L9.54,7.73L2.39,0Z " /><path id="矩形" fill-rule="evenodd" style="fill:#A4A29F" transform="translate(7.9513888888888005 13.519047619047626)  rotate(0 11.927083333333334 10.735714285714288)" opacity="1" d="M6.76,21.47L23.85,9.67L0,0L6.76,21.47Z " /><path id="矩形" fill-rule="evenodd" style="fill:#ACA8A3" transform="translate(14.710069444444343 23.06190476190477)  rotate(0 8.547743055555602 6.7595238095238095)" opacity="1" d="M17.1,0L0,11.93L9.27,13.52L17.1,0Z " /><path id="矩形" fill-rule="evenodd" style="fill:#95938F" transform="translate(23.85416666666663 22.266666666666595)  rotate(0 5.168402777777778 7.1571428571428575)" opacity="1" d="M8.15,0L0,14.31L10.34,12.51L8.15,0Z " /></g></g><g mask="url(#mask-0)"><g opacity="1" transform="translate(380 263)  rotate(0 60.271095802306064 36.35)"><g opacity="1" transform="translate(81.55833389418444 3.0780569662815083)  rotate(0 19.49192885521387 21.033389269590483)"><path id="矩形" fill-rule="evenodd" style="fill:#7AC5FC" transform="translate(-5.684341886080802e-14 2.4868995751603507e-14)  rotate(0 16.868015355473542 12.770272056537072)" opacity="1" d="M9.88,1.23L0,19.19L6.62,25.54L33.74,7.22L17.08,0L9.88,1.23Z " /><path id="矩形" fill-rule="evenodd" style="fill:#5DB7FA" transform="translate(-5.684341886080802e-14 18.028619373934728)  rotate(0 5.622671785157852 12.019079582623126)" opacity="1" d="M0,9.97L7.8,24.04L11.25,9.97L0.96,0L0,9.97Z " /><path id="矩形" fill-rule="evenodd" style="fill:#3FA6F3" transform="translate(6.747206142189327 6.760732265225524)  rotate(0 16.11832578411917 15.399445715235881)" opacity="1" d="M32.24,16.1L26.03,0L0,17.72L13.3,30.8L24.5,30.8L32.24,16.1Z " /><path id="矩形" fill-rule="evenodd" style="fill:#5DB7FA" transform="translate(6.747206142189327 6.760732265225524)  rotate(0 16.11832578411917 9.014309686967344)" opacity="1" d="M32.24,16.39L26.03,0L0,18.03L32.24,16.39Z " /><path id="矩形" fill-rule="evenodd" style="fill:#389BE5" transform="translate(8.246585284898117 25.540544113074215)  rotate(0 11.995033141670083 8.263117213053404)" opacity="1" d="M0,0L0,16.53L23.99,12.59L0,0Z " /></g><g opacity="1" transform="translate(24.621383817112246 0)  rotate(0 34.88029374090904 36.35)"><path id="矩形" fill-rule="evenodd" style="fill:#61BAFB" transform="translate(3.000455375562062 0)  rotate(0 33.38006605312801 17.226858821288985)" opacity="1" d="M0,13.82L13.91,34.45L66.76,22.8L27.97,0L0,13.82Z " /><path id="矩形" fill-rule="evenodd" style="fill:#389BE5" transform="translate(48.0072860089931 22.46981585385521)  rotate(0 10.501593814467231 14.979877235903473)" opacity="1" d="M0,4.82L21,29.96L21,0L0,4.82Z " /><path id="矩形" fill-rule="evenodd" style="fill:#389BE5" transform="translate(-7.105427357601002e-15 29.95975447180689)  rotate(0 9.376423048631462 18.35034961398174)" opacity="1" d="M18.75,4.46L14.24,0L0,21.56L16.28,36.7L18.75,4.46Z " /><path id="矩形" fill-rule="evenodd" style="fill:#4EAAEE" transform="translate(-7.105427357601002e-15 14.230883374108316)  rotate(0 7.876195360850428 19.099343475776916)" opacity="1" d="M3.67,0L0,38.2L15.75,17.64L3.67,0Z " /><path id="矩形" fill-rule="evenodd" style="fill:#4EAAEE" transform="translate(15.75239072170097 26.96377902462615)  rotate(0 17.561843414075913 22.868110487686913)" opacity="1" d="M20.63,45.74L35.12,41.48L33.01,0L27.67,0L0,4.39L20.63,45.74Z " /><path id="矩形" fill-rule="evenodd" style="fill:#3195DE" transform="translate(15.75239072170097 35.46178129903518)  rotate(0 10.589842501983766 18.619109350482386)" opacity="1" d="M2.23,0L0,31L21.18,37.24L2.23,0Z " /><path id="矩形" fill-rule="evenodd" style="fill:#3195DE" transform="translate(48.161130640563094 26.96377902462615)  rotate(0 10.799728420627536 20.954176239690714)" opacity="1" d="M0,0L2.18,41.91L21.6,25.17L0,0Z " /></g><g opacity="1" transform="translate(0 24.111446235871995)  rotate(0 15.131892137600245 15.133780084217536)"><path id="矩形" fill-rule="evenodd" style="fill:#61BAFB" transform="translate(0 2.1316282072803006e-14)  rotate(0 14.375297530720232 7.1885455400033305)" opacity="1" d="M0,9.51L22.76,14.38L28.75,5.77L16.71,0L0,9.51Z " /><path id="矩形" fill-rule="evenodd" style="fill:#389BE5" transform="translate(0.7565946068799576 9.32394756036117)  rotate(0 4.539443459458484 6.310016780877141)" opacity="1" d="M0,12.62L9.08,2.03L0,0L0,12.62Z " /><path id="矩形" fill-rule="evenodd" style="fill:#389BE5" transform="translate(21.941243599520362 12.107024067374049)  rotate(0 4.161270337840067 7.566890042108768)" opacity="1" d="M8.32,8.89L2,0L0,1.84L1.1,15.13L8.32,8.89Z " /><path id="矩形" fill-rule="evenodd" style="fill:#4EAAEE" transform="translate(23.45443281328039 6.053512033687035)  rotate(0 3.4046757309600553 7.566890042108768)" opacity="1" d="M6.81,15.13L5.22,0L0,6.99L6.81,15.13Z " /><path id="矩形" fill-rule="evenodd" style="fill:#4EAAEE" transform="translate(9.07913528256006 11.35033506316315)  rotate(0 7.407310930437252 9.458612552635959)" opacity="1" d="M2.33,0L0,0L2.33,18.92L14.81,1.7L2.33,0Z " /><path id="矩形" fill-rule="evenodd" style="fill:#3195DE" transform="translate(11.34891910320016 14.377091080006686)  rotate(0 6.052756855040099 7.9452345442142045)" opacity="1" d="M12.11,12.57L11.27,0L0,15.89L12.11,12.57Z " /><path id="矩形" fill-rule="evenodd" style="fill:#3195DE" transform="translate(0 11.35033506316315)  rotate(0 6.052756855040096 9.458612552635959)" opacity="1" d="M12.11,18.92L11.66,7.84L9.68,0L0,9.93L12.11,18.92Z " /></g></g></g><g mask="url(#mask-0)"><g opacity="1" transform="translate(493 -63)  rotate(0 141.5 111.5)"><g opacity="1" transform="translate(0.1217856088748956 0.06658573787281341)  rotate(0 141.06481265167983 111.50856500523915)"><path id="矩形备份 7" fill-rule="evenodd" fill="url(#linear_4)" transform="translate(0 3.552713678800501e-15)  rotate(0 135.6502036812113 111.50856500523915)" opacity="1" d="M14.81,113.45C15.9,125.78 18.58,132.18 21.19,139.47C26.53,154.53 33.07,164.03 36.73,169.18C48.32,185.37 63.95,197.75 75.29,204.46C86.92,211.33 102.58,219.4 124.2,222.3C132.15,223.37 145.17,223.24 163.24,221.88C165.49,221.72 181.15,217.91 197.18,210.1C207.06,205.31 217.58,197.66 223.77,192.37C236.85,181.18 255.32,154.71 265.63,123.22C267.56,117.31 270.32,110.73 271.22,103.84C271.38,102.45 271.22,97.68 271.22,97.68L226.92,97.68C226.92,97.68 227.4,101.63 226.92,103.9C226.18,107.32 225.13,112.2 223.77,116.73C216.36,141.48 202.5,157.2 194.44,163.43C182.56,172.59 168.99,178.59 163.24,179.68C141.51,183.83 116.79,181.05 97.78,169.18C90.21,164.43 80.85,158.48 69.97,143.6C68.75,141.95 64.38,136.42 59.47,125.11C58.14,122.03 56.35,115.43 56.35,110.44C56.35,105.44 56.35,100.96 56.35,100.96L56.35,29.57C56.35,29.57 57.05,14.65 52.88,7.47C48.67,0.29 36.6,0 36.6,0L0,0L14.81,24.84L14.81,89.18C14.81,89.18 13.73,101.12 14.81,113.45Z " /><path id="矩形备份 7" fill-rule="evenodd" fill="url(#linear_5)" transform="translate(10.829217940936934 3.552713678800501e-15)  rotate(0 135.6502036812113 111.50856500523915)" opacity="1" d="M56.35,100.96L56.35,29.57C56.35,29.57 57.05,14.65 52.88,7.47C48.67,0.29 36.6,0 36.6,0L0,0L14.81,24.84L14.81,89.18C14.81,89.18 13.73,101.12 14.81,113.45C15.9,125.78 18.58,132.18 21.19,139.47C26.53,154.53 33.07,164.03 36.73,169.18C48.32,185.37 63.95,197.75 75.29,204.46C86.92,211.33 102.58,219.4 124.2,222.3C132.15,223.37 145.17,223.24 163.24,221.88C165.49,221.72 181.15,217.91 197.18,210.1C207.06,205.31 217.58,197.66 223.77,192.37C236.85,181.18 255.32,154.71 265.63,123.22C267.56,117.31 270.32,110.73 271.22,103.84C271.38,102.45 271.22,97.68 271.22,97.68L226.92,97.68C226.92,97.68 227.4,101.63 226.92,103.9C226.18,107.32 225.13,112.2 223.77,116.73C216.36,141.48 202.5,157.2 194.44,163.43C182.56,172.59 168.99,178.59 163.24,179.68C141.51,183.83 116.79,181.05 97.78,169.18C90.21,164.43 80.85,158.48 69.97,143.6C68.75,141.95 64.38,136.42 59.47,125.11C58.14,122.03 56.35,115.43 56.35,110.44C56.35,105.44 56.35,100.96 56.35,100.96Z " /></g></g></g><g mask="url(#mask-0)"><path id="椭圆形" style="stroke:url(#linear_6); stroke-width:14; stroke-opacity:100; stroke-dasharray:0 0" transform="translate(684.1931597222222 87.96185714285716)  rotate(-20 35.88739423643949 9.733716558257226)" d="M71.77,19.47C49.6,12.04 25.57,5.51 0,0 " /></g><g mask="url(#mask-0)"><g opacity="1" transform="translate(695 -102)  rotate(0 40 63.5)"><path id="矩形备份 20" fill-rule="evenodd" fill="url(#linear_7)" transform="translate(-28.522371271571927 28.422407817330434)  rotate(-90 63.83538996762885 35.07814193259441)" opacity="1" d="M91.92,14.18C84.2,16.96 77.43,19.14 71.64,20.72C51.43,26.25 0,26.67 0,26.67L0,70.16C0,70.16 53.35,70.23 74.62,64.41C80.96,62.68 87.99,60.59 95.73,58.12C105.3,55.08 127.67,47.31 127.67,47.31L127.67,0C127.67,0 102.15,10.5 91.92,14.18Z " /><path id="矩形备份 18" fill-rule="evenodd" fill="url(#linear_8)" transform="translate(-14.766997481143704 31.921045129800344)  rotate(-90 61.47921195362563 33.93740835982514)" opacity="1" d="M71.64,18.44C51.42,23.96 0,24.39 0,24.39L0,67.87C0,67.87 53.36,67.94 74.62,62.13C78.87,60.97 90.79,59.02 95.68,57.53C100.86,55.95 122.96,47.87 122.96,47.87C122.96,47.87 122.84,0 122.84,0C122.84,0 112.21,4.12 110.76,4.7C102.59,7.97 95.18,10.77 88.54,13.09C82.21,15.31 76.58,17.09 71.64,18.44Z " /></g></g><g mask="url(#mask-0)"><g opacity="1" transform="translate(-75 480.56)  rotate(0 104 96.71999999999998)"><g opacity="1" transform="translate(0 0)  rotate(0 104 96.71999999999998)"><g opacity="1" transform="translate(0 99.44450704225345)  rotate(0 29.56883646595701 46.99774647887327)"><path id="矩形备份 20" fill-rule="evenodd" fill="url(#linear_9)" transform="translate(-13.557738001611373 21.151415007668106)  rotate(-90 46.90182907624626 25.84633147120516)" opacity="1" d="M26.27,41.25C31.94,39.2 36.91,37.59 41.17,36.42C56.02,32.35 93.8,32.04 93.8,32.04L93.8,0C93.8,0 54.6,-0.05 38.98,4.23C34.32,5.51 29.15,7.05 23.47,8.87C16.43,11.11 0,16.83 0,16.83L0,51.69C0,51.69 18.75,43.96 26.27,41.25Z " /><path id="矩形备份 18" fill-rule="evenodd" fill="url(#linear_10)" transform="translate(-17.818516125609495 17.854956192427778)  rotate(-90 41.068279857027534 23.297311065770025)" opacity="1" d="M17.08,40.36C21.73,38.73 25.87,37.42 29.5,36.43C44.35,32.36 82.14,32.04 82.14,32.04L82.14,0C82.14,0 42.93,-0.05 27.31,4.23C24.19,5.09 20.84,6.07 17.25,7.16C8.88,9.72 -3.15,48.11 0.76,46.55C6.76,44.14 12.21,42.07 17.08,40.36Z " /></g><g opacity="1" transform="translate(0.0005840966470771037 0)  rotate(0 103.99970795167646 82.0757746478873)"><path id="矩形备份 7" fill-rule="evenodd" fill="url(#linear_11)" transform="translate(7.983815963967075 0)  rotate(0 100.00779996969295 82.0757746478873)" opacity="1" d="M79.67,31.89C95.69,28.84 113.91,30.89 127.93,39.63C133.51,43.12 140.41,47.51 148.43,58.45C149.33,59.67 152.55,63.74 156.17,72.06C157.15,74.33 158.47,79.19 158.47,82.86C158.47,86.54 158.47,89.84 158.47,89.84L158.47,142.39C158.47,142.39 157.95,153.37 161.03,158.65C164.13,163.94 173.03,164.15 173.03,164.15L200.02,164.15L189.09,145.87L189.09,98.51C189.09,98.51 189.89,89.73 189.09,80.65C188.29,71.57 186.31,66.86 184.39,61.49C180.45,50.41 175.63,43.42 172.93,39.63C164.39,27.71 152.87,18.6 144.51,13.66C135.93,8.6 124.39,2.66 108.45,0.53C102.59,-0.26 92.99,-0.16 79.67,0.84C78.01,0.95 66.47,3.76 54.64,9.5C47.36,13.03 39.6,18.66 35.04,22.55C25.4,30.79 11.78,50.28 4.18,73.46C2.76,77.81 0.72,82.65 0.06,87.72C-0.06,88.74 0.06,92.25 0.06,92.25L32.72,92.25C32.72,92.25 32.36,89.35 32.72,87.67C33.26,85.16 34.04,81.57 35.04,78.23C40.5,60.01 50.72,48.44 56.66,43.86C65.43,37.11 75.43,32.7 79.67,31.89Z " /><path id="矩形备份 7" fill-rule="evenodd" fill="url(#linear_12)" transform="translate(0 0)  rotate(0 100.00779996969295 82.0757746478873)" opacity="1" d="M79.67,0.84C78.01,0.95 66.47,3.76 54.64,9.5C47.36,13.03 39.6,18.66 35.04,22.55C25.4,30.79 11.78,50.28 4.18,73.46C2.76,77.81 0.72,82.65 0.06,87.72C-0.06,88.74 0.06,92.25 0.06,92.25L32.72,92.25C32.72,92.25 32.36,89.35 32.72,87.67C33.26,85.16 34.04,81.57 35.04,78.23C40.5,60.01 50.72,48.44 56.66,43.86C65.43,37.11 75.43,32.7 79.67,31.89C95.69,28.84 113.91,30.89 127.93,39.63C133.51,43.12 140.41,47.51 148.43,58.45C149.33,59.67 152.55,63.74 156.17,72.06C157.15,74.33 158.47,79.19 158.47,82.86C158.47,86.54 158.47,89.84 158.47,89.84L158.47,142.39C158.47,142.39 157.95,153.37 161.03,158.65C164.13,163.94 173.03,164.15 173.03,164.15L200.02,164.15L189.09,145.87L189.09,98.51C189.09,98.51 189.89,89.73 189.09,80.65C188.29,71.57 186.31,66.86 184.39,61.49C180.45,50.41 175.63,43.42 172.93,39.63C164.39,27.71 152.87,18.6 144.51,13.66C135.93,8.6 124.39,2.66 108.45,0.53C102.59,-0.26 92.99,-0.16 79.67,0.84Z " /></g></g></g></g><g mask="url(#mask-0)"><path  id="1" style="stroke:#C3E5FF; stroke-width:14; stroke-opacity:1; stroke-dasharray:0 0" transform="translate(255.34295138888888 519.3387619047619)  rotate(-20 23.927152490498756 11.504329978469688)" d="M0,0C14.32,8.23 30.34,15.92 47.85,23.01 " /></g></g></svg>