<svg xmlns="http://www.w3.org/2000/svg" xmlns:xlink="http://www.w3.org/1999/xlink" width="640" height="760" viewBox="0 0 640 760" fill="none"><g opacity="1"  transform="translate(0 0)  rotate(0)"><mask id="mask-0" fill="white"><path d="M0 760L640 760L640 0L0 0L0 760Z"  ></path></mask><g mask="url(#mask-0)"><path id="矩形 1" fill-rule="evenodd" style="fill:#DEEFFE" opacity="1" d="M0 760L640 760L640 0L0 0L0 760Z"></path></g><g mask="url(#mask-0)"><path id="椭圆形" style="fill:url(#linear_0); opacity:100" d="M737.194,282.262c-3.345,-18.97 -8.794,-36.763 -16.384,-54.08c-64.327,-146.7672 -272.201,-229.96328 -500.63,-189.685c-228.42054,40.2767 -395.302,189.552 -405.553,349.469c-1.209,18.869 -0.244,37.452 3.101,56.422c3.346,18.978 8.798,36.778 16.392,54.102c64.338,146.762 272.203,229.95 500.614,189.675c228.42,-40.277 395.299,-189.542 405.56,-349.459c1.211,-18.876 0.246,-37.467 -3.1,-56.444zM750.981,279.831c3.496,19.824 4.548,40.085 3.284,59.772c-10.628,165.635 -184.751,321.38 -417.1,362.349c-232.34,40.968 -449.229,-45.831 -515.867,-197.841c-7.92,-18.068 -13.862,-37.467 -17.357,-57.291c-3.494,-19.817 -4.547,-40.07 -3.285,-59.75c10.617,-165.635 184.7434,-321.3908 417.093,-362.3603c232.358,-40.9711 449.256,45.8367 515.884,197.8523c7.916,18.061 13.854,37.452 17.348,57.269z"></path></g><g mask="url(#mask-0)"><g opacity="0.8"  transform="translate(524 30.875)  rotate(0)"><g opacity="1"  transform="translate(39.072265625 15.550537109375)  rotate(0)"><g opacity="1"  transform="translate(0 0)  rotate(0)"><path id="矩形" fill-rule="evenodd" style="fill:#A79C89" opacity="1" d="M21.2798 16.0587L21.2798 28.4787L28.8698 21.5187L32.3598 2.4187L21.2798 16.0587Z"></path><path id="矩形" fill-rule="evenodd" style="fill:#BDB9B2" opacity="1" d="M21.28 17.1887L32.36 2.4187L0 12.6387L21.28 17.1887Z"></path><path id="矩形" fill-rule="evenodd" style="fill:#F6F6F5" opacity="1" d="M18.87 7.63L32.36 2.42L16.84 0L0 12.64L18.87 7.63Z"></path><path id="矩形" fill-rule="evenodd" style="fill:#ACA79E" opacity="1" d="M16.18 30.3911L22.09 28.4811L22.09 16.2311L0 12.6411L16.18 30.3911Z"></path></g></g><g opacity="1"  transform="translate(0 0)  rotate(0)"><path id="矩形" fill-rule="evenodd" style="fill:#FFFFFF" opacity="1" d="M23.9502 33.48L53.1102 30.98L44.7802 16L29.9302 0L23.9502 33.48Z"></path><path id="矩形" fill-rule="evenodd" style="fill:#A79C89" opacity="1" d="M24.6436 58.6971L46.1536 53.357L52.2836 30.9771L24.6436 58.6971Z"></path><path id="矩形" fill-rule="evenodd" style="fill:#BDB9B2" opacity="1" d="M25.62 59.379L25.48 31.259L0 33.649L25.62 59.379Z"></path><path id="矩形" fill-rule="evenodd" style="fill:#F6F6F5" opacity="1" d="M24.64 32.23L30.44 0L0 33.65L24.64 32.23Z"></path><path id="矩形" fill-rule="evenodd" style="fill:#ACA79E" opacity="1" d="M24.7837 58.4098L39.8037 45.2798L53.1137 30.0098L24.7837 32.5198L24.7837 58.4098Z"></path></g></g></g><g mask="url(#mask-0)"><g opacity="1"  transform="translate(27.02099609375 666.96826171875)  rotate(0)"><g opacity="1"  transform="translate(2.98681640625 16.93896484375)  rotate(0)"><path id="矩形" fill-rule="evenodd" style="fill:#FFFFFF" opacity="1" d="M3.45005 1.5086L30.8465 15.3312L36.2044 10.4162L28.7095 -4.96602L3.45005 1.5086Z"></path><path id="矩形" fill-rule="evenodd" style="fill:#BDB9B2" opacity="1" d="M30.3402 14.827L31.746 36.3905L41.8858 11.6032L35.6581 9.85808L30.3402 14.827Z"></path><path id="矩形" fill-rule="evenodd" style="fill:#BDB9B2" opacity="1" d="M19.1392 31.2285L30.7271 14.9998L3.6944 1.22466L6.42529 33.4703L19.1392 31.2285Z"></path><path id="矩形" fill-rule="evenodd" style="fill:#A4A29F" opacity="1" d="M31.6839 36.8713L30.3053 15.5772L6.02608 34.1758L31.6839 36.8713Z"></path><path id="矩形" fill-rule="evenodd" style="fill:#A4A29F" opacity="1" d="M36.3351 10.5612L42.6612 12.2889L39.6216 4.61005L28.7261 -5.06494L36.3351 10.5612Z"></path></g><g opacity="1"  transform="translate(69.39013671875 2.130859375)  rotate(0)"><g opacity="1"  transform="translate(0 0)  rotate(0)"><path id="矩形" fill-rule="evenodd" style="fill:#FFFFFF" opacity="1" d="M15.9266 14.2509L29.5865 15.5892L25.6345 -4.52006L0.441066 2.50141L15.9266 14.2509Z"></path><path id="矩形" fill-rule="evenodd" style="fill:#BDB9B2" opacity="1" d="M15.4669 13.8687L14.8286 30.1164L23.0473 27.6619L29.5908 15.5923L15.4669 13.8687Z"></path><path id="矩形" fill-rule="evenodd" style="fill:#D4D4D3" opacity="1" d="M16.606 14.1306L0.440918 2.50098L4.37579 24.8167L6.6421 27.8797L16.606 14.1306Z"></path><path id="矩形" fill-rule="evenodd" style="fill:#A4A29F" opacity="1" d="M14.8325 30.1178L16.4846 13.4578L6.61798 27.931L14.8325 30.1178Z"></path></g></g><g opacity="1"  transform="translate(23.4765625 -4.1396484375)  rotate(0)"><path id="矩形" fill-rule="evenodd" style="fill:#FFFFFF" opacity="1" d="M17.0512 -3.00658L4.78821 14.3465L17.4579 29.8215L41.3882 37.4621L54.5888 17.5372L38.9277 -1.88841L17.0512 -3.00658Z"></path><path id="矩形" fill-rule="evenodd" style="fill:#CAC8C3" opacity="1" d="M41.2984 36.9528L58.0891 48.8478L54.605 17.6286L41.2984 36.9528Z"></path><path id="矩形" fill-rule="evenodd" style="fill:#BDB9B2" opacity="1" d="M15.4826 26.649L6.69442 37.967L23.3238 68.2393L15.4826 26.649Z"></path><path id="矩形" fill-rule="evenodd" style="fill:#D1CFCD" opacity="1" d="M5.43015 14.0982L7.62345 38.1122L16.0432 26.9506L5.43015 14.0982Z"></path><path id="矩形" fill-rule="evenodd" style="fill:#A4A29F" opacity="1" d="M22.2665 67.3568L41.7388 36.8723L15.0098 26.2017L22.2665 67.3568Z"></path><path id="矩形" fill-rule="evenodd" style="fill:#ACA8A3" opacity="1" d="M41.2957 36.9515L22.2683 67.3677L42.1648 64.9155L41.2957 36.9515Z"></path><path id="矩形" fill-rule="evenodd" style="fill:#95938F" opacity="1" d="M41.2092 36.436L41.8239 64.9728L58.224 48.3931L41.2092 36.436Z"></path></g></g></g></g><defs><linearGradient id="linear_0" x1="50%" y1="0%" x2="51%" y2="100%" gradientUnits="objectBoundingBox"><stop offset="0" stop-color="#E6F3FF" stop-opacity="1" /><stop offset="1" stop-color="#D6ECFF" stop-opacity="1" /></linearGradient></defs></svg>