<svg xmlns="http://www.w3.org/2000/svg" xmlns:xlink="http://www.w3.org/1999/xlink" width="640" height="640" viewBox="0 0 640 640" fill="none"><defs><path id="path_0"
        transform="translate(0 0) rotate(0 320 320)"
        d="M0,640L640,640L640,0L0,0L0,640Z" /><linearGradient id="linear_0" x1="50%" y1="0%" x2="51%" y2="100%" gradientUnits="objectBoundingBox"><stop offset="0" stop-color="#E6F3FF" stop-opacity="1" /><stop offset="1" stop-color="#D6ECFF" stop-opacity="1" /></linearGradient></defs><g opacity="1" transform="translate(0 0)  rotate(0 320 320)"><mask id="mask-0" fill="white"><use xlink:href="#path_0"></use></mask><g mask="url(#mask-0)"><path id="矩形 1" fill-rule="evenodd" style="fill:#DEEFFE" transform="translate(0 0)  rotate(0 320 320)" opacity="1" d="M0,640L640,640L640,0L0,0L0,640Z " /></g><g mask="url(#mask-0)"><path id="椭圆形" style="stroke:url(#linear_0); stroke-width:14; stroke-opacity:100; stroke-dasharray:0 0" transform="translate(-196.36369445490146 22.303510898791846)  rotate(-10 473.82349460489786 283.657480857802)" d="M947.65,283.66C947.65,127.02 735.47,0 473.82,0C212.18,0 0,127.02 0,283.66C0,440.29 212.18,567.31 473.82,567.31C735.47,567.31 947.65,440.29 947.65,283.66Z " /></g><g mask="url(#mask-0)"><g opacity="0.8" transform="translate(524 26)  rotate(0 35.71428571428571 25)"><g opacity="1" transform="translate(39.07203907203904 13.095238095238127)  rotate(0 16.178266178266192 12.79761904761907)"><g opacity="1" transform="translate(0 0)  rotate(0 16.178266178266192 12.79761904761907)"><path id="矩形" fill-rule="evenodd" style="fill:#A79C89" transform="translate(21.279888258826873 2.0369294838585823)  rotate(0 5.538322048852725 10.974127855866039)" opacity="1" d="M0,11.49L0,21.95L7.59,16.08L11.08,0L0,11.49Z " /><path id="矩形" fill-rule="evenodd" style="fill:#BDB9B2" transform="translate(0 2.0369294838584437)  rotate(0 16.178266178266117 6.219052203171117)" opacity="1" d="M21.28,12.44L32.36,0L0,8.61L21.28,12.44Z " /><path id="矩形" fill-rule="evenodd" style="fill:#F6F6F5" transform="translate(1.2079226507921703e-13 0)  rotate(0 16.17826617826613 5.322550320147708)" opacity="1" d="M18.87,6.43L32.36,2.04L16.84,0L0,10.65L18.87,6.43Z " /><path id="矩形" fill-rule="evenodd" style="fill:#ACA79E" transform="translate(1.2079226507921703e-13 10.645100640295137)  rotate(0 11.044341741264267 7.475068727471499)" opacity="1" d="M16.18,14.95L22.09,13.34L22.09,3.02L0,0L16.18,14.95Z " /></g></g><g opacity="1" transform="translate(0 0)  rotate(0 26.55677655677656 25)"><path id="矩形" fill-rule="evenodd" style="fill:#FFFFFF" transform="translate(23.950351872550073 0)  rotate(0 14.581600620501428 14.098298701439473)" opacity="1" d="M0,28.2L29.16,26.08L20.83,13.47L5.98,0L0,28.2Z " /><path id="矩形" fill-rule="evenodd" style="fill:#A79C89" transform="translate(24.64346645703373 26.085843922784584)  rotate(0 13.818276734857566 11.671465434605587)" opacity="1" d="M0,23.34L21.51,18.84L27.64,0L0,23.34Z " /><path id="矩形" fill-rule="evenodd" style="fill:#BDB9B2" transform="translate(0 26.32340897810059)  rotate(0 12.808709123079014 11.83829551094971)" opacity="1" d="M25.62,23.68L25.48,0L0,2.01L25.62,23.68Z " /><path id="矩形" fill-rule="evenodd" style="fill:#F6F6F5" transform="translate(1.3881176766986073e-13 0)  rotate(0 15.218276921540998 14.168487570167025)" opacity="1" d="M24.64,27.14L30.44,0L0,28.34L24.64,27.14Z " /><path id="矩形" fill-rule="evenodd" style="fill:#ACA79E" transform="translate(24.78388505935411 25.27140082951006)  rotate(0 14.164834027099484 11.957078038607486)" opacity="1" d="M0,23.91L15.02,12.86L28.33,0L0,2.11L0,23.91Z " /></g></g></g><g mask="url(#mask-0)"><g opacity="1" transform="translate(32.49 554.3)  rotate(-10 47.19717877039349 30)"><g opacity="1" transform="translate(4.063416270128073e-14 14.484635497678283)  rotate(0 19.941869742431084 17.60351865625941)"><path id="矩形" fill-rule="evenodd" style="fill:#FFFFFF" transform="translate(3.135748509312341 0.07955355705884415)  rotate(0 15.357142857142856 8.57142857142857)" opacity="1" d="M0,1.67L24.58,17.14L30.71,13.85L26,0L0,1.67Z " /><path id="矩形" fill-rule="evenodd" style="fill:#BDB9B2" transform="translate(24.944682255576538 13.38928466543442)  rotate(0 7.142857142857142 10.714285714285712)" opacity="1" d="M2.36,3.34L0,21.43L14.29,2.36L8.46,0L2.36,3.34Z " /><path id="矩形" fill-rule="evenodd" style="fill:#BDB9B2" transform="translate(0.5156651770092984 1.555739793216567)  rotate(0 13.57142857142857 13.57142857142857)" opacity="1" d="M12.91,27.14L27.14,15.38L2.91,0L0,27.14L12.91,27.14Z " /><path id="矩形" fill-rule="evenodd" style="fill:#A4A29F" transform="translate(-8.126832540256146e-14 17.34989445537597)  rotate(0 13.57142857142857 8.928571428571425)" opacity="1" d="M24.8,17.86L27.14,0L0,11.88L24.8,17.86Z " /><path id="矩形" fill-rule="evenodd" style="fill:#A4A29F" transform="translate(29.169453770576457 -1.7763568394002505e-15)  rotate(0 5.357142857142857 8.214285714285714)" opacity="1" d="M4.78,14.07L10.71,16.43L9.05,9.62L0,0L4.78,14.07Z " /></g><g opacity="1" transform="translate(67.9657861122156 11.913973641076641)  rotate(0 13.214285714285712 13.57142857142857)"><g opacity="1" transform="translate(0 0)  rotate(0 13.214285714285712 13.57142857142857)"><path id="矩形" fill-rule="evenodd" style="fill:#FFFFFF" transform="translate(0 0)  rotate(0 13.214285714285712 8.628526552649788)" opacity="1" d="M13.21,14.15L26.43,17.26L26.03,0L0,2.14L13.21,14.15Z " /><path id="矩形" fill-rule="evenodd" style="fill:#BDB9B2" transform="translate(9.3734678173073 13.763173605931907)  rotate(0 8.527551447142757 6.6898417684626175)" opacity="1" d="M3.45,0L0,13.38L8.52,12.55L17.06,3.49L3.45,0Z " /><path id="矩形" fill-rule="evenodd" style="fill:#D4D4D3" transform="translate(0 2.1387819414980864)  rotate(0 6.949213421448628 10.975394903404812)" opacity="1" d="M13.9,12.01L0,0L0,19.08L1.7,21.95L13.9,12.01Z " /><path id="矩形" fill-rule="evenodd" style="fill:#A4A29F" transform="translate(1.667455944369948 13.571428571428516)  rotate(0 6.115485449263649 6.785714285714298)" opacity="1" d="M7.71,13.57L12.23,0L0,10.56L7.71,13.57Z " /></g></g><g opacity="1" transform="translate(23.83878049302877 0)  rotate(0 25.35714285714284 30)"><path id="矩形" fill-rule="evenodd" style="fill:#FFFFFF" transform="translate(2.224310776942346 0)  rotate(0 24.244987468671646 18.561385843798696)" opacity="1" d="M15.09,0L0,12.6L9.79,27.28L32.03,37.12L48.49,22.53L36.44,4.13L15.09,0Z " /><path id="矩形" fill-rule="evenodd" style="fill:#CAC8C3" transform="translate(34.254385964912245 22.604530643188074)  rotate(0 8.229949874686707 13.198400949462993)" opacity="1" d="M0,14.08L14.47,26.4L16.46,0L0,14.08Z " /><path id="矩形" fill-rule="evenodd" style="fill:#BDB9B2" transform="translate(0 24.364317436449916)  rotate(0 5.560776942355882 17.81784128177504)" opacity="1" d="M10.62,0L0,8.1L11.12,35.64L10.62,0Z " /><path id="矩形" fill-rule="evenodd" style="fill:#D1CFCD" transform="translate(0.8897243107769448 12.485756581933256)  rotate(0 5.115914786967414 10.118774061254962)" opacity="1" d="M2.01,0L0,20.24L10.23,12.21L2.01,0Z " /><path id="矩形" fill-rule="evenodd" style="fill:#A4A29F" transform="translate(10.231829573934874 23.924370738134414)  rotate(0 12.233709273182942 17.59786793261732)" opacity="1" d="M0,35.2L24.47,12.76L0,0L0,35.2Z " /><path id="矩形" fill-rule="evenodd" style="fill:#ACA8A3" transform="translate(10.231829573934789 36.682824989282)  rotate(0 12.011278195488707 11.658587505358986)" opacity="1" d="M24.02,0L0,22.44L20.02,23.32L24.02,0Z " /><path id="矩形" fill-rule="evenodd" style="fill:#95938F" transform="translate(29.90601992285223 36.24287829096657)  rotate(0 9.514408584939654 11.878560854516703)" opacity="1" d="M4.35,0L0,23.76L19.03,12.41L4.35,0Z " /></g></g></g></g></svg>