<svg xmlns="http://www.w3.org/2000/svg" xmlns:xlink="http://www.w3.org/1999/xlink" width="640" height="820" viewBox="0 0 640 820" fill="none"><defs><path id="path_0"
        transform="translate(0 0) rotate(0 320 410)"
        d="M0,820L640,820L640,0L0,0L0,820Z" /><linearGradient id="linear_0" x1="1.6755194239674656%" y1="52.21876326902807%" x2="100%" y2="100%" gradientUnits="objectBoundingBox"><stop offset="0" stop-color="#62C4F9" stop-opacity="1" /><stop offset="1" stop-color="#3292E5" stop-opacity="1" /></linearGradient><linearGradient id="linear_1" x1="67.43%" y1="9.823%" x2="27.631%" y2="89.608%" gradientUnits="objectBoundingBox"><stop offset="0" stop-color="#5AB0ED" stop-opacity="1" /><stop offset="1" stop-color="#62C4F9" stop-opacity="1" /></linearGradient><filter id="filter_7" x="0" y="0" width="37.12500000000002" height="44" filterUnits="userSpaceOnUse" color-interpolation-filters="sRGB"><feFlood flood-opacity="0" result="BackgroundImageFix"/>
          <feBlend mode="normal" in="SourceGraphic" in2="BackgroundImageFix" result="shape"/>
          <feGaussianBlur stdDeviation="8" result="effect1_foregroundBlur" /></filter></defs><g opacity="1" transform="translate(0 0)  rotate(0 320 410)"><mask id="mask-0" fill="white"><use xlink:href="#path_0"></use></mask><g mask="url(#mask-0)"><path id="矩形 1" fill-rule="evenodd" fill="url(#linear_0)" transform="translate(0 0)  rotate(0 320 410)" opacity="1" d="M0,820L640,820L640,0L0,0L0,820Z " /></g><g mask="url(#mask-0)"><path id="椭圆形" style="stroke:url(#linear_1); stroke-width:16; stroke-opacity:100; stroke-dasharray:0 0" transform="translate(-242.97 -49.39)  rotate(10 471.9141050916682 337.7965027355015)" d="M943.83,337.8C943.83,151.27 732.51,0 471.91,0C211.32,0 0,151.27 0,337.8C0,524.33 211.32,675.59 471.91,675.59C732.51,675.59 943.83,524.33 943.83,337.8Z " /></g><g mask="url(#mask-0)"><g opacity="0.62" transform="translate(31 569)  rotate(0 18.56250000000001 22)"><g id="undefined" filter="url(#filter_7)"></g><path id="矩形" fill-rule="evenodd" style="fill:#BFE4FF" transform="translate(5.459558823529415 0)  rotate(0 15.286764705882364 13.199999999999998)" opacity="1" d="M0,7.47L24.58,26.4L30.57,19.83L21.62,1.28L15.09,0L0,7.47Z " /><path id="矩形" fill-rule="evenodd" style="fill:#5DB7FA" transform="translate(27.29779411764707 18.699999999999996)  rotate(0 4.913602941176473 12.649999999999999)" opacity="1" d="M0,10.49L3.01,25.3L9.83,10.49L8.99,0L0,10.49Z " /><path id="矩形" fill-rule="evenodd" style="fill:#3FA6F3" transform="translate(0 7.699999999999998)  rotate(0 15.286764705882364 15.95)" opacity="1" d="M17.96,31.9L30.57,18.35L5.88,0L0,16.68L7.34,31.9L17.96,31.9Z " /><path id="矩形" fill-rule="evenodd" style="fill:#97D3FF" transform="translate(0 7.699999999999998)  rotate(0 15.286764705882364 9.35)" opacity="1" d="M5.88,0L0,17L30.57,18.7L5.88,0Z " /><path id="矩形" fill-rule="evenodd" style="fill:#389BE5" transform="translate(7.643382352941181 26.399999999999995)  rotate(0 11.46507352941177 8.799999999999999)" opacity="1" d="M22.93,17.6L22.93,0L0,13.41L22.93,17.6Z " /></g></g><g mask="url(#mask-0)"><g opacity="1" transform="translate(510.5 48)  rotate(0 49.642857142857174 30)"><g opacity="1" transform="translate(66.42857142857147 2.857142857142859)  rotate(0 16.428571428571438 17.50000000000001)"><path id="矩形" fill-rule="evenodd" style="fill:#7AC5FC" transform="translate(1.4210854715202004e-14 0)  rotate(0 14.217032967032972 10.624999999999998)" opacity="1" d="M8.33,1.03L0,15.97L5.58,21.25L28.43,6.01L14.4,0L8.33,1.03Z " /><path id="矩形" fill-rule="evenodd" style="fill:#5DB7FA" transform="translate(0 15.000000000000009)  rotate(0 4.739010989010993 9.999999999999996)" opacity="1" d="M0,8.29L6.57,20L9.48,8.29L0.81,0L0,8.29Z " /><path id="矩形" fill-rule="evenodd" style="fill:#3FA6F3" transform="translate(5.686813186813183 5.6250000000000036)  rotate(0 13.585164835164846 12.812499999999998)" opacity="1" d="M27.17,13.4L21.94,0L0,14.74L11.21,25.62L20.65,25.62L27.17,13.4Z " /><path id="矩形" fill-rule="evenodd" style="fill:#5DB7FA" transform="translate(5.686813186813183 5.6250000000000036)  rotate(0 13.585164835164846 7.499999999999997)" opacity="1" d="M27.17,13.63L21.94,0L0,15L27.17,13.63Z " /><path id="矩形" fill-rule="evenodd" style="fill:#389BE5" transform="translate(6.950549450549445 21.250000000000014)  rotate(0 10.10989010989012 6.875000000000004)" opacity="1" d="M0,0L0,13.75L20.22,10.47L0,0Z " /></g><g opacity="1" transform="translate(20.000000000000014 0)  rotate(0 28.928571428571463 30)"><path id="矩形" fill-rule="evenodd" style="fill:#61BAFB" transform="translate(2.488479262672822 0)  rotate(0 27.684331797235036 14.217490086345814)" opacity="1" d="M0,11.41L11.53,28.43L55.37,18.82L23.19,0L0,11.41Z " /><path id="矩形" fill-rule="evenodd" style="fill:#389BE5" transform="translate(39.81566820276501 18.544552286538043)  rotate(0 8.70967741935483 12.363034857692003)" opacity="1" d="M0,3.98L17.42,24.73L17.42,0L0,3.98Z " /><path id="矩形" fill-rule="evenodd" style="fill:#389BE5" transform="translate(0 24.726069715383947)  rotate(0 7.776497695852537 15.144717700672707)" opacity="1" d="M15.55,3.68L11.81,0L0,17.79L13.5,30.29L15.55,3.68Z " /><path id="矩形" fill-rule="evenodd" style="fill:#4EAAEE" transform="translate(0 11.744883114807543)  rotate(0 6.532258064516129 15.762869443557303)" opacity="1" d="M3.04,0L0,31.53L13.06,14.56L3.04,0Z " /><path id="矩形" fill-rule="evenodd" style="fill:#4EAAEE" transform="translate(13.064516129032278 22.253462743845585)  rotate(0 14.565216835477303 18.87326862807724)" opacity="1" d="M17.11,37.75L29.13,34.24L27.37,0L22.95,0L0,3.62L17.11,37.75Z " /><path id="矩形" fill-rule="evenodd" style="fill:#3195DE" transform="translate(13.064516129032278 29.266944675957497)  rotate(0 8.782867985904037 15.366527662021248)" opacity="1" d="M1.85,0L0,25.58L17.57,30.73L1.85,0Z " /><path id="矩形" fill-rule="evenodd" style="fill:#3195DE" transform="translate(39.94326189352724 22.253462743845585)  rotate(0 8.956940481807838 17.29368052794284)" opacity="1" d="M0,0L1.81,34.59L17.91,20.77L0,0Z " /></g><g opacity="1" transform="translate(0 20.000000000000014)  rotate(0 12.500000000000009 12.500000000000009)"><path id="矩形" fill-rule="evenodd" style="fill:#61BAFB" transform="translate(0 0)  rotate(0 11.875000000000009 5.937500000000004)" opacity="1" d="M0,7.86L18.8,11.88L23.75,4.76L13.8,0L0,7.86Z " /><path id="矩形" fill-rule="evenodd" style="fill:#389BE5" transform="translate(0.6250000000000004 7.701271186440682)  rotate(0 3.7498974171401915 5.2118644067796644)" opacity="1" d="M0,10.42L7.5,1.67L0,0L0,10.42Z " /><path id="矩形" fill-rule="evenodd" style="fill:#389BE5" transform="translate(18.125000000000014 10.000000000000007)  rotate(0 3.4375000000000027 6.250000000000004)" opacity="1" d="M6.88,7.34L1.65,0L0,1.52L0.91,12.5L6.88,7.34Z " /><path id="矩形" fill-rule="evenodd" style="fill:#4EAAEE" transform="translate(19.375000000000014 5.0000000000000036)  rotate(0 2.8125000000000018 6.250000000000004)" opacity="1" d="M5.63,12.5L4.31,0L0,5.77L5.63,12.5Z " /><path id="矩形" fill-rule="evenodd" style="fill:#4EAAEE" transform="translate(7.499999999999969 9.375000000000007)  rotate(0 6.118956293667429 7.812500000000005)" opacity="1" d="M1.92,0L0,0L1.92,15.63L12.24,1.4L1.92,0Z " /><path id="矩形" fill-rule="evenodd" style="fill:#3195DE" transform="translate(9.375000000000007 11.875000000000007)  rotate(0 5.0000000000000036 6.562500000000004)" opacity="1" d="M10,10.39L9.31,0L0,13.13L10,10.39Z " /><path id="矩形" fill-rule="evenodd" style="fill:#3195DE" transform="translate(0 9.375000000000007)  rotate(0 4.999999999999999 7.812500000000005)" opacity="1" d="M10,15.63L9.63,6.48L8,0L0,8.2L10,15.63Z " /></g></g></g></g></svg>