<svg xmlns="http://www.w3.org/2000/svg" xmlns:xlink="http://www.w3.org/1999/xlink" width="640" height="640" viewBox="0 0 640 640" fill="none"><defs><path id="path_0"
        transform="translate(0 0) rotate(0 320 320)"
        d="M0,640L640,640L640,0L0,0L0,640Z" /><linearGradient id="linear_0" x1="1.6755194239674656%" y1="52.21876326902807%" x2="100%" y2="100%" gradientUnits="objectBoundingBox"><stop offset="0" stop-color="#62C4F9" stop-opacity="1" /><stop offset="1" stop-color="#3292E5" stop-opacity="1" /></linearGradient><linearGradient id="linear_1" x1="67.43%" y1="9.823%" x2="27.631%" y2="89.608%" gradientUnits="objectBoundingBox"><stop offset="0" stop-color="#5AB0ED" stop-opacity="1" /><stop offset="1" stop-color="#62C4F9" stop-opacity="1" /></linearGradient><filter id="filter_7" x="0" y="0" width="37.12500000000002" height="44" filterUnits="userSpaceOnUse" color-interpolation-filters="sRGB"><feFlood flood-opacity="0" result="BackgroundImageFix"/>
          <feBlend mode="normal" in="SourceGraphic" in2="BackgroundImageFix" result="shape"/>
          <feGaussianBlur stdDeviation="8" result="effect1_foregroundBlur" /></filter></defs><g opacity="1" transform="translate(0 0)  rotate(0 320 320)"><mask id="mask-0" fill="white"><use xlink:href="#path_0"></use></mask><g mask="url(#mask-0)"><path id="矩形 1" fill-rule="evenodd" fill="url(#linear_0)" transform="translate(0 0)  rotate(0 320 320)" opacity="1" d="M0,640L640,640L640,0L0,0L0,640Z " /></g><g mask="url(#mask-0)"><path id="椭圆形" style="stroke:url(#linear_1); stroke-width:16; stroke-opacity:100; stroke-dasharray:0 0" transform="translate(-189.75 -26.42)  rotate(10 518.3037269459325 320)" d="M1036.61,320C1036.61,143.3 804.51,0 518.3,0C232.1,0 0,143.3 0,320C0,496.7 232.1,640 518.3,640C804.51,640 1036.61,496.7 1036.61,320Z " /></g><g mask="url(#mask-0)"><g opacity="0.62" transform="translate(542 95)  rotate(0 18.56250000000001 22)"><g id="undefined" filter="url(#filter_7)"></g><path id="矩形" fill-rule="evenodd" style="fill:#BFE4FF" transform="translate(5.459558823529415 0)  rotate(0 15.286764705882364 13.199999999999998)" opacity="1" d="M0,7.47L24.58,26.4L30.57,19.83L21.62,1.28L15.09,0L0,7.47Z " /><path id="矩形" fill-rule="evenodd" style="fill:#5DB7FA" transform="translate(27.29779411764707 18.699999999999996)  rotate(0 4.913602941176474 12.649999999999999)" opacity="1" d="M0,10.49L3.01,25.3L9.83,10.49L8.99,0L0,10.49Z " /><path id="矩形" fill-rule="evenodd" style="fill:#3FA6F3" transform="translate(0 7.699999999999998)  rotate(0 15.286764705882364 15.95)" opacity="1" d="M17.96,31.9L30.57,18.35L5.88,0L0,16.68L7.34,31.9L17.96,31.9Z " /><path id="矩形" fill-rule="evenodd" style="fill:#97D3FF" transform="translate(0 7.699999999999998)  rotate(0 15.286764705882364 9.35)" opacity="1" d="M5.88,0L0,17L30.57,18.7L5.88,0Z " /><path id="矩形" fill-rule="evenodd" style="fill:#389BE5" transform="translate(7.643382352941181 26.399999999999995)  rotate(0 11.46507352941177 8.799999999999997)" opacity="1" d="M22.93,17.6L22.93,0L0,13.41L22.93,17.6Z " /></g></g><g mask="url(#mask-0)"><g opacity="1" transform="translate(154 565)  rotate(0 49.642857142857146 30)"><g opacity="1" transform="translate(66.42857142857143 2.85714285714286)  rotate(0 16.428571428571434 17.500000000000004)"><path id="矩形" fill-rule="evenodd" style="fill:#7AC5FC" transform="translate(2.842170943040401e-14 0)  rotate(0 14.217032967032965 10.624999999999996)" opacity="1" d="M8.33,1.03L0,15.97L5.58,21.25L28.43,6.01L14.4,0L8.33,1.03Z " /><path id="矩形" fill-rule="evenodd" style="fill:#5DB7FA" transform="translate(0 15.000000000000016)  rotate(0 4.739010989010992 9.999999999999998)" opacity="1" d="M0,8.29L6.57,20L9.48,8.29L0.81,0L0,8.29Z " /><path id="矩形" fill-rule="evenodd" style="fill:#3FA6F3" transform="translate(5.686813186813225 5.6250000000000036)  rotate(0 13.58516483516484 12.8125)" opacity="1" d="M27.17,13.4L21.94,0L0,14.74L11.21,25.63L20.65,25.63L27.17,13.4Z " /><path id="矩形" fill-rule="evenodd" style="fill:#5DB7FA" transform="translate(5.686813186813225 5.6250000000000036)  rotate(0 13.58516483516484 7.499999999999997)" opacity="1" d="M27.17,13.63L21.94,0L0,15L27.17,13.63Z " /><path id="矩形" fill-rule="evenodd" style="fill:#389BE5" transform="translate(6.95054945054946 21.25000000000001)  rotate(0 10.109890109890117 6.875000000000006)" opacity="1" d="M0,0L0,13.75L20.22,10.47L0,0Z " /></g><g opacity="1" transform="translate(20.000000000000004 0)  rotate(0 28.928571428571445 30)"><path id="矩形" fill-rule="evenodd" style="fill:#61BAFB" transform="translate(2.488479262672822 0)  rotate(0 27.684331797235025 14.217490086345812)" opacity="1" d="M0,11.41L11.53,28.43L55.37,18.82L23.19,0L0,11.41Z " /><path id="矩形" fill-rule="evenodd" style="fill:#389BE5" transform="translate(39.815668202764996 18.544552286538046)  rotate(0 8.709677419354826 12.363034857692002)" opacity="1" d="M0,3.98L17.42,24.73L17.42,0L0,3.98Z " /><path id="矩形" fill-rule="evenodd" style="fill:#389BE5" transform="translate(0 24.726069715383947)  rotate(0 7.776497695852531 15.144717700672707)" opacity="1" d="M15.55,3.68L11.81,0L0,17.79L13.5,30.29L15.55,3.68Z " /><path id="矩形" fill-rule="evenodd" style="fill:#4EAAEE" transform="translate(0 11.744883114807545)  rotate(0 6.532258064516127 15.762869443557307)" opacity="1" d="M3.04,0L0,31.53L13.06,14.56L3.04,0Z " /><path id="矩形" fill-rule="evenodd" style="fill:#4EAAEE" transform="translate(13.064516129032288 22.253462743845592)  rotate(0 14.5652168354773 18.87326862807725)" opacity="1" d="M17.11,37.75L29.13,34.24L27.37,0L22.95,0L0,3.62L17.11,37.75Z " /><path id="矩形" fill-rule="evenodd" style="fill:#3195DE" transform="translate(13.064516129032288 29.266944675957504)  rotate(0 8.782867985904035 15.366527662021245)" opacity="1" d="M1.85,0L0,25.58L17.57,30.73L1.85,0Z " /><path id="矩形" fill-rule="evenodd" style="fill:#3195DE" transform="translate(39.94326189352722 22.253462743845592)  rotate(0 8.956940481807834 17.293680527942843)" opacity="1" d="M0,0L1.81,34.59L17.91,20.77L0,0Z " /></g><g opacity="1" transform="translate(0 20.000000000000014)  rotate(0 12.500000000000002 12.500000000000005)"><path id="矩形" fill-rule="evenodd" style="fill:#61BAFB" transform="translate(0 0)  rotate(0 11.875000000000002 5.9375000000000036)" opacity="1" d="M0,7.86L18.8,11.88L23.75,4.76L13.8,0L0,7.86Z " /><path id="矩形" fill-rule="evenodd" style="fill:#389BE5" transform="translate(0.6250000000000001 7.701271186440678)  rotate(0 3.7498974171401898 5.2118644067796644)" opacity="1" d="M0,10.42L7.5,1.67L0,0L0,10.42Z " /><path id="矩形" fill-rule="evenodd" style="fill:#389BE5" transform="translate(18.125000000000004 10.000000000000007)  rotate(0 3.437500000000002 6.250000000000003)" opacity="1" d="M6.88,7.34L1.65,0L0,1.52L0.91,12.5L6.88,7.34Z " /><path id="矩形" fill-rule="evenodd" style="fill:#4EAAEE" transform="translate(19.375 4.9999999999999964)  rotate(0 2.8125 6.250000000000003)" opacity="1" d="M5.63,12.5L4.31,0L0,5.77L5.63,12.5Z " /><path id="矩形" fill-rule="evenodd" style="fill:#4EAAEE" transform="translate(7.4999999999999645 9.37500000000001)  rotate(0 6.118956293667425 7.812500000000004)" opacity="1" d="M1.92,0L0,0L1.92,15.63L12.24,1.4L1.92,0Z " /><path id="矩形" fill-rule="evenodd" style="fill:#3195DE" transform="translate(9.375 11.875000000000014)  rotate(0 5.000000000000001 6.562500000000006)" opacity="1" d="M10,10.39L9.31,0L0,13.13L10,10.39Z " /><path id="矩形" fill-rule="evenodd" style="fill:#3195DE" transform="translate(0 9.37500000000001)  rotate(0 4.9999999999999964 7.812500000000004)" opacity="1" d="M10,15.63L9.63,6.48L8,0L0,8.2L10,15.63Z " /></g></g></g></g></svg>