<svg xmlns="http://www.w3.org/2000/svg" xmlns:xlink="http://www.w3.org/1999/xlink" width="45" height="45" viewBox="0 0 45 45" fill="none"><g opacity="1" transform="translate(0 1)  rotate(0 22.5 21.5)"><path id="形状" fill-rule="evenodd" style="fill:#000000" transform="translate(4.5 6)  rotate(0 18 15)" opacity="1" d="M33.96 0L2.04 0C0.95 0 0 0.94 0 2C0 3.06 0.95 4 2.04 4L33.96 4C35.05 4 36 3.06 36 2C36 0.94 35.05 0 33.96 0Z M33.96 13L2.04 13C0.95 13 0 13.94 0 15C0 16.06 0.95 17 2.04 17L33.96 17C35.05 17 36 16.06 36 15C36 13.94 35.05 13 33.96 13Z M35.6 26.84C35.21 26.31 34.59 26 33.96 26L2.04 26C0.95 26 0 26.94 0 28C0 29.06 0.95 30 2.04 30L33.96 30C35.05 30 36 29.06 36 28.01C36 27.59 35.86 27.18 35.6 26.84Z " /></g></svg>