<svg xmlns="http://www.w3.org/2000/svg" xmlns:xlink="http://www.w3.org/1999/xlink" width="30" height="30" viewBox="0 0 30 30" fill="none"><defs><filter id="filter_2" x="0" y="0" width="30" height="30" filterUnits="userSpaceOnUse" color-interpolation-filters="sRGB"></filter></defs><g opacity="1" transform="translate(0 0)  rotate(0 15 15)"><path id="Shape" fill-rule="evenodd" style="fill:#3A9BE8" transform="translate(5.399999999999636 6.470000000000027)  rotate(0 9.599999999999994 8.534727422659865)" opacity="1" d="M0 6.39946L0 14.9395C0 16.1195 0.95 17.0695 2.13 17.0695L17.07 17.0695C17.63 17.0695 18.17 16.8395 18.58 16.4495C18.98 16.0395 19.2 15.4995 19.2 14.9395L19.2 12.7995L13.87 12.7995C13.28 12.7995 12.8 12.3295 12.8 11.7395L12.8 9.59945C12.8 9.00945 13.28 8.53946 13.87 8.53946L19.2 8.53946L19.2 6.39946C19.2 5.83946 18.98 5.29945 18.58 4.88945C18.17 4.49945 17.63 4.26945 17.07 4.26945L2.13 4.26945C0.95 4.26945 0 5.21945 0 6.39946Z M15.4633 11.5929C15.7933 11.7829 16.2033 11.7829 16.5333 11.5929C16.8633 11.4029 17.0633 11.0529 17.0633 10.6729C17.0633 10.0829 16.5933 9.60292 16.0033 9.60292C15.4133 9.60292 14.9333 10.0829 14.9333 10.6729C14.9333 11.0529 15.1333 11.4029 15.4633 11.5929Z M10.67 0L2.13 0C0.96 0 0 -0.11 0 1.07L0 2.14L12.8 2.14L12.8 1.07C12.8 -0.11 11.84 0 10.67 0Z " /></g></svg>