<svg xmlns="http://www.w3.org/2000/svg" xmlns:xlink="http://www.w3.org/1999/xlink" width="40" height="40" viewBox="0 0 40 40" fill="none"><g opacity="1" transform="translate(0 0)  rotate(0 20 20)"><path id="路径" fill-rule="evenodd" style="fill:#F6F9FD" transform="translate(12.004823838675314 5.000000000000009)  rotate(90 8 15)" opacity="1" d="M0.37 27.84L13.01 15L0.37 2.16C-0.12 1.65 -0.12 0.89 0.37 0.38C0.87 -0.13 1.62 -0.13 2.12 0.38L15.63 14.11C15.87 14.36 16 14.67 16 15C16 15.33 15.87 15.65 15.63 15.89L2.24 29.62C2 29.86 1.64 30 1.25 30C0.89 30 0.63 29.89 0.37 29.62C-0.12 29.11 -0.12 28.35 0.37 27.84Z" /></g></svg>