<svg xmlns="http://www.w3.org/2000/svg" xmlns:xlink="http://www.w3.org/1999/xlink" width="40" height="40" viewBox="0 0 40 40" fill="none"><g opacity="1" transform="translate(0 0)  rotate(0 20 20)"><path id="路径" fill-rule="evenodd" style="fill:#F6F9FD" transform="translate(12 5)  rotate(90 8 15)" opacity="1" d="M15.63 27.84C16.12 28.35 16.12 29.11 15.63 29.62C15.13 30.13 14.38 30.13 13.88 29.62L0.37 15.89C0.13 15.64 0 15.33 0 15C0 14.67 0.13 14.35 0.37 14.11L13.76 0.38C14 0.14 14.36 0 14.75 0C15.11 0 15.37 0.11 15.63 0.38C16.12 0.89 16.12 1.65 15.63 2.16L2.99 15L15.63 27.84Z" /></g></svg>