<svg xmlns="http://www.w3.org/2000/svg" xmlns:xlink="http://www.w3.org/1999/xlink" width="1440" height="900" viewBox="0 0 1440 900" fill="none"><defs><path id="path_0"
        transform="translate(0 0) rotate(0 720 450)"
        d="M0,900L1440,900L1440,0L0,0L0,900Z" /><linearGradient id="linear_0" x1="1.6755194239674656%" y1="52.21876326902807%" x2="100%" y2="100%" gradientUnits="objectBoundingBox"><stop offset="0" stop-color="#62C4F9" stop-opacity="1" /><stop offset="1" stop-color="#3292E5" stop-opacity="1" /></linearGradient><linearGradient id="linear_1" x1="67.43%" y1="9.823%" x2="27.631%" y2="89.608%" gradientUnits="objectBoundingBox"><stop offset="0" stop-color="#5AB0ED" stop-opacity="1" /><stop offset="1" stop-color="#62C4F9" stop-opacity="1" /></linearGradient></defs><g opacity="1" transform="translate(0 0)  rotate(0 720 450)"><mask id="mask-0" fill="white"><use xlink:href="#path_0"></use></mask><g mask="url(#mask-0)"><path id="矩形 1" fill-rule="evenodd" fill="url(#linear_0)" transform="translate(0 0)  rotate(0 720 450)" opacity="1" d="M0,900L1440,900L1440,0L0,0L0,900Z " /></g><g mask="url(#mask-0)"><path id="椭圆形" style="stroke:url(#linear_1); stroke-width:16; stroke-opacity:100; stroke-dasharray:0 0" transform="translate(-314.14 -30.170000000000073)  rotate(10 1005.8664104407593 450)" d="M2011.73,450C2011.73,201.51 1561.31,0 1005.87,0C450.43,0 0,201.51 0,450C0,698.49 450.43,900 1005.87,900C1561.31,900 2011.73,698.49 2011.73,450Z " /></g></g></svg>