<svg xmlns="http://www.w3.org/2000/svg" xmlns:xlink="http://www.w3.org/1999/xlink" width="22" height="22" viewBox="0 0 22 22" fill="none"><defs><linearGradient id="linear_0" x1="97.21972788069127%" y1="1.6979050778924702%" x2="36.39083110596058%" y2="39.11613877776489%" gradientUnits="objectBoundingBox"><stop offset="0" stop-color="#D5DFFF" stop-opacity="1" /><stop offset="1" stop-color="#FFFFFF" stop-opacity="1" /></linearGradient><linearGradient id="linear_1" x1="94.93857490529052%" y1="88.75567817773639%" x2="62.31908839834328%" y2="31.190961436755778%" gradientUnits="objectBoundingBox"><stop offset="0" stop-color="#D5DFFF" stop-opacity="1" /><stop offset="1" stop-color="#FFFFFF" stop-opacity="1" /></linearGradient><linearGradient id="linear_2" x1="0%" y1="0%" x2="38.79666404192267%" y2="63.26512236206445%" gradientUnits="objectBoundingBox"><stop offset="0" stop-color="#D5DFFF" stop-opacity="1" /><stop offset="1" stop-color="#FFFFFF" stop-opacity="1" /></linearGradient><linearGradient id="linear_3" x1="-19.881418834293143%" y1="71.11159046469837%" x2="27.82374465419395%" y2="44.07785468329526%" gradientUnits="objectBoundingBox"><stop offset="0" stop-color="#D5DFFF" stop-opacity="1" /><stop offset="1" stop-color="#FFFFFF" stop-opacity="1" /></linearGradient></defs><g opacity="1" transform="translate(0 0)  rotate(0 11 11)"><path id="Rectangle" fill-rule="evenodd" style="fill:#7291F4" transform="translate(0 0)  rotate(0 11 11)" opacity="1" d="M11,22L11,22C13.92,22 16.72,20.84 18.78,18.78C20.84,16.72 22,13.92 22,11L22,11C22,8.08 20.84,5.28 18.78,3.22C16.72,1.16 13.92,0 11,0L11,0C8.08,0 5.28,1.16 3.22,3.22C1.16,5.28 0,8.08 0,11L0,11C0,13.92 1.16,16.72 3.22,18.78C5.28,20.84 8.08,22 11,22Z " /><g opacity="1" transform="translate(3.666666666666666 3.666666666666666)  rotate(0 7.33333333333333 7.33333333333333)"><g opacity="1" transform="translate(0.08992792087832152 0.09530330430187636)  rotate(0 7.14529914529914 7.14529914529914)"><path id="圆角矩形_2_拷贝_3-path" fill-rule="evenodd" style="fill:#FFFFFF" transform="translate(9.933576296478936 5.031317566814397)  rotate(0 2.0388775217923225 1.2025886336899165)" opacity="1" d="M4.08,1.88L2.62,0.42C2.11,-0.08 1.31,-0.14 0.74,0.27C0.7,0.3 0.04,1.02 0,1.05L0.54,1.59C0.58,1.57 1.24,0.87 1.28,0.85C1.6,0.73 1.96,0.81 2.2,1.05L3.56,2.41L4.08,1.88Z " /><path id="圆角矩形_2_拷贝_3-path" fill-rule="evenodd" fill="url(#linear_0)" transform="translate(5.031317566814619 7.005541536566314)  rotate(0 2.2089935519422483 3.499209874665322)" opacity="1" d="M3.89,0C3.34,0.55 3.03,0.86 3.03,0.86C2.16,1.72 0.43,3.45 0.43,3.45C0.16,3.73 0,4.11 0,4.5C0,4.89 0.16,5.26 0.43,5.54L1.89,7L2.41,6.48L1.06,5.12C0.89,4.96 0.8,4.73 0.8,4.5C0.8,4.26 0.89,4.04 1.06,3.87C1.06,3.87 2.7,2.23 3.52,1.41C3.52,1.41 3.83,1.1 4.42,0.53C4.43,0.51 4.27,0.37 4.13,0.24C4,0.11 3.89,0 3.89,0Z " /><path id="圆角矩形_2_拷贝-path" fill-rule="evenodd" fill="url(#linear_1)" transform="translate(2.679761174866663e-13 5.031317566813811)  rotate(0 3.497277720669453 2.2116744402154405)" opacity="1" d="M0.52,2.41L1.87,1.06C2.04,0.89 2.27,0.8 2.5,0.8C2.74,0.8 2.96,0.89 3.13,1.06C3.13,1.06 4.57,2.5 5.29,3.22C5.34,3.27 6.48,4.42 6.48,4.42L6.74,4.16L6.99,3.9C6.99,3.9 5.88,2.77 5.83,2.72C5.07,1.96 3.54,0.43 3.54,0.43C2.97,-0.14 2.04,-0.14 1.46,0.43L0,1.89L0.52,2.41Z " /><path id="圆角矩形_2_拷贝-path" fill-rule="evenodd" style="fill:#FFFFFF" transform="translate(6.567466451701459 9.859336702515659)  rotate(0 1.2062736607738915 2.0758130378958706)" opacity="1" d="M0.52,4.15L1.98,2.69C2.26,2.42 2.41,2.04 2.41,1.65C2.41,1.26 2.26,0.88 1.98,0.61L1.35,0L0.83,0.52L1.35,1.02C1.52,1.19 1.61,1.42 1.61,1.65C1.61,1.88 1.52,2.11 1.35,2.28L0,3.63L0.52,4.15Z " /><path id="圆角矩形_2_拷贝_2-path" fill-rule="evenodd" fill="url(#linear_2)" transform="translate(6.909109434536109 4.469232666821815)  rotate(0 3.5509266718856587 2.2553905532135197)" opacity="1" d="M0.5,0C0.5,0 -0.04,0.5 0,0.54C0.59,1.12 0.9,1.42 0.92,1.44C1.8,2.32 3.56,4.08 3.56,4.08C3.83,4.36 4.21,4.51 4.6,4.51C4.99,4.51 5.37,4.36 5.64,4.08L7.1,2.62L6.58,2.1L5.23,3.45C5.06,3.62 4.84,3.71 4.6,3.71C4.37,3.71 4.14,3.62 3.98,3.45C3.98,3.45 2.34,1.81 1.51,0.99C1.49,0.97 0.5,0 0.5,0Z " /><path id="圆角矩形_2_拷贝_2-path" fill-rule="evenodd" style="fill:#FFFFFF" transform="translate(5.031317566814328 1.116567156194444e-12)  rotate(0 1.20608937989563 2.0670114365831393)" opacity="1" d="M1.06,1.88L2.41,0.52L1.89,0L0.43,1.46C-0.14,2.04 -0.14,2.97 0.43,3.54L0.99,4.13L1.53,3.63L1.06,3.13C0.71,2.78 0.71,2.22 1.06,1.88Z " /><path id="圆角矩形_2-path" fill-rule="evenodd" fill="url(#linear_3)" transform="translate(4.548964197096573 -2.062857821069234e-12)  rotate(0 2.2155247880758133 3.491137358951623)" opacity="1" d="M1.62,5.93C2.41,5.13 4,3.54 4,3.54C4.28,3.27 4.43,2.89 4.43,2.5C4.43,2.11 4.28,1.74 4,1.46L2.54,0L2.02,0.52L3.37,1.87C3.54,2.04 3.63,2.27 3.63,2.5C3.63,2.74 3.54,2.96 3.37,3.13C3.37,3.13 1.85,4.65 1.09,5.41C1.06,5.44 0,6.47 0,6.47L0.52,6.98L1.62,5.93Z " /><path id="圆角矩形_2-path" fill-rule="evenodd" style="fill:#FFFFFF" transform="translate(5.973634285640271e-13 6.567466451700361)  rotate(0 2.066262312471486 1.204983745812846)" opacity="1" d="M1.46,1.98C2.04,2.55 2.97,2.55 3.54,1.98L4.13,1.41C4.13,1.41 3.64,0.86 3.61,0.89C3.45,1.03 3.13,1.35 3.13,1.35C2.96,1.52 2.74,1.61 2.5,1.61C2.27,1.61 2.04,1.52 1.88,1.35L0.52,0L0,0.52L1.46,1.98Z " /></g></g></g></svg>