<svg xmlns="http://www.w3.org/2000/svg" xmlns:xlink="http://www.w3.org/1999/xlink" width="120" height="120" viewBox="0 0 120 120" fill="none"><defs><linearGradient id="linear_0" x1="73.51985202429407%" y1="19.302756345730536%" x2="29.14327285324659%" y2="100%" gradientUnits="objectBoundingBox"><stop offset="0" stop-color="#62C4F9" stop-opacity="1" /><stop offset="1" stop-color="#2280DE" stop-opacity="1" /></linearGradient><linearGradient id="linear_1" x1="-8.348016012258341%" y1="50.00000000000142%" x2="95.94203344158885%" y2="70.40916467174156%" gradientUnits="objectBoundingBox"><stop offset="0" stop-color="#FBFEFF" stop-opacity="1" /><stop offset="1" stop-color="#51B1F2" stop-opacity="1" /></linearGradient><linearGradient id="linear_2" x1="108.34801601225834%" y1="49.99999999999858%" x2="4.6904306271351%" y2="22.180630060488227%" gradientUnits="objectBoundingBox"><stop offset="0" stop-color="#FBFEFF" stop-opacity="1" /><stop offset="1" stop-color="#41A1EB" stop-opacity="1" /></linearGradient><linearGradient id="linear_3" x1="108.34801601225834%" y1="49.99999999999858%" x2="-7.105427357601002e-13%" y2="1.4210854715202004e-12%" gradientUnits="objectBoundingBox"><stop offset="0" stop-color="#FBFEFF" stop-opacity="1" /><stop offset="1" stop-color="#47A7ED" stop-opacity="1" /></linearGradient><linearGradient id="linear_4" x1="-8.348016012258341%" y1="50.00000000000142%" x2="95.50343316838052%" y2="61.96999577957456%" gradientUnits="objectBoundingBox"><stop offset="0" stop-color="#FBFEFF" stop-opacity="1" /><stop offset="1" stop-color="#4AAAEF" stop-opacity="1" /></linearGradient><linearGradient id="linear_5" x1="5.523051698319215%" y1="94.81053478513869%" x2="100.00000000000009%" y2="94.81053478513869%" gradientUnits="objectBoundingBox"><stop offset="0.002905785620629371" stop-color="#FFFFFF" stop-opacity="1" /><stop offset="1" stop-color="#CEE9FA" stop-opacity="1" /></linearGradient><linearGradient id="linear_6" x1="5.523051698319215%" y1="94.81053478513869%" x2="100.00000000000009%" y2="94.81053478513869%" gradientUnits="objectBoundingBox"><stop offset="0.002905785620629371" stop-color="#FFFFFF" stop-opacity="1" /><stop offset="1" stop-color="#CEE9FA" stop-opacity="1" /></linearGradient><linearGradient id="linear_7" x1="5.523051698319215%" y1="94.81053478513869%" x2="100.00000000000009%" y2="94.81053478513869%" gradientUnits="objectBoundingBox"><stop offset="0.002905785620629371" stop-color="#FFFFFF" stop-opacity="1" /><stop offset="1" stop-color="#CEE9FA" stop-opacity="1" /></linearGradient><linearGradient id="linear_8" x1="94.47694830168078%" y1="5.189465214861322%" x2="-8.881784197001252e-14%" y2="5.189465214861322%" gradientUnits="objectBoundingBox"><stop offset="0.002905785620629371" stop-color="#FFFFFF" stop-opacity="1" /><stop offset="1" stop-color="#CEE9FA" stop-opacity="1" /></linearGradient></defs><g opacity="1" transform="translate(0 0)  rotate(0 60 60)"><path id="多边形备份" fill-rule="evenodd" fill="url(#linear_0)" transform="translate(0 0)  rotate(0 60 60)" opacity="1" d="M50.63,119.18L50.63,119.18C52.69,119.51 54.77,119.73 56.86,119.84L56.86,119.84C58.95,119.95 61.05,119.95 63.14,119.84L63.14,119.84C65.23,119.73 67.31,119.51 69.37,119.18L69.37,119.18C71.44,118.85 73.49,118.42 75.51,117.88L75.51,117.88C77.53,117.34 79.52,116.69 81.47,115.94L81.47,115.94C83.42,115.19 85.34,114.34 87.2,113.39L87.2,113.39C89.06,112.44 90.88,111.39 92.63,110.25L92.63,110.25C94.39,109.11 96.08,107.88 97.71,106.56L97.71,106.56C99.34,105.25 100.89,103.85 102.37,102.37L102.37,102.37C103.85,100.89 105.25,99.34 106.56,97.71L106.56,97.71C107.88,96.08 109.11,94.39 110.25,92.63L110.25,92.63C111.39,90.88 112.44,89.06 113.39,87.2L113.39,87.2C114.34,85.34 115.19,83.42 115.94,81.47L115.94,81.47C116.69,79.52 117.34,77.53 117.88,75.51L117.88,75.51C118.42,73.49 118.85,71.44 119.18,69.37L119.18,69.37C119.51,67.31 119.73,65.23 119.84,63.14L119.84,63.14C119.95,61.05 119.95,58.95 119.84,56.86L119.84,56.86C119.73,54.77 119.51,52.69 119.18,50.63L119.18,50.63C118.85,48.56 118.42,46.51 117.88,44.49L117.88,44.49C117.34,42.47 116.69,40.48 115.94,38.53L115.94,38.53C115.19,36.58 114.34,34.66 113.39,32.8L113.39,32.8C112.44,30.94 111.39,29.12 110.25,27.37L110.25,27.37C109.11,25.61 107.88,23.92 106.56,22.29L106.56,22.29C105.25,20.66 103.85,19.11 102.37,17.63L102.37,17.63C100.89,16.15 99.34,14.75 97.71,13.44L97.71,13.44C96.08,12.12 94.39,10.89 92.63,9.75L92.63,9.75C90.88,8.61 89.06,7.56 87.2,6.61L87.2,6.61C85.34,5.66 83.42,4.81 81.47,4.06L81.47,4.06C79.52,3.31 77.53,2.66 75.51,2.12L75.51,2.12C73.49,1.58 71.44,1.15 69.37,0.82L69.37,0.82C67.31,0.49 65.23,0.27 63.14,0.16L63.14,0.16C61.05,0.05 58.95,0.05 56.86,0.16L56.86,0.16C54.77,0.27 52.69,0.49 50.63,0.82L50.63,0.82C48.56,1.15 46.51,1.58 44.49,2.12L44.49,2.12C42.47,2.66 40.48,3.31 38.53,4.06L38.53,4.06C36.58,4.81 34.66,5.66 32.8,6.61L32.8,6.61C30.94,7.56 29.12,8.61 27.37,9.75L27.37,9.75C25.61,10.89 23.92,12.12 22.29,13.44L22.29,13.44C20.66,14.75 19.11,16.15 17.63,17.63L17.63,17.63C16.15,19.11 14.75,20.66 13.44,22.29L13.44,22.29C12.12,23.92 10.89,25.61 9.75,27.37L9.75,27.37C8.61,29.12 7.56,30.94 6.61,32.8L6.61,32.8C5.66,34.66 4.81,36.58 4.06,38.53L4.06,38.53C3.31,40.48 2.66,42.47 2.12,44.49L2.12,44.49C1.58,46.51 1.15,48.56 0.82,50.63L0.82,50.63C0.49,52.69 0.27,54.77 0.16,56.86L0.16,56.86C0.05,58.95 0.05,61.05 0.16,63.14L0.16,63.14C0.27,65.23 0.49,67.31 0.82,69.37L0.82,69.37C1.15,71.44 1.58,73.49 2.12,75.51L2.12,75.51C2.66,77.53 3.31,79.52 4.06,81.47L4.06,81.47C4.81,83.42 5.66,85.34 6.61,87.2L6.61,87.2C7.56,89.06 8.61,90.88 9.75,92.63L9.75,92.63C10.89,94.39 12.12,96.08 13.44,97.71L13.44,97.71C14.75,99.34 16.15,100.89 17.63,102.37L17.63,102.37C19.11,103.85 20.66,105.25 22.29,106.56L22.29,106.56C23.92,107.88 25.61,109.11 27.37,110.25L27.37,110.25C29.12,111.39 30.94,112.44 32.8,113.39L32.8,113.39C34.66,114.34 36.58,115.19 38.53,115.94L38.53,115.94C40.48,116.69 42.47,117.34 44.49,117.88L44.49,117.88C46.51,118.42 48.56,118.85 50.63,119.18Z " /><g opacity="1" transform="translate(24 24)  rotate(0 36 36)"><path id="矩形" fill-rule="evenodd" fill="url(#linear_1)" transform="translate(23.511522993782357 16.447930693196966)  rotate(0 8.728124204856897 4.759756011398709)" opacity="1" d="M17.46,3.1C17.46,3.1 13.11,1.57 10.2,0.78C7.29,-0.01 0,0 0,0L0,5.9C0,5.9 7.03,5.96 9.79,6.71C12.56,7.46 17.46,9.52 17.46,9.52L17.46,3.1Z " /><path id="矩形备份 19" fill-rule="evenodd" fill="url(#linear_2)" transform="translate(31.030947912215368 45.68643190607473)  rotate(0 8.728124204857043 4.759756011398707)" opacity="1" d="M0,6.42C0,6.42 4.34,7.95 7.25,8.74C10.16,9.53 17.46,9.52 17.46,9.52L17.46,3.62C17.46,3.62 10.42,3.56 7.66,2.81C4.9,2.06 0,0 0,0L0,6.42Z " /><path id="矩形备份 18" fill-rule="evenodd" fill="url(#linear_3)" transform="translate(12.62038492033249 35.46162216573303)  rotate(90 8.681916942403582 4.785088584457285)" opacity="1" d="M0,6.45C0,6.45 4.32,7.99 7.21,8.79C10.11,9.58 17.36,9.57 17.36,9.57L17.36,3.64C17.36,3.64 10.37,3.58 7.62,2.83C4.87,2.07 0,0 0,0L0,6.45Z " /><path id="矩形备份 13" fill-rule="evenodd" fill="url(#linear_4)" transform="translate(42.01450051057084 27.30204043190603)  rotate(90 8.681916942403662 4.785088584457328)" opacity="1" d="M17.36,3.12C17.36,3.12 13.04,1.58 10.15,0.78C7.26,-0.01 0,0 0,0L0,5.93C0,5.93 6.99,5.99 9.74,6.74C12.49,7.5 17.36,9.57 17.36,9.57L17.36,3.12Z " /><path id="矩形备份 3" fill-rule="evenodd" fill="url(#linear_5)" transform="translate(-3.3344878345712665 20.947279140622605)  rotate(-90 18.676773997776166 15.342286163204893)" opacity="1" d="M31.24,16.39C31.31,16.7 31.24,17.24 31.24,17.24L37.34,17.24C37.34,17.24 37.36,16.59 37.34,16.4C37.22,15.45 36.84,14.54 36.57,13.73C35.15,9.4 32.61,5.76 30.81,4.22C29.96,3.49 28.51,2.44 27.15,1.78C24.94,0.7 22.79,0.18 22.48,0.16C19.99,-0.03 18.19,-0.05 17.1,0.1C14.12,0.5 11.97,1.61 10.37,2.55C8.8,3.48 6.65,5.18 5.06,7.41C4.55,8.12 3.65,9.42 2.92,11.49C2.56,12.5 2.04,15.08 2.04,15.08L2.04,27.27L0,30.68L5.04,30.68C5.04,30.68 6.7,30.64 7.28,29.66C7.86,28.67 7.76,26.62 7.76,26.62L7.76,15.02C7.76,15.02 9.32,11.36 9.63,10.93C11.13,8.88 12.42,8.06 13.46,7.41C16.08,5.77 19.48,5.39 22.48,5.96C23.27,6.11 25.14,6.94 26.77,8.2C27.88,9.06 29.79,11.22 30.81,14.62C31,15.25 31.14,15.92 31.24,16.39Z " /><path id="矩形备份 8" fill-rule="evenodd" fill="url(#linear_6)" transform="translate(17.24334674688142 0)  rotate(0 18.77617630761421 15.261063093191487)" opacity="1" d="M27.29,1.77C25.07,0.7 22.91,0.18 22.6,0.16C20.09,-0.03 18.29,-0.05 17.19,0.1C14.2,0.49 12.03,1.6 10.42,2.54C8.85,3.46 6.69,5.15 5.08,7.37C4.58,8.07 3.67,9.37 2.93,11.43C2.57,12.43 2.05,15 2.05,15L2.05,27.12L0,30.52L5.07,30.52C5.07,30.52 6.74,30.48 7.32,29.5C7.9,28.52 7.8,26.47 7.8,26.47L7.8,14.94C7.8,14.94 9.37,11.3 9.68,10.87C11.19,8.83 12.49,8.02 13.53,7.37C16.17,5.74 19.59,5.36 22.6,5.93C23.39,6.08 25.27,6.9 26.91,8.16C28.03,9.01 29.95,11.16 30.97,14.55C31.16,15.17 31.31,15.83 31.41,16.3C31.48,16.61 31.41,16.96 31.41,16.96L37.54,16.96C37.54,16.96 37.56,16.5 37.54,16.31C37.42,15.37 37.03,14.47 36.77,13.66C35.34,9.35 32.78,5.73 30.97,4.19C30.12,3.47 28.66,2.42 27.29,1.77Z " /><path id="矩形备份 9" fill-rule="evenodd" fill="url(#linear_7)" transform="translate(37.98093983901906 21.006934161085752)  rotate(90 18.676773997776063 15.342286163204838)" opacity="1" d="M31.24,16.39C31.31,16.7 31.24,17.2 31.24,17.2L37.34,17.2C37.34,17.2 37.36,16.59 37.34,16.4C37.22,15.45 36.84,14.54 36.57,13.73C35.15,9.4 32.61,5.76 30.81,4.22C29.96,3.49 28.51,2.44 27.15,1.78C24.94,0.7 22.79,0.18 22.48,0.16C19.99,-0.03 18.19,-0.05 17.1,0.1C14.12,0.5 11.97,1.61 10.37,2.55C8.8,3.48 6.65,5.18 5.06,7.41C4.55,8.12 3.65,9.42 2.92,11.49C2.56,12.5 2.04,15.08 2.04,15.08L2.04,27.27L0,30.68L5.04,30.68C5.04,30.68 6.7,30.64 7.28,29.66C7.86,28.67 7.76,26.62 7.76,26.62L7.76,15.02C7.76,15.02 9.32,11.36 9.63,10.93C11.13,8.88 12.42,8.06 13.46,7.41C16.08,5.77 19.48,5.39 22.48,5.96C23.27,6.11 25.14,6.94 26.77,8.2C27.88,9.06 29.79,11.22 30.81,14.62C31,15.25 31.14,15.92 31.24,16.39Z " /><path id="矩形备份 12" fill-rule="evenodd" fill="url(#linear_8)" transform="translate(17.24334674688142 41.47787381361738)  rotate(0 18.77617630761423 15.261063093191291)" opacity="1" d="M37.55,0L32.49,0C32.49,0 30.82,0.04 30.23,1.02C29.66,2.01 29.75,4.05 29.75,4.05L29.75,15.58C29.75,15.58 28.19,19.22 27.87,19.65C26.36,21.69 25.07,22.5 24.02,23.15C21.39,24.78 17.97,25.16 14.96,24.59C14.16,24.44 12.28,23.62 10.64,22.37C9.52,21.52 7.6,19.36 6.58,15.98C6.39,15.36 6.24,14.69 6.14,14.22C6.08,13.91 6.14,13.26 6.14,13.26L0.01,13.26C0.01,13.26 -0.01,14.02 0.01,14.21C0.14,15.15 0.52,16.05 0.78,16.86C2.21,21.17 4.77,24.8 6.58,26.33C7.44,27.05 8.89,28.1 10.26,28.75C12.48,29.82 14.65,30.35 14.96,30.37C17.46,30.55 19.26,30.57 20.36,30.42C23.35,30.03 25.52,28.92 27.13,27.98C28.7,27.06 30.86,25.37 32.47,23.15C32.97,22.45 33.88,21.15 34.62,19.09C34.98,18.09 35.5,15.53 35.5,15.53L35.5,3.4L37.55,0Z " /></g></g></svg>