<svg xmlns="http://www.w3.org/2000/svg" xmlns:xlink="http://www.w3.org/1999/xlink" width="260" height="363.103515625" viewBox="0 0 260 363.103515625" fill="none"><g opacity="1"  transform="translate(0 0)  rotate(0)"><g opacity="1"  transform="translate(0 0)  rotate(0)"><path id="矩形备份 144" fill-rule="evenodd" style="fill:#FFFFFF" opacity="1" d="M1.57024e-06 363.1L260 363.1L260 -1.12438e-06L0 0L1.57024e-06 363.1Z"></path><path id="矩形备份 144" fill-rule="evenodd" style="fill:#2F8DE3" opacity="1" d="M27.931 99.5178L232.071 99.5178C237.591 99.5178 242.071 95.0378 242.071 89.5178L242.071 28.8277C242.071 23.3076 237.591 18.8276 232.071 18.8276L27.931 18.8276C22.411 18.8276 17.931 23.3076 17.931 28.8277L17.931 89.5178C17.931 95.0378 22.411 99.5178 27.931 99.5178Z"></path><path id="默认钱包" fill-rule="evenodd" style="fill:#FFFFFF" opacity="1" d="M27.7752,31.4241h3.28c1.45,0 2.54,0.4 3.3,1.2c0.71,0.75 1.08,1.85 1.08,3.28c0,1.42 -0.37,2.51 -1.08,3.27c-0.76,0.8099 -1.85,1.2099 -3.3,1.2099h-3.28zM29.2452,39.1241h1.53c1.12,0 1.93,-0.26 2.45,-0.78c0.5,-0.52 0.75,-1.34 0.75,-2.44c0,-1.13 -0.25,-1.96 -0.75,-2.46c-0.52,-0.52 -1.33,-0.77 -2.45,-0.77h-1.53zM39.9152,33.7141c1.07,0 1.89,0.35 2.45,1.08c0.52,0.65 0.78,1.57 0.78,2.74h-4.86c0.05,0.6 0.22,1.07 0.49,1.38c0.28,0.31 0.68,0.48 1.19,0.48c0.44,0 0.79,-0.1 1.07,-0.31c0.21,-0.16 0.4,-0.42 0.58,-0.79h1.43c-0.15,0.61 -0.45,1.12 -0.9,1.5199c-0.58,0.49 -1.3,0.74 -2.16,0.74c-0.97,0 -1.74,-0.3 -2.3,-0.8899c-0.6,-0.61 -0.9,-1.45 -0.9,-2.53c0,-0.97 0.27,-1.77 0.85,-2.43c0.55,-0.66 1.32,-0.99 2.28,-0.99zM38.8352,35.2841c-0.26,0.27 -0.43,0.65 -0.52,1.17h3.34c-0.13,-1.06 -0.69,-1.57 -1.7,-1.57c-0.48,0 -0.84,0.13 -1.12,0.4zM47.2952,31.4241h1.38v1.2h-1.18c-0.19,0 -0.33,0.05 -0.43,0.15c-0.1,0.1 -0.14,0.25 -0.14,0.47v0.65h1.66v1.17h-1.66v5.3199h-1.43v-5.3199h-1.44v-1.17h1.44v-0.69c0,-0.55 0.15,-0.99 0.47,-1.31c0.3,-0.32 0.75,-0.47 1.33,-0.47zM52.9052,33.7141c0.96,0 1.67,0.24 2.13,0.72c0.4,0.41 0.6,1.01 0.6,1.81v4.1399h-1.33v-0.8599c-0.25,0.3299 -0.57,0.5699 -0.93,0.7399c-0.41,0.19 -0.9,0.29 -1.47,0.29c-0.68,0 -1.2,-0.17 -1.59,-0.51c-0.41,-0.3499 -0.61,-0.7899 -0.61,-1.3299c0,-0.73 0.28,-1.29 0.86,-1.68c0.52,-0.38 1.27,-0.58 2.22,-0.61l1.42,-0.03v-0.25c0,-0.86 -0.47,-1.27 -1.4,-1.27c-0.4,0 -0.71,0.06 -0.95,0.21c-0.28,0.16 -0.46,0.42 -0.54,0.75l-1.42,-0.11c0.14,-0.71 0.49,-1.24 1.06,-1.57c0.47,-0.3 1.13,-0.44 1.95,-0.44zM52.8852,37.4541c-1.14,0.03 -1.71,0.43 -1.71,1.21c0,0.22 0.09,0.41 0.29,0.56c0.2,0.15 0.45,0.24 0.77,0.24c0.55,0 1.01,-0.16 1.39,-0.48c0.38,-0.32 0.58,-0.74 0.58,-1.24v-0.32zM57.6152,33.8941h1.43v3.95c0,0.53 0.1,0.91 0.32,1.16c0.23,0.24 0.58,0.36 1.08,0.36c0.32,0 0.62,-0.14 0.91,-0.4c0.28,-0.28 0.5,-0.64 0.62,-1.11v-3.96h1.43v6.4899h-1.43v-0.8399c-0.55,0.6699 -1.23,1.0099 -2.03,1.0099c-1.56,0 -2.33,-0.8799 -2.33,-2.6199zM65.5152,31.2441h1.43v9.1399h-1.43zM71.0752,31.7941v2.1h1.45v1.18h-1.45v3.66c0,0.15 0.03,0.27 0.1,0.35c0.08,0.08 0.18,0.12 0.33,0.12h0.85v1.1799h-1.09c-0.56,0 -0.98,-0.15 -1.24,-0.45c-0.25,-0.2799 -0.38,-0.6699 -0.38,-1.1999v-3.66h-1.16v-1.18h1.16v-1.51zM78.8352,31.4241h1.47l4.43,6.46h0.05v-6.46h1.48v8.9599h-1.43l-4.48,-6.5499h-0.05v6.5499h-1.47zM91.3152,33.7141c0.96,0 1.67,0.24 2.12,0.72c0.41,0.41 0.61,1.01 0.61,1.81v4.1399h-1.33v-0.8599c-0.25,0.3299 -0.57,0.5699 -0.93,0.7399c-0.42,0.19 -0.91,0.29 -1.47,0.29c-0.68,0 -1.21,-0.17 -1.6,-0.51c-0.4,-0.3499 -0.6,-0.7899 -0.6,-1.3299c0,-0.73 0.28,-1.29 0.86,-1.68c0.52,-0.38 1.26,-0.58 2.22,-0.61l1.42,-0.03v-0.25c0,-0.86 -0.47,-1.27 -1.4,-1.27c-0.4,0 -0.71,0.06 -0.95,0.21c-0.28,0.16 -0.47,0.42 -0.54,0.75l-1.42,-0.11c0.14,-0.71 0.49,-1.24 1.06,-1.57c0.47,-0.3 1.12,-0.44 1.95,-0.44zM91.2952,37.4541c-1.14,0.03 -1.71,0.43 -1.71,1.21c0,0.22 0.09,0.41 0.29,0.56c0.2,0.15 0.45,0.24 0.77,0.24c0.55,0 1.01,-0.16 1.39,-0.48c0.38,-0.32 0.58,-0.74 0.58,-1.24v-0.32zM99.2052,33.7141c0.9598,0 1.6298,0.35 2.0498,1.06c0.3,-0.4 0.61,-0.68 0.94,-0.83c0.29,-0.15 0.65,-0.23 1.09,-0.23c0.67,0 1.22,0.22 1.67,0.67c0.43,0.45 0.65,1.03 0.65,1.74v4.2599h-1.43v-4.0099c0,-0.51 -0.11,-0.89 -0.32,-1.11c-0.23,-0.24 -0.58,-0.35 -1.08,-0.35c-0.35,0 -0.64,0.12 -0.88,0.4c-0.25,0.26 -0.37,0.62 -0.37,1.1v3.9699h-1.43v-3.9899c0,-1 -0.4198,-1.48 -1.2798,-1.48c-0.41,0 -0.74,0.15 -0.99,0.47c-0.25,0.3 -0.38,0.68 -0.38,1.11v3.8899h-1.43v-6.4899h1.43v0.66c0.54,-0.56 1.13,-0.84 1.76,-0.84zM110.345,33.7141c1.07,0 1.88,0.35 2.45,1.08c0.51,0.65 0.78,1.57 0.78,2.74h-4.86c0.05,0.6 0.21,1.07 0.49,1.38c0.28,0.31 0.68,0.48 1.19,0.48c0.44,0 0.79,-0.1 1.07,-0.31c0.21,-0.16 0.4,-0.42 0.58,-0.79h1.43c-0.15,0.61 -0.45,1.12 -0.91,1.5199c-0.57,0.49 -1.29,0.74 -2.16,0.74c-0.96,0 -1.73,-0.3 -2.29,-0.8899c-0.61,-0.61 -0.91,-1.45 -0.91,-2.53c0,-0.97 0.28,-1.77 0.86,-2.43c0.55,-0.66 1.32,-0.99 2.28,-0.99zM109.265,35.2841c-0.26,0.27 -0.44,0.65 -0.53,1.17h3.34c-0.12,-1.06 -0.69,-1.57 -1.69,-1.57c-0.48,0 -0.84,0.13 -1.12,0.4z"></path><path id="87293 SWTC" fill-rule="evenodd" style="fill:#FFFFFF" opacity="1" d="M200.193,79.6577c1.04,0 1.86,0.21 2.45,0.67c0.63,0.46 0.98,1.18 1.06,2.15h-1.35c-0.13,-0.57 -0.35,-1 -0.7,-1.25c-0.36,-0.26 -0.86,-0.39 -1.54,-0.39c-0.59,0 -1.04,0.09 -1.35,0.26c-0.39,0.2 -0.58,0.53 -0.58,0.98c0,0.4 0.22,0.72 0.67,0.96c0.2,0.11 0.71,0.3 1.55,0.55c1.21,0.38 2,0.66 2.35,0.88c0.77,0.46 1.16,1.0999 1.16,1.9299c0,0.8 -0.32,1.43 -0.95,1.9c-0.62,0.45 -1.5,0.67 -2.63,0.67c-1.09,0 -1.95,-0.22 -2.56,-0.65c-0.74,-0.53 -1.14,-1.35 -1.22,-2.48h1.36c0.1,0.7 0.35,1.21 0.75,1.51c0.36,0.28 0.91,0.42 1.67,0.42c0.68,0 1.22,-0.13 1.62,-0.35c0.4,-0.23 0.6,-0.54 0.6,-0.94c0,-0.5099 -0.29,-0.8999 -0.85,-1.1799c-0.2,-0.1 -0.79,-0.31 -1.79,-0.61c-1.1,-0.35 -1.78,-0.59 -2.05,-0.74c-0.69,-0.41 -1.03,-1.01 -1.03,-1.79c0,-0.79 0.32,-1.41 0.99,-1.86c0.63,-0.43 1.42,-0.64 2.37,-0.64zM204.363,79.8377h1.54l1.75,6.9699h0.05l1.83,-6.9699h1.43l1.83,6.9699h0.05l1.75,-6.9699h1.54l-2.58,8.9599h-1.46l-1.82,-6.9199h-0.05l-1.82,6.9199h-1.47zM216.383,79.8377h7.34v1.16h-2.98v7.7999h-1.36v-7.7999h-3zM228.693,79.6577c1.05,0 1.91,0.26 2.59,0.82c0.65,0.52 1.05,1.25 1.19,2.15h-1.33c-0.15,-0.6 -0.44,-1.05 -0.86,-1.34c-0.43,-0.29 -0.96,-0.43 -1.61,-0.43c-0.97,0 -1.69,0.33 -2.18,1c-0.47,0.6 -0.69,1.43 -0.69,2.47c0,1.08 0.22,1.9099 0.67,2.4999c0.48,0.62 1.22,0.94 2.22,0.94c0.66,0 1.21,-0.16 1.64,-0.49c0.45,-0.35 0.76,-0.88 0.94,-1.58h1.33c-0.2,1.04 -0.67,1.86 -1.41,2.45c-0.69,0.55 -1.52,0.82 -2.48,0.82c-1.47,0 -2.58,-0.47 -3.32,-1.4c-0.65,-0.81 -0.96,-1.8899 -0.96,-3.2399c0,-1.33 0.32,-2.41 1,-3.25c0.75,-0.96 1.83,-1.42 3.26,-1.42z"></path><g id="87293 SWTC" filter="url(#filter_7)"><path id="87293 SWTC" fill-rule="evenodd" style="fill:#FFFFFF" opacity="1" d="M158.73,80.0601c0.95,0 1.71,0.25 2.27,0.75c0.5,0.4499 0.75,1.0199 0.75,1.6899c0,0.46 -0.1,0.85 -0.3,1.16c-0.22,0.34 -0.56,0.59 -1.01,0.77v0.04c0.42,0.1 0.8,0.35 1.1,0.75c0.35,0.43 0.53,0.92 0.53,1.48c0,0.79 -0.29,1.43 -0.87,1.93c-0.59,0.49 -1.42,0.74 -2.47,0.74c-1.07,0 -1.9,-0.25 -2.47,-0.74c-0.58,-0.5 -0.87,-1.14 -0.87,-1.93c0,-0.56 0.18,-1.05 0.53,-1.48c0.3,-0.4 0.66,-0.65 1.1,-0.75v-0.04c-0.45,-0.18 -0.79,-0.43 -1.01,-0.77c-0.21,-0.31 -0.31,-0.7 -0.31,-1.16c0,-0.67 0.25,-1.24 0.76,-1.6899c0.55,-0.5 1.31,-0.75 2.27,-0.75zM157.41,81.59c-0.29,0.25 -0.43,0.58 -0.43,0.96c0,0.42 0.12,0.76 0.36,1.01c0.28,0.3 0.75,0.45 1.39,0.45c0.63,0 1.09,-0.15 1.39,-0.45c0.23,-0.25 0.35,-0.59 0.35,-1.01c0,-0.38 -0.15,-0.71 -0.42,-0.96c-0.33,-0.3 -0.77,-0.44 -1.32,-0.44c-0.55,0 -0.99,0.14 -1.32,0.44zM157.25,85.51c-0.34,0.3 -0.5,0.69 -0.5,1.19c0,0.46 0.16,0.84 0.51,1.13c0.34,0.29 0.83,0.44 1.47,0.44c0.63,0 1.13,-0.15 1.49,-0.44c0.33,-0.29 0.49,-0.67 0.49,-1.13c0,-0.5 -0.16,-0.89 -0.49,-1.18c-0.35,-0.33 -0.84,-0.49 -1.49,-0.49c-0.65,0 -1.16,0.15 -1.48,0.48zM162.88,80.2401h6.03v1.0999l-3.18,7.86h-1.45l3.25,-7.72h-4.65zM173.31,80.0601c0.86,0 1.57,0.24 2.13,0.7399c0.53,0.5 0.81,1.14 0.81,1.93c0,0.78 -0.3,1.48 -0.88,2.12c-0.35,0.37 -0.96,0.85 -1.86,1.45c-0.96,0.64 -1.54,1.2 -1.73,1.69h4.48v1.21h-6.17c0,-0.89 0.29,-1.67 0.89,-2.35c0.33,-0.39 1,-0.93 2.02,-1.63c0.6,-0.43 1.03,-0.77 1.28,-1.03c0.4,-0.45 0.62,-0.94 0.62,-1.47c0,-0.5 -0.14,-0.88 -0.42,-1.13c-0.27,-0.25 -0.69,-0.38 -1.22,-0.38c-0.56,0 -0.99,0.19 -1.28,0.58c-0.3,0.38 -0.45,0.92 -0.47,1.65h-1.37c0.01,-1.01 0.3,-1.81 0.86,-2.41c0.58,-0.6599 1.36,-0.9699 2.31,-0.9699zM180.61,80.0601c1.09,0 1.92,0.39 2.49,1.1899c0.56,0.77 0.85,1.83 0.85,3.22c0,1.45 -0.31,2.63 -0.9,3.54c-0.61,0.9 -1.43,1.36 -2.46,1.36c-1.74,0 -2.72,-0.81 -2.95,-2.43h1.33c0.18,0.86 0.73,1.3 1.64,1.3c0.61,0 1.1,-0.31 1.48,-0.91c0.35,-0.58 0.54,-1.31 0.54,-2.17c0,-0.05 -0.02,-0.1 -0.02,-0.17h-0.05c-0.25,0.39 -0.57,0.68 -0.95,0.88c-0.36,0.18 -0.78,0.28 -1.24,0.28c-0.88,0 -1.6,-0.29 -2.12,-0.86c-0.52,-0.55 -0.77,-1.26 -0.77,-2.14c0,-0.91 0.29,-1.63 0.89,-2.21c0.6,-0.5899 1.35,-0.8799 2.24,-0.8799zM179.33,81.74c-0.34,0.37 -0.51,0.83 -0.51,1.41c0,0.58 0.17,1.03 0.51,1.37c0.31,0.35 0.75,0.52 1.31,0.52c0.56,0 1.01,-0.17 1.33,-0.52c0.33,-0.36 0.49,-0.83 0.49,-1.41c0,-0.59 -0.17,-1.05 -0.5,-1.39c-0.34,-0.35 -0.78,-0.53 -1.3,-0.53c-0.56,0 -1.01,0.18 -1.33,0.55zM188.33,80.0601c0.9,0 1.61,0.21 2.17,0.65c0.52,0.4399 0.8,1.0399 0.8,1.8099c0,0.98 -0.5,1.64 -1.48,1.97c0.53,0.16 0.93,0.42 1.2,0.74c0.31,0.34 0.46,0.78 0.46,1.31c0,0.83 -0.29,1.5 -0.86,2.03c-0.6,0.53 -1.39,0.8 -2.34,0.8c-0.92,0 -1.66,-0.24 -2.21,-0.7c-0.63,-0.53 -0.98,-1.29 -1.06,-2.3h1.38c0.03,0.61 0.22,1.07 0.59,1.4c0.33,0.3 0.76,0.45 1.28,0.45c0.58,0 1.04,-0.18 1.4,-0.5c0.3,-0.3 0.46,-0.67 0.46,-1.12c0,-0.53 -0.16,-0.92 -0.49,-1.17c-0.3,-0.25 -0.75,-0.37 -1.34,-0.37h-0.65v-1.03h0.64c0.55,0 0.96,-0.13 1.24,-0.37c0.27,-0.24 0.42,-0.59 0.42,-1.04c0,-0.45 -0.13,-0.79 -0.38,-1.03c-0.28,-0.25 -0.69,-0.36 -1.22,-0.36c-0.54,0 -0.97,0.14 -1.27,0.41c-0.3,0.28 -0.49,0.69 -0.54,1.24h-1.34c0.07,-0.89 0.4,-1.58 0.99,-2.08c0.55,-0.4999 1.27,-0.7399 2.15,-0.7399z"></path></g><g id="12wqw8…iu09zs" filter="url(#filter_9)"><path id="12wqw8…iu09zs" fill-rule="evenodd" style="fill:#98C8ED" opacity="1" d="M70.8823,63.5579c0.19,0 0.34,0.06 0.47,0.18c0.12,0.12 0.18,0.27 0.18,0.46c0,0.19 -0.06,0.34 -0.18,0.46c-0.13,0.12 -0.29,0.18 -0.47,0.18c-0.19,0 -0.34,-0.06 -0.46,-0.18c-0.13,-0.13 -0.19,-0.28 -0.19,-0.46c0,-0.19 0.06,-0.34 0.19,-0.46c0.12,-0.12 0.27,-0.18 0.46,-0.18zM74.4723,63.5579c0.18,0 0.34,0.06 0.47,0.18c0.12,0.12 0.19,0.27 0.19,0.46c0,0.19 -0.07,0.34 -0.19,0.46c-0.13,0.12 -0.29,0.18 -0.47,0.18c-0.18,0 -0.33,-0.06 -0.46,-0.18c-0.13,-0.13 -0.19,-0.28 -0.19,-0.46c0,-0.19 0.06,-0.34 0.19,-0.46c0.13,-0.12 0.28,-0.18 0.46,-0.18zM78.0523,63.5579c0.18,0 0.34,0.06 0.46,0.18c0.13,0.12 0.2,0.27 0.2,0.46c0,0.19 -0.07,0.34 -0.2,0.46c-0.12,0.12 -0.28,0.18 -0.46,0.18c-0.18,0 -0.33,-0.06 -0.46,-0.18c-0.13,-0.13 -0.18,-0.28 -0.18,-0.46c0,-0.19 0.05,-0.34 0.18,-0.46c0.13,-0.12 0.28,-0.18 0.46,-0.18zM81.6323,57.1778c0.18,0 0.33,0.06 0.46,0.19c0.13,0.1 0.2,0.25 0.2,0.45c0,0.18 -0.07,0.33 -0.2,0.46c-0.13,0.12 -0.28,0.18 -0.46,0.18c-0.18,0 -0.33,-0.06 -0.46,-0.18c-0.13,-0.13 -0.19,-0.28 -0.19,-0.46c0,-0.2 0.06,-0.35 0.19,-0.45c0.13,-0.13 0.28,-0.19 0.46,-0.19zM81.2023,59.2778h0.86v5.5601h-0.86zM84.0823,59.2778h0.86v3.4001c0,0.53 0.1,0.92 0.33,1.18c0.23,0.26 0.59,0.4 1.1,0.4c0.36,0 0.7,-0.15 0.99,-0.43c0.3,-0.3 0.48,-0.69 0.55,-1.16v-3.3901h0.86v5.5601h-0.86v-0.86c-0.46,0.67 -1.06,1.01 -1.81,1.01c-1.36,0 -2.02,-0.76 -2.02,-2.27zM93.0723,57.0078c0.91,0 1.6,0.4 2.07,1.22c0.41,0.68 0.61,1.61 0.61,2.77c0,1.1601 -0.2,2.0901 -0.61,2.7801c-0.47,0.8 -1.16,1.21 -2.07,1.21c-0.93,0 -1.62,-0.41 -2.08,-1.21c-0.41,-0.69 -0.61,-1.62 -0.61,-2.7801c0,-1.16 0.2,-2.09 0.61,-2.77c0.46,-0.82 1.15,-1.22 2.08,-1.22zM91.5823,58.8678c-0.21,0.52 -0.32,1.23 -0.32,2.13c0,0.8901 0.11,1.6001 0.32,2.1301c0.3,0.73 0.8,1.11 1.49,1.11c0.68,0 1.18,-0.38 1.48,-1.11c0.22,-0.53 0.33,-1.24 0.33,-2.1301c0,-0.9 -0.11,-1.61 -0.33,-2.13c-0.3,-0.74 -0.8,-1.11 -1.48,-1.11c-0.69,0 -1.19,0.37 -1.49,1.11zM99.8423,57.0078c0.9197,0 1.6197,0.34 2.0997,1.03c0.45,0.65 0.67,1.57 0.67,2.76c0,1.2201 -0.24,2.2101 -0.72,2.9901c-0.51,0.79 -1.2,1.2 -2.0597,1.2c-1.43,0 -2.25,-0.69 -2.46,-2.05h0.88c0.16,0.87 0.68,1.31 1.59,1.31c0.5897,0 1.0597,-0.3 1.4197,-0.89c0.33,-0.57 0.5,-1.29 0.5,-2.1501c0,-0.06 -0.01,-0.15 -0.01,-0.28h-0.04c-0.19,0.38 -0.47,0.7 -0.83,0.9201c-0.34,0.22 -0.74,0.33 -1.1897,0.33c-0.75,0 -1.34,-0.24 -1.79,-0.7301c-0.44,-0.46 -0.66,-1.06 -0.66,-1.8c0,-0.77 0.24,-1.39 0.74,-1.89c0.48,-0.5 1.1,-0.75 1.86,-0.75zM98.5923,58.2778c-0.32,0.35 -0.47,0.81 -0.47,1.37c0,0.53 0.15,0.97 0.47,1.3c0.31,0.33 0.73,0.5 1.27,0.5c0.4897,0 0.9097,-0.17 1.2597,-0.51c0.32,-0.35 0.49,-0.79 0.49,-1.32c0,-0.53 -0.16,-0.97 -0.47,-1.32c-0.32,-0.36 -0.75,-0.55 -1.2797,-0.55c-0.53,0 -0.95,0.17 -1.27,0.53zM103.932,59.2778h4.42v0.6l-3.41,4.2401h3.59v0.72h-4.71v-0.62l3.4,-4.2201h-3.29zM111.832,59.1278c1.38,0 2.13,0.57 2.28,1.73h-0.83c-0.08,-0.34 -0.22,-0.6 -0.44,-0.75c-0.23,-0.17 -0.58,-0.26 -1.02,-0.26c-0.38,0 -0.69,0.06 -0.9,0.22c-0.24,0.14 -0.36,0.33 -0.36,0.58c0,0.23 0.15,0.44 0.48,0.6c0.2,0.1 0.59,0.21 1.15,0.36c0.67,0.1701 1.14,0.3401 1.43,0.5201c0.44,0.28 0.67,0.66 0.67,1.14c0,1.14 -0.79,1.72 -2.36,1.72c-1.46,0 -2.26,-0.64 -2.39,-1.92h0.84c0.07,0.44 0.23,0.75 0.46,0.94c0.24,0.18 0.6,0.26 1.07,0.26c0.99,0 1.49,-0.32 1.49,-0.94c0,-0.32 -0.18,-0.55 -0.52,-0.73c-0.19,-0.08 -0.58,-0.2 -1.19,-0.35c-0.65,-0.16 -1.12,-0.32 -1.37,-0.5001c-0.43,-0.25 -0.64,-0.61 -0.64,-1.08c0,-0.48 0.21,-0.84 0.63,-1.12c0.38,-0.28 0.9,-0.42 1.52,-0.42z"></path></g><path id="12wqw8…iu09zs" fill-rule="evenodd" style="fill:#98C8ED" opacity="1" d="M71.05,63.6201c0.19,0 0.34,0.05 0.47,0.18c0.12,0.12 0.18,0.27 0.18,0.45c0,0.2 -0.06,0.35 -0.18,0.47c-0.13,0.12 -0.29,0.18 -0.47,0.18c-0.19,0 -0.34,-0.06 -0.46,-0.18c-0.13,-0.13 -0.19,-0.28 -0.19,-0.47c0,-0.18 0.06,-0.33 0.19,-0.45c0.12,-0.13 0.27,-0.18 0.46,-0.18zM74.64,63.6201c0.18,0 0.34,0.05 0.47,0.18c0.12,0.12 0.19,0.27 0.19,0.45c0,0.2 -0.07,0.35 -0.19,0.47c-0.13,0.12 -0.29,0.18 -0.47,0.18c-0.18,0 -0.33,-0.06 -0.46,-0.18c-0.13,-0.13 -0.19,-0.28 -0.19,-0.47c0,-0.18 0.06,-0.33 0.19,-0.45c0.13,-0.13 0.28,-0.18 0.46,-0.18zM78.22,63.6201c0.18,0 0.34,0.05 0.46,0.18c0.13,0.12 0.2,0.27 0.2,0.45c0,0.2 -0.07,0.35 -0.2,0.47c-0.12,0.12 -0.28,0.18 -0.46,0.18c-0.18,0 -0.33,-0.06 -0.46,-0.18c-0.13,-0.13 -0.18,-0.28 -0.18,-0.47c0,-0.18 0.05,-0.33 0.18,-0.45c0.13,-0.13 0.28,-0.18 0.46,-0.18z"></path><g id="拼合图形" filter="url(#filter_12)"><path id="拼合图形" fill-rule="evenodd" style="fill:#98C8ED" opacity="1" d="M43.65,57.62c0.45,-0.42 1.07,-0.62 1.88,-0.62c0.8,0 1.43,0.2 1.88,0.62c0.41,0.38 0.63,0.85 0.63,1.41c0,0.41 -0.1,0.76 -0.29,1.04c-0.22,0.3 -0.52,0.52 -0.92,0.66v0.02c0.4,0.1 0.74,0.33 1.02,0.67c0.31,0.37 0.46,0.8 0.46,1.29c0,0.68 -0.24,1.23 -0.71,1.64c-0.5,0.42 -1.19,0.63 -2.07,0.63c-0.89,0 -1.58,-0.21 -2.07,-0.63c-0.47,-0.41 -0.71,-0.96 -0.71,-1.64c0,-0.49 0.15,-0.92 0.46,-1.29c0.28,-0.34 0.61,-0.57 1.02,-0.67v-0.02c-0.41,-0.14 -0.71,-0.36 -0.92,-0.66c-0.19,-0.28 -0.29,-0.63 -0.29,-1.04c0,-0.56 0.21,-1.03 0.63,-1.41zM55.07,57.78c0.47,-0.51 1.1,-0.77 1.88,-0.77c0.71,0 1.29,0.2 1.75,0.61c0.45,0.41 0.69,0.96 0.69,1.63c0,0.66 -0.26,1.27 -0.75,1.81c-0.27,0.27 -0.8,0.69 -1.59,1.23c-0.98,0.66 -1.54,1.25 -1.68,1.77h4.03v0.78h-5.12c0,-0.7 0.25,-1.33 0.77,-1.9c0.3,-0.35 0.85,-0.81 1.66,-1.37c0.61,-0.43 1,-0.74 1.21,-0.96c0.39,-0.42 0.59,-0.88 0.59,-1.37c0,-0.48 -0.14,-0.83 -0.42,-1.09c-0.28,-0.26 -0.68,-0.39 -1.17,-0.39c-0.53,0 -0.94,0.18 -1.22,0.54c-0.3,0.35 -0.46,0.86 -0.47,1.54h-0.88c0,-0.86 0.24,-1.55 0.72,-2.06zM50.45,57.95c0.36,-0.24 0.66,-0.5 0.92,-0.79h0.69v7.68h-0.88v-6.6c-0.49,0.49 -1.09,0.84 -1.81,1.05v-0.88c0.34,-0.1 0.71,-0.25 1.08,-0.46zM43.85,59.07c0,0.38 0.12,0.71 0.36,0.94c0.28,0.28 0.72,0.43 1.32,0.43c0.59,0 1.03,-0.15 1.32,-0.43c0.24,-0.23 0.36,-0.56 0.36,-0.94c0,-0.38 -0.14,-0.69 -0.4,-0.93c-0.31,-0.28 -0.74,-0.42 -1.28,-0.42c-0.55,0 -0.98,0.14 -1.28,0.42c-0.27,0.24 -0.4,0.55 -0.4,0.93zM28.14,60.01c0.46,-0.6 1.09,-0.89 1.91,-0.89c0.83,0 1.44,0.35 1.85,1.06v-0.91h0.81v7.69h-0.87v-3.14c-0.43,0.78 -1.04,1.16 -1.83,1.16c-0.8,0 -1.42,-0.3 -1.88,-0.88c-0.41,-0.54 -0.61,-1.22 -0.61,-2.03c0,-0.84 0.2,-1.52 0.62,-2.06zM35.72,64.83l-1.89,-5.56h0.95l1.36,4.51l1.29,-4.51h0.81l1.29,4.51l1.37,-4.51h0.95l-1.9,5.56h-0.82l-1.29,-4.47l-1.31,4.47zM62.42,64.84l-1.89,-5.56h0.94l1.37,4.51l1.29,-4.51h0.81l1.29,4.51l1.37,-4.51h0.94l-1.89,5.56h-0.82l-1.29,-4.47l-1.31,4.47zM28.4,62.07c0,0.66 0.14,1.19 0.42,1.58c0.3,0.41 0.77,0.62 1.37,0.62c0.49,0 0.9,-0.2 1.21,-0.59c0.31,-0.4 0.47,-0.91 0.47,-1.56v-0.11c0,-0.62 -0.14,-1.14 -0.41,-1.52c-0.31,-0.45 -0.74,-0.66 -1.3,-0.66c-0.61,0 -1.06,0.21 -1.36,0.67c-0.27,0.38 -0.4,0.91 -0.4,1.57zM43.63,62.71c0,0.45 0.15,0.83 0.47,1.11c0.32,0.29 0.81,0.44 1.43,0.44c0.62,0 1.1,-0.15 1.44,-0.45c0.3,-0.28 0.46,-0.65 0.46,-1.1c0,-0.46 -0.16,-0.84 -0.46,-1.12c-0.34,-0.31 -0.83,-0.46 -1.44,-0.46c-0.62,0 -1.1,0.15 -1.43,0.46c-0.32,0.28 -0.47,0.66 -0.47,1.12z"></path></g><g opacity="1"  transform="translate(124.62075805664062 55.587890625)  rotate(0)"><path id="形状结合备份 4" fill-rule="evenodd" style="fill:#98C8ED" opacity="1" d="M3.4553,0.76989c-0.19,0 -0.34,0.13 -0.38,0.30999v1.22358h4.22461c0.64,0 1.15,0.52 1.15,1.14999v4.22633h1.1554c0.19,0 0.35,-0.13 0.38,-0.31v-6.2199c0,-0.19 -0.13,-0.33999 -0.31,-0.37999zM8.44991,9.60335c0,0.63995 -0.51,1.14995 -1.15,1.14995h-6.15001c-0.63,0 -1.15,-0.51 -1.15,-1.14995l0,-6.1499c0,-0.62999 0.52,-1.14999 1.15,-1.14999h1.1554v-1.15358c0,-0.59999 0.46,-1.08998 1.04,-1.13998l0.11,-0.01l6.15001,0c0.59999,0 1.08999,0.45999 1.14999,1.03998v6.25991c0,0.59999 -0.45,1.08998 -1.03999,1.14998h-1.2654zM7.68851,3.45395c0,-0.21 -0.18,-0.38 -0.39,-0.38h-4.4995c-0.0358,0.01035 -0.07393,0.0159 -0.11371,0.0159c-0.03714,0 -0.07342,-0.00553 -0.10789,-0.0159h-1.42891c-0.21,0 -0.38,0.17 -0.38,0.38v6.1499c0,0.20999 0.17,0.38999 0.38,0.38999h6.15001c0.21,0 0.39,-0.18 0.39,-0.38999v-1.48449c-0.00211,-0.01623 -0.0032,-0.03278 -0.0032,-0.04959c0,-0.01737 0.00109,-0.0345 0.0032,-0.05129z"></path></g><path id="矩形备份 144" fill-rule="evenodd" style="fill:#F7F7F8" opacity="1" d="M27.9311 189.174L232.071 189.174C237.591 189.174 242.071 184.694 242.071 179.174L242.071 118.484C242.071 112.964 237.591 108.484 232.071 108.484L27.9311 108.484C22.4111 108.484 17.9311 112.964 17.9311 118.484L17.9311 179.174C17.9311 184.694 22.4111 189.174 27.9311 189.174Z"></path><path id="我的井通链转账钱包" fill-rule="evenodd" style="fill:#232323" opacity="1" d="M27.0849,121.079h7.34v1.25h-2.93v7.71h-1.47v-7.71h-2.94zM38.9049,123.369c0.31,0 0.59,0.05 0.81,0.17v1.43c-0.32,-0.1 -0.62,-0.14 -0.93,-0.14c-0.37,0 -0.71,0.14 -1.01,0.44c-0.35,0.34 -0.52,0.78 -0.52,1.33v3.44h-1.42v-6.49h1.42v0.93c0.18,-0.33 0.38,-0.58 0.62,-0.76c0.29,-0.23 0.63,-0.35 1.03,-0.35zM43.9549,123.369c0.95,0 1.67,0.24 2.12,0.72c0.4,0.41 0.6,1.01 0.6,1.81v4.14h-1.33v-0.86c-0.25,0.33 -0.56,0.57 -0.93,0.74c-0.41,0.19 -0.9,0.29 -1.46,0.29c-0.68,0 -1.21,-0.17 -1.6,-0.51c-0.4,-0.35 -0.6,-0.79 -0.6,-1.33c0,-0.73 0.27,-1.29 0.85,-1.68c0.53,-0.38 1.27,-0.58 2.22,-0.61l1.42,-0.03v-0.25c0,-0.86 -0.46,-1.27 -1.39,-1.27c-0.4,0 -0.72,0.06 -0.95,0.21c-0.28,0.16 -0.47,0.42 -0.54,0.75l-1.42,-0.11c0.14,-0.71 0.49,-1.24 1.05,-1.57c0.48,-0.3 1.13,-0.44 1.96,-0.44zM43.9249,127.109c-1.14,0.03 -1.7,0.43 -1.7,1.21c0,0.22 0.09,0.41 0.29,0.56c0.2,0.15 0.45,0.24 0.76,0.24c0.55,0 1.02,-0.16 1.39,-0.48c0.38,-0.32 0.58,-0.74 0.58,-1.24v-0.32zM52.0049,123.369c1.62,0 2.44,0.88 2.44,2.66v4.01h-1.43v-3.88c0,-1.07 -0.49,-1.59 -1.47,-1.59c-0.35,0 -0.67,0.12 -0.93,0.37c-0.3,0.28 -0.48,0.68 -0.53,1.19v3.91h-1.43v-6.49h1.43v0.75c0.25,-0.3 0.54,-0.54 0.85,-0.69c0.33,-0.16 0.68,-0.24 1.07,-0.24zM58.8649,123.369c1.71,0 2.65,0.68 2.8,2.06h-1.39c-0.1,-0.33 -0.25,-0.56 -0.46,-0.69c-0.21,-0.14 -0.53,-0.2 -0.97,-0.2c-0.38,0 -0.67,0.05 -0.86,0.16c-0.22,0.12 -0.32,0.29 -0.32,0.54c0,0.2 0.16,0.39 0.51,0.54c0.21,0.09 0.64,0.22 1.29,0.38c0.73,0.17 1.28,0.38 1.64,0.61c0.51,0.33 0.77,0.8 0.77,1.37c0,1.38 -0.98,2.07 -2.92,2.07c-1.81,0 -2.78,-0.76 -2.91,-2.28h1.39c0.08,0.41 0.23,0.7 0.44,0.88c0.21,0.15 0.55,0.24 1.03,0.24c1,0 1.5,-0.28 1.5,-0.81c0,-0.3 -0.18,-0.54 -0.56,-0.71c-0.2,-0.1 -0.63,-0.22 -1.28,-0.37c-0.77,-0.17 -1.31,-0.36 -1.62,-0.56c-0.5,-0.32 -0.75,-0.75 -0.75,-1.32c0,-0.6 0.24,-1.07 0.74,-1.39c0.49,-0.35 1.13,-0.52 1.93,-0.52zM66.0249,121.079h1.38v1.2h-1.18c-0.19,0 -0.32,0.05 -0.42,0.15c-0.1,0.1 -0.14,0.25 -0.14,0.47v0.65h1.65v1.17h-1.65v5.32h-1.43v-5.32h-1.45v-1.17h1.45v-0.69c0,-0.55 0.15,-0.99 0.46,-1.31c0.3,-0.32 0.75,-0.47 1.33,-0.47zM71.4549,123.369c1.07,0 1.88,0.35 2.45,1.08c0.51,0.65 0.78,1.57 0.78,2.74h-4.86c0.05,0.6 0.21,1.07 0.49,1.38c0.27,0.31 0.68,0.48 1.19,0.48c0.44,0 0.79,-0.1 1.07,-0.31c0.21,-0.16 0.4,-0.42 0.57,-0.79h1.44c-0.15,0.61 -0.46,1.12 -0.91,1.52c-0.58,0.49 -1.29,0.74 -2.16,0.74c-0.96,0 -1.73,-0.3 -2.29,-0.89c-0.61,-0.61 -0.91,-1.45 -0.91,-2.53c0,-0.97 0.28,-1.77 0.86,-2.43c0.55,-0.66 1.31,-0.99 2.28,-0.99zM70.3749,124.939c-0.26,0.27 -0.44,0.65 -0.53,1.17h3.34c-0.12,-1.06 -0.69,-1.57 -1.69,-1.57c-0.48,0 -0.84,0.13 -1.12,0.4zM79.3449,123.369c0.31,0 0.59,0.05 0.81,0.17v1.43c-0.32,-0.1 -0.62,-0.14 -0.92,-0.14c-0.38,0 -0.72,0.14 -1.02,0.44c-0.35,0.34 -0.52,0.78 -0.52,1.33v3.44h-1.41v-6.49h1.41v0.93c0.18,-0.33 0.38,-0.58 0.62,-0.76c0.29,-0.23 0.63,-0.35 1.03,-0.35zM85.4049,123.549h1.58l1.3,4.79l1.28,-4.79h1.31l1.28,4.79l1.3,-4.79h1.58l-2.19,6.49h-1.33l-1.29,-4.75l-1.3,4.75h-1.33zM99.2649,123.369c0.9601,0 1.6701,0.24 2.1301,0.72c0.4,0.41 0.6,1.01 0.6,1.81v4.14h-1.33v-0.86c-0.25,0.33 -0.57,0.57 -0.9301,0.74c-0.41,0.19 -0.9,0.29 -1.47,0.29c-0.68,0 -1.2,-0.17 -1.59,-0.51c-0.4,-0.35 -0.61,-0.79 -0.61,-1.33c0,-0.73 0.28,-1.29 0.86,-1.68c0.52,-0.38 1.27,-0.58 2.22,-0.61l1.4201,-0.03v-0.25c0,-0.86 -0.47,-1.27 -1.4001,-1.27c-0.4,0 -0.71,0.06 -0.95,0.21c-0.28,0.16 -0.46,0.42 -0.54,0.75l-1.42,-0.11c0.14,-0.71 0.49,-1.24 1.06,-1.57c0.47,-0.3 1.13,-0.44 1.95,-0.44zM99.2449,127.109c-1.14,0.03 -1.71,0.43 -1.71,1.21c0,0.22 0.09,0.41 0.29,0.56c0.2,0.15 0.45,0.24 0.77,0.24c0.55,0 1.01,-0.16 1.39,-0.48c0.3801,-0.32 0.5801,-0.74 0.5801,-1.24v-0.32zM104.095,120.899h1.43v9.14h-1.43zM107.755,120.899h1.43v9.14h-1.43zM114.045,123.369c1.07,0 1.89,0.35 2.45,1.08c0.52,0.65 0.78,1.57 0.78,2.74h-4.86c0.05,0.6 0.22,1.07 0.49,1.38c0.28,0.31 0.68,0.48 1.19,0.48c0.44,0 0.8,-0.1 1.07,-0.31c0.22,-0.16 0.4,-0.42 0.58,-0.79h1.43c-0.15,0.61 -0.45,1.12 -0.9,1.52c-0.58,0.49 -1.3,0.74 -2.16,0.74c-0.97,0 -1.73,-0.3 -2.3,-0.89c-0.6,-0.61 -0.9,-1.45 -0.9,-2.53c0,-0.97 0.27,-1.77 0.85,-2.43c0.55,-0.66 1.32,-0.99 2.28,-0.99zM112.975,124.939c-0.27,0.27 -0.44,0.65 -0.53,1.17h3.34c-0.13,-1.06 -0.69,-1.57 -1.7,-1.57c-0.47,0 -0.84,0.13 -1.11,0.4zM120.905,121.449v2.1h1.45v1.18h-1.45v3.66c0,0.15 0.03,0.27 0.1,0.35c0.08,0.08 0.18,0.12 0.33,0.12h0.85v1.18h-1.09c-0.56,0 -0.98,-0.15 -1.24,-0.45c-0.25,-0.28 -0.38,-0.67 -0.38,-1.2v-3.66h-1.16v-1.18h1.16v-1.51z"></path><g id="拼合图形" filter="url(#filter_18)"><path id="拼合图形" fill-rule="evenodd" style="fill:#232323" opacity="1" d="M178.57,170.11c0.55,-0.5 1.31,-0.75 2.27,-0.75c0.95,0 1.71,0.25 2.27,0.75c0.5,0.45 0.75,1.02 0.75,1.69c0,0.46 -0.1,0.85 -0.3,1.16c-0.22,0.34 -0.56,0.59 -1.01,0.77v0.04c0.42,0.1 0.8,0.35 1.1,0.75c0.35,0.43 0.53,0.92 0.53,1.48c0,0.79 -0.29,1.43 -0.87,1.93c-0.59,0.49 -1.42,0.74 -2.47,0.74c-1.07,0 -1.9,-0.25 -2.47,-0.74c-0.58,-0.5 -0.87,-1.14 -0.87,-1.93c0,-0.56 0.18,-1.05 0.53,-1.48c0.3,-0.4 0.66,-0.65 1.1,-0.75v-0.04c-0.45,-0.18 -0.79,-0.43 -1.01,-0.77c-0.21,-0.31 -0.31,-0.7 -0.31,-1.16c0,-0.67 0.25,-1.24 0.76,-1.69zM155.53,170.49c0.57,-0.66 1.35,-0.97 2.31,-0.97c0.85,0 1.56,0.24 2.12,0.74c0.54,0.5 0.81,1.14 0.81,1.93c0,0.78 -0.3,1.48 -0.88,2.12c-0.35,0.37 -0.96,0.85 -1.85,1.45c-0.97,0.64 -1.55,1.2 -1.74,1.69h4.49v1.21h-6.18c0,-0.89 0.29,-1.67 0.89,-2.35c0.33,-0.39 1.01,-0.93 2.02,-1.63c0.6,-0.43 1.03,-0.77 1.28,-1.03c0.4,-0.45 0.62,-0.94 0.62,-1.47c0,-0.5 -0.14,-0.88 -0.42,-1.13c-0.27,-0.25 -0.69,-0.38 -1.21,-0.38c-0.57,0 -1,0.19 -1.28,0.58c-0.31,0.38 -0.46,0.92 -0.48,1.65h-1.37c0.01,-1.01 0.3,-1.81 0.87,-2.41zM162.89,170.4c0.61,-0.59 1.35,-0.88 2.24,-0.88c1.09,0 1.92,0.39 2.5,1.19c0.55,0.77 0.84,1.83 0.84,3.22c0,1.45 -0.3,2.63 -0.89,3.54c-0.62,0.9 -1.43,1.36 -2.46,1.36c-1.75,0 -2.73,-0.81 -2.95,-2.43h1.33c0.17,0.86 0.72,1.3 1.63,1.3c0.61,0 1.1,-0.31 1.48,-0.91c0.35,-0.58 0.54,-1.31 0.54,-2.17c0,-0.05 -0.01,-0.1 -0.01,-0.17h-0.05c-0.25,0.39 -0.58,0.68 -0.96,0.88c-0.36,0.18 -0.78,0.28 -1.24,0.28c-0.88,0 -1.59,-0.29 -2.12,-0.86c-0.52,-0.55 -0.77,-1.26 -0.77,-2.14c0,-0.91 0.29,-1.63 0.89,-2.21zM170.7,170.26c0.55,-0.5 1.27,-0.74 2.15,-0.74c0.9,0 1.62,0.21 2.17,0.65c0.53,0.44 0.8,1.04 0.8,1.81c0,0.98 -0.5,1.64 -1.48,1.97c0.53,0.16 0.93,0.42 1.21,0.74c0.3,0.34 0.45,0.78 0.45,1.31c0,0.83 -0.29,1.5 -0.86,2.03c-0.6,0.53 -1.39,0.8 -2.34,0.8c-0.92,0 -1.66,-0.24 -2.21,-0.7c-0.63,-0.53 -0.98,-1.29 -1.06,-2.3h1.38c0.03,0.61 0.22,1.07 0.59,1.4c0.33,0.3 0.76,0.45 1.28,0.45c0.58,0 1.05,-0.18 1.4,-0.5c0.3,-0.3 0.46,-0.67 0.46,-1.12c0,-0.53 -0.16,-0.92 -0.49,-1.17c-0.3,-0.25 -0.75,-0.37 -1.34,-0.37h-0.65v-1.03h0.64c0.55,0 0.96,-0.13 1.24,-0.37c0.28,-0.24 0.43,-0.59 0.43,-1.04c0,-0.45 -0.14,-0.79 -0.39,-1.03c-0.28,-0.25 -0.69,-0.36 -1.22,-0.36c-0.54,0 -0.97,0.14 -1.27,0.41c-0.3,0.28 -0.49,0.69 -0.54,1.24h-1.34c0.08,-0.89 0.4,-1.58 0.99,-2.08zM184.99,170.78v-1.24h6.03v1.1l-3.18,7.86h-1.45l3.25,-7.72zM179.09,171.85c0,0.42 0.12,0.76 0.36,1.01c0.28,0.3 0.75,0.45 1.39,0.45c0.63,0 1.09,-0.15 1.39,-0.45c0.23,-0.25 0.35,-0.59 0.35,-1.01c0,-0.38 -0.15,-0.71 -0.42,-0.96c-0.33,-0.3 -0.77,-0.44 -1.32,-0.44c-0.55,0 -0.99,0.14 -1.32,0.44c-0.29,0.25 -0.43,0.58 -0.43,0.96zM163.35,172.61c0,0.58 0.16,1.03 0.5,1.37c0.31,0.35 0.75,0.52 1.32,0.52c0.55,0 1,-0.17 1.33,-0.52c0.32,-0.36 0.49,-0.83 0.49,-1.41c0,-0.59 -0.18,-1.05 -0.51,-1.39c-0.33,-0.35 -0.77,-0.53 -1.3,-0.53c-0.55,0 -1.01,0.18 -1.33,0.55c-0.34,0.37 -0.5,0.83 -0.5,1.41zM178.86,176c0,0.46 0.16,0.84 0.51,1.13c0.34,0.29 0.83,0.44 1.47,0.44c0.63,0 1.13,-0.15 1.49,-0.44c0.33,-0.29 0.49,-0.67 0.49,-1.13c0,-0.5 -0.16,-0.89 -0.49,-1.18c-0.35,-0.33 -0.84,-0.49 -1.49,-0.49c-0.65,0 -1.16,0.15 -1.48,0.48c-0.34,0.3 -0.5,0.69 -0.5,1.19z"></path></g><g id="12wqw8…iu09zs" filter="url(#filter_20)"><path id="12wqw8…iu09zs" fill-rule="evenodd" style="fill:#777777" opacity="1" d="M29.3698,146.813h0.69v7.68h-0.88v-6.6c-0.49,0.49 -1.09,0.84 -1.81,1.05v-0.88c0.34,-0.1 0.71,-0.25 1.08,-0.46c0.36,-0.24 0.66,-0.5 0.92,-0.79zM34.9498,146.663c0.71,0 1.29,0.2 1.75,0.61c0.45,0.41 0.69,0.96 0.69,1.63c0,0.66 -0.26,1.27 -0.75,1.81c-0.27,0.27 -0.8,0.69 -1.59,1.23c-0.98,0.66 -1.54,1.25 -1.68,1.77h4.03v0.78h-5.12c0,-0.7 0.25,-1.33 0.77,-1.9c0.3,-0.35 0.85,-0.81 1.66,-1.37c0.61,-0.43 1,-0.74 1.21,-0.96c0.39,-0.42 0.59,-0.88 0.59,-1.37c0,-0.48 -0.14,-0.83 -0.42,-1.09c-0.28,-0.26 -0.68,-0.39 -1.17,-0.39c-0.53,0 -0.94,0.18 -1.22,0.54c-0.3,0.35 -0.46,0.86 -0.47,1.54h-0.88c0,-0.86 0.24,-1.55 0.72,-2.06c0.47,-0.51 1.1,-0.77 1.88,-0.77zM38.5298,148.933h0.94l1.37,4.51l1.29,-4.51h0.81l1.29,4.51l1.37,-4.51h0.94l-1.89,5.56h-0.82l-1.29,-4.47l-1.31,4.47h-0.81zM49.9798,148.783c0.83,0 1.44,0.35 1.85,1.06v-0.91h0.81v7.69h-0.86v-3.14c-0.43,0.78 -1.05,1.16 -1.84,1.16c-0.8,0 -1.42,-0.3 -1.88,-0.88c-0.4,-0.54 -0.61,-1.22 -0.61,-2.03c0,-0.84 0.21,-1.52 0.62,-2.06c0.46,-0.6 1.09,-0.89 1.91,-0.89zM48.7298,150.163c-0.27,0.38 -0.4,0.91 -0.4,1.57c0,0.66 0.14,1.19 0.42,1.58c0.3,0.41 0.77,0.62 1.37,0.62c0.49,0 0.9,-0.2 1.21,-0.59c0.31,-0.4 0.47,-0.91 0.47,-1.56v-0.11c0,-0.62 -0.14,-1.14 -0.41,-1.52c-0.31,-0.45 -0.74,-0.66 -1.3,-0.66c-0.61,0 -1.06,0.21 -1.36,0.67zM53.7598,148.933h0.95l1.36,4.51l1.3,-4.51h0.8l1.29,4.51l1.37,-4.51h0.95l-1.9,5.56h-0.82l-1.29,-4.47l-1.31,4.47h-0.81zM65.4598,146.663c0.8,0 1.43,0.2 1.88,0.62c0.41,0.38 0.63,0.85 0.63,1.41c0,0.41 -0.1,0.76 -0.29,1.04c-0.22,0.3 -0.52,0.52 -0.92,0.66v0.02c0.4,0.1 0.75,0.33 1.02,0.67c0.31,0.37 0.46,0.8 0.46,1.29c0,0.68 -0.24,1.23 -0.71,1.64c-0.5,0.42 -1.19,0.63 -2.07,0.63c-0.89,0 -1.58,-0.21 -2.06,-0.63c-0.48,-0.41 -0.71,-0.96 -0.71,-1.64c0,-0.49 0.15,-0.92 0.45,-1.29c0.28,-0.34 0.61,-0.57 1.02,-0.67v-0.02c-0.41,-0.14 -0.71,-0.36 -0.92,-0.66c-0.19,-0.28 -0.29,-0.63 -0.29,-1.04c0,-0.56 0.21,-1.03 0.63,-1.41c0.45,-0.42 1.07,-0.62 1.88,-0.62zM64.1798,147.803c-0.27,0.24 -0.4,0.55 -0.4,0.93c0,0.38 0.12,0.71 0.36,0.94c0.28,0.28 0.72,0.43 1.32,0.43c0.59,0 1.03,-0.15 1.32,-0.43c0.24,-0.23 0.36,-0.56 0.36,-0.94c0,-0.38 -0.14,-0.69 -0.4,-0.93c-0.31,-0.28 -0.74,-0.42 -1.28,-0.42c-0.55,0 -0.98,0.14 -1.28,0.42zM64.0298,151.253c-0.32,0.28 -0.47,0.66 -0.47,1.12c0,0.45 0.15,0.83 0.47,1.11c0.32,0.29 0.81,0.44 1.43,0.44c0.62,0 1.1,-0.15 1.44,-0.45c0.3,-0.28 0.47,-0.65 0.47,-1.1c0,-0.46 -0.17,-0.84 -0.47,-1.12c-0.34,-0.31 -0.83,-0.46 -1.44,-0.46c-0.62,0 -1.1,0.15 -1.43,0.46zM81.6298,146.833c0.18,0 0.33,0.06 0.46,0.19c0.13,0.1 0.2,0.25 0.2,0.45c0,0.18 -0.07,0.33 -0.2,0.46c-0.13,0.12 -0.28,0.18 -0.46,0.18c-0.18,0 -0.33,-0.06 -0.46,-0.18c-0.13,-0.13 -0.18,-0.28 -0.18,-0.46c0,-0.2 0.05,-0.35 0.18,-0.45c0.13,-0.13 0.28,-0.19 0.46,-0.19zM81.1998,148.933h0.86v5.56h-0.86zM84.0798,148.933h0.86v3.4c0,0.53 0.11,0.92 0.33,1.18c0.23,0.26 0.59,0.4 1.1,0.4c0.37,0 0.7,-0.15 0.99,-0.43c0.3,-0.3 0.48,-0.69 0.55,-1.16v-3.39h0.86v5.56h-0.86v-0.86c-0.45,0.67 -1.06,1.01 -1.81,1.01c-1.35,0 -2.02,-0.76 -2.02,-2.27zM93.0698,146.663c0.91,0 1.6,0.4 2.07,1.22c0.41,0.68 0.62,1.61 0.62,2.77c0,1.16 -0.21,2.09 -0.62,2.78c-0.47,0.8 -1.16,1.21 -2.07,1.21c-0.93,0 -1.62,-0.41 -2.08,-1.21c-0.41,-0.69 -0.61,-1.62 -0.61,-2.78c0,-1.16 0.2,-2.09 0.61,-2.77c0.46,-0.82 1.15,-1.22 2.08,-1.22zM91.5798,148.523c-0.21,0.52 -0.32,1.23 -0.32,2.13c0,0.89 0.11,1.6 0.32,2.13c0.3,0.73 0.8,1.11 1.49,1.11c0.69,0 1.18,-0.38 1.48,-1.11c0.22,-0.53 0.34,-1.24 0.34,-2.13c0,-0.9 -0.12,-1.61 -0.34,-2.13c-0.3,-0.74 -0.79,-1.11 -1.48,-1.11c-0.69,0 -1.19,0.37 -1.49,1.11zM99.8398,146.663c0.9302,0 1.6202,0.34 2.1002,1.03c0.45,0.65 0.68,1.57 0.68,2.76c0,1.22 -0.25,2.21 -0.73,2.99c-0.51,0.79 -1.2,1.2 -2.0602,1.2c-1.43,0 -2.25,-0.69 -2.45,-2.05h0.87c0.16,0.87 0.69,1.31 1.59,1.31c0.5902,0 1.0702,-0.3 1.4202,-0.89c0.33,-0.57 0.51,-1.29 0.51,-2.15c0,-0.06 -0.01,-0.15 -0.01,-0.28h-0.05c-0.19,0.38 -0.47,0.7 -0.83,0.92c-0.34,0.22 -0.74,0.33 -1.1902,0.33c-0.74,0 -1.33,-0.24 -1.79,-0.73c-0.44,-0.46 -0.65,-1.06 -0.65,-1.8c0,-0.77 0.23,-1.39 0.73,-1.89c0.48,-0.5 1.11,-0.75 1.86,-0.75zM98.5898,147.933c-0.32,0.35 -0.47,0.81 -0.47,1.37c0,0.53 0.15,0.97 0.47,1.3c0.31,0.33 0.73,0.5 1.27,0.5c0.5002,0 0.9202,-0.17 1.2602,-0.51c0.32,-0.35 0.5,-0.79 0.5,-1.32c0,-0.53 -0.17,-0.97 -0.48,-1.32c-0.32,-0.36 -0.75,-0.55 -1.2802,-0.55c-0.53,0 -0.95,0.17 -1.27,0.53zM103.93,148.933h4.43v0.6l-3.41,4.24h3.58v0.72h-4.7v-0.62l3.4,-4.22h-3.3zM111.84,148.783c1.37,0 2.13,0.57 2.28,1.73h-0.84c-0.08,-0.34 -0.22,-0.6 -0.43,-0.75c-0.24,-0.17 -0.58,-0.26 -1.02,-0.26c-0.39,0 -0.69,0.06 -0.91,0.22c-0.24,0.14 -0.35,0.33 -0.35,0.58c0,0.23 0.15,0.44 0.47,0.6c0.2,0.1 0.59,0.21 1.15,0.36c0.67,0.17 1.14,0.34 1.43,0.52c0.44,0.28 0.67,0.66 0.67,1.14c0,1.14 -0.79,1.72 -2.36,1.72c-1.46,0 -2.26,-0.64 -2.39,-1.92h0.84c0.07,0.44 0.23,0.75 0.47,0.94c0.23,0.18 0.59,0.26 1.06,0.26c0.99,0 1.5,-0.32 1.5,-0.94c0,-0.32 -0.19,-0.55 -0.53,-0.73c-0.18,-0.08 -0.58,-0.2 -1.18,-0.35c-0.66,-0.16 -1.12,-0.32 -1.38,-0.5c-0.43,-0.25 -0.64,-0.61 -0.64,-1.08c0,-0.48 0.21,-0.84 0.63,-1.12c0.39,-0.28 0.9,-0.42 1.53,-0.42z"></path></g><path id="12wqw8…iu09zs" fill-rule="evenodd" style="fill:#777777" opacity="1" d="M70.87,153.69c0.19,0 0.34,0.05 0.47,0.18c0.12,0.12 0.18,0.27 0.18,0.45c0,0.2 -0.06,0.35 -0.18,0.47c-0.13,0.12 -0.29,0.18 -0.47,0.18c-0.19,0 -0.34,-0.06 -0.46,-0.18c-0.13,-0.13 -0.19,-0.28 -0.19,-0.47c0,-0.18 0.06,-0.33 0.19,-0.45c0.12,-0.13 0.27,-0.18 0.46,-0.18zM74.46,153.69c0.18,0 0.34,0.05 0.47,0.18c0.12,0.12 0.19,0.27 0.19,0.45c0,0.2 -0.07,0.35 -0.19,0.47c-0.13,0.12 -0.29,0.18 -0.47,0.18c-0.18,0 -0.33,-0.06 -0.46,-0.18c-0.13,-0.13 -0.19,-0.28 -0.19,-0.47c0,-0.18 0.06,-0.33 0.19,-0.45c0.13,-0.13 0.28,-0.18 0.46,-0.18zM78.04,153.69c0.18,0 0.34,0.05 0.46,0.18c0.13,0.12 0.2,0.27 0.2,0.45c0,0.2 -0.07,0.35 -0.2,0.47c-0.12,0.12 -0.28,0.18 -0.46,0.18c-0.18,0 -0.33,-0.06 -0.46,-0.18c-0.13,-0.13 -0.18,-0.28 -0.18,-0.47c0,-0.18 0.05,-0.33 0.18,-0.45c0.13,-0.13 0.28,-0.18 0.46,-0.18z"></path><g opacity="1"  transform="translate(124.62051391601562 145.2431640625)  rotate(0)"><path id="形状结合备份 4" fill-rule="evenodd" style="fill:#2F8DE3" opacity="1" d="M9.98571,7.36988v-6.2199c0,-0.19 -0.13,-0.33999 -0.31,-0.37999h-6.22001c-0.19,0 -0.34,0.13 -0.38,0.30999v1.22468h4.22431c0.64,0 1.15,0.52 1.15,1.14999v4.22523h1.1557c0.19,0 0.35,-0.13 0.38,-0.31zM8.45001,8.44987v1.15468c0,0.63995 -0.51,1.14995 -1.15,1.14995h-6.15001c-0.63,0 -1.15,-0.51 -1.15,-1.14995l0,-6.1499c0,-0.62999 0.52,-1.14999 1.15,-1.14999h1.1557v-1.15468c0,-0.59999 0.46,-1.08998 1.04,-1.13998l0.11,-0.01l6.15001,0c0.59999,0 1.08999,0.45999 1.14999,1.03998v6.25991c0,0.59999 -0.45,1.08998 -1.03999,1.14998zM7.68571,8.06987c0,-0.01709 0.00105,-0.03395 0.0031,-0.05048v-4.56564c0,-0.21 -0.18,-0.38 -0.39,-0.38h-4.49837c-0.03609,0.01054 -0.07458,0.0162 -0.11474,0.0162c-0.03749,0 -0.07412,-0.00564 -0.10889,-0.0162h-1.42801c-0.21,0 -0.38,0.17 -0.38,0.38v6.1499c0,0.21 0.17,0.38999 0.38,0.38999h6.15001c0.21,0 0.39,-0.17999 0.39,-0.38999v-1.48497c-0.00205,-0.01598 -0.0031,-0.03227 -0.0031,-0.04881z"></path></g><g opacity="1"  transform="translate(223.59103393554688 31.1123046875)  rotate(0)"><path id="形状结合" fill-rule="evenodd" style="fill:#FFFFFF" opacity="1" d="M4.53948,8.77268l-0.20504,0.20504c-0.21381,0.21381 -0.53148,0.26991 -0.79982,0.1683c-0.09649,-0.0361 -0.18669,-0.09255 -0.26348,-0.16934l-0.20504,-0.20504c-0.00999,-0.00999 -0.01964,-0.02021 -0.02894,-0.03064l-2.50692,-2.50692c-0.28992,-0.28991 -0.28994,-0.77073 -0.00005,-1.06061l0.20504,-0.20504c0.28988,-0.28989 0.77069,-0.28986 1.06061,0.00005l2.00643,2.00643l3.90959,-3.9096c0.28991,-0.28991 0.77072,-0.28993 1.06061,-0.00005l0.20504,0.20504c0.28989,0.28989 0.28986,0.7707 -0.00005,1.06061l-4.39542,4.39542c-0.01341,0.01593 -0.0276,0.03139 -0.04256,0.04635z"></path></g><path id="矩形备份 144" fill-rule="evenodd" style="fill:#F7F7F8" opacity="1" d="M27.9309 278.829L232.071 278.829C237.591 278.829 242.071 274.349 242.071 268.829L242.071 208.139C242.071 202.619 237.591 198.139 232.071 198.139L27.9309 198.139C22.4109 198.139 17.9309 202.619 17.9309 208.139L17.9309 268.829C17.9309 274.349 22.4109 278.829 27.9309 278.829Z"></path><path id="87293 SWTC" fill-rule="evenodd" style="fill:#232323" opacity="1" d="M199.6,258.71c1.04,0 1.86,0.21 2.45,0.67c0.63,0.46 0.98,1.18 1.06,2.15h-1.35c-0.13,-0.57 -0.35,-1 -0.7,-1.25c-0.36,-0.26 -0.86,-0.39 -1.54,-0.39c-0.59,0 -1.04,0.09 -1.35,0.26c-0.39,0.2 -0.58,0.53 -0.58,0.98c0,0.4 0.22,0.72 0.67,0.96c0.2,0.11 0.71,0.3 1.55,0.55c1.21,0.38 2,0.66 2.35,0.88c0.77,0.46 1.16,1.1 1.16,1.93c0,0.8 -0.32,1.43 -0.95,1.9c-0.62,0.45 -1.5,0.67 -2.63,0.67c-1.09,0 -1.95,-0.22 -2.56,-0.65c-0.74,-0.53 -1.14,-1.35 -1.22,-2.48h1.36c0.1,0.7 0.35,1.21 0.75,1.51c0.36,0.28 0.91,0.42 1.67,0.42c0.68,0 1.22,-0.13 1.62,-0.35c0.4,-0.23 0.6,-0.54 0.6,-0.94c0,-0.51 -0.29,-0.9 -0.85,-1.18c-0.2,-0.1 -0.79,-0.31 -1.79,-0.61c-1.1,-0.35 -1.78,-0.59 -2.05,-0.74c-0.69,-0.41 -1.03,-1.01 -1.03,-1.79c0,-0.79 0.32,-1.41 0.99,-1.86c0.63,-0.43 1.42,-0.64 2.37,-0.64zM203.77,258.89h1.54l1.75,6.97h0.05l1.83,-6.97h1.43l1.83,6.97h0.05l1.75,-6.97h1.54l-2.58,8.96h-1.46l-1.82,-6.92h-0.05l-1.82,6.92h-1.47zM215.79,258.89h7.34v1.16h-2.98v7.8h-1.36v-7.8h-3zM228.1,258.71c1.05,0 1.91,0.26 2.59,0.82c0.65,0.52 1.05,1.25 1.19,2.15h-1.33c-0.15,-0.6 -0.44,-1.05 -0.86,-1.34c-0.43,-0.29 -0.96,-0.43 -1.61,-0.43c-0.97,0 -1.69,0.33 -2.18,1c-0.47,0.6 -0.69,1.43 -0.69,2.47c0,1.08 0.22,1.91 0.67,2.5c0.48,0.62 1.22,0.94 2.22,0.94c0.66,0 1.21,-0.16 1.64,-0.49c0.45,-0.35 0.76,-0.88 0.94,-1.58h1.33c-0.2,1.04 -0.67,1.86 -1.41,2.45c-0.69,0.55 -1.52,0.82 -2.48,0.82c-1.47,0 -2.58,-0.47 -3.32,-1.4c-0.65,-0.81 -0.96,-1.89 -0.96,-3.24c0,-1.33 0.32,-2.41 1,-3.25c0.75,-0.96 1.83,-1.42 3.26,-1.42z"></path><path id="87293 SWTC" fill-rule="evenodd" style="fill:#232323" opacity="1" d="M199.6,169c1.04,0 1.86,0.21 2.45,0.67c0.63,0.46 0.98,1.18 1.06,2.15h-1.35c-0.13,-0.57 -0.35,-1 -0.7,-1.25c-0.36,-0.26 -0.86,-0.39 -1.54,-0.39c-0.59,0 -1.04,0.09 -1.35,0.26c-0.39,0.2 -0.58,0.53 -0.58,0.98c0,0.4 0.22,0.72 0.67,0.96c0.2,0.11 0.71,0.3 1.55,0.55c1.21,0.38 2,0.66 2.35,0.88c0.77,0.46 1.16,1.1 1.16,1.93c0,0.8 -0.32,1.43 -0.95,1.9c-0.62,0.45 -1.5,0.67 -2.63,0.67c-1.09,0 -1.95,-0.22 -2.56,-0.65c-0.74,-0.53 -1.14,-1.35 -1.22,-2.48h1.36c0.1,0.7 0.35,1.21 0.75,1.51c0.36,0.28 0.91,0.42 1.67,0.42c0.68,0 1.22,-0.13 1.62,-0.35c0.4,-0.23 0.6,-0.54 0.6,-0.94c0,-0.51 -0.29,-0.9 -0.85,-1.18c-0.2,-0.1 -0.79,-0.31 -1.79,-0.61c-1.1,-0.35 -1.78,-0.59 -2.05,-0.74c-0.69,-0.41 -1.03,-1.01 -1.03,-1.79c0,-0.79 0.32,-1.41 0.99,-1.86c0.63,-0.43 1.42,-0.64 2.37,-0.64zM203.77,169.18h1.54l1.75,6.97h0.05l1.83,-6.97h1.43l1.83,6.97h0.05l1.75,-6.97h1.54l-2.58,8.96h-1.46l-1.82,-6.92h-0.05l-1.82,6.92h-1.47zM215.79,169.18h7.34v1.16h-2.98v7.8h-1.36v-7.8h-3zM228.1,169c1.05,0 1.91,0.26 2.59,0.82c0.65,0.52 1.05,1.25 1.19,2.15h-1.33c-0.15,-0.6 -0.44,-1.05 -0.86,-1.34c-0.43,-0.29 -0.96,-0.43 -1.61,-0.43c-0.97,0 -1.69,0.33 -2.18,1c-0.47,0.6 -0.69,1.43 -0.69,2.47c0,1.08 0.22,1.91 0.67,2.5c0.48,0.62 1.22,0.94 2.22,0.94c0.66,0 1.21,-0.16 1.64,-0.49c0.45,-0.35 0.76,-0.88 0.94,-1.58h1.33c-0.2,1.04 -0.67,1.86 -1.41,2.45c-0.69,0.55 -1.52,0.82 -2.48,0.82c-1.47,0 -2.58,-0.47 -3.32,-1.4c-0.65,-0.81 -0.96,-1.89 -0.96,-3.24c0,-1.33 0.32,-2.41 1,-3.25c0.75,-0.96 1.83,-1.42 3.26,-1.42z"></path><g id="拼合图形" filter="url(#filter_30)"><path id="拼合图形" fill-rule="evenodd" style="fill:#777777" opacity="1" d="M89.65,237.31c0.45,-0.42 1.07,-0.62 1.88,-0.62c0.8,0 1.43,0.2 1.88,0.62c0.41,0.38 0.63,0.85 0.63,1.41c0,0.41 -0.1,0.76 -0.29,1.04c-0.22,0.3 -0.52,0.52 -0.92,0.66v0.02c0.4,0.1 0.74,0.33 1.02,0.67c0.31,0.37 0.46,0.8 0.46,1.29c0,0.68 -0.24,1.23 -0.71,1.64c-0.5,0.42 -1.19,0.63 -2.07,0.63c-0.89,0 -1.58,-0.21 -2.07,-0.63c-0.47,-0.41 -0.71,-0.96 -0.71,-1.64c0,-0.49 0.15,-0.92 0.46,-1.29c0.28,-0.34 0.61,-0.57 1.02,-0.67v-0.02c-0.41,-0.14 -0.71,-0.36 -0.92,-0.66c-0.19,-0.28 -0.29,-0.63 -0.29,-1.04c0,-0.56 0.21,-1.03 0.63,-1.41zM101.14,237.46c0.47,-0.51 1.1,-0.77 1.88,-0.77c0.71,0 1.29,0.2 1.75,0.61c0.45,0.41 0.69,0.96 0.69,1.63c0,0.66 -0.26,1.27 -0.75,1.81c-0.27,0.27 -0.8,0.69 -1.59,1.23c-0.98,0.66 -1.54,1.25 -1.68,1.77h4.03v0.78h-5.12c0,-0.7 0.25,-1.33 0.77,-1.9c0.3,-0.35 0.85,-0.81 1.66,-1.37c0.61,-0.43 1,-0.74 1.21,-0.96c0.39,-0.42 0.59,-0.88 0.59,-1.37c0,-0.48 -0.14,-0.83 -0.42,-1.09c-0.28,-0.26 -0.68,-0.39 -1.17,-0.39c-0.53,0 -0.94,0.18 -1.22,0.54c-0.3,0.35 -0.46,0.86 -0.47,1.54h-0.88c0,-0.86 0.24,-1.55 0.72,-2.06zM96.52,237.63c0.36,-0.24 0.66,-0.5 0.92,-0.79h0.69v7.68h-0.88v-6.6c-0.49,0.49 -1.09,0.84 -1.81,1.05v-0.88c0.34,-0.1 0.71,-0.25 1.08,-0.46zM89.85,238.76c0,0.38 0.12,0.71 0.36,0.94c0.28,0.28 0.72,0.43 1.32,0.43c0.59,0 1.03,-0.15 1.32,-0.43c0.24,-0.23 0.36,-0.56 0.36,-0.94c0,-0.38 -0.14,-0.69 -0.4,-0.93c-0.31,-0.28 -0.74,-0.42 -1.28,-0.42c-0.55,0 -0.98,0.14 -1.28,0.42c-0.27,0.24 -0.4,0.55 -0.4,0.93zM74.14,239.7c0.46,-0.6 1.09,-0.89 1.91,-0.89c0.83,0 1.44,0.35 1.85,1.06v-0.91h0.81v7.69h-0.87v-3.14c-0.43,0.78 -1.04,1.16 -1.83,1.16c-0.8,0 -1.42,-0.3 -1.88,-0.88c-0.41,-0.54 -0.61,-1.22 -0.61,-2.03c0,-0.84 0.2,-1.52 0.62,-2.06zM81.72,244.52l-1.89,-5.56h0.95l1.36,4.51l1.29,-4.51h0.81l1.29,4.51l1.37,-4.51h0.95l-1.9,5.56h-0.82l-1.29,-4.47l-1.31,4.47zM108.49,244.52l-1.89,-5.56h0.94l1.37,4.51l1.29,-4.51h0.81l1.29,4.51l1.37,-4.51h0.94l-1.89,5.56h-0.82l-1.29,-4.47l-1.31,4.47zM74.4,241.76c0,0.66 0.14,1.19 0.42,1.58c0.3,0.41 0.77,0.62 1.37,0.62c0.49,0 0.9,-0.2 1.21,-0.59c0.31,-0.4 0.47,-0.91 0.47,-1.56v-0.11c0,-0.62 -0.14,-1.14 -0.41,-1.52c-0.31,-0.45 -0.74,-0.66 -1.3,-0.66c-0.61,0 -1.06,0.21 -1.36,0.67c-0.27,0.38 -0.4,0.91 -0.4,1.57zM89.63,242.4c0,0.45 0.15,0.83 0.47,1.11c0.32,0.29 0.81,0.44 1.43,0.44c0.62,0 1.1,-0.15 1.44,-0.45c0.3,-0.28 0.46,-0.65 0.46,-1.1c0,-0.46 -0.16,-0.84 -0.46,-1.12c-0.34,-0.31 -0.83,-0.46 -1.44,-0.46c-0.62,0 -1.1,0.15 -1.43,0.46c-0.32,0.28 -0.47,0.66 -0.47,1.12z"></path></g><g id="12wqw8…iu09zs" filter="url(#filter_32)"><path id="12wqw8…iu09zs" fill-rule="evenodd" style="fill:#777777" opacity="1" d="M27.71,236.68c0.18,0 0.33,0.06 0.46,0.19c0.13,0.1 0.19,0.25 0.19,0.45c0,0.18 -0.06,0.33 -0.19,0.46c-0.13,0.12 -0.28,0.18 -0.46,0.18c-0.19,0 -0.34,-0.06 -0.47,-0.18c-0.13,-0.13 -0.18,-0.28 -0.18,-0.46c0,-0.2 0.05,-0.35 0.18,-0.45c0.13,-0.13 0.28,-0.19 0.47,-0.19zM27.28,238.78h0.86v5.56h-0.86zM30.15,238.78h0.86v3.4c0,0.53 0.11,0.92 0.34,1.18c0.22,0.26 0.59,0.4 1.09,0.4c0.37,0 0.7,-0.15 0.99,-0.43c0.31,-0.3 0.49,-0.69 0.55,-1.16v-3.39h0.86v5.56h-0.86v-0.86c-0.45,0.67 -1.05,1.01 -1.8,1.01c-1.36,0 -2.03,-0.76 -2.03,-2.27zM39.14,236.51c0.92,0 1.6,0.4 2.08,1.22c0.41,0.68 0.61,1.61 0.61,2.77c0,1.16 -0.2,2.09 -0.61,2.78c-0.48,0.8 -1.16,1.21 -2.08,1.21c-0.92,0 -1.61,-0.41 -2.07,-1.21c-0.41,-0.69 -0.62,-1.62 -0.62,-2.78c0,-1.16 0.21,-2.09 0.62,-2.77c0.46,-0.82 1.15,-1.22 2.07,-1.22zM37.66,238.37c-0.22,0.52 -0.33,1.23 -0.33,2.13c0,0.89 0.11,1.6 0.33,2.13c0.3,0.73 0.79,1.11 1.48,1.11c0.69,0 1.19,-0.38 1.49,-1.11c0.21,-0.53 0.33,-1.24 0.33,-2.13c0,-0.9 -0.12,-1.61 -0.33,-2.13c-0.3,-0.74 -0.8,-1.11 -1.49,-1.11c-0.69,0 -1.18,0.37 -1.48,1.11zM45.91,236.51c0.93,0 1.63,0.34 2.1,1.03c0.45,0.65 0.68,1.57 0.68,2.76c0,1.22 -0.25,2.21 -0.72,2.99c-0.52,0.79 -1.21,1.2 -2.07,1.2c-1.43,0 -2.24,-0.69 -2.45,-2.05h0.87c0.16,0.87 0.69,1.31 1.59,1.31c0.6,0 1.07,-0.3 1.42,-0.89c0.34,-0.57 0.51,-1.29 0.51,-2.15c0,-0.06 -0.01,-0.15 -0.01,-0.28h-0.04c-0.2,0.38 -0.48,0.7 -0.83,0.92c-0.35,0.22 -0.74,0.33 -1.2,0.33c-0.74,0 -1.33,-0.24 -1.78,-0.73c-0.44,-0.46 -0.66,-1.06 -0.66,-1.8c0,-0.77 0.24,-1.39 0.73,-1.89c0.49,-0.5 1.11,-0.75 1.86,-0.75zM44.67,237.78c-0.33,0.35 -0.48,0.81 -0.48,1.37c0,0.53 0.15,0.97 0.48,1.3c0.31,0.33 0.73,0.5 1.27,0.5c0.49,0 0.91,-0.17 1.25,-0.51c0.33,-0.35 0.5,-0.79 0.5,-1.32c0,-0.53 -0.16,-0.97 -0.47,-1.32c-0.33,-0.36 -0.76,-0.55 -1.28,-0.55c-0.53,0 -0.95,0.17 -1.27,0.53zM50.01,238.78h4.42v0.6l-3.41,4.24h3.58v0.72h-4.7v-0.62l3.4,-4.22h-3.29zM57.91,238.63c1.38,0 2.13,0.57 2.28,1.73h-0.84c-0.07,-0.34 -0.21,-0.6 -0.43,-0.75c-0.24,-0.17 -0.58,-0.26 -1.02,-0.26c-0.39,0 -0.69,0.06 -0.9,0.22c-0.24,0.14 -0.36,0.33 -0.36,0.58c0,0.23 0.15,0.44 0.47,0.6c0.21,0.1 0.6,0.21 1.16,0.36c0.66,0.17 1.14,0.34 1.43,0.52c0.44,0.28 0.66,0.66 0.66,1.14c0,1.14 -0.78,1.72 -2.35,1.72c-1.47,0 -2.26,-0.64 -2.39,-1.92h0.84c0.06,0.44 0.22,0.75 0.46,0.94c0.24,0.18 0.59,0.26 1.07,0.26c0.99,0 1.49,-0.32 1.49,-0.94c0,-0.32 -0.18,-0.55 -0.53,-0.73c-0.18,-0.08 -0.58,-0.2 -1.18,-0.35c-0.66,-0.16 -1.12,-0.32 -1.38,-0.5c-0.43,-0.25 -0.63,-0.61 -0.63,-1.08c0,-0.48 0.2,-0.84 0.62,-1.12c0.39,-0.28 0.91,-0.42 1.53,-0.42z"></path></g><path id="12wqw8…iu09zs" fill-rule="evenodd" style="fill:#777777" opacity="1" d="M63.94,243.54c0.19,0 0.34,0.05 0.47,0.18c0.12,0.12 0.18,0.27 0.18,0.45c0,0.2 -0.06,0.35 -0.18,0.47c-0.13,0.12 -0.29,0.18 -0.47,0.18c-0.19,0 -0.34,-0.06 -0.46,-0.18c-0.13,-0.13 -0.19,-0.28 -0.19,-0.47c0,-0.18 0.06,-0.33 0.19,-0.45c0.12,-0.13 0.27,-0.18 0.46,-0.18zM67.53,243.54c0.18,0 0.34,0.05 0.47,0.18c0.12,0.12 0.19,0.27 0.19,0.45c0,0.2 -0.07,0.35 -0.19,0.47c-0.13,0.12 -0.29,0.18 -0.47,0.18c-0.18,0 -0.33,-0.06 -0.46,-0.18c-0.13,-0.13 -0.19,-0.28 -0.19,-0.47c0,-0.18 0.06,-0.33 0.19,-0.45c0.13,-0.13 0.28,-0.18 0.46,-0.18zM71.11,243.54c0.18,0 0.34,0.05 0.46,0.18c0.13,0.12 0.2,0.27 0.2,0.45c0,0.2 -0.07,0.35 -0.2,0.47c-0.12,0.12 -0.28,0.18 -0.46,0.18c-0.18,0 -0.33,-0.06 -0.46,-0.18c-0.13,-0.13 -0.18,-0.28 -0.18,-0.47c0,-0.18 0.05,-0.33 0.18,-0.45c0.13,-0.13 0.28,-0.18 0.46,-0.18z"></path><path id="我的井通链转账钱包" fill-rule="evenodd" style="fill:#232323" opacity="1" d="M31.3048,210.735h1.47v6.06c0,1.03 -0.22,1.78 -0.64,2.28c-0.48,0.53 -1.23,0.79 -2.28,0.79c-0.9,0 -1.59,-0.25 -2.05,-0.75c-0.48,-0.5 -0.72,-1.19 -0.72,-2.07v-0.29h1.47v0.28c0,1.03 0.44,1.54 1.33,1.54c0.49,0 0.85,-0.15 1.08,-0.44c0.22,-0.29 0.34,-0.75 0.34,-1.39zM35.8348,210.555c0.28,0 0.52,0.09 0.71,0.26c0.17,0.18 0.27,0.41 0.27,0.68c0,0.28 -0.1,0.52 -0.28,0.69c-0.19,0.18 -0.42,0.27 -0.7,0.27c-0.27,0 -0.5,-0.09 -0.69,-0.27c-0.18,-0.19 -0.27,-0.41 -0.27,-0.69c0,-0.27 0.09,-0.5 0.27,-0.68c0.19,-0.17 0.42,-0.26 0.69,-0.26zM35.1248,213.205h1.43v6.49h-1.43zM42.1448,213.025c1.62,0 2.44,0.88 2.44,2.66v4.01h-1.43v-3.88c0,-1.07 -0.49,-1.59 -1.47,-1.59c-0.35,0 -0.67,0.12 -0.93,0.37c-0.3,0.28 -0.48,0.68 -0.53,1.19v3.91h-1.43v-6.49h1.43v0.75c0.25,-0.3 0.54,-0.54 0.86,-0.69c0.32,-0.16 0.67,-0.24 1.06,-0.24zM49.2548,213.025c0.81,0 1.45,0.32 1.92,0.97v-0.79h1.43v6.07c0,2.049 -1.01,3.079 -3.05,3.079c-0.91,0 -1.6,-0.18 -2.08,-0.5c-0.48,-0.35 -0.78,-0.879 -0.9,-1.609h1.43c0.07,0.36 0.22,0.62 0.46,0.769c0.23,0.131 0.59,0.211 1.09,0.211c1.08,0 1.62,-0.58 1.62,-1.73v-0.96c-0.47,0.67 -1.11,1.01 -1.92,1.01c-0.88,0 -1.59,-0.3 -2.13,-0.88c-0.55,-0.59 -0.82,-1.38 -0.82,-2.36c0,-0.98 0.27,-1.77 0.82,-2.37c0.54,-0.61 1.25,-0.91 2.13,-0.91zM48.2248,214.745c-0.3,0.37 -0.45,0.88 -0.45,1.56c0,0.61 0.11,1.09 0.35,1.44c0.28,0.42 0.72,0.63 1.35,0.63c0.55,0 0.98,-0.19 1.28,-0.54c0.28,-0.38 0.44,-0.88 0.44,-1.53c0,-0.67 -0.16,-1.18 -0.44,-1.56c-0.3,-0.37 -0.73,-0.56 -1.27,-0.56c-0.54,0 -0.96,0.19 -1.26,0.56zM56.6148,211.105v2.1h1.45v1.18h-1.45v3.66c0,0.15 0.03,0.27 0.1,0.35c0.08,0.08 0.18,0.12 0.33,0.12h0.85v1.18h-1.09c-0.56,0 -0.98,-0.15 -1.24,-0.45c-0.25,-0.28 -0.38,-0.67 -0.38,-1.2v-3.66h-1.16v-1.18h1.16v-1.51zM59.6048,213.205h1.43v3.95c0,0.53 0.1,0.91 0.32,1.16c0.23,0.24 0.58,0.36 1.08,0.36c0.32,0 0.62,-0.14 0.91,-0.4c0.28,-0.28 0.5,-0.64 0.62,-1.11v-3.96h1.43v6.49h-1.43v-0.84c-0.55,0.67 -1.23,1.01 -2.03,1.01c-1.56,0 -2.33,-0.88 -2.33,-2.62zM70.5648,213.025c0.95,0 1.63,0.35 2.05,1.06c0.3,-0.4 0.61,-0.68 0.94,-0.83c0.29,-0.15 0.65,-0.23 1.09,-0.23c0.66,0 1.22,0.22 1.67,0.67c0.42,0.45 0.65,1.03 0.65,1.74v4.26h-1.43v-4.01c0,-0.51 -0.11,-0.89 -0.33,-1.11c-0.22,-0.24 -0.57,-0.35 -1.08,-0.35c-0.35,0 -0.64,0.12 -0.87,0.4c-0.26,0.26 -0.37,0.62 -0.37,1.1v3.97h-1.43v-3.99c0,-1 -0.43,-1.48 -1.28,-1.48c-0.41,0 -0.74,0.15 -0.99,0.47c-0.25,0.3 -0.38,0.68 -0.38,1.11v3.89h-1.43v-6.49h1.43v0.66c0.54,-0.56 1.13,-0.84 1.76,-0.84zM82.9048,213.205h1.58l1.29,4.79l1.28,-4.79h1.32l1.28,4.79l1.29,-4.79h1.58l-2.18,6.49h-1.33l-1.29,-4.75l-1.31,4.75h-1.33zM96.7648,213.025c0.95,0 1.67,0.24 2.12,0.72c0.4,0.41 0.6,1.01 0.6,1.81v4.14h-1.33v-0.86c-0.25,0.33 -0.56,0.57 -0.92,0.74c-0.42,0.19 -0.91,0.29 -1.47,0.29c-0.68,0 -1.21,-0.17 -1.6,-0.51c-0.4,-0.35 -0.6,-0.79 -0.6,-1.33c0,-0.73 0.28,-1.29 0.85,-1.68c0.53,-0.38 1.27,-0.58 2.23,-0.61l1.41,-0.03v-0.25c0,-0.86 -0.46,-1.27 -1.39,-1.27c-0.4,0 -0.71,0.06 -0.95,0.21c-0.28,0.16 -0.47,0.42 -0.54,0.75l-1.42,-0.11c0.14,-0.71 0.49,-1.24 1.05,-1.57c0.48,-0.3 1.13,-0.44 1.96,-0.44zM96.7448,216.765c-1.15,0.03 -1.71,0.43 -1.71,1.21c0,0.22 0.09,0.41 0.29,0.56c0.2,0.15 0.45,0.24 0.76,0.24c0.56,0 1.02,-0.16 1.4,-0.48c0.37,-0.32 0.57,-0.74 0.57,-1.24v-0.32zM101.595,210.555h1.43v9.14h-1.43zM105.255,210.555h1.43v9.14h-1.43zM111.545,213.025c1.07,0 1.88,0.35 2.45,1.08c0.51,0.65 0.78,1.57 0.78,2.74h-4.86c0.05,0.6 0.21,1.07 0.49,1.38c0.27,0.31 0.68,0.48 1.19,0.48c0.44,0 0.79,-0.1 1.07,-0.31c0.21,-0.16 0.4,-0.42 0.58,-0.79h1.43c-0.15,0.61 -0.46,1.12 -0.91,1.52c-0.58,0.49 -1.29,0.74 -2.16,0.74c-0.96,0 -1.73,-0.3 -2.29,-0.89c-0.61,-0.61 -0.91,-1.45 -0.91,-2.53c0,-0.97 0.28,-1.77 0.86,-2.43c0.55,-0.66 1.31,-0.99 2.28,-0.99zM110.465,214.595c-0.26,0.27 -0.44,0.65 -0.53,1.17h3.34c-0.12,-1.06 -0.69,-1.57 -1.69,-1.57c-0.48,0 -0.84,0.13 -1.12,0.4zM118.405,211.105v2.1h1.44v1.18h-1.44v3.66c0,0.15 0.03,0.27 0.1,0.35c0.08,0.08 0.18,0.12 0.33,0.12h0.85v1.18h-1.09c-0.57,0 -0.98,-0.15 -1.24,-0.45c-0.26,-0.28 -0.38,-0.67 -0.38,-1.2v-3.66h-1.17v-1.18h1.17v-1.51z"></path><g id="拼合图形" filter="url(#filter_36)"><path id="拼合图形" fill-rule="evenodd" style="fill:#232323" opacity="1" d="M156.89,259.88c0.6,-0.59 1.34,-0.88 2.24,-0.88c1.09,0 1.92,0.39 2.49,1.19c0.56,0.77 0.84,1.83 0.84,3.22c0,1.45 -0.3,2.63 -0.89,3.54c-0.61,0.9 -1.43,1.36 -2.46,1.36c-1.74,0 -2.72,-0.81 -2.95,-2.43h1.33c0.18,0.86 0.73,1.3 1.64,1.3c0.61,0 1.1,-0.31 1.48,-0.91c0.35,-0.58 0.54,-1.31 0.54,-2.17c0,-0.05 -0.02,-0.1 -0.02,-0.17h-0.05c-0.25,0.39 -0.57,0.68 -0.95,0.88c-0.36,0.18 -0.78,0.28 -1.24,0.28c-0.88,0 -1.6,-0.29 -2.12,-0.86c-0.52,-0.55 -0.77,-1.26 -0.77,-2.14c0,-0.91 0.29,-1.63 0.89,-2.21zM164.7,259.74c0.55,-0.5 1.27,-0.74 2.14,-0.74c0.91,0 1.62,0.21 2.18,0.65c0.52,0.44 0.8,1.04 0.8,1.81c0,0.98 -0.5,1.64 -1.48,1.97c0.53,0.16 0.93,0.42 1.2,0.74c0.3,0.34 0.46,0.78 0.46,1.31c0,0.83 -0.29,1.5 -0.86,2.03c-0.6,0.53 -1.39,0.8 -2.35,0.8c-0.91,0 -1.65,-0.24 -2.2,-0.7c-0.63,-0.53 -0.98,-1.29 -1.06,-2.3h1.38c0.03,0.61 0.22,1.07 0.59,1.4c0.33,0.3 0.75,0.45 1.28,0.45c0.58,0 1.04,-0.18 1.4,-0.5c0.3,-0.3 0.46,-0.67 0.46,-1.12c0,-0.53 -0.16,-0.92 -0.49,-1.17c-0.3,-0.25 -0.75,-0.37 -1.34,-0.37h-0.66v-1.03h0.64c0.56,0 0.97,-0.13 1.25,-0.37c0.27,-0.24 0.42,-0.59 0.42,-1.04c0,-0.45 -0.13,-0.79 -0.39,-1.03c-0.27,-0.25 -0.69,-0.36 -1.21,-0.36c-0.54,0 -0.97,0.14 -1.27,0.41c-0.3,0.28 -0.49,0.69 -0.54,1.24h-1.34c0.07,-0.89 0.4,-1.58 0.99,-2.08zM172.45,259.75c0.55,-0.5 1.31,-0.75 2.27,-0.75c0.95,0 1.71,0.25 2.27,0.75c0.5,0.45 0.75,1.02 0.75,1.69c0,0.46 -0.1,0.85 -0.3,1.16c-0.22,0.34 -0.56,0.59 -1.01,0.77v0.04c0.42,0.1 0.8,0.35 1.1,0.75c0.35,0.43 0.53,0.92 0.53,1.48c0,0.79 -0.29,1.43 -0.87,1.93c-0.59,0.49 -1.42,0.74 -2.47,0.74c-1.07,0 -1.9,-0.25 -2.47,-0.74c-0.58,-0.5 -0.87,-1.14 -0.87,-1.93c0,-0.56 0.18,-1.05 0.53,-1.48c0.3,-0.4 0.66,-0.65 1.1,-0.75v-0.04c-0.45,-0.18 -0.79,-0.43 -1.01,-0.77c-0.21,-0.31 -0.31,-0.7 -0.31,-1.16c0,-0.67 0.25,-1.24 0.76,-1.69zM186.99,259.97c0.58,-0.66 1.36,-0.97 2.31,-0.97c0.86,0 1.57,0.24 2.13,0.74c0.53,0.5 0.81,1.14 0.81,1.93c0,0.78 -0.3,1.48 -0.88,2.12c-0.35,0.37 -0.96,0.85 -1.86,1.45c-0.96,0.64 -1.54,1.2 -1.73,1.69h4.48v1.21h-6.17c0,-0.89 0.29,-1.67 0.89,-2.35c0.33,-0.39 1,-0.93 2.02,-1.63c0.6,-0.43 1.03,-0.77 1.28,-1.03c0.4,-0.45 0.62,-0.94 0.62,-1.47c0,-0.5 -0.14,-0.88 -0.42,-1.13c-0.27,-0.25 -0.69,-0.38 -1.22,-0.38c-0.56,0 -0.99,0.19 -1.28,0.58c-0.3,0.38 -0.45,0.92 -0.47,1.65h-1.37c0.01,-1.01 0.3,-1.81 0.86,-2.41zM178.87,260.42v-1.24h6.03v1.1l-3.18,7.86h-1.45l3.25,-7.72zM172.97,261.49c0,0.42 0.12,0.76 0.36,1.01c0.28,0.3 0.75,0.45 1.39,0.45c0.63,0 1.09,-0.15 1.39,-0.45c0.23,-0.25 0.35,-0.59 0.35,-1.01c0,-0.38 -0.15,-0.71 -0.42,-0.96c-0.33,-0.3 -0.77,-0.44 -1.32,-0.44c-0.55,0 -0.99,0.14 -1.32,0.44c-0.29,0.25 -0.43,0.58 -0.43,0.96zM157.34,262.09c0,0.58 0.17,1.03 0.51,1.37c0.31,0.35 0.75,0.52 1.31,0.52c0.56,0 1.01,-0.17 1.33,-0.52c0.33,-0.36 0.49,-0.83 0.49,-1.41c0,-0.59 -0.17,-1.05 -0.5,-1.39c-0.34,-0.35 -0.78,-0.53 -1.3,-0.53c-0.56,0 -1.01,0.18 -1.33,0.55c-0.34,0.37 -0.51,0.83 -0.51,1.41zM172.74,265.64c0,0.46 0.16,0.84 0.51,1.13c0.34,0.29 0.83,0.44 1.47,0.44c0.63,0 1.13,-0.15 1.49,-0.44c0.33,-0.29 0.49,-0.67 0.49,-1.13c0,-0.5 -0.16,-0.89 -0.49,-1.18c-0.35,-0.33 -0.84,-0.49 -1.49,-0.49c-0.65,0 -1.16,0.15 -1.48,0.48c-0.34,0.3 -0.5,0.69 -0.5,1.19z"></path></g><g opacity="1"  transform="translate(123.6199951171875 234.89990234375)  rotate(0)"><path id="形状结合备份 4" fill-rule="evenodd" style="fill:#2F8DE3" opacity="1" d="M8.45001,7.67998h1.1553c0.19,0 0.35,-0.13 0.38,-0.31v-6.2199c0,-0.19 -0.13,-0.33999 -0.31,-0.37999h-6.22001c-0.19,0 -0.34,0.13 -0.38,0.30999v1.22468h4.22471c0.64,0 1.15,0.52 1.15,1.14999zM8.45001,9.60465c0,0.63995 -0.51,1.14995 -1.15,1.14995h-6.15001c-0.63,0 -1.15,-0.51 -1.15,-1.14995l0,-6.1499c0,-0.62999 0.52,-1.14999 1.15,-1.14999h1.1553v-1.15468c0,-0.59999 0.46,-1.08998 1.04,-1.13998l0.11,-0.01l6.15001,0c0.59999,0 1.08999,0.45999 1.14999,1.03998v6.2599c0,0.6 -0.45,1.08999 -1.03999,1.14999h-1.2653zM7.68851,3.45385c0,-0.21 -0.18,-0.38 -0.39,-0.38h-4.49847c-0.03609,0.01054 -0.07458,0.0162 -0.11474,0.0162c-0.03749,0 -0.07412,-0.00564 -0.10889,-0.0162h-1.42791c-0.21,0 -0.38,0.17 -0.38,0.38v6.1499c0,0.21 0.17,0.38999 0.38,0.38999h6.15001c0.21,0 0.39,-0.17999 0.39,-0.38999v-1.48419c-0.00211,-0.01623 -0.0032,-0.03278 -0.0032,-0.04959c0,-0.01737 0.00109,-0.0345 0.0032,-0.05129z"></path></g><path  id="矩形备份 17" style="fill:#2F8DE3; opacity:1;" d="M76.2059,338.396h107.5901c9.626,0 17.43,-7.804 17.43,-17.43c0,-9.626 -7.804,-17.43 -17.43,-17.43h-107.5901c-9.6263,0 -17.43,7.804 -17.43,17.43c0,9.626 7.8037,17.43 17.43,17.43zM76.2059,339.396c-10.1786,0 -18.43,-8.251 -18.43,-18.43c0,-10.179 8.2514,-18.43 18.43,-18.43h107.5901c10.178,0 18.43,8.251 18.43,18.43c0,10.179 -8.252,18.43 -18.43,18.43z"></path><path id="下一步" fill-rule="evenodd" style="fill:#2F8DE3" opacity="1" d="M93.3346,316.348h3.28c1.45,0 2.54,0.4 3.3,1.2c0.7104,0.75 1.0804,1.85 1.0804,3.28c0,1.42 -0.37,2.51 -1.0804,3.27c-0.76,0.81 -1.85,1.21 -3.3,1.21h-3.28zM94.8046,324.048h1.53c1.12,0 1.93,-0.26 2.45,-0.78c0.5,-0.52 0.75,-1.34 0.75,-2.44c0,-1.13 -0.25,-1.96 -0.75,-2.46c-0.52,-0.52 -1.33,-0.77 -2.45,-0.77h-1.53zM105.005,318.638c1.07,0 1.89,0.35 2.45,1.08c0.52,0.65 0.78,1.57 0.78,2.74h-4.86c0.05,0.6 0.21,1.07 0.49,1.38c0.28,0.31 0.68,0.48 1.19,0.48c0.44,0 0.79,-0.1 1.07,-0.31c0.21,-0.16 0.4,-0.42 0.58,-0.79h1.43c-0.15,0.61 -0.45,1.12 -0.91,1.52c-0.57,0.49 -1.29,0.74 -2.15,0.74c-0.97,0 -1.74,-0.3 -2.3,-0.89c-0.6,-0.61 -0.9,-1.45 -0.9,-2.53c0,-0.97 0.27,-1.77 0.85,-2.43c0.55,-0.66 1.32,-0.99 2.28,-0.99zM103.925,320.208c-0.26,0.27 -0.44,0.65 -0.52,1.17h3.34c-0.13,-1.06 -0.7,-1.57 -1.7,-1.57c-0.48,0 -0.84,0.13 -1.12,0.4zM112.425,318.638c0.31,0 0.59,0.05 0.82,0.17v1.43c-0.33,-0.1 -0.63,-0.14 -0.93,-0.14c-0.38,0 -0.72,0.14 -1.02,0.44c-0.35,0.34 -0.51,0.78 -0.51,1.33v3.44h-1.42v-6.49h1.42v0.93c0.17,-0.33 0.37,-0.58 0.61,-0.76c0.29,-0.23 0.63,-0.35 1.03,-0.35zM115.025,316.168c0.28,0 0.51,0.09 0.7,0.26c0.18,0.18 0.28,0.41 0.28,0.68c0,0.28 -0.1,0.52 -0.29,0.69c-0.19,0.18 -0.41,0.27 -0.69,0.27c-0.28,0 -0.5,-0.09 -0.69,-0.27c-0.19,-0.19 -0.28,-0.41 -0.28,-0.69c0,-0.27 0.09,-0.5 0.28,-0.68c0.19,-0.17 0.41,-0.26 0.69,-0.26zM114.305,318.818h1.43v6.49h-1.43zM116.815,318.818h1.56l1.56,4.71l1.55,-4.71h1.56l-2.4,6.49h-1.43zM126.625,318.638c1.06,0 1.88,0.35 2.44,1.08c0.52,0.65 0.78,1.57 0.78,2.74h-4.85c0.05,0.6 0.21,1.07 0.48,1.38c0.28,0.31 0.68,0.48 1.2,0.48c0.44,0 0.79,-0.1 1.06,-0.31c0.22,-0.16 0.41,-0.42 0.58,-0.79h1.43c-0.15,0.61 -0.45,1.12 -0.9,1.52c-0.58,0.49 -1.29,0.74 -2.16,0.74c-0.97,0 -1.73,-0.3 -2.3,-0.89c-0.6,-0.61 -0.9,-1.45 -0.9,-2.53c0,-0.97 0.28,-1.77 0.85,-2.43c0.56,-0.66 1.32,-0.99 2.29,-0.99zM125.545,320.208c-0.27,0.27 -0.44,0.65 -0.53,1.17h3.34c-0.13,-1.06 -0.69,-1.57 -1.7,-1.57c-0.47,0 -0.84,0.13 -1.11,0.4zM137.835,316.348h1.67l3.42,8.96h-1.57l-0.81,-2.25h-3.76l-0.81,2.25h-1.57zM140.105,321.858l-1.41,-3.93h-0.05l-1.42,3.93zM146.595,318.638c0.84,0 1.5,0.19 2.01,0.57c0.51,0.4 0.84,1 0.96,1.82h-1.42c-0.08,-0.42 -0.26,-0.72 -0.51,-0.92c-0.26,-0.2 -0.62,-0.3 -1.04,-0.3c-0.53,0 -0.94,0.19 -1.25,0.59c-0.3,0.39 -0.45,0.94 -0.45,1.64c0,0.72 0.14,1.28 0.44,1.69c0.28,0.39 0.69,0.59 1.24,0.59c0.96,0 1.49,-0.48 1.6,-1.42h1.42c-0.15,0.88 -0.49,1.53 -1.01,1.96c-0.5,0.41 -1.18,0.62 -2.02,0.62c-1,0 -1.78,-0.32 -2.33,-0.98c-0.54,-0.62 -0.81,-1.44 -0.81,-2.44c0,-0.98 0.27,-1.79 0.79,-2.4c0.57,-0.68 1.36,-1.02 2.38,-1.02zM153.635,318.638c0.84,0 1.5,0.19 2.01,0.57c0.51,0.4 0.84,1 0.96,1.82h-1.42c-0.08,-0.42 -0.26,-0.72 -0.51,-0.92c-0.26,-0.2 -0.61,-0.3 -1.04,-0.3c-0.53,0 -0.94,0.19 -1.24,0.59c-0.31,0.39 -0.46,0.94 -0.46,1.64c0,0.72 0.14,1.28 0.44,1.69c0.28,0.39 0.69,0.59 1.25,0.59c0.95,0 1.48,-0.48 1.59,-1.42h1.42c-0.15,0.88 -0.49,1.53 -1.01,1.96c-0.5,0.41 -1.18,0.62 -2.02,0.62c-1,0 -1.78,-0.32 -2.33,-0.98c-0.54,-0.62 -0.8,-1.44 -0.8,-2.44c0,-0.98 0.26,-1.79 0.79,-2.4c0.56,-0.68 1.35,-1.02 2.37,-1.02zM160.775,318.638c0.98,0 1.77,0.32 2.37,0.97c0.59,0.64 0.89,1.46 0.89,2.46c0,0.99 -0.3,1.81 -0.87,2.43c-0.61,0.66 -1.41,0.98 -2.39,0.98c-0.99,0 -1.78,-0.32 -2.38,-0.98c-0.59,-0.62 -0.88,-1.44 -0.88,-2.43c0,-1 0.29,-1.82 0.89,-2.46c0.59,-0.65 1.38,-0.97 2.37,-0.97zM159.395,320.508c-0.28,0.4 -0.41,0.93 -0.41,1.56c0,0.63 0.13,1.14 0.41,1.54c0.33,0.47 0.78,0.71 1.38,0.71c0.59,0 1.05,-0.24 1.38,-0.71c0.28,-0.41 0.43,-0.93 0.43,-1.54c0,-0.63 -0.15,-1.16 -0.43,-1.56c-0.33,-0.47 -0.79,-0.7 -1.38,-0.7c-0.6,0 -1.05,0.23 -1.38,0.7zM165.295,318.818h1.43v3.95c0,0.53 0.1,0.91 0.33,1.16c0.22,0.24 0.57,0.36 1.08,0.36c0.31,0 0.61,-0.14 0.9,-0.4c0.29,-0.28 0.5,-0.64 0.63,-1.11v-3.96h1.43v6.49h-1.43v-0.84c-0.56,0.67 -1.23,1.01 -2.04,1.01c-1.55,0 -2.33,-0.88 -2.33,-2.62zM175.955,318.638c1.61,0 2.43,0.88 2.43,2.66v4.01h-1.43v-3.88c0,-1.07 -0.49,-1.59 -1.47,-1.59c-0.35,0 -0.66,0.12 -0.93,0.37c-0.3,0.28 -0.47,0.68 -0.52,1.19v3.91h-1.44v-6.49h1.44v0.75c0.25,-0.3 0.53,-0.54 0.85,-0.69c0.32,-0.16 0.68,-0.24 1.07,-0.24zM181.925,316.718v2.1h1.44v1.18h-1.44v3.66c0,0.15 0.03,0.27 0.1,0.35c0.08,0.08 0.18,0.12 0.33,0.12h0.85v1.18h-1.09c-0.57,0 -0.98,-0.15 -1.24,-0.45c-0.26,-0.28 -0.38,-0.67 -0.38,-1.2v-3.66h-1.17v-1.18h1.17v-1.51z"></path><g opacity="1"  transform="translate(76.20684814453125 315.587890625)  rotate(0)"><path id="矩形 1" fill-rule="evenodd" style="fill:#2F8DE3" opacity="1" d="M5.38279 10.7598L5.38279 10.7598C5.87279 10.7598 6.27279 10.3498 6.27279 9.85984L6.27279 0.899986C6.27279 0.409994 5.87279 -6.0111e-09 5.38279 -3.89208e-09L5.38279 -3.89208e-09C4.88279 -1.72981e-09 4.48279 0.399994 4.48279 0.899986L4.48279 9.85984C4.48279 10.3598 4.88279 10.7598 5.38279 10.7598Z"></path><path id="矩形 1" fill-rule="evenodd" style="fill:#2F8DE3" opacity="1" d="M0.899971 6.27304L9.85998 6.27304C10.35 6.27304 10.76 5.87301 10.76 5.38298L10.76 5.38298C10.76 4.88294 10.36 4.48291 9.85998 4.48291L0.899971 4.48291C0.39997 4.48291 -3.05158e-05 4.88294 -3.05137e-05 5.38298L-3.05137e-05 5.38298C-3.05116e-05 5.87301 0.40997 6.27304 0.899971 6.27304Z"></path></g><path id="并集" fill-rule="evenodd" style="fill:#198DE2" opacity="1" d="M185.17,221.448h-51.17c-2.21,0 -4,-1.79 -4,-4v-4.55c0,-2.21 1.79,-4 4,-4h51.17c2.21,0 4,1.79 4,4v4.55c0,2.21 -1.79,4 -4,4zM188.277,217.554v-4.76c0,-1.66 -1.34,-3 -3,-3h-51.38c-1.66,0 -3,1.34 -3,3v4.76c0,1.66 1.34,3 3,3h51.38c1.66,0 3,-1.34 3,-3zM155.998,211.588c0.78,0 1.43,0.2 1.96,0.61c0.53,0.4 0.84,0.96 0.94,1.64h-0.77c-0.1,-0.5 -0.36,-0.89 -0.75,-1.16c-0.38,-0.26 -0.84,-0.38 -1.39,-0.38c-0.81,0 -1.43,0.28 -1.87,0.84c-0.41,0.52 -0.62,1.2 -0.62,2.07c0,0.86 0.2,1.54 0.61,2.04c0.43,0.54 1.04,0.81 1.86,0.81c0.56,0 1.03,-0.15 1.42,-0.44c0.41,-0.31 0.7,-0.76 0.83,-1.36h0.78c-0.16,0.8 -0.52,1.43 -1.1,1.87c-0.54,0.42 -1.18,0.63 -1.93,0.63c-1.08,0 -1.91,-0.36 -2.49,-1.06c-0.53,-0.64 -0.78,-1.47 -0.78,-2.49c0,-1.03 0.26,-1.87 0.8,-2.53c0.59,-0.73 1.43,-1.09 2.5,-1.09zM163.118,211.588c0.77,0 1.43,0.2 1.96,0.61c0.52,0.4 0.84,0.96 0.93,1.64h-0.77c-0.1,-0.5 -0.35,-0.89 -0.74,-1.16c-0.38,-0.26 -0.84,-0.38 -1.39,-0.38c-0.81,0 -1.44,0.28 -1.88,0.84c-0.41,0.52 -0.61,1.2 -0.61,2.07c0,0.86 0.19,1.54 0.6,2.04c0.43,0.54 1.05,0.81 1.87,0.81c0.56,0 1.03,-0.15 1.42,-0.44c0.41,-0.31 0.69,-0.76 0.83,-1.36h0.77c-0.15,0.8 -0.52,1.43 -1.09,1.87c-0.54,0.42 -1.19,0.63 -1.93,0.63c-1.08,0 -1.91,-0.36 -2.49,-1.06c-0.53,-0.64 -0.78,-1.47 -0.78,-2.49c0,-1.03 0.26,-1.87 0.8,-2.53c0.58,-0.73 1.43,-1.09 2.5,-1.09zM183.598,211.588c1.04,0 1.87,0.34 2.47,1.03c0.57,0.66 0.86,1.51 0.86,2.57c0,1.04 -0.29,1.88 -0.86,2.54c-0.6,0.68 -1.43,1.03 -2.48,1.03c-1.05,0 -1.87,-0.35 -2.47,-1.03c-0.58,-0.66 -0.86,-1.51 -0.86,-2.54c0,-1.05 0.28,-1.9 0.86,-2.56c0.6,-0.69 1.42,-1.04 2.48,-1.04zM133.138,211.728h0.8v2.99h4.04v-2.99h0.8v6.9h-0.8v-3.22h-4.04v3.22h-0.8zM140.178,211.728h2.5c1.11,0 1.94,0.3 2.5,0.94c0.52,0.58 0.79,1.42 0.79,2.51c0,1.06 -0.29,1.9 -0.85,2.5c-0.58,0.63 -1.42,0.95 -2.52,0.95h-2.42zM167.228,211.728h2.5c1.1,0 1.93,0.3 2.5,0.94c0.52,0.58 0.78,1.42 0.78,2.51c0,1.06 -0.28,1.9 -0.84,2.5c-0.58,0.63 -1.42,0.95 -2.52,0.95h-2.42zM176.168,211.728h0.93l2.75,6.9h-0.87l-0.75,-1.94h-3.2l-0.75,1.94h-0.86zM181.698,213.118c-0.43,0.52 -0.64,1.21 -0.64,2.07c0,0.85 0.21,1.53 0.64,2.05c0.45,0.55 1.09,0.82 1.89,0.82c0.8,0 1.44,-0.27 1.89,-0.8c0.43,-0.52 0.65,-1.2 0.65,-2.07c0,-0.88 -0.22,-1.58 -0.65,-2.1c-0.45,-0.53 -1.08,-0.79 -1.88,-0.79c-0.8,0 -1.44,0.27 -1.9,0.82zM140.978,217.938h1.49c0.9,0 1.59,-0.24 2.05,-0.71c0.43,-0.47 0.65,-1.15 0.65,-2.05c0,-0.93 -0.2,-1.62 -0.6,-2.06c-0.43,-0.48 -1.1,-0.71 -2.02,-0.71h-1.57zM168.028,217.938h1.48c0.91,0 1.6,-0.24 2.06,-0.71c0.43,-0.47 0.65,-1.15 0.65,-2.05c0,-0.93 -0.2,-1.62 -0.6,-2.06c-0.43,-0.48 -1.1,-0.71 -2.02,-0.71h-1.57zM177.978,216.028l-1.32,-3.45h-0.04l-1.34,3.45zM149.008,213.688h0.66v2.1h2.13v0.66h-2.13v2.12h-0.66v-2.12h-2.15v-0.66h2.15z"></path><path id="并集" fill-rule="evenodd" style="fill:#198DE2" opacity="1" d="M188.17,133.55h-51.17c-2.21,0 -4,-1.79 -4,-4v-4.55c0,-2.21 1.79,-4 4,-4h51.17c2.21,0 4,1.79 4,4v4.55c0,2.21 -1.79,4 -4,4zM191.277,129.656v-4.76c0,-1.66 -1.34,-3 -3,-3h-51.38c-1.66,0 -3,1.34 -3,3v4.76c0,1.66 1.34,3 3,3h51.38c1.66,0 3,-1.34 3,-3zM158.998,123.69c0.78,0 1.43,0.2 1.96,0.61c0.53,0.4 0.84,0.96 0.94,1.64h-0.77c-0.1,-0.5 -0.36,-0.89 -0.75,-1.16c-0.38,-0.26 -0.84,-0.38 -1.39,-0.38c-0.81,0 -1.43,0.28 -1.87,0.84c-0.41,0.52 -0.62,1.2 -0.62,2.07c0,0.86 0.2,1.54 0.61,2.04c0.43,0.54 1.04,0.81 1.86,0.81c0.56,0 1.03,-0.15 1.42,-0.44c0.41,-0.31 0.7,-0.76 0.83,-1.36h0.78c-0.16,0.8 -0.52,1.43 -1.1,1.87c-0.54,0.42 -1.18,0.63 -1.93,0.63c-1.08,0 -1.91,-0.36 -2.49,-1.06c-0.53,-0.64 -0.78,-1.47 -0.78,-2.49c0,-1.03 0.26,-1.87 0.8,-2.53c0.59,-0.73 1.43,-1.09 2.5,-1.09zM166.118,123.69c0.77,0 1.43,0.2 1.96,0.61c0.52,0.4 0.84,0.96 0.93,1.64h-0.77c-0.1,-0.5 -0.35,-0.89 -0.74,-1.16c-0.38,-0.26 -0.84,-0.38 -1.39,-0.38c-0.81,0 -1.44,0.28 -1.88,0.84c-0.41,0.52 -0.61,1.2 -0.61,2.07c0,0.86 0.19,1.54 0.6,2.04c0.43,0.54 1.05,0.81 1.87,0.81c0.56,0 1.03,-0.15 1.42,-0.44c0.41,-0.31 0.69,-0.76 0.83,-1.36h0.77c-0.15,0.8 -0.52,1.43 -1.09,1.87c-0.54,0.42 -1.19,0.63 -1.93,0.63c-1.08,0 -1.91,-0.36 -2.49,-1.06c-0.53,-0.64 -0.78,-1.47 -0.78,-2.49c0,-1.03 0.26,-1.87 0.8,-2.53c0.58,-0.73 1.43,-1.09 2.5,-1.09zM186.598,123.69c1.04,0 1.87,0.34 2.47,1.03c0.57,0.66 0.86,1.51 0.86,2.57c0,1.04 -0.29,1.88 -0.86,2.54c-0.6,0.68 -1.43,1.03 -2.48,1.03c-1.05,0 -1.87,-0.35 -2.47,-1.03c-0.58,-0.66 -0.86,-1.51 -0.86,-2.54c0,-1.05 0.28,-1.9 0.86,-2.56c0.6,-0.69 1.42,-1.04 2.48,-1.04zM136.138,123.83h0.8v2.99h4.04v-2.99h0.8v6.9h-0.8v-3.22h-4.04v3.22h-0.8zM143.178,123.83h2.5c1.11,0 1.94,0.3 2.5,0.94c0.52,0.58 0.79,1.42 0.79,2.51c0,1.06 -0.29,1.9 -0.85,2.5c-0.58,0.63 -1.42,0.95 -2.52,0.95h-2.42zM170.228,123.83h2.5c1.1,0 1.93,0.3 2.5,0.94c0.52,0.58 0.78,1.42 0.78,2.51c0,1.06 -0.28,1.9 -0.84,2.5c-0.58,0.63 -1.42,0.95 -2.52,0.95h-2.42zM179.168,123.83h0.93l2.75,6.9h-0.87l-0.75,-1.94h-3.2l-0.75,1.94h-0.86zM184.698,125.22c-0.43,0.52 -0.64,1.21 -0.64,2.07c0,0.85 0.21,1.53 0.64,2.05c0.45,0.55 1.09,0.82 1.89,0.82c0.8,0 1.44,-0.27 1.89,-0.8c0.43,-0.52 0.65,-1.2 0.65,-2.07c0,-0.88 -0.22,-1.58 -0.65,-2.1c-0.45,-0.53 -1.08,-0.79 -1.88,-0.79c-0.8,0 -1.44,0.27 -1.9,0.82zM143.978,130.04h1.49c0.9,0 1.59,-0.24 2.05,-0.71c0.43,-0.47 0.65,-1.15 0.65,-2.05c0,-0.93 -0.2,-1.62 -0.6,-2.06c-0.43,-0.48 -1.1,-0.71 -2.02,-0.71h-1.57zM171.028,130.04h1.48c0.91,0 1.6,-0.24 2.06,-0.71c0.43,-0.47 0.65,-1.15 0.65,-2.05c0,-0.93 -0.2,-1.62 -0.6,-2.06c-0.43,-0.48 -1.1,-0.71 -2.02,-0.71h-1.57zM180.978,128.13l-1.32,-3.45h-0.04l-1.34,3.45zM152.008,125.79h0.66v2.1h2.13v0.66h-2.13v2.12h-0.66v-2.12h-2.15v-0.66h2.15z"></path><path id="并集" fill-rule="evenodd" style="fill:#FFFFFF" opacity="1" d="M178.894,42.1375h-51.17c-2.21,0 -4,-1.79 -4,-4v-4.55c0,-2.21 1.79,-4 4,-4h51.17c2.21,0 4,1.79 4,4v4.55c0,2.21 -1.79,4 -4,4zM182.001,38.2435v-4.76c0,-1.66 -1.34,-3 -3,-3h-51.38c-1.66,0 -3,1.34 -3,3v4.76c0,1.66 1.34,3 3,3h51.38c1.66,0 3,-1.34 3,-3zM149.722,32.2772c0.78,0 1.43,0.2 1.96,0.61c0.53,0.4 0.84,0.96 0.94,1.64h-0.77c-0.1,-0.5 -0.36,-0.89 -0.75,-1.16c-0.38,-0.26 -0.84,-0.38 -1.39,-0.38c-0.81,0 -1.43,0.28 -1.87,0.84c-0.41,0.52 -0.62,1.2 -0.62,2.07c0,0.86 0.2,1.54 0.61,2.04c0.43,0.54 1.04,0.81 1.86,0.81c0.56,0 1.03,-0.15 1.42,-0.44c0.41,-0.31 0.7,-0.76 0.83,-1.36h0.78c-0.16,0.8 -0.52,1.43 -1.1,1.87c-0.54,0.42 -1.18,0.63 -1.93,0.63c-1.08,0 -1.91,-0.36 -2.49,-1.06c-0.53,-0.64 -0.78,-1.47 -0.78,-2.49c0,-1.03 0.26,-1.87 0.8,-2.53c0.59,-0.73 1.43,-1.09 2.5,-1.09zM156.842,32.2772c0.77,0 1.43,0.2 1.96,0.61c0.52,0.4 0.84,0.96 0.93,1.64h-0.77c-0.1,-0.5 -0.35,-0.89 -0.74,-1.16c-0.38,-0.26 -0.84,-0.38 -1.39,-0.38c-0.81,0 -1.44,0.28 -1.88,0.84c-0.41,0.52 -0.61,1.2 -0.61,2.07c0,0.86 0.19,1.54 0.6,2.04c0.43,0.54 1.05,0.81 1.87,0.81c0.56,0 1.03,-0.15 1.42,-0.44c0.41,-0.31 0.69,-0.76 0.83,-1.36h0.77c-0.15,0.8 -0.52,1.43 -1.09,1.87c-0.54,0.42 -1.19,0.63 -1.93,0.63c-1.08,0 -1.91,-0.36 -2.49,-1.06c-0.53,-0.64 -0.78,-1.47 -0.78,-2.49c0,-1.03 0.26,-1.87 0.8,-2.53c0.58,-0.73 1.43,-1.09 2.5,-1.09zM177.322,32.2772c1.04,0 1.87,0.34 2.47,1.03c0.57,0.66 0.86,1.51 0.86,2.57c0,1.04 -0.29,1.88 -0.86,2.54c-0.6,0.68 -1.43,1.03 -2.48,1.03c-1.05,0 -1.87,-0.35 -2.47,-1.03c-0.58,-0.66 -0.86,-1.51 -0.86,-2.54c0,-1.05 0.28,-1.9 0.86,-2.56c0.6,-0.69 1.42,-1.04 2.48,-1.04zM126.862,32.4172h0.8v2.99h4.04v-2.99h0.8v6.9h-0.8v-3.22h-4.04v3.22h-0.8zM133.902,32.4172h2.5c1.11,0 1.94,0.3 2.5,0.94c0.52,0.58 0.79,1.42 0.79,2.51c0,1.06 -0.29,1.9 -0.85,2.5c-0.58,0.63 -1.42,0.95 -2.52,0.95h-2.42zM160.952,32.4172h2.5c1.1,0 1.93,0.3 2.5,0.94c0.52,0.58 0.78,1.42 0.78,2.51c0,1.06 -0.28,1.9 -0.84,2.5c-0.58,0.63 -1.42,0.95 -2.52,0.95h-2.42zM169.892,32.4172h0.93l2.75,6.9h-0.87l-0.75,-1.94h-3.2l-0.75,1.94h-0.86zM175.422,33.8072c-0.43,0.52 -0.64,1.21 -0.64,2.07c0,0.85 0.21,1.53 0.64,2.05c0.45,0.55 1.09,0.82 1.89,0.82c0.8,0 1.44,-0.27 1.89,-0.8c0.43,-0.52 0.65,-1.2 0.65,-2.07c0,-0.88 -0.22,-1.58 -0.65,-2.1c-0.45,-0.53 -1.08,-0.79 -1.88,-0.79c-0.8,0 -1.44,0.27 -1.9,0.82zM134.702,38.6272h1.49c0.9,0 1.59,-0.24 2.05,-0.71c0.43,-0.47 0.65,-1.15 0.65,-2.05c0,-0.93 -0.2,-1.62 -0.6,-2.06c-0.43,-0.48 -1.1,-0.71 -2.02,-0.71h-1.57zM161.752,38.6272h1.48c0.91,0 1.6,-0.24 2.06,-0.71c0.43,-0.47 0.65,-1.15 0.65,-2.05c0,-0.93 -0.2,-1.62 -0.6,-2.06c-0.43,-0.48 -1.1,-0.71 -2.02,-0.71h-1.57zM171.702,36.7172l-1.32,-3.45h-0.04l-1.34,3.45zM142.732,34.3772h0.66v2.1h2.13v0.66h-2.13v2.12h-0.66v-2.12h-2.15v-0.66h2.15z"></path></g></g><defs><filter id="filter_7" x="151.3900146484375" y="76.06005859375" width="44.08621825477392" height="17.3134765625" filterUnits="userSpaceOnUse" color-interpolation-filters="sRGB"><feFlood flood-opacity="0" result="BackgroundImageFix"/>
          <feBlend mode="normal" in="SourceGraphic" in2="BackgroundImageFix" result="shape"/>
          <feGaussianBlur stdDeviation="2" result="effect1_foregroundBlur" /></filter><filter id="filter_9" x="67.2322998046875" y="54.0078125" width="50.0565609710614" height="13.982832115618251" filterUnits="userSpaceOnUse" color-interpolation-filters="sRGB"><feFlood flood-opacity="0" result="BackgroundImageFix"/>
          <feBlend mode="normal" in="SourceGraphic" in2="BackgroundImageFix" result="shape"/>
          <feGaussianBlur stdDeviation="1.5" result="effect1_foregroundBlur" /></filter><filter id="filter_12" x="24.519989013671875" y="54" width="47.02" height="15.96" filterUnits="userSpaceOnUse" color-interpolation-filters="sRGB"><feFlood flood-opacity="0" result="BackgroundImageFix"/>
          <feBlend mode="normal" in="SourceGraphic" in2="BackgroundImageFix" result="shape"/>
          <feGaussianBlur stdDeviation="1.5" result="effect1_foregroundBlur" /></filter><filter id="filter_18" x="150.6099853515625" y="165.35986328125" width="44.4082" height="17.473100000000002" filterUnits="userSpaceOnUse" color-interpolation-filters="sRGB"><feFlood flood-opacity="0" result="BackgroundImageFix"/>
          <feBlend mode="normal" in="SourceGraphic" in2="BackgroundImageFix" result="shape"/>
          <feGaussianBlur stdDeviation="2" result="effect1_foregroundBlur" /></filter><filter id="filter_20" x="24.369842529296875" y="143.6630859375" width="92.91891479492188" height="15.96240234375" filterUnits="userSpaceOnUse" color-interpolation-filters="sRGB"><feFlood flood-opacity="0" result="BackgroundImageFix"/>
          <feBlend mode="normal" in="SourceGraphic" in2="BackgroundImageFix" result="shape"/>
          <feGaussianBlur stdDeviation="1.5" result="effect1_foregroundBlur" /></filter><filter id="filter_30" x="70.51998901367188" y="233.68994140625" width="47.09" height="15.96" filterUnits="userSpaceOnUse" color-interpolation-filters="sRGB"><feFlood flood-opacity="0" result="BackgroundImageFix"/>
          <feBlend mode="normal" in="SourceGraphic" in2="BackgroundImageFix" result="shape"/>
          <feGaussianBlur stdDeviation="1.5" result="effect1_foregroundBlur" /></filter><filter id="filter_32" x="24.05999755859375" y="233.509765625" width="39.30331733477914" height="13.982832115618251" filterUnits="userSpaceOnUse" color-interpolation-filters="sRGB"><feFlood flood-opacity="0" result="BackgroundImageFix"/>
          <feBlend mode="normal" in="SourceGraphic" in2="BackgroundImageFix" result="shape"/>
          <feGaussianBlur stdDeviation="1.5" result="effect1_foregroundBlur" /></filter><filter id="filter_36" x="152" y="255" width="44.2531" height="17.310000000000002" filterUnits="userSpaceOnUse" color-interpolation-filters="sRGB"><feFlood flood-opacity="0" result="BackgroundImageFix"/>
          <feBlend mode="normal" in="SourceGraphic" in2="BackgroundImageFix" result="shape"/>
          <feGaussianBlur stdDeviation="2" result="effect1_foregroundBlur" /></filter></defs></svg>