<svg xmlns="http://www.w3.org/2000/svg" xmlns:xlink="http://www.w3.org/1999/xlink" width="200" height="279.3104294187611" viewBox="0 0 200 279.3104294187611" fill="none"><g opacity="1"  transform="translate(0 0)  rotate(0)"><g opacity="1"  transform="translate(0 0)  rotate(0)"><path id="矩形备份 144" fill-rule="evenodd" style="fill:#FFFFFF" opacity="1" d="M1.20789e-06 279.31L200 279.31L200 -8.64908e-07L0 0L1.20789e-06 279.31Z"></path><path id="矩形备份 144" fill-rule="evenodd" style="fill:#2F8DE3" opacity="1" d="M19.794 76.553L180.204 76.553C183.514 76.553 186.204 73.863 186.204 70.553L186.204 20.4829C186.204 17.1729 183.514 14.4829 180.204 14.4829L19.7939 14.4829C16.4839 14.4829 13.7939 17.1729 13.7939 20.4829L13.7939 70.553C13.7939 73.863 16.4839 76.553 19.794 76.553Z"></path><path id="默认钱包" fill-rule="evenodd" style="fill:#FFFFFF" opacity="1" d="M21.3652,24.1742h2.52c1.12,0 1.96,0.3 2.54,0.92c0.55,0.58 0.83,1.42 0.83,2.52c0,1.09 -0.28,1.93 -0.83,2.52c-0.58,0.62 -1.42,0.9301 -2.54,0.9301h-2.52zM22.4952,30.0942h1.18c0.86,0 1.48,-0.2 1.88,-0.6c0.39,-0.4 0.58,-1.03 0.58,-1.88c0,-0.87 -0.19,-1.5 -0.58,-1.89c-0.4,-0.4 -1.02,-0.59 -1.88,-0.59h-1.18zM30.7052,25.9342c0.82,0 1.45,0.27 1.88,0.83c0.4,0.5 0.6,1.21 0.6,2.11h-3.73c0.03,0.46 0.16,0.82 0.37,1.06c0.22,0.24 0.52,0.37 0.92,0.37c0.34,0 0.61,-0.08 0.82,-0.24c0.16,-0.12 0.31,-0.32 0.44,-0.6h1.11c-0.12,0.46 -0.35,0.86 -0.7,1.16c-0.44,0.3801 -0.99,0.5701 -1.66,0.5701c-0.74,0 -1.33,-0.23 -1.77,-0.6801c-0.46,-0.47 -0.69,-1.12 -0.69,-1.95c0,-0.75 0.21,-1.36 0.65,-1.87c0.43,-0.51 1.02,-0.76 1.76,-0.76zM29.8752,27.1442c-0.2,0.2 -0.34,0.5 -0.4,0.9h2.56c-0.09,-0.81 -0.53,-1.21 -1.3,-1.21c-0.37,0 -0.65,0.1 -0.86,0.31zM36.3752,24.1742h1.07v0.92h-0.91c-0.15,0 -0.25,0.04 -0.33,0.12c-0.08,0.08 -0.11,0.19 -0.11,0.36v0.5h1.28v0.9h-1.28v4.0901h-1.1v-4.0901h-1.11v-0.9h1.11v-0.53c0,-0.43 0.12,-0.77 0.36,-1.01c0.23,-0.25 0.58,-0.36 1.02,-0.36zM40.6952,25.9342c0.74,0 1.29,0.19 1.64,0.55c0.31,0.32 0.46,0.78 0.46,1.39v3.1901h-1.02v-0.6601c-0.2,0.25 -0.44,0.44 -0.72,0.5701c-0.32,0.15 -0.69,0.22 -1.13,0.22c-0.52,0 -0.92,-0.13 -1.22,-0.3901c-0.31,-0.27 -0.47,-0.61 -0.47,-1.03c0,-0.56 0.21,-0.99 0.66,-1.29c0.4,-0.29 0.97,-0.44 1.71,-0.46l1.09,-0.03v-0.19c0,-0.66 -0.36,-0.98 -1.07,-0.98c-0.31,0 -0.55,0.05 -0.74,0.16c-0.21,0.13 -0.35,0.32 -0.41,0.58l-1.09,-0.08c0.1,-0.55 0.37,-0.96 0.81,-1.21c0.37,-0.23 0.87,-0.34 1.5,-0.34zM40.6852,28.8142c-0.88,0.02 -1.32,0.33 -1.32,0.93c0,0.17 0.07,0.31 0.22,0.43c0.16,0.12 0.35,0.18 0.59,0.18c0.43,0 0.79,-0.12 1.07,-0.36c0.29,-0.25 0.45,-0.57 0.45,-0.96v-0.25zM44.3152,26.0742h1.1v3.04c0,0.4 0.08,0.69 0.25,0.89c0.18,0.18 0.45,0.28 0.83,0.28c0.24,0 0.48,-0.11 0.7,-0.31c0.22,-0.21 0.38,-0.49 0.48,-0.85v-3.05h1.1v4.9901h-1.1v-0.6501c-0.42,0.5201 -0.95,0.7801 -1.56,0.7801c-1.2,0 -1.8,-0.6701 -1.8,-2.0101zM50.3952,24.0342h1.1v7.0301h-1.1zM54.6752,24.4542v1.62h1.11v0.9h-1.11v2.82c0,0.12 0.02,0.21 0.08,0.27c0.06,0.06 0.13,0.09 0.25,0.09h0.66v0.9101h-0.84c-0.44,0 -0.76,-0.12 -0.96,-0.3501c-0.19,-0.21 -0.29,-0.51 -0.29,-0.92v-2.82h-0.9v-0.9h0.9v-1.16zM60.6452,24.1742h1.13l3.41,4.97h0.03v-4.97h1.14v6.8901h-1.1l-3.44,-5.0401h-0.04v5.0401h-1.13zM70.2452,25.9342c0.73,0 1.2799,0.19 1.63,0.55c0.31,0.32 0.46,0.78 0.46,1.39v3.1901h-1.02v-0.6601c-0.19,0.25 -0.4301,0.44 -0.7101,0.5701c-0.3199,0.15 -0.6999,0.22 -1.1299,0.22c-0.52,0 -0.93,-0.13 -1.23,-0.3901c-0.31,-0.27 -0.46,-0.61 -0.46,-1.03c0,-0.56 0.21,-0.99 0.65,-1.29c0.41,-0.29 0.98,-0.44 1.71,-0.46l1.09,-0.03v-0.19c0,-0.66 -0.3501,-0.98 -1.07,-0.98c-0.31,0 -0.55,0.05 -0.73,0.16c-0.21,0.13 -0.3601,0.32 -0.42,0.58l-1.09,-0.08c0.11,-0.55 0.38,-0.96 0.81,-1.21c0.37,-0.23 0.87,-0.34 1.51,-0.34zM70.2252,28.8142c-0.88,0.02 -1.31,0.33 -1.31,0.93c0,0.17 0.06,0.31 0.22,0.43c0.15,0.12 0.35,0.18 0.59,0.18c0.42,0 0.78,-0.12 1.07,-0.36c0.29,-0.25 0.44,-0.57 0.44,-0.96v-0.25zM76.3151,25.9342c0.73,0 1.25,0.27 1.57,0.81c0.23,-0.31 0.47,-0.52 0.73,-0.63c0.22,-0.12 0.5,-0.18 0.84,-0.18c0.51,0 0.93,0.17 1.28,0.51c0.33,0.35 0.5,0.8 0.5,1.35v3.2701h-1.1v-3.0801c0,-0.4 -0.09,-0.69 -0.25,-0.86c-0.17,-0.18 -0.44,-0.27 -0.83,-0.27c-0.27,0 -0.49,0.1 -0.68,0.31c-0.19,0.2 -0.28,0.48 -0.28,0.85v3.0501h-1.1v-3.0701c0,-0.76 -0.33,-1.14 -0.98,-1.14c-0.32,0 -0.57,0.12 -0.76,0.37c-0.2,0.23 -0.29,0.52 -0.29,0.85v2.9901h-1.1v-4.9901h1.1v0.51c0.41,-0.44 0.86,-0.65 1.35,-0.65zM84.8851,25.9342c0.82,0 1.44,0.27 1.88,0.83c0.4,0.5 0.6,1.21 0.6,2.11h-3.74c0.04,0.46 0.17,0.82 0.38,1.06c0.21,0.24 0.52,0.37 0.92,0.37c0.33,0 0.6,-0.08 0.82,-0.24c0.16,-0.12 0.3,-0.32 0.44,-0.6h1.1c-0.12,0.46 -0.35,0.86 -0.69,1.16c-0.45,0.3801 -1,0.5701 -1.67,0.5701c-0.74,0 -1.33,-0.23 -1.76,-0.6801c-0.47,-0.47 -0.7,-1.12 -0.7,-1.95c0,-0.75 0.22,-1.36 0.66,-1.87c0.42,-0.51 1.01,-0.76 1.76,-0.76zM84.0551,27.1442c-0.21,0.2 -0.34,0.5 -0.41,0.9h2.57c-0.1,-0.81 -0.53,-1.21 -1.3,-1.21c-0.37,0 -0.65,0.1 -0.86,0.31z"></path><path id="87293 SWTC" fill-rule="evenodd" style="fill:#FFFFFF" opacity="1" d="M153.995,61.2744c0.8,0 1.43,0.16 1.88,0.51c0.49,0.36 0.76,0.91 0.82,1.66h-1.04c-0.1,-0.44 -0.27,-0.77 -0.54,-0.96c-0.27,-0.21 -0.66,-0.3 -1.18,-0.3c-0.45,0 -0.8,0.07 -1.04,0.2c-0.3,0.15 -0.44,0.41 -0.44,0.75c0,0.31 0.16,0.55 0.51,0.74c0.15,0.08 0.55,0.23 1.19,0.42c0.93,0.29 1.54,0.5101 1.81,0.6801c0.59,0.36 0.89,0.85 0.89,1.48c0,0.62 -0.24,1.11 -0.73,1.46c-0.48,0.35 -1.15,0.52 -2.02,0.52c-0.84,0 -1.5,-0.17 -1.97,-0.5c-0.57,-0.4 -0.88,-1.04 -0.94,-1.91h1.04c0.08,0.54 0.27,0.94 0.58,1.17c0.28,0.21 0.71,0.32 1.29,0.32c0.52,0 0.93,-0.1 1.24,-0.27c0.31,-0.18 0.47,-0.42 0.47,-0.73c0,-0.38 -0.23,-0.68 -0.66,-0.9c-0.16,-0.08 -0.61,-0.24 -1.37,-0.47c-0.85,-0.27 -1.37,-0.45 -1.59,-0.5701c-0.53,-0.32 -0.79,-0.78 -0.79,-1.38c0,-0.61 0.25,-1.08 0.77,-1.43c0.48,-0.33 1.09,-0.49 1.82,-0.49zM157.205,61.4144h1.18l1.35,5.3601h0.03l1.41,-5.3601h1.1l1.41,5.3601h0.04l1.34,-5.3601h1.19l-1.99,6.8901h-1.12l-1.4,-5.3201h-0.04l-1.4,5.3201h-1.13zM166.455,61.4144h5.64v0.89h-2.29v6.0001h-1.05v-6.0001h-2.3zM175.925,61.2744c0.8,0 1.46,0.2 1.99,0.63c0.5,0.4 0.81,0.96 0.91,1.66h-1.02c-0.12,-0.47 -0.34,-0.81 -0.67,-1.03c-0.32,-0.23 -0.73,-0.33 -1.23,-0.33c-0.75,0 -1.31,0.25 -1.68,0.76c-0.36,0.46 -0.53,1.1 -0.53,1.9c0,0.8301 0.17,1.4701 0.52,1.9201c0.36,0.49 0.93,0.73 1.71,0.73c0.5,0 0.92,-0.13 1.25,-0.38c0.35,-0.27 0.59,-0.68 0.73,-1.22h1.02c-0.15,0.81 -0.51,1.43 -1.08,1.89c-0.53,0.42 -1.17,0.63 -1.91,0.63c-1.13,0 -1.98,-0.36 -2.55,-1.08c-0.5,-0.62 -0.75,-1.45 -0.75,-2.4901c0,-1.02 0.26,-1.85 0.78,-2.5c0.58,-0.73 1.41,-1.09 2.51,-1.09z"></path><g id="87293 SWTC" filter="url(#filter_7)"><path id="87293 SWTC" fill-rule="evenodd" style="fill:#FFFFFF" opacity="1" d="M122.101,61.5854c0.73,0 1.31,0.1901 1.75,0.5801c0.38,0.35 0.58,0.78 0.58,1.29c0,0.36 -0.08,0.66 -0.24,0.9c-0.17,0.26 -0.43,0.45 -0.78,0.59v0.03c0.33,0.08 0.62,0.27 0.85,0.58c0.27,0.33 0.41,0.7 0.41,1.14c0,0.61 -0.23,1.1 -0.67,1.48c-0.45,0.38 -1.09,0.57 -1.9,0.57c-0.82,0 -1.46,-0.19 -1.9,-0.57c-0.45,-0.38 -0.67,-0.87 -0.67,-1.48c0,-0.44 0.14,-0.81 0.41,-1.14c0.23,-0.31 0.51,-0.5 0.85,-0.58v-0.03c-0.35,-0.14 -0.61,-0.33 -0.79,-0.59c-0.15,-0.24 -0.23,-0.54 -0.23,-0.9c0,-0.51 0.19,-0.94 0.58,-1.29c0.43,-0.39 1.01,-0.5801 1.75,-0.5801zM121.081,62.7655c-0.22,0.19 -0.32,0.44 -0.32,0.73c0,0.33 0.08,0.59 0.27,0.78c0.22,0.24 0.58,0.35 1.07,0.35c0.48,0 0.84,-0.11 1.07,-0.35c0.17,-0.19 0.27,-0.45 0.27,-0.78c0,-0.29 -0.12,-0.54 -0.33,-0.73c-0.25,-0.23 -0.59,-0.34 -1.01,-0.34c-0.43,0 -0.76,0.11 -1.02,0.34zM120.961,65.7755c-0.26,0.23 -0.39,0.53 -0.39,0.92c0,0.35 0.13,0.64 0.4,0.87c0.26,0.22 0.64,0.33 1.13,0.33c0.48,0 0.87,-0.11 1.15,-0.33c0.25,-0.23 0.37,-0.52 0.37,-0.87c0,-0.39 -0.12,-0.69 -0.37,-0.91c-0.27,-0.25 -0.65,-0.38 -1.15,-0.38c-0.5,0 -0.89,0.12 -1.14,0.37zM125.291,61.7255h4.64v0.84l-2.44,6.05h-1.12l2.5,-5.94h-3.58zM133.321,61.5854c0.65,0 1.2,0.18 1.63,0.5701c0.41,0.39 0.63,0.88 0.63,1.49c0,0.6 -0.23,1.14 -0.68,1.63c-0.27,0.28 -0.74,0.65 -1.43,1.11c-0.74,0.49 -1.19,0.93 -1.33,1.3h3.45v0.93h-4.75c0,-0.69 0.22,-1.29 0.68,-1.81c0.25,-0.3 0.77,-0.71 1.56,-1.25c0.46,-0.33 0.79,-0.59 0.98,-0.79c0.31,-0.35 0.47,-0.73 0.47,-1.13c0,-0.39 -0.1,-0.68 -0.31,-0.87c-0.22,-0.2 -0.54,-0.29 -0.94,-0.29c-0.44,0 -0.76,0.14 -0.99,0.44c-0.23,0.29 -0.34,0.71 -0.36,1.27h-1.06c0.01,-0.78 0.24,-1.39 0.67,-1.86c0.45,-0.5 1.04,-0.7401 1.78,-0.7401zM138.931,61.5854c0.84,0 1.47,0.3001 1.92,0.9201c0.42,0.59 0.65,1.41 0.65,2.47c0,1.12 -0.24,2.03 -0.69,2.72c-0.47,0.7 -1.1,1.05 -1.89,1.05c-1.34,0 -2.1,-0.62 -2.27,-1.87h1.02c0.14,0.67 0.56,1.01 1.26,1.01c0.47,0 0.85,-0.25 1.14,-0.71c0.27,-0.44 0.41,-1 0.41,-1.67c0,-0.04 -0.01,-0.08 -0.01,-0.13h-0.04c-0.19,0.3 -0.44,0.53 -0.73,0.68c-0.28,0.14 -0.6,0.21 -0.96,0.21c-0.67,0 -1.22,-0.22 -1.63,-0.65c-0.39,-0.43 -0.59,-0.98 -0.59,-1.65c0,-0.7 0.23,-1.26 0.69,-1.7c0.46,-0.46 1.03,-0.6801 1.72,-0.6801zM137.941,62.8755c-0.26,0.28 -0.38,0.64 -0.38,1.09c0,0.44 0.12,0.79 0.38,1.05c0.24,0.27 0.58,0.4 1.02,0.4c0.42,0 0.77,-0.13 1.02,-0.4c0.25,-0.27 0.38,-0.64 0.38,-1.08c0,-0.46 -0.14,-0.81 -0.39,-1.08c-0.26,-0.27 -0.6,-0.4 -1,-0.4c-0.43,0 -0.78,0.13 -1.03,0.42zM144.871,61.5854c0.69,0 1.24,0.16 1.67,0.5001c0.4,0.34 0.61,0.8 0.61,1.39c0,0.76 -0.38,1.27 -1.14,1.52c0.41,0.12 0.72,0.32 0.93,0.57c0.23,0.26 0.35,0.6 0.35,1c0,0.64 -0.22,1.16 -0.66,1.57c-0.46,0.4 -1.07,0.61 -1.8,0.61c-0.71,0 -1.28,-0.18 -1.7,-0.54c-0.49,-0.4 -0.76,-0.99 -0.81,-1.76h1.06c0.02,0.46 0.16,0.82 0.45,1.07c0.25,0.23 0.58,0.35 0.99,0.35c0.44,0 0.8,-0.14 1.07,-0.39c0.23,-0.23 0.36,-0.51 0.36,-0.86c0,-0.41 -0.13,-0.7 -0.38,-0.9c-0.23,-0.19 -0.58,-0.29 -1.03,-0.29h-0.51v-0.79h0.5c0.42,0 0.74,-0.1 0.95,-0.28c0.21,-0.18 0.33,-0.45 0.33,-0.8c0,-0.35 -0.11,-0.61 -0.3,-0.79c-0.21,-0.2 -0.53,-0.28 -0.94,-0.28c-0.41,0 -0.74,0.1 -0.97,0.32c-0.23,0.21 -0.38,0.53 -0.42,0.95h-1.03c0.06,-0.68 0.31,-1.21 0.76,-1.6c0.43,-0.3901 0.98,-0.5701 1.66,-0.5701z"></path></g><g id="12wqw8…iu09zs" filter="url(#filter_9)"><path id="12wqw8…iu09zs" fill-rule="evenodd" style="fill:#98C8ED" opacity="1" d="M54.5254,48.8926c0.15,0 0.26,0.04 0.36,0.14c0.09,0.09 0.14,0.21 0.14,0.35c0,0.15 -0.05,0.26 -0.14,0.35c-0.1,0.1 -0.22,0.14 -0.36,0.14c-0.14,0 -0.26,-0.04 -0.35,-0.14c-0.1,-0.1 -0.15,-0.21 -0.15,-0.35c0,-0.14 0.05,-0.26 0.15,-0.35c0.09,-0.1 0.21,-0.14 0.35,-0.14zM57.2854,48.8926c0.14,0 0.27,0.04 0.36,0.14c0.1,0.09 0.15,0.21 0.15,0.35c0,0.15 -0.05,0.26 -0.15,0.35c-0.09,0.1 -0.22,0.14 -0.36,0.14c-0.14,0 -0.26,-0.04 -0.36,-0.14c-0.09,-0.1 -0.14,-0.21 -0.14,-0.35c0,-0.14 0.05,-0.26 0.14,-0.35c0.1,-0.1 0.22,-0.14 0.36,-0.14zM60.0454,48.8926c0.14,0 0.25,0.04 0.35,0.14c0.1,0.09 0.15,0.21 0.15,0.35c0,0.15 -0.05,0.26 -0.15,0.35c-0.1,0.1 -0.21,0.14 -0.35,0.14c-0.14,0 -0.26,-0.04 -0.36,-0.14c-0.1,-0.1 -0.14,-0.21 -0.14,-0.35c0,-0.14 0.04,-0.26 0.14,-0.35c0.1,-0.1 0.22,-0.14 0.36,-0.14zM62.7954,43.9825c0.14,0 0.25,0.04 0.35,0.14c0.1,0.09 0.15,0.2 0.15,0.35c0,0.14 -0.05,0.26 -0.15,0.3601c-0.1,0.09 -0.21,0.1399 -0.35,0.1399c-0.14,0 -0.26,-0.0499 -0.36,-0.1399c-0.1,-0.1001 -0.14,-0.2201 -0.14,-0.3601c0,-0.15 0.04,-0.26 0.14,-0.35c0.1,-0.1 0.22,-0.14 0.36,-0.14zM62.4654,45.6026h0.66v4.27h-0.66zM64.6754,45.6026h0.66v2.61c0,0.41 0.09,0.71 0.26,0.91c0.17,0.2 0.45,0.31 0.84,0.31c0.29,0 0.54,-0.12 0.77,-0.33c0.23,-0.23 0.37,-0.53 0.42,-0.9v-2.6h0.66v4.27h-0.66v-0.66c-0.35,0.52 -0.81,0.78 -1.39,0.78c-1.05,0 -1.56,-0.59 -1.56,-1.75zM71.5954,43.8525c0.7,0 1.23,0.31 1.59,0.94c0.32,0.5201 0.47,1.2401 0.47,2.1301c0,0.89 -0.15,1.61 -0.47,2.14c-0.36,0.62 -0.89,0.93 -1.59,0.93c-0.72,0 -1.25,-0.31 -1.6,-0.93c-0.32,-0.53 -0.47,-1.25 -0.47,-2.14c0,-0.89 0.15,-1.61 0.47,-2.1301c0.35,-0.63 0.88,-0.94 1.6,-0.94zM70.4454,45.2826c-0.16,0.4 -0.24,0.95 -0.24,1.64c0,0.69 0.08,1.23 0.24,1.64c0.24,0.56 0.62,0.85 1.15,0.85c0.53,0 0.91,-0.29 1.14,-0.85c0.16,-0.41 0.25,-0.95 0.25,-1.64c0,-0.69 -0.09,-1.24 -0.25,-1.64c-0.23,-0.5701 -0.61,-0.8501 -1.14,-0.8501c-0.53,0 -0.91,0.28 -1.15,0.8501zM76.8054,43.8525c0.71,0 1.24,0.26 1.61,0.79c0.35,0.5001 0.52,1.2101 0.52,2.1201c0,0.95 -0.19,1.71 -0.55,2.3c-0.4,0.62 -0.93,0.93 -1.59,0.93c-1.1,0 -1.73,-0.53 -1.89,-1.58h0.67c0.12,0.67 0.53,1.01 1.23,1.01c0.45,0 0.81,-0.23 1.09,-0.69c0.25,-0.44 0.39,-0.99 0.39,-1.65c0,-0.04 -0.01,-0.12 -0.01,-0.22h-0.03c-0.15,0.3 -0.37,0.54 -0.64,0.71c-0.27,0.17 -0.57,0.26 -0.92,0.26c-0.57,0 -1.03,-0.19 -1.37,-0.56c-0.34,-0.36 -0.51,-0.82 -0.51,-1.39c0,-0.59 0.18,-1.0701 0.56,-1.4501c0.38,-0.39 0.86,-0.58 1.44,-0.58zM75.8454,44.8326c-0.25,0.27 -0.37,0.62 -0.37,1.05c0,0.41 0.12,0.75 0.37,1c0.24,0.26 0.56,0.39 0.97,0.39c0.38,0 0.71,-0.13 0.97,-0.4c0.25,-0.26 0.38,-0.6 0.38,-1.01c0,-0.41 -0.12,-0.75 -0.36,-1.0201c-0.25,-0.28 -0.58,-0.42 -0.99,-0.42c-0.4,0 -0.73,0.13 -0.97,0.4101zM79.9454,45.6026h3.41v0.46l-2.63,3.26h2.76v0.55h-3.62v-0.48l2.62,-3.24h-2.54zM86.0254,45.4826c1.06,0 1.64,0.44 1.76,1.33h-0.65c-0.06,-0.26 -0.16,-0.46 -0.33,-0.58c-0.18,-0.13 -0.45,-0.2 -0.79,-0.2c-0.29,0 -0.53,0.05 -0.69,0.17c-0.18,0.11 -0.27,0.26 -0.27,0.45c0,0.18 0.11,0.34 0.36,0.46c0.16,0.08 0.46,0.17 0.89,0.28c0.51,0.13 0.87,0.26 1.1,0.4c0.34,0.21 0.51,0.5 0.51,0.88c0,0.87 -0.6,1.32 -1.81,1.32c-1.13,0 -1.74,-0.5 -1.84,-1.48h0.65c0.05,0.34 0.17,0.58 0.35,0.73c0.18,0.13 0.46,0.2 0.82,0.2c0.76,0 1.15,-0.25 1.15,-0.73c0,-0.24 -0.14,-0.42 -0.4,-0.56c-0.15,-0.06 -0.45,-0.15 -0.91,-0.27c-0.51,-0.12 -0.87,-0.25 -1.06,-0.38c-0.34,-0.2 -0.49,-0.47 -0.49,-0.84c0,-0.36 0.15,-0.64 0.48,-0.86c0.3,-0.21 0.69,-0.32 1.17,-0.32z"></path></g><path id="12wqw8…iu09zs" fill-rule="evenodd" style="fill:#98C8ED" opacity="1" d="M54.6518,48.9395c0.149,0 0.264,0.041 0.364,0.1409c0.091,0.091 0.14,0.207 0.14,0.347c0,0.149 -0.049,0.265 -0.14,0.356c-0.1,0.091 -0.224,0.141 -0.364,0.141c-0.141,0 -0.257,-0.05 -0.348,-0.141c-0.099,-0.099 -0.149,-0.215 -0.149,-0.356c0,-0.14 0.05,-0.256 0.149,-0.347c0.091,-0.0999 0.207,-0.1409 0.348,-0.1409zM57.4157,48.9395c0.14,0 0.265,0.041 0.364,0.1409c0.091,0.091 0.141,0.207 0.141,0.347c0,0.149 -0.05,0.265 -0.141,0.356c-0.099,0.091 -0.224,0.141 -0.364,0.141c-0.141,0 -0.257,-0.05 -0.356,-0.141c-0.099,-0.099 -0.141,-0.215 -0.141,-0.356c0,-0.14 0.042,-0.256 0.141,-0.347c0.099,-0.0999 0.215,-0.1409 0.356,-0.1409zM60.1717,48.9395c0.14,0 0.256,0.041 0.356,0.1409c0.099,0.091 0.148,0.207 0.148,0.347c0,0.149 -0.049,0.265 -0.148,0.356c-0.1,0.091 -0.216,0.141 -0.356,0.141c-0.141,0 -0.257,-0.05 -0.356,-0.141c-0.1,-0.099 -0.141,-0.215 -0.141,-0.356c0,-0.14 0.041,-0.256 0.141,-0.347c0.099,-0.0999 0.215,-0.1409 0.356,-0.1409z"></path><g id="拼合图形" filter="url(#filter_12)"><path id="拼合图形" fill-rule="evenodd" style="fill:#98C8ED" opacity="1" d="M33.5785,44.3257c0.34,-0.33 0.82,-0.48 1.44,-0.48c0.62,0 1.1,0.15 1.45,0.48c0.32,0.29 0.48,0.65 0.48,1.08c0,0.32 -0.07,0.59 -0.22,0.8c-0.17,0.23 -0.4,0.4 -0.71,0.51v0.01c0.31,0.08 0.57,0.26 0.79,0.52c0.24,0.28 0.35,0.62 0.35,0.99c0,0.53 -0.18,0.9499 -0.54,1.2599c-0.39,0.33 -0.92,0.49 -1.6,0.49c-0.68,0 -1.21,-0.16 -1.59,-0.49c-0.36,-0.31 -0.54,-0.7299 -0.54,-1.2599c0,-0.37 0.11,-0.71 0.35,-0.99c0.21,-0.26 0.47,-0.44 0.78,-0.52v-0.01c-0.31,-0.11 -0.54,-0.28 -0.7,-0.51c-0.15,-0.21 -0.23,-0.48 -0.23,-0.8c0,-0.43 0.16,-0.79 0.49,-1.08zM42.3585,44.4457c0.36,-0.39 0.85,-0.59 1.4501,-0.59c0.54,0 0.99,0.15 1.34,0.47c0.35,0.31 0.54,0.74 0.54,1.25c0,0.51 -0.2,0.98 -0.58,1.39c-0.21,0.21 -0.62,0.53 -1.2201,0.95c-0.76,0.51 -1.19,0.9599 -1.3,1.3599h3.1001v0.6h-3.9401c0,-0.54 0.2,-1.02 0.6,-1.4599c0.23,-0.27 0.6501,-0.62 1.2701,-1.05c0.47,-0.34 0.77,-0.57 0.93,-0.74c0.3,-0.33 0.46,-0.68 0.46,-1.06c0,-0.37 -0.11,-0.64 -0.32,-0.84c-0.22,-0.2 -0.53,-0.3 -0.9,-0.3c-0.4101,0 -0.7301,0.14 -0.9401,0.42c-0.23,0.27 -0.36,0.66 -0.36,1.18h-0.68c0,-0.66 0.18,-1.19 0.55,-1.58zM38.8085,44.5757c0.28,-0.18 0.51,-0.38 0.71,-0.61h0.53v5.9099h-0.68v-5.0799c-0.38,0.38 -0.84,0.65 -1.39,0.81v-0.68c0.26,-0.07 0.54,-0.19 0.83,-0.35zM33.7285,45.4357c0,0.29 0.09,0.55 0.28,0.73c0.21,0.21 0.55,0.33 1.01,0.33c0.46,0 0.8,-0.12 1.02,-0.33c0.18,-0.18 0.28,-0.44 0.28,-0.73c0,-0.29 -0.11,-0.53 -0.31,-0.71c-0.24,-0.22 -0.57,-0.33 -0.99,-0.33c-0.42,0 -0.75,0.11 -0.98,0.33c-0.21,0.18 -0.31,0.42 -0.31,0.71zM21.6485,46.1657c0.35,-0.47 0.84,-0.69 1.47,-0.69c0.63,0 1.1,0.27 1.42,0.82v-0.7h0.62v5.9099h-0.67v-2.41c-0.33,0.6 -0.8,0.89 -1.4,0.89c-0.62,0 -1.1,-0.23 -1.45,-0.68c-0.32,-0.41 -0.47,-0.9399 -0.47,-1.5599c0,-0.65 0.15,-1.17 0.48,-1.58zM27.4785,49.8656l-1.46,-4.2699h0.73l1.05,3.4699l0.99,-3.4699h0.63l0.99,3.4699l1.05,-3.4699h0.73l-1.46,4.2699h-0.63l-0.99,-3.4399l-1.01,3.4399zM48.0186,49.8756l-1.46,-4.2799h0.73l1.05,3.4699l0.99,-3.4699h0.62l1,3.4699l1.05,-3.4699h0.72l-1.45,4.2799h-0.63l-0.99,-3.4399l-1.01,3.4399zM21.8485,47.7457c0,0.51 0.1,0.9199 0.32,1.2199c0.23,0.31 0.59,0.47 1.05,0.47c0.38,0 0.7,-0.15 0.93,-0.45c0.24,-0.3099 0.37,-0.6999 0.37,-1.1999v-0.09c0,-0.47 -0.11,-0.87 -0.32,-1.17c-0.24,-0.34 -0.57,-0.5 -1,-0.5c-0.47,0 -0.81,0.16 -1.05,0.51c-0.2,0.29 -0.3,0.7 -0.3,1.21zM33.5585,48.2357c0,0.35 0.12,0.6399 0.36,0.8599c0.25,0.22 0.63,0.33 1.1,0.33c0.48,0 0.85,-0.11 1.11,-0.34c0.23,-0.2199 0.36,-0.4999 0.36,-0.8499c0,-0.35 -0.13,-0.64 -0.36,-0.86c-0.26,-0.24 -0.64,-0.35 -1.11,-0.35c-0.47,0 -0.84,0.11 -1.1,0.35c-0.24,0.22 -0.36,0.51 -0.36,0.86z"></path></g><g opacity="1"  transform="translate(95.86279296875 42.7587890625)  rotate(0)"><path id="形状结合备份 4" fill-rule="evenodd" style="fill:#98C8ED" opacity="1" d="M2.66239,0.5899c-0.14999,0 -0.26999,0.11 -0.28999,0.24l-0.01,0.06v0.8834h3.25759c0.49,0 0.88,0.4 0.88,0.88999v3.2466h0.8924c0.14,0 0.25999,-0.1 0.28999,-0.24v-4.77999c0,-0.15 -0.09999,-0.27 -0.23999,-0.29l-0.05,-0.01zM6.49999,7.39328c0,0.49 -0.39,0.88 -0.88,0.88h-4.72999c-0.49,0 -0.89,-0.39 -0.89,-0.88l0,-4.72999c0,-0.48999 0.4,-0.88999 0.89,-0.88999h0.8824v-0.8834c0,-0.46 0.35,-0.84 0.79999,-0.89l4.82,0c0.45999,0 0.83999,0.35 0.87999,0.8v4.81999c0,0.46 -0.35,0.84 -0.8,0.88h-0.97239zM1.97904,2.36509h-1.08924c-0.17,0 -0.3,0.13 -0.3,0.3v4.71999c0,0.17 0.13,0.3 0.3,0.3h4.71999c0.17,0 0.3,-0.13 0.3,-0.3v-4.71999c0,-0.17 -0.13,-0.3 -0.3,-0.3h-3.44603c-0.02873,0.00963 -0.05945,0.01481 -0.09136,0.01481c-0.03276,0 -0.06409,-0.00525 -0.09336,-0.01481z"></path></g><path id="矩形备份 144" fill-rule="evenodd" style="fill:#F7F7F8" opacity="1" d="M19.794 142.622L180.204 142.622C183.514 142.622 186.204 139.932 186.204 136.622L186.204 86.5518C186.204 83.2418 183.514 80.5518 180.204 80.5518L19.7939 80.5518C16.4839 80.5518 13.7939 83.2418 13.7939 86.5518L13.7939 136.622C13.7939 139.932 16.4839 142.622 19.794 142.622Z"></path><path id="我的井通链转账钱包" fill-rule="evenodd" style="fill:#232323" opacity="1" d="M20.835,93.14h5.65v0.96h-2.26v5.93h-1.13v-5.93h-2.26zM29.925,94.9c0.24,0 0.45,0.04 0.63,0.13v1.1c-0.25,-0.08 -0.48,-0.11 -0.72,-0.11c-0.29,0 -0.55,0.11 -0.78,0.34c-0.27,0.26 -0.39,0.6 -0.39,1.02v2.65h-1.1v-4.99h1.1v0.71c0.13,-0.25 0.29,-0.44 0.47,-0.58c0.22,-0.18 0.48,-0.27 0.79,-0.27zM33.815,94.9c0.73,0 1.28,0.19 1.63,0.55c0.31,0.32 0.46,0.78 0.46,1.39v3.19h-1.02v-0.6599c-0.19,0.25 -0.44,0.44 -0.72,0.57c-0.31,0.1499 -0.69,0.2199 -1.13,0.2199c-0.52,0 -0.92,-0.13 -1.22,-0.3899c-0.31,-0.27 -0.47,-0.61 -0.47,-1.03c0,-0.56 0.22,-0.9901 0.66,-1.2901c0.41,-0.29 0.98,-0.44 1.71,-0.46l1.09,-0.03v-0.19c0,-0.66 -0.36,-0.98 -1.07,-0.98c-0.31,0 -0.55,0.05 -0.73,0.16c-0.22,0.13 -0.36,0.32 -0.42,0.58l-1.09,-0.08c0.11,-0.55 0.38,-0.96 0.81,-1.21c0.37,-0.23 0.87,-0.34 1.51,-0.34zM33.795,97.7801c-0.88,0.0199 -1.32,0.33 -1.32,0.93c0,0.17 0.07,0.31 0.23,0.43c0.15,0.12 0.34,0.18 0.59,0.18c0.42,0 0.78,-0.12 1.07,-0.36c0.29,-0.25 0.44,-0.57 0.44,-0.96v-0.2501zM40.005,94.9c1.25,0 1.87,0.68 1.87,2.05v3.08h-1.1v-2.98c0,-0.83 -0.37,-1.23 -1.13,-1.23c-0.27,0 -0.51,0.1 -0.71,0.29c-0.23,0.21 -0.37,0.52 -0.41,0.92v3h-1.1v-4.99h1.1v0.58c0.2,-0.24 0.42,-0.42 0.66,-0.53c0.25,-0.13 0.52,-0.19 0.82,-0.19zM45.285,94.9c1.31,0 2.03,0.52 2.15,1.59h-1.07c-0.08,-0.26 -0.19,-0.44 -0.35,-0.54c-0.16,-0.1 -0.41,-0.15 -0.75,-0.15c-0.29,0 -0.51,0.04 -0.66,0.13c-0.17,0.08 -0.25,0.22 -0.25,0.41c0,0.16 0.13,0.3 0.4,0.42c0.16,0.06 0.49,0.16 0.99,0.29c0.56,0.13 0.99,0.29 1.26,0.4701c0.39,0.25 0.59,0.61 0.59,1.05c0,1.06 -0.75,1.5899 -2.25,1.5899c-1.39,0 -2.13,-0.5799 -2.24,-1.7499h1.08c0.05,0.32 0.17,0.54 0.33,0.67c0.17,0.12 0.43,0.19 0.8,0.19c0.77,0 1.15,-0.22 1.15,-0.62c0,-0.23 -0.14,-0.42 -0.43,-0.55c-0.15,-0.08 -0.48,-0.17 -0.98,-0.28c-0.59,-0.1401 -1.01,-0.2801 -1.25,-0.4401c-0.39,-0.24 -0.58,-0.58 -0.58,-1.01c0,-0.46 0.18,-0.82 0.57,-1.07c0.38,-0.27 0.87,-0.4 1.49,-0.4zM50.795,93.14h1.06v0.92h-0.91c-0.15,0 -0.25,0.04 -0.33,0.12c-0.08,0.08 -0.1,0.19 -0.1,0.36v0.5h1.27v0.9h-1.27v4.09h-1.11v-4.09h-1.11v-0.9h1.11v-0.53c0,-0.43 0.12,-0.77 0.36,-1.01c0.23,-0.25 0.58,-0.36 1.03,-0.36zM54.965,94.9c0.82,0 1.45,0.27 1.88,0.83c0.4,0.5 0.6,1.21 0.6,2.11h-3.73c0.03,0.4601 0.16,0.8201 0.37,1.0601c0.21,0.24 0.52,0.37 0.92,0.37c0.34,0 0.61,-0.08 0.82,-0.24c0.16,-0.12 0.31,-0.32 0.44,-0.6h1.11c-0.12,0.46 -0.35,0.86 -0.7,1.16c-0.44,0.38 -0.99,0.5699 -1.66,0.5699c-0.74,0 -1.33,-0.2299 -1.77,-0.6799c-0.46,-0.47 -0.69,-1.12 -0.69,-1.9501c0,-0.75 0.21,-1.36 0.65,-1.87c0.43,-0.51 1.02,-0.76 1.76,-0.76zM54.135,96.11c-0.2,0.2 -0.34,0.5 -0.4,0.9h2.56c-0.09,-0.81 -0.53,-1.21 -1.3,-1.21c-0.37,0 -0.65,0.1 -0.86,0.31zM61.035,94.9c0.24,0 0.45,0.04 0.63,0.13v1.1c-0.25,-0.08 -0.49,-0.11 -0.72,-0.11c-0.29,0 -0.55,0.11 -0.78,0.34c-0.27,0.26 -0.4,0.6 -0.4,1.02v2.65h-1.09v-4.99h1.09v0.71c0.14,-0.25 0.29,-0.44 0.48,-0.58c0.22,-0.18 0.48,-0.27 0.79,-0.27zM65.695,95.04h1.22l0.99,3.6901l0.99,-3.6901h1.01l0.99,3.6901l0.99,-3.6901h1.22l-1.68,4.99h-1.03l-0.99,-3.65l-1,3.65h-1.03zM76.365,94.9c0.73,0 1.28,0.19 1.63,0.55c0.31,0.32 0.46,0.78 0.46,1.39v3.19h-1.02v-0.6599c-0.19,0.25 -0.44,0.44 -0.72,0.57c-0.31,0.1499 -0.69,0.2199 -1.13,0.2199c-0.52,0 -0.92,-0.13 -1.22,-0.3899c-0.31,-0.27 -0.47,-0.61 -0.47,-1.03c0,-0.56 0.22,-0.9901 0.66,-1.2901c0.41,-0.29 0.98,-0.44 1.71,-0.46l1.09,-0.03v-0.19c0,-0.66 -0.36,-0.98 -1.07,-0.98c-0.31,0 -0.55,0.05 -0.73,0.16c-0.22,0.13 -0.36,0.32 -0.42,0.58l-1.09,-0.08c0.11,-0.55 0.38,-0.96 0.81,-1.21c0.37,-0.23 0.87,-0.34 1.51,-0.34zM76.345,97.7801c-0.88,0.0199 -1.32,0.33 -1.32,0.93c0,0.17 0.07,0.31 0.23,0.43c0.15,0.12 0.34,0.18 0.59,0.18c0.42,0 0.78,-0.12 1.07,-0.36c0.29,-0.25 0.44,-0.57 0.44,-0.96v-0.2501zM80.075,93h1.1v7.03h-1.1zM82.885,93h1.1v7.03h-1.1zM87.735,94.9c0.82,0 1.44,0.27 1.88,0.83c0.39,0.5 0.6,1.21 0.6,2.11h-3.74c0.04,0.4601 0.16,0.8201 0.38,1.0601c0.21,0.24 0.52,0.37 0.91,0.37c0.34,0 0.61,-0.08 0.83,-0.24c0.16,-0.12 0.3,-0.32 0.44,-0.6h1.1c-0.12,0.46 -0.35,0.86 -0.7,1.16c-0.44,0.38 -0.99,0.5699 -1.66,0.5699c-0.74,0 -1.33,-0.2299 -1.76,-0.6799c-0.47,-0.47 -0.7,-1.12 -0.7,-1.9501c0,-0.75 0.21,-1.36 0.66,-1.87c0.42,-0.51 1.01,-0.76 1.76,-0.76zM86.905,96.11c-0.21,0.2 -0.34,0.5 -0.41,0.9h2.57c-0.1,-0.81 -0.53,-1.21 -1.31,-1.21c-0.36,0 -0.64,0.1 -0.85,0.31zM93.005,93.42v1.62h1.11v0.9h-1.11v2.8201c0,0.12 0.02,0.21 0.08,0.27c0.06,0.06 0.13,0.09 0.25,0.09h0.66v0.9099h-0.84c-0.44,0 -0.76,-0.1199 -0.96,-0.3499c-0.19,-0.21 -0.29,-0.51 -0.29,-0.92v-2.8201h-0.9v-0.9h0.9v-1.16z"></path><g id="拼合图形" filter="url(#filter_18)"><path id="拼合图形" fill-rule="evenodd" style="fill:#232323" opacity="1" d="M137.361,130.858c0.42,-0.39 1.01,-0.58 1.75,-0.58c0.73,0 1.31,0.19 1.74,0.58c0.39,0.34 0.58,0.78 0.58,1.3c0,0.35 -0.08,0.65 -0.23,0.89c-0.17,0.26 -0.43,0.45 -0.78,0.59v0.03c0.32,0.08 0.62,0.27 0.85,0.58c0.27,0.33 0.4,0.71 0.4,1.14c0,0.61 -0.22,1.1 -0.66,1.48c-0.46,0.38 -1.1,0.57 -1.9,0.57c-0.83,0 -1.47,-0.19 -1.9,-0.57c-0.45,-0.38 -0.67,-0.87 -0.67,-1.48c0,-0.43 0.13,-0.81 0.4,-1.14c0.23,-0.31 0.51,-0.5 0.85,-0.58v-0.03c-0.35,-0.14 -0.61,-0.33 -0.78,-0.59c-0.16,-0.24 -0.24,-0.54 -0.24,-0.89c0,-0.52 0.2,-0.96 0.59,-1.3zM119.641,131.148c0.44,-0.51 1.04,-0.74 1.77,-0.74c0.66,0 1.2,0.18 1.64,0.56c0.41,0.39 0.62,0.88 0.62,1.49c0,0.6 -0.23,1.14 -0.68,1.63c-0.27,0.28 -0.74,0.65 -1.42,1.12c-0.75,0.49 -1.19,0.92 -1.34,1.3h3.45v0.93h-4.75c0,-0.69 0.22,-1.29 0.68,-1.81c0.26,-0.3 0.78,-0.72 1.56,-1.26c0.46,-0.33 0.79,-0.59 0.98,-0.79c0.31,-0.34 0.48,-0.72 0.48,-1.13c0,-0.38 -0.11,-0.68 -0.32,-0.87c-0.21,-0.19 -0.53,-0.29 -0.93,-0.29c-0.44,0 -0.77,0.15 -0.99,0.45c-0.24,0.29 -0.35,0.7 -0.37,1.27h-1.05c0.01,-0.78 0.23,-1.4 0.67,-1.86zM125.301,131.078c0.47,-0.45 1.04,-0.67 1.72,-0.67c0.84,0 1.48,0.3 1.93,0.91c0.42,0.59 0.64,1.41 0.64,2.48c0,1.11 -0.23,2.02 -0.68,2.72c-0.48,0.69 -1.1,1.05 -1.9,1.05c-1.34,0 -2.1,-0.63 -2.26,-1.87h1.02c0.13,0.66 0.55,1 1.25,1c0.47,0 0.85,-0.24 1.14,-0.7c0.27,-0.45 0.42,-1.01 0.42,-1.67c0,-0.04 -0.01,-0.08 -0.01,-0.13h-0.04c-0.19,0.3 -0.45,0.52 -0.74,0.67c-0.28,0.14 -0.6,0.22 -0.95,0.22c-0.68,0 -1.23,-0.22 -1.63,-0.66c-0.4,-0.42 -0.6,-0.97 -0.6,-1.65c0,-0.7 0.23,-1.25 0.69,-1.7zM131.311,130.968c0.42,-0.38 0.97,-0.56 1.65,-0.56c0.69,0 1.25,0.16 1.67,0.5c0.41,0.33 0.62,0.8 0.62,1.39c0,0.75 -0.39,1.26 -1.14,1.51c0.4,0.13 0.71,0.33 0.93,0.57c0.23,0.26 0.34,0.6 0.34,1.01c0,0.64 -0.22,1.15 -0.66,1.56c-0.46,0.41 -1.07,0.62 -1.8,0.62c-0.71,0 -1.27,-0.19 -1.7,-0.54c-0.48,-0.41 -0.75,-0.99 -0.81,-1.77h1.06c0.02,0.47 0.17,0.82 0.45,1.08c0.26,0.23 0.59,0.34 0.99,0.34c0.44,0 0.8,-0.14 1.07,-0.38c0.23,-0.23 0.36,-0.52 0.36,-0.86c0,-0.41 -0.13,-0.71 -0.38,-0.9c-0.23,-0.2 -0.58,-0.29 -1.03,-0.29h-0.5v-0.79h0.49c0.43,0 0.74,-0.1 0.96,-0.29c0.21,-0.18 0.33,-0.45 0.33,-0.8c0,-0.34 -0.11,-0.6 -0.3,-0.79c-0.22,-0.19 -0.53,-0.27 -0.94,-0.27c-0.42,0 -0.75,0.1 -0.98,0.31c-0.23,0.22 -0.38,0.53 -0.41,0.95h-1.03c0.06,-0.68 0.3,-1.21 0.76,-1.6zM142.301,131.368v-0.95h4.64v0.84l-2.45,6.05h-1.12l2.5,-5.94zM137.761,132.198c0,0.32 0.09,0.58 0.28,0.77c0.21,0.23 0.57,0.35 1.07,0.35c0.48,0 0.83,-0.12 1.06,-0.35c0.18,-0.19 0.27,-0.45 0.27,-0.77c0,-0.3 -0.11,-0.55 -0.32,-0.74c-0.25,-0.23 -0.59,-0.34 -1.01,-0.34c-0.43,0 -0.77,0.11 -1.02,0.34c-0.22,0.19 -0.33,0.44 -0.33,0.74zM125.651,132.778c0,0.45 0.13,0.79 0.39,1.06c0.24,0.27 0.57,0.4 1.01,0.4c0.43,0 0.77,-0.13 1.03,-0.4c0.24,-0.28 0.37,-0.64 0.37,-1.09c0,-0.45 -0.14,-0.81 -0.39,-1.07c-0.25,-0.27 -0.59,-0.41 -1,-0.41c-0.42,0 -0.78,0.14 -1.02,0.43c-0.26,0.28 -0.39,0.64 -0.39,1.08zM137.581,135.388c0,0.35 0.13,0.64 0.39,0.87c0.27,0.22 0.64,0.34 1.14,0.34c0.48,0 0.86,-0.12 1.14,-0.34c0.26,-0.23 0.38,-0.52 0.38,-0.87c0,-0.39 -0.12,-0.69 -0.38,-0.91c-0.27,-0.25 -0.64,-0.38 -1.14,-0.38c-0.5,0 -0.9,0.12 -1.14,0.37c-0.26,0.23 -0.39,0.53 -0.39,0.92z"></path></g><g id="12wqw8…iu09zs" filter="url(#filter_20)"><path id="12wqw8…iu09zs" fill-rule="evenodd" style="fill:#777777" opacity="1" d="M22.5932,112.937h0.53v5.9h-0.68v-5.08c-0.37,0.38 -0.84,0.65 -1.39,0.81v-0.67c0.26,-0.08 0.55,-0.19 0.83,-0.36c0.28,-0.18 0.51,-0.38 0.71,-0.6zM26.8832,112.817c0.55,0 0.99,0.16 1.35,0.47c0.35,0.32 0.53,0.74 0.53,1.25c0,0.51 -0.2,0.98 -0.58,1.39c-0.21,0.22 -0.61,0.54 -1.23,0.95c-0.75,0.51 -1.18,0.96 -1.29,1.36h3.11v0.6h-3.94c0,-0.53 0.19,-1.02 0.59,-1.46c0.23,-0.26 0.65,-0.62 1.28,-1.05c0.46,-0.33 0.77,-0.57 0.93,-0.74c0.29,-0.32 0.45,-0.68 0.45,-1.06c0,-0.36 -0.11,-0.63 -0.32,-0.83c-0.22,-0.2 -0.52,-0.3 -0.9,-0.3c-0.41,0 -0.72,0.13 -0.94,0.41c-0.23,0.27 -0.36,0.67 -0.36,1.19h-0.68c0,-0.67 0.19,-1.2 0.55,-1.58c0.37,-0.4 0.85,-0.6 1.45,-0.6zM29.6332,114.567h0.73l1.05,3.46l0.99,-3.46h0.63l0.99,3.46l1.05,-3.46h0.73l-1.46,4.27h-0.63l-0.99,-3.44l-1.01,3.44h-0.62zM38.4432,114.447c0.64,0 1.11,0.27 1.43,0.82v-0.7h0.62v5.91h-0.67v-2.41c-0.33,0.59 -0.8,0.89 -1.41,0.89c-0.61,0 -1.09,-0.23 -1.44,-0.68c-0.32,-0.41 -0.47,-0.93 -0.47,-1.56c0,-0.65 0.15,-1.17 0.48,-1.58c0.34,-0.47 0.83,-0.69 1.46,-0.69zM37.4832,115.507c-0.21,0.3 -0.3,0.7 -0.3,1.21c0,0.51 0.1,0.92 0.32,1.21c0.23,0.32 0.59,0.48 1.05,0.48c0.38,0 0.69,-0.15 0.93,-0.45c0.24,-0.31 0.36,-0.7 0.36,-1.2v-0.08c0,-0.48 -0.11,-0.88 -0.31,-1.18c-0.24,-0.34 -0.58,-0.5 -1.01,-0.5c-0.46,0 -0.81,0.16 -1.04,0.51zM41.3532,114.567h0.73l1.05,3.46l0.99,-3.46h0.62l1,3.46l1.05,-3.46h0.73l-1.46,4.27h-0.63l-0.99,-3.44l-1.01,3.44h-0.62zM50.3532,112.817c0.61,0 1.1,0.16 1.45,0.48c0.31,0.29 0.48,0.65 0.48,1.08c0,0.32 -0.08,0.58 -0.22,0.8c-0.17,0.23 -0.4,0.4 -0.71,0.51v0.02c0.31,0.07 0.57,0.25 0.79,0.51c0.23,0.28 0.35,0.61 0.35,0.99c0,0.53 -0.19,0.95 -0.55,1.26c-0.38,0.33 -0.91,0.49 -1.59,0.49c-0.69,0 -1.22,-0.16 -1.59,-0.49c-0.36,-0.31 -0.54,-0.73 -0.54,-1.26c0,-0.38 0.11,-0.71 0.34,-0.99c0.22,-0.26 0.47,-0.44 0.79,-0.51v-0.02c-0.32,-0.11 -0.55,-0.28 -0.7,-0.51c-0.15,-0.22 -0.23,-0.48 -0.23,-0.8c0,-0.43 0.16,-0.79 0.48,-1.08c0.35,-0.32 0.83,-0.48 1.45,-0.48zM49.3732,113.697c-0.21,0.18 -0.31,0.42 -0.31,0.71c0,0.3 0.09,0.55 0.27,0.73c0.22,0.21 0.56,0.33 1.02,0.33c0.46,0 0.8,-0.12 1.02,-0.33c0.18,-0.18 0.27,-0.43 0.27,-0.73c0,-0.29 -0.11,-0.53 -0.3,-0.71c-0.24,-0.22 -0.58,-0.33 -0.99,-0.33c-0.42,0 -0.75,0.11 -0.98,0.33zM49.2532,116.347c-0.25,0.22 -0.36,0.51 -0.36,0.86c0,0.35 0.11,0.64 0.36,0.86c0.25,0.22 0.62,0.34 1.1,0.34c0.48,0 0.84,-0.12 1.11,-0.35c0.23,-0.22 0.36,-0.5 0.36,-0.85c0,-0.35 -0.13,-0.64 -0.36,-0.86c-0.27,-0.24 -0.64,-0.35 -1.11,-0.35c-0.48,0 -0.84,0.11 -1.1,0.35zM62.7931,112.947c0.14,0 0.26,0.04 0.36,0.14c0.09,0.09 0.14,0.2 0.14,0.35c0,0.14 -0.05,0.26 -0.14,0.36c-0.1,0.09 -0.22,0.14 -0.36,0.14c-0.14,0 -0.26,-0.05 -0.36,-0.14c-0.1,-0.1 -0.14,-0.22 -0.14,-0.36c0,-0.15 0.04,-0.26 0.14,-0.35c0.1,-0.1 0.22,-0.14 0.36,-0.14zM62.4631,114.567h0.66v4.27h-0.66zM64.6731,114.567h0.66v2.61c0,0.41 0.09,0.71 0.26,0.91c0.17,0.2 0.46,0.31 0.84,0.31c0.29,0 0.54,-0.12 0.77,-0.33c0.23,-0.23 0.37,-0.53 0.42,-0.9v-2.6h0.66v4.27h-0.66v-0.66c-0.35,0.52 -0.81,0.78 -1.39,0.78c-1.04,0 -1.56,-0.59 -1.56,-1.75zM71.5931,112.817c0.7,0 1.23,0.31 1.59,0.94c0.32,0.52 0.48,1.24 0.48,2.13c0,0.89 -0.16,1.61 -0.48,2.14c-0.36,0.62 -0.89,0.93 -1.59,0.93c-0.72,0 -1.24,-0.31 -1.6,-0.93c-0.32,-0.53 -0.47,-1.25 -0.47,-2.14c0,-0.89 0.15,-1.61 0.47,-2.13c0.36,-0.63 0.88,-0.94 1.6,-0.94zM70.4431,114.247c-0.16,0.4 -0.24,0.95 -0.24,1.64c0,0.69 0.08,1.23 0.24,1.64c0.24,0.56 0.62,0.85 1.15,0.85c0.53,0 0.91,-0.29 1.14,-0.85c0.16,-0.41 0.26,-0.95 0.26,-1.64c0,-0.69 -0.1,-1.24 -0.26,-1.64c-0.23,-0.57 -0.61,-0.85 -1.14,-0.85c-0.53,0 -0.91,0.28 -1.15,0.85zM76.8031,112.817c0.71,0 1.25,0.26 1.61,0.79c0.35,0.5 0.52,1.21 0.52,2.12c0,0.95 -0.19,1.71 -0.55,2.3c-0.4,0.62 -0.93,0.93 -1.59,0.93c-1.1,0 -1.73,-0.53 -1.89,-1.58h0.67c0.13,0.67 0.53,1.01 1.23,1.01c0.45,0 0.82,-0.23 1.09,-0.69c0.26,-0.44 0.39,-0.99 0.39,-1.65c0,-0.04 -0.01,-0.12 -0.01,-0.22h-0.03c-0.15,0.3 -0.37,0.54 -0.64,0.71c-0.27,0.17 -0.57,0.26 -0.92,0.26c-0.57,0 -1.03,-0.19 -1.37,-0.56c-0.34,-0.36 -0.51,-0.82 -0.51,-1.39c0,-0.59 0.18,-1.07 0.56,-1.45c0.38,-0.39 0.86,-0.58 1.44,-0.58zM75.8431,113.797c-0.25,0.27 -0.37,0.62 -0.37,1.05c0,0.41 0.12,0.75 0.37,1c0.24,0.26 0.56,0.39 0.97,0.39c0.38,0 0.71,-0.13 0.97,-0.4c0.25,-0.26 0.38,-0.6 0.38,-1.01c0,-0.41 -0.12,-0.75 -0.36,-1.02c-0.25,-0.28 -0.58,-0.42 -0.99,-0.42c-0.4,0 -0.73,0.13 -0.97,0.41zM79.9531,114.567h3.4v0.46l-2.63,3.26h2.76v0.55h-3.62v-0.48l2.62,-3.24h-2.53zM86.0231,114.447c1.06,0 1.64,0.44 1.76,1.33h-0.65c-0.06,-0.26 -0.16,-0.46 -0.33,-0.58c-0.18,-0.13 -0.45,-0.2 -0.78,-0.2c-0.3,0 -0.53,0.05 -0.7,0.17c-0.18,0.11 -0.27,0.26 -0.27,0.45c0,0.18 0.11,0.34 0.36,0.46c0.16,0.08 0.46,0.17 0.89,0.28c0.51,0.13 0.87,0.26 1.1,0.4c0.34,0.21 0.51,0.5 0.51,0.88c0,0.87 -0.6,1.32 -1.81,1.32c-1.13,0 -1.74,-0.5 -1.84,-1.48h0.65c0.05,0.34 0.17,0.58 0.35,0.73c0.18,0.13 0.46,0.2 0.82,0.2c0.76,0 1.15,-0.25 1.15,-0.73c0,-0.24 -0.14,-0.42 -0.4,-0.56c-0.14,-0.06 -0.45,-0.15 -0.91,-0.27c-0.51,-0.12 -0.86,-0.25 -1.06,-0.38c-0.33,-0.2 -0.49,-0.47 -0.49,-0.84c0,-0.36 0.16,-0.64 0.48,-0.86c0.3,-0.21 0.69,-0.32 1.17,-0.32z"></path></g><path id="12wqw8…iu09zs" fill-rule="evenodd" style="fill:#777777" opacity="1" d="M54.5131,118.223c0.149,0 0.264,0.041 0.364,0.141c0.091,0.091 0.14,0.207 0.14,0.347c0,0.149 -0.049,0.265 -0.14,0.356c-0.1,0.091 -0.224,0.141 -0.364,0.141c-0.141,0 -0.257,-0.05 -0.348,-0.141c-0.099,-0.099 -0.149,-0.215 -0.149,-0.356c0,-0.14 0.05,-0.256 0.149,-0.347c0.091,-0.1 0.207,-0.141 0.348,-0.141zM57.2771,118.223c0.14,0 0.265,0.041 0.364,0.141c0.091,0.091 0.141,0.207 0.141,0.347c0,0.149 -0.05,0.265 -0.141,0.356c-0.099,0.091 -0.224,0.141 -0.364,0.141c-0.141,0 -0.257,-0.05 -0.356,-0.141c-0.099,-0.099 -0.141,-0.215 -0.141,-0.356c0,-0.14 0.042,-0.256 0.141,-0.347c0.099,-0.1 0.215,-0.141 0.356,-0.141zM60.033,118.223c0.14,0 0.256,0.041 0.356,0.141c0.099,0.091 0.148,0.207 0.148,0.347c0,0.149 -0.049,0.265 -0.148,0.356c-0.1,0.091 -0.216,0.141 -0.356,0.141c-0.141,0 -0.257,-0.05 -0.356,-0.141c-0.1,-0.099 -0.141,-0.215 -0.141,-0.356c0,-0.14 0.041,-0.256 0.141,-0.347c0.099,-0.1 0.215,-0.141 0.356,-0.141z"></path><g opacity="1"  transform="translate(95.86279296875 111.724609375)  rotate(0)"><path id="形状结合备份 4" fill-rule="evenodd" style="fill:#2F8DE3" opacity="1" d="M7.68238,5.67039v-4.77999c0,-0.15 -0.09999,-0.27 -0.23999,-0.29l-0.05,-0.01h-4.73c-0.14999,0 -0.26999,0.11 -0.28999,0.24l-0.01,0.06v0.8844h3.25759c0.49,0 0.88,0.4 0.88,0.88999v3.2456h0.8924c0.14,0 0.25999,-0.1 0.28999,-0.24zM6.49999,6.50039v0.89439c0,0.49 -0.39,0.88 -0.88,0.88h-4.72999c-0.49,0 -0.89,-0.39 -0.89,-0.88l0,-4.72999c0,-0.48999 0.4,-0.88999 0.89,-0.88999h0.8824v-0.8844c0,-0.46 0.35,-0.84 0.79999,-0.89l4.82,0c0.45999,0 0.83999,0.35 0.87999,0.8v4.81999c0,0.46 -0.35,0.84 -0.8,0.88zM1.97752,2.36509h-1.08772c-0.17,0 -0.3,0.13 -0.3,0.3v4.71999c0,0.17 0.13,0.3 0.3,0.3h4.71999c0.17,0 0.3,-0.13 0.3,-0.3v-4.71999c0,-0.17 -0.13,-0.3 -0.3,-0.3h-3.44455c-0.02916,0.00995 -0.06038,0.01531 -0.09284,0.01531c-0.03333,0 -0.06517,-0.00543 -0.09488,-0.01531z"></path></g><g opacity="1"  transform="translate(171.9931640625 23.93310546875)  rotate(0)"><path id="形状结合" fill-rule="evenodd" style="fill:#FFFFFF" opacity="1" d="M3.43233,6.80861c-0.00565,0.00607 -0.01143,0.01207 -0.01735,0.01798c-0.06994,0.06995 -0.15139,0.12169 -0.23834,0.15523c-0.24733,0.09583 -0.53951,0.04421 -0.73858,-0.15486c-0.00885,-0.00885 -0.01741,-0.01788 -0.02568,-0.02709l-1.92466,-1.92466c-0.26868,-0.26868 -0.26864,-0.70708 0.00008,-0.9758c0.26872,-0.26872 0.70713,-0.26876 0.97581,-0.00008l1.46308,1.46308l2.92654,-2.92655c0.2687,-0.26869 0.70713,-0.26866 0.97586,0.00007c0.26873,0.26873 0.26876,0.70716 0.00007,0.97585z"></path></g><path id="矩形备份 144" fill-rule="evenodd" style="fill:#F7F7F8" opacity="1" d="M19.794 208.69L180.204 208.69C183.514 208.69 186.204 206 186.204 202.69L186.204 152.62C186.204 149.31 183.514 146.62 180.204 146.62L19.7939 146.62C16.4839 146.62 13.7939 149.31 13.7939 152.62L13.7939 202.69C13.7939 206 16.4839 208.69 19.794 208.69Z"></path><path id="87293 SWTC" fill-rule="evenodd" style="fill:#232323" opacity="1" d="M153.54,196.01c0.8,0 1.43,0.16 1.88,0.51c0.49,0.36 0.76,0.91 0.82,1.66h-1.04c-0.1,-0.44 -0.27,-0.77 -0.54,-0.96c-0.27,-0.21 -0.66,-0.3 -1.18,-0.3c-0.45,0 -0.8,0.07 -1.04,0.2c-0.3,0.15 -0.44,0.41 -0.44,0.75c0,0.31 0.16,0.55 0.51,0.74c0.15,0.08 0.55,0.23 1.19,0.42c0.93,0.29 1.54,0.51 1.81,0.68c0.59,0.36 0.89,0.85 0.89,1.48c0,0.62 -0.24,1.11 -0.73,1.46c-0.48,0.35 -1.15,0.52 -2.02,0.52c-0.84,0 -1.5,-0.17 -1.97,-0.5c-0.57,-0.4 -0.88,-1.04 -0.94,-1.91h1.04c0.08,0.54 0.27,0.94 0.58,1.17c0.28,0.21 0.71,0.32 1.29,0.32c0.52,0 0.93,-0.1 1.24,-0.27c0.31,-0.18 0.47,-0.42 0.47,-0.73c0,-0.38 -0.23,-0.68 -0.66,-0.9c-0.16,-0.08 -0.61,-0.24 -1.37,-0.47c-0.85,-0.27 -1.37,-0.45 -1.59,-0.57c-0.53,-0.32 -0.79,-0.78 -0.79,-1.38c0,-0.61 0.25,-1.08 0.77,-1.43c0.48,-0.33 1.09,-0.49 1.82,-0.49zM156.75,196.15h1.18l1.35,5.36h0.03l1.41,-5.36h1.1l1.41,5.36h0.04l1.34,-5.36h1.19l-1.99,6.89h-1.12l-1.4,-5.32h-0.04l-1.4,5.32h-1.13zM166,196.15h5.64v0.89h-2.29v6h-1.05v-6h-2.3zM175.47,196.01c0.8,0 1.46,0.2 1.99,0.63c0.5,0.4 0.81,0.96 0.91,1.66h-1.02c-0.12,-0.47 -0.34,-0.81 -0.67,-1.03c-0.32,-0.23 -0.73,-0.33 -1.23,-0.33c-0.75,0 -1.31,0.25 -1.68,0.76c-0.36,0.46 -0.53,1.1 -0.53,1.9c0,0.83 0.17,1.47 0.52,1.92c0.36,0.49 0.93,0.73 1.71,0.73c0.5,0 0.92,-0.13 1.25,-0.38c0.35,-0.27 0.59,-0.68 0.73,-1.22h1.02c-0.15,0.81 -0.51,1.43 -1.08,1.89c-0.53,0.42 -1.17,0.63 -1.91,0.63c-1.13,0 -1.98,-0.36 -2.55,-1.08c-0.5,-0.62 -0.75,-1.45 -0.75,-2.49c0,-1.02 0.26,-1.85 0.78,-2.5c0.58,-0.73 1.41,-1.09 2.51,-1.09z"></path><path id="87293 SWTC" fill-rule="evenodd" style="fill:#232323" opacity="1" d="M153.537,130c0.8,0 1.43,0.16 1.88,0.51c0.49,0.36 0.76,0.91 0.82,1.66h-1.04c-0.1,-0.44 -0.27,-0.77 -0.54,-0.96c-0.27,-0.21 -0.66,-0.3 -1.18,-0.3c-0.45,0 -0.8,0.07 -1.04,0.2c-0.3,0.15 -0.44,0.41 -0.44,0.75c0,0.31 0.16,0.55 0.51,0.74c0.15,0.08 0.55,0.23 1.19,0.42c0.93,0.29 1.54,0.51 1.81,0.68c0.59,0.36 0.89,0.85 0.89,1.48c0,0.62 -0.24,1.11 -0.73,1.46c-0.48,0.35 -1.15,0.52 -2.02,0.52c-0.84,0 -1.5,-0.17 -1.97,-0.5c-0.57,-0.4 -0.88,-1.04 -0.94,-1.91h1.04c0.08,0.54 0.27,0.94 0.58,1.17c0.28,0.21 0.71,0.32 1.29,0.32c0.52,0 0.93,-0.1 1.24,-0.27c0.31,-0.18 0.47,-0.42 0.47,-0.73c0,-0.38 -0.23,-0.68 -0.66,-0.9c-0.16,-0.08 -0.61,-0.24 -1.37,-0.47c-0.85,-0.27 -1.37,-0.45 -1.59,-0.57c-0.53,-0.32 -0.79,-0.78 -0.79,-1.38c0,-0.61 0.25,-1.08 0.77,-1.43c0.48,-0.33 1.09,-0.49 1.82,-0.49zM156.747,130.14h1.18l1.35,5.36h0.03l1.41,-5.36h1.1l1.41,5.36h0.04l1.34,-5.36h1.19l-1.99,6.89h-1.12l-1.4,-5.32h-0.04l-1.4,5.32h-1.13zM165.997,130.14h5.64v0.89h-2.29v6h-1.05v-6h-2.3zM175.467,130c0.8,0 1.46,0.2 1.99,0.63c0.5,0.4 0.81,0.96 0.91,1.66h-1.02c-0.12,-0.47 -0.34,-0.81 -0.67,-1.03c-0.32,-0.23 -0.73,-0.33 -1.23,-0.33c-0.75,0 -1.31,0.25 -1.68,0.76c-0.36,0.46 -0.53,1.1 -0.53,1.9c0,0.83 0.17,1.47 0.52,1.92c0.36,0.49 0.93,0.73 1.71,0.73c0.5,0 0.92,-0.13 1.25,-0.38c0.35,-0.27 0.59,-0.68 0.73,-1.22h1.02c-0.15,0.81 -0.51,1.43 -1.08,1.89c-0.53,0.42 -1.17,0.63 -1.91,0.63c-1.13,0 -1.98,-0.36 -2.55,-1.08c-0.5,-0.62 -0.75,-1.45 -0.75,-2.49c0,-1.02 0.26,-1.85 0.78,-2.5c0.58,-0.73 1.41,-1.09 2.51,-1.09z"></path><g id="拼合图形" filter="url(#filter_30)"><path id="拼合图形" fill-rule="evenodd" style="fill:#777777" opacity="1" d="M68.9641,182.549c0.34,-0.33 0.82,-0.48 1.44,-0.48c0.62,0 1.1,0.15 1.45,0.48c0.32,0.29 0.48,0.65 0.48,1.08c0,0.32 -0.07,0.59 -0.22,0.8c-0.17,0.23 -0.4,0.4 -0.71,0.51v0.01c0.31,0.08 0.57,0.26 0.79,0.52c0.24,0.28 0.35,0.62 0.35,0.99c0,0.53 -0.18,0.95 -0.54,1.26c-0.39,0.33 -0.92,0.49 -1.6,0.49c-0.68,0 -1.21,-0.16 -1.59,-0.49c-0.36,-0.31 -0.54,-0.73 -0.54,-1.26c0,-0.37 0.11,-0.71 0.35,-0.99c0.21,-0.26 0.47,-0.44 0.78,-0.52v-0.01c-0.31,-0.11 -0.54,-0.28 -0.7,-0.51c-0.15,-0.21 -0.23,-0.48 -0.23,-0.8c0,-0.43 0.16,-0.79 0.49,-1.08zM77.8041,182.659c0.3599,-0.39 0.84,-0.59 1.4399,-0.59c0.55,0 0.99,0.15 1.35,0.47c0.34,0.31 0.53,0.74 0.53,1.25c0,0.51 -0.2,0.98 -0.58,1.4c-0.21,0.2 -0.61,0.53 -1.22,0.94c-0.7499,0.51 -1.19,0.96 -1.29,1.36h3.1v0.6h-3.9399c0,-0.54 0.19,-1.02 0.59,-1.46c0.23,-0.27 0.65,-0.62 1.2799,-1.05c0.47,-0.33 0.77,-0.57 0.93,-0.74c0.3,-0.32 0.45,-0.68 0.45,-1.05c0,-0.37 -0.11,-0.64 -0.32,-0.84c-0.22,-0.2 -0.52,-0.3 -0.9,-0.3c-0.41,0 -0.7199,0.14 -0.94,0.41c-0.2299,0.27 -0.3499,0.66 -0.3599,1.19h-0.68c0,-0.66 0.19,-1.2 0.56,-1.59zM74.2441,182.789c0.28,-0.18 0.51,-0.38 0.71,-0.6h0.53v5.9h-0.68v-5.07c-0.37,0.37 -0.83,0.64 -1.39,0.8v-0.67c0.26,-0.08 0.55,-0.2 0.83,-0.36zM69.1141,183.659c0,0.29 0.09,0.55 0.28,0.73c0.21,0.21 0.55,0.33 1.01,0.33c0.46,0 0.8,-0.12 1.02,-0.33c0.18,-0.18 0.28,-0.44 0.28,-0.73c0,-0.29 -0.11,-0.53 -0.31,-0.71c-0.24,-0.22 -0.57,-0.33 -0.99,-0.33c-0.42,0 -0.75,0.11 -0.98,0.33c-0.21,0.18 -0.31,0.42 -0.31,0.71zM57.0342,184.389c0.35,-0.47 0.84,-0.69 1.47,-0.69c0.63,0 1.1,0.27 1.42,0.82v-0.7h0.62v5.91h-0.67v-2.41c-0.33,0.6 -0.8,0.89 -1.4,0.89c-0.62,0 -1.1,-0.23 -1.45,-0.68c-0.32,-0.41 -0.47,-0.94 -0.47,-1.56c0,-0.65 0.15,-1.17 0.48,-1.58zM62.8642,188.089l-1.46,-4.27h0.73l1.05,3.47l0.9899,-3.47h0.63l0.99,3.47l1.05,-3.47h0.73l-1.46,4.27h-0.63l-0.99,-3.44l-1.01,3.44zM83.454,188.089l-1.45,-4.27h0.72l1.05,3.47l1,-3.47h0.62l0.99,3.47l1.05,-3.47h0.73l-1.46,4.27h-0.63l-0.99,-3.44l-1.01,3.44zM57.2342,185.969c0,0.51 0.1,0.92 0.32,1.22c0.23,0.31 0.59,0.47 1.05,0.47c0.38,0 0.7,-0.15 0.93,-0.45c0.24,-0.31 0.37,-0.7 0.37,-1.2v-0.09c0,-0.47 -0.11,-0.87 -0.32,-1.17c-0.24,-0.34 -0.57,-0.5 -1,-0.5c-0.47,0 -0.81,0.16 -1.05,0.51c-0.2,0.29 -0.3,0.7 -0.3,1.21zM68.9441,186.459c0,0.35 0.12,0.64 0.36,0.86c0.25,0.22 0.63,0.33 1.1,0.33c0.48,0 0.85,-0.11 1.11,-0.34c0.23,-0.22 0.36,-0.5 0.36,-0.85c0,-0.35 -0.13,-0.64 -0.36,-0.86c-0.26,-0.24 -0.64,-0.35 -1.11,-0.35c-0.47,0 -0.84,0.11 -1.1,0.35c-0.24,0.22 -0.36,0.51 -0.36,0.86z"></path></g><g id="12wqw8…iu09zs" filter="url(#filter_32)"><path id="12wqw8…iu09zs" fill-rule="evenodd" style="fill:#777777" opacity="1" d="M21.3154,182.06c0.14,0 0.25,0.04 0.35,0.14c0.1,0.09 0.15,0.2 0.15,0.35c0,0.14 -0.05,0.26 -0.15,0.36c-0.1,0.09 -0.21,0.14 -0.35,0.14c-0.14,0 -0.26,-0.05 -0.36,-0.14c-0.1,-0.1 -0.14,-0.22 -0.14,-0.36c0,-0.15 0.04,-0.26 0.14,-0.35c0.1,-0.1 0.22,-0.14 0.36,-0.14zM20.9854,183.68h0.66v4.27h-0.66zM23.1954,183.68h0.66v2.61c0,0.41 0.08,0.71 0.26,0.91c0.17,0.2 0.45,0.31 0.84,0.31c0.28,0 0.54,-0.12 0.76,-0.33c0.24,-0.23 0.38,-0.53 0.43,-0.9v-2.6h0.66v4.27h-0.66v-0.66c-0.35,0.52 -0.82,0.78 -1.39,0.78c-1.05,0 -1.56,-0.59 -1.56,-1.75zM30.1053,181.93c0.71,0 1.24,0.31 1.6,0.94c0.32,0.52 0.47,1.24 0.47,2.13c0,0.89 -0.15,1.61 -0.47,2.14c-0.36,0.62 -0.89,0.93 -1.6,0.93c-0.7099,0 -1.2399,-0.31 -1.5899,-0.93c-0.32,-0.53 -0.48,-1.25 -0.48,-2.14c0,-0.89 0.16,-1.61 0.48,-2.13c0.35,-0.63 0.88,-0.94 1.5899,-0.94zM28.9654,183.36c-0.16,0.4 -0.25,0.95 -0.25,1.64c0,0.69 0.09,1.23 0.25,1.64c0.23,0.56 0.61,0.85 1.1399,0.85c0.53,0 0.91,-0.29 1.15,-0.85c0.16,-0.41 0.25,-0.95 0.25,-1.64c0,-0.69 -0.09,-1.24 -0.25,-1.64c-0.24,-0.57 -0.62,-0.85 -1.15,-0.85c-0.5299,0 -0.9099,0.28 -1.1399,0.85zM35.3153,181.93c0.72,0 1.25,0.26 1.62,0.79c0.34,0.5 0.52,1.21 0.52,2.12c0,0.95 -0.19,1.71 -0.56,2.3c-0.39,0.62 -0.92,0.93 -1.58,0.93c-1.11,0 -1.73,-0.53 -1.89,-1.58h0.67c0.12,0.67 0.53,1.01 1.22,1.01c0.46,0 0.82,-0.23 1.1,-0.69c0.25,-0.44 0.38,-0.99 0.38,-1.65c0,-0.04 0,-0.12 0,-0.22h-0.04c-0.15,0.3 -0.36,0.54 -0.63,0.71c-0.27,0.17 -0.57,0.26 -0.92,0.26c-0.57,0 -1.03,-0.19 -1.38,-0.56c-0.34,-0.36 -0.5,-0.82 -0.5,-1.39c0,-0.59 0.18,-1.07 0.56,-1.45c0.37,-0.39 0.85,-0.58 1.43,-0.58zM34.3553,182.91c-0.24,0.27 -0.36,0.62 -0.36,1.05c0,0.41 0.12,0.75 0.36,1c0.24,0.26 0.57,0.39 0.98,0.39c0.38,0 0.7,-0.13 0.97,-0.4c0.25,-0.26 0.38,-0.6 0.38,-1.01c0,-0.41 -0.13,-0.75 -0.37,-1.02c-0.24,-0.28 -0.57,-0.42 -0.98,-0.42c-0.41,0 -0.73,0.13 -0.98,0.41zM38.4653,183.68h3.3999v0.46l-2.6199,3.26h2.7599v0.55h-3.6199v-0.48l2.6199,-3.24h-2.5399zM44.5452,183.56c1.06,0 1.64,0.44 1.76,1.33h-0.65c-0.06,-0.26 -0.17,-0.46 -0.33,-0.58c-0.18,-0.13 -0.45,-0.2 -0.79,-0.2c-0.29,0 -0.53,0.05 -0.69,0.17c-0.18,0.11 -0.28,0.26 -0.28,0.45c0,0.18 0.12,0.34 0.37,0.46c0.16,0.08 0.45,0.17 0.88,0.28c0.52,0.13 0.88,0.26 1.11,0.4c0.33,0.21 0.51,0.5 0.51,0.88c0,0.87 -0.61,1.32 -1.81,1.32c-1.13,0 -1.74,-0.5 -1.84,-1.48h0.64c0.05,0.34 0.18,0.58 0.36,0.73c0.18,0.13 0.46,0.2 0.82,0.2c0.76,0 1.15,-0.25 1.15,-0.73c0,-0.24 -0.14,-0.42 -0.41,-0.56c-0.14,-0.06 -0.44,-0.15 -0.91,-0.27c-0.5,-0.12 -0.86,-0.25 -1.06,-0.38c-0.33,-0.2 -0.48,-0.47 -0.48,-0.84c0,-0.36 0.15,-0.64 0.48,-0.86c0.29,-0.21 0.69,-0.32 1.17,-0.32z"></path></g><path id="12wqw8…iu09zs" fill-rule="evenodd" style="fill:#777777" opacity="1" d="M49.1825,187.339c0.149,0 0.264,0.041 0.364,0.141c0.091,0.091 0.14,0.207 0.14,0.347c0,0.149 -0.049,0.265 -0.14,0.356c-0.1,0.091 -0.224,0.141 -0.364,0.141c-0.141,0 -0.257,-0.05 -0.348,-0.141c-0.099,-0.099 -0.149,-0.215 -0.149,-0.356c0,-0.14 0.05,-0.256 0.149,-0.347c0.091,-0.1 0.207,-0.141 0.348,-0.141zM51.9465,187.339c0.14,0 0.265,0.041 0.364,0.141c0.091,0.091 0.141,0.207 0.141,0.347c0,0.149 -0.05,0.265 -0.141,0.356c-0.099,0.091 -0.224,0.141 -0.364,0.141c-0.141,0 -0.257,-0.05 -0.356,-0.141c-0.099,-0.099 -0.141,-0.215 -0.141,-0.356c0,-0.14 0.042,-0.256 0.141,-0.347c0.099,-0.1 0.215,-0.141 0.356,-0.141zM54.7025,187.339c0.1399,0 0.2559,0.041 0.3559,0.141c0.099,0.091 0.148,0.207 0.148,0.347c0,0.149 -0.049,0.265 -0.148,0.356c-0.1,0.091 -0.216,0.141 -0.3559,0.141c-0.141,0 -0.257,-0.05 -0.356,-0.141c-0.1,-0.099 -0.141,-0.215 -0.141,-0.356c0,-0.14 0.041,-0.256 0.141,-0.347c0.099,-0.1 0.215,-0.141 0.356,-0.141z"></path><path id="文本 12" fill-rule="evenodd" style="fill:#000000" opacity="1" d="M23.8401,161.92c0.78,0 1.4,0.16 1.83,0.49c0.47,0.35 0.74,0.9 0.8,1.63h-1.08c-0.09,-0.41 -0.27,-0.71 -0.51,-0.89c-0.24,-0.19 -0.61,-0.28 -1.1,-0.28c-0.42,0 -0.73,0.06 -0.96,0.18c-0.28,0.14 -0.41,0.38 -0.41,0.7c0,0.28 0.15,0.52 0.47,0.69c0.14,0.07 0.52,0.22 1.14,0.41c0.9,0.29 1.48,0.51 1.74,0.66c0.57,0.35 0.86,0.83 0.86,1.46c0,0.6 -0.23,1.08 -0.7,1.43c-0.46,0.34 -1.12,0.52 -1.97,0.52c-0.82,0 -1.46,-0.16 -1.92,-0.48c-0.56,-0.4 -0.86,-1.02 -0.91,-1.88h1.08c0.07,0.51 0.25,0.88 0.54,1.1c0.26,0.18 0.66,0.29 1.21,0.29c0.48,0 0.88,-0.09 1.15,-0.25c0.28,-0.17 0.43,-0.38 0.43,-0.67c0,-0.36 -0.21,-0.64 -0.62,-0.85c-0.13,-0.06 -0.56,-0.21 -1.29,-0.44c-0.82,-0.26 -1.34,-0.45 -1.53,-0.57c-0.51,-0.31 -0.77,-0.76 -0.77,-1.35c0,-0.6 0.25,-1.07 0.75,-1.41c0.47,-0.33 1.05,-0.49 1.77,-0.49zM26.9501,162.05h1.23l1.24,5.12h0.04l1.31,-5.12h1.13l1.31,5.12h0.04l1.25,-5.12h1.23l-1.92,6.74h-1.15l-1.3,-5.07h-0.04l-1.3,5.07h-1.16zM35.9101,162.05h5.45v0.95h-2.18v5.79h-1.09v-5.79h-2.18zM45.0401,161.92c0.78,0 1.43,0.21 1.93,0.62c0.49,0.4 0.78,0.95 0.88,1.63h-1.06c-0.11,-0.45 -0.32,-0.77 -0.63,-0.98c-0.29,-0.2 -0.68,-0.3 -1.14,-0.3c-0.7,0 -1.22,0.24 -1.57,0.73c-0.33,0.43 -0.49,1.04 -0.49,1.81c0,0.79 0.16,1.41 0.48,1.83c0.34,0.45 0.88,0.69 1.61,0.69c0.47,0 0.86,-0.12 1.16,-0.35c0.32,-0.26 0.54,-0.64 0.67,-1.15h1.06c-0.15,0.79 -0.49,1.4 -1.04,1.85c-0.51,0.41 -1.13,0.62 -1.84,0.62c-1.11,0 -1.94,-0.36 -2.48,-1.06c-0.48,-0.6 -0.71,-1.41 -0.71,-2.43c0,-1 0.24,-1.82 0.74,-2.44c0.56,-0.72 1.37,-1.07 2.43,-1.07zM51.4601,163.91h1.17l0.96,3.6l0.95,-3.6h0.98l0.95,3.6l0.96,-3.6h1.17l-1.62,4.88h-0.98l-0.96,-3.57l-0.97,3.57h-0.99zM61.4001,163.78c0.7,0 1.23,0.18 1.57,0.54c0.3,0.31 0.45,0.76 0.45,1.35v3.12h-0.99v-0.64c-0.19,0.24 -0.42,0.42 -0.69,0.55c-0.31,0.14 -0.67,0.22 -1.09,0.22c-0.5,0 -0.89,-0.13 -1.18,-0.39c-0.3,-0.26 -0.45,-0.59 -0.45,-1c0,-0.54 0.21,-0.97 0.63,-1.26c0.4,-0.28 0.94,-0.43 1.65,-0.45l1.05,-0.03v-0.19c0,-0.64 -0.34,-0.95 -1.03,-0.95c-0.3,0 -0.53,0.04 -0.71,0.16c-0.2,0.12 -0.34,0.31 -0.4,0.56l-1.05,-0.08c0.1,-0.54 0.36,-0.94 0.78,-1.18c0.36,-0.23 0.84,-0.33 1.46,-0.33zM61.3801,166.59c-0.85,0.02 -1.27,0.32 -1.27,0.91c0,0.17 0.07,0.31 0.21,0.42c0.15,0.11 0.34,0.18 0.57,0.18c0.41,0 0.76,-0.12 1.04,-0.36c0.28,-0.24 0.42,-0.56 0.42,-0.93v-0.25zM64.6301,161.92h1.06v6.87h-1.06zM66.9901,161.92h1.06v6.87h-1.06zM71.3101,163.78c0.79,0 1.4,0.26 1.82,0.81c0.38,0.49 0.57,1.18 0.57,2.06h-3.6c0.04,0.45 0.16,0.8 0.36,1.03c0.21,0.24 0.51,0.36 0.89,0.36c0.32,0 0.58,-0.07 0.79,-0.22c0.16,-0.13 0.3,-0.32 0.43,-0.6h1.06c-0.11,0.45 -0.34,0.84 -0.67,1.14c-0.43,0.37 -0.96,0.56 -1.6,0.56c-0.72,0 -1.29,-0.23 -1.71,-0.67c-0.44,-0.46 -0.67,-1.09 -0.67,-1.91c0,-0.72 0.21,-1.33 0.64,-1.82c0.41,-0.5 0.97,-0.74 1.69,-0.74zM70.5101,164.96c-0.2,0.2 -0.33,0.49 -0.39,0.88h2.48c-0.1,-0.8 -0.52,-1.18 -1.26,-1.18c-0.36,0 -0.63,0.09 -0.83,0.3zM76.0501,162.34v1.57h1.07v0.89h-1.07v2.75c0,0.12 0.02,0.2 0.07,0.27c0.06,0.05 0.13,0.08 0.25,0.08h0.63v0.89h-0.81c-0.42,0 -0.73,-0.12 -0.92,-0.34c-0.19,-0.21 -0.28,-0.5 -0.28,-0.9v-2.75h-0.87v-0.89h0.87v-1.13z"></path><g id="拼合图形" filter="url(#filter_36)"><path id="拼合图形" fill-rule="evenodd" style="fill:#232323" opacity="1" d="M120.68,196.91c0.47,-0.46 1.04,-0.68 1.73,-0.68c0.84,0 1.47,0.3 1.91,0.92c0.43,0.59 0.65,1.4 0.65,2.47c0,1.12 -0.23,2.03 -0.69,2.73c-0.46,0.69 -1.1,1.04 -1.89,1.04c-1.34,0 -2.09,-0.62 -2.27,-1.87h1.03c0.13,0.66 0.56,1 1.26,1c0.47,0 0.84,-0.24 1.14,-0.7c0.27,-0.44 0.41,-1.01 0.41,-1.67c0,-0.04 -0.01,-0.07 -0.01,-0.13h-0.04c-0.19,0.3 -0.44,0.53 -0.73,0.68c-0.28,0.14 -0.6,0.21 -0.96,0.21c-0.67,0 -1.23,-0.22 -1.63,-0.66c-0.4,-0.42 -0.59,-0.97 -0.59,-1.64c0,-0.7 0.22,-1.26 0.68,-1.7zM126.69,196.8c0.43,-0.39 0.98,-0.57 1.65,-0.57c0.7,0 1.24,0.16 1.68,0.5c0.4,0.34 0.61,0.8 0.61,1.39c0,0.76 -0.38,1.26 -1.14,1.52c0.41,0.12 0.72,0.32 0.93,0.57c0.23,0.26 0.35,0.6 0.35,1c0,0.64 -0.22,1.16 -0.66,1.57c-0.46,0.4 -1.07,0.61 -1.81,0.61c-0.7,0 -1.27,-0.18 -1.69,-0.54c-0.49,-0.4 -0.76,-0.99 -0.82,-1.77h1.06c0.03,0.47 0.17,0.83 0.46,1.08c0.25,0.23 0.57,0.35 0.98,0.35c0.45,0 0.8,-0.14 1.08,-0.39c0.23,-0.23 0.35,-0.51 0.35,-0.86c0,-0.41 -0.12,-0.71 -0.37,-0.9c-0.23,-0.19 -0.58,-0.28 -1.03,-0.28h-0.51v-0.8h0.49c0.43,0 0.75,-0.1 0.96,-0.28c0.21,-0.19 0.32,-0.45 0.32,-0.8c0,-0.35 -0.1,-0.61 -0.3,-0.79c-0.2,-0.2 -0.53,-0.28 -0.93,-0.28c-0.41,0 -0.74,0.11 -0.97,0.32c-0.23,0.21 -0.38,0.53 -0.42,0.95h-1.03c0.05,-0.69 0.31,-1.22 0.76,-1.6zM132.66,196.81c0.42,-0.39 1,-0.58 1.74,-0.58c0.73,0 1.32,0.19 1.75,0.58c0.38,0.34 0.58,0.78 0.58,1.3c0,0.35 -0.08,0.65 -0.24,0.89c-0.16,0.26 -0.43,0.45 -0.77,0.59v0.03c0.32,0.08 0.61,0.27 0.84,0.58c0.27,0.33 0.41,0.71 0.41,1.14c0,0.61 -0.22,1.1 -0.67,1.48c-0.45,0.38 -1.09,0.57 -1.9,0.57c-0.82,0 -1.46,-0.19 -1.9,-0.57c-0.44,-0.38 -0.67,-0.87 -0.67,-1.48c0,-0.43 0.14,-0.81 0.41,-1.14c0.23,-0.31 0.51,-0.5 0.85,-0.58v-0.03c-0.35,-0.14 -0.61,-0.33 -0.78,-0.59c-0.16,-0.24 -0.24,-0.54 -0.24,-0.89c0,-0.52 0.19,-0.96 0.59,-1.3zM143.84,196.98c0.45,-0.51 1.05,-0.75 1.78,-0.75c0.66,0 1.21,0.18 1.64,0.57c0.4,0.38 0.62,0.88 0.62,1.48c0,0.6 -0.23,1.14 -0.68,1.63c-0.27,0.29 -0.74,0.66 -1.43,1.12c-0.74,0.49 -1.18,0.92 -1.33,1.3h3.45v0.93h-4.75c0,-0.68 0.22,-1.28 0.69,-1.81c0.25,-0.3 0.76,-0.71 1.55,-1.25c0.46,-0.33 0.79,-0.59 0.98,-0.79c0.31,-0.35 0.48,-0.73 0.48,-1.13c0,-0.39 -0.11,-0.68 -0.32,-0.87c-0.21,-0.2 -0.53,-0.3 -0.94,-0.3c-0.43,0 -0.76,0.15 -0.99,0.45c-0.23,0.29 -0.34,0.71 -0.36,1.27h-1.05c0.01,-0.78 0.23,-1.39 0.66,-1.85zM137.59,197.32v-0.95h4.64v0.84l-2.44,6.05h-1.12l2.5,-5.94zM133.06,198.15c0,0.32 0.09,0.58 0.27,0.77c0.22,0.23 0.58,0.35 1.07,0.35c0.49,0 0.84,-0.12 1.07,-0.35c0.18,-0.19 0.27,-0.45 0.27,-0.77c0,-0.3 -0.11,-0.55 -0.32,-0.74c-0.26,-0.23 -0.59,-0.34 -1.02,-0.34c-0.42,0 -0.76,0.11 -1.01,0.34c-0.23,0.19 -0.33,0.44 -0.33,0.74zM121.03,198.61c0,0.44 0.13,0.79 0.39,1.05c0.24,0.27 0.58,0.4 1.01,0.4c0.43,0 0.78,-0.13 1.02,-0.4c0.26,-0.28 0.38,-0.64 0.38,-1.08c0,-0.46 -0.13,-0.81 -0.38,-1.07c-0.27,-0.27 -0.6,-0.41 -1,-0.41c-0.43,0 -0.78,0.14 -1.03,0.42c-0.26,0.29 -0.39,0.64 -0.39,1.09zM132.88,201.34c0,0.35 0.12,0.64 0.39,0.87c0.26,0.22 0.64,0.34 1.13,0.34c0.49,0 0.87,-0.12 1.15,-0.34c0.25,-0.23 0.38,-0.52 0.38,-0.87c0,-0.39 -0.13,-0.69 -0.38,-0.91c-0.27,-0.25 -0.65,-0.38 -1.15,-0.38c-0.5,0 -0.89,0.12 -1.14,0.37c-0.26,0.23 -0.38,0.53 -0.38,0.92z"></path></g><g opacity="1"  transform="translate(95.0927734375 180.69189453125)  rotate(0)"><path id="形状结合备份 4" fill-rule="evenodd" style="fill:#2F8DE3" opacity="1" d="M6.49999,5.91029h0.8929c0.14,0 0.25999,-0.1 0.28999,-0.24v-4.77999c0,-0.15 -0.1,-0.27 -0.24,-0.29l-0.04999,-0.01h-4.73c-0.14999,0 -0.26999,0.11 -0.28999,0.24l-0.01,0.06v0.8839h3.25709c0.49,0 0.88,0.4 0.88,0.88999zM6.49999,7.39418c0,0.49 -0.39,0.88 -0.88,0.88h-4.72999c-0.49,0 -0.89,-0.39 -0.89,-0.88l0,-4.72999c0,-0.48999 0.4,-0.88999 0.89,-0.88999h0.8829v-0.8839c0,-0.46 0.35,-0.84 0.79999,-0.89l4.82,0c0.45999,0 0.83999,0.35 0.87999,0.8v4.81999c0,0.46 -0.35,0.84 -0.8,0.88h-0.97289zM1.97802,2.365h-1.08722c-0.17,0 -0.3,0.12999 -0.3,0.29999v4.71999c0,0.17 0.13,0.3 0.3,0.3h4.71999c0.17,0 0.3,-0.13 0.3,-0.3v-4.71999c0,-0.17 -0.13,-0.29999 -0.3,-0.29999h-3.44505c-0.02916,0.00994 -0.06038,0.0153 -0.09284,0.0153c-0.03333,0 -0.06517,-0.00543 -0.09488,-0.0153z"></path></g><path  id="矩形备份 17" style="fill:#2F8DE3; opacity:1;" d="M58.6186,260.194h82.7604c3.69,0 6.945,-1.453 9.373,-3.87c2.445,-2.434 3.917,-5.713 3.917,-9.43c0,-3.703 -1.462,-6.969 -3.891,-9.399c-2.43,-2.429 -5.696,-3.891 -9.399,-3.891h-82.7604c-7.3398,0 -13.29,5.951 -13.29,13.29c0,3.717 1.4717,6.995 3.9166,9.43c2.4279,2.417 5.6834,3.87 9.3734,3.87zM58.6186,261.194c-3.9031,0 -7.5209,-1.615 -10.0789,-4.162c-2.576,-2.564 -4.2111,-6.207 -4.2111,-10.138c0,-7.892 6.3979,-14.29 14.29,-14.29h82.7604c3.916,0 7.545,1.624 10.106,4.184c2.56,2.561 4.184,6.19 4.184,10.106c0,3.931 -1.635,7.574 -4.211,10.138c-2.558,2.547 -6.176,4.162 -10.079,4.162z"></path><path id="下一步" fill-rule="evenodd" style="fill:#2F8DE3" opacity="1" d="M71.7954,243.347h2.52c1.12,0 1.96,0.3 2.54,0.92c0.55,0.58 0.83,1.42 0.83,2.52c0,1.09 -0.28,1.93 -0.83,2.52c-0.58,0.62 -1.42,0.93 -2.54,0.93h-2.52zM72.9254,249.267h1.18c0.86,0 1.48,-0.2 1.88,-0.6c0.39,-0.4 0.58,-1.03 0.58,-1.88c0,-0.87 -0.19,-1.5 -0.58,-1.89c-0.4,-0.4 -1.02,-0.59 -1.88,-0.59h-1.18zM80.7754,245.107c0.82,0 1.45,0.27 1.88,0.83c0.4001,0.5 0.6,1.21 0.6,2.11h-3.74c0.04,0.46 0.17,0.82 0.38,1.06c0.21,0.24 0.52,0.37 0.92,0.37c0.34,0 0.61,-0.08 0.82,-0.24c0.16,-0.12 0.31,-0.32 0.44,-0.6h1.1c-0.11,0.46 -0.34,0.86 -0.69,1.16c-0.45,0.38 -1,0.57 -1.66,0.57c-0.75,0 -1.33,-0.23 -1.77,-0.68c-0.46,-0.47 -0.69,-1.12 -0.69,-1.95c0,-0.75 0.21,-1.36 0.65,-1.87c0.43,-0.51 1.02,-0.76 1.76,-0.76zM79.9454,246.317c-0.2,0.2 -0.34,0.5 -0.41,0.9h2.57c-0.09,-0.81 -0.53,-1.21 -1.3,-1.21c-0.37,0 -0.65,0.1 -0.86,0.31zM86.4855,245.107c0.24,0 0.45,0.04 0.62,0.13v1.1c-0.25,-0.08 -0.48,-0.11 -0.71,-0.11c-0.29,0 -0.55,0.11 -0.78,0.34c-0.27,0.26 -0.4,0.6 -0.4,1.02v2.65h-1.09v-4.99h1.09v0.71c0.14,-0.25 0.29,-0.44 0.47,-0.58c0.23,-0.18 0.49,-0.27 0.8,-0.27zM88.4755,243.207c0.22,0 0.4,0.07 0.54,0.2c0.14,0.14 0.22,0.31 0.22,0.52c0,0.22 -0.08,0.4 -0.22,0.54c-0.15,0.13 -0.32,0.2 -0.54,0.2c-0.21,0 -0.38,-0.07 -0.53,-0.2c-0.14,-0.15 -0.21,-0.32 -0.21,-0.54c0,-0.21 0.07,-0.38 0.21,-0.52c0.15,-0.13 0.32,-0.2 0.53,-0.2zM87.9255,245.247h1.1v4.99h-1.1zM89.8555,245.247h1.2l1.2,3.62l1.2,-3.62h1.19l-1.84,4.99h-1.1zM97.4055,245.107c0.82,0 1.44,0.27 1.88,0.83c0.39,0.5 0.6,1.21 0.6,2.11h-3.74c0.04,0.46 0.16,0.82 0.38,1.06c0.21,0.24 0.52,0.37 0.91,0.37c0.34,0 0.61,-0.08 0.82,-0.24c0.17,-0.12 0.31,-0.32 0.45,-0.6h1.1c-0.12,0.46 -0.35,0.86 -0.7,1.16c-0.44,0.38 -0.99,0.57 -1.66,0.57c-0.74,0 -1.33,-0.23 -1.76,-0.68c-0.47,-0.47 -0.7,-1.12 -0.7,-1.95c0,-0.75 0.21,-1.36 0.66,-1.87c0.42,-0.51 1.01,-0.76 1.76,-0.76zM96.5755,246.317c-0.21,0.2 -0.34,0.5 -0.41,0.9h2.57c-0.1,-0.81 -0.53,-1.21 -1.31,-1.21c-0.36,0 -0.64,0.1 -0.85,0.31zM106.026,243.347h1.28l2.64,6.89h-1.21l-0.63,-1.73h-2.88l-0.63,1.73h-1.21zM107.776,247.577l-1.09,-3.02h-0.03l-1.1,3.02zM112.766,245.107c0.64,0 1.16,0.15 1.54,0.44c0.4,0.31 0.65,0.77 0.75,1.4h-1.1c-0.06,-0.32 -0.2,-0.55 -0.39,-0.71c-0.2,-0.15 -0.47,-0.23 -0.8,-0.23c-0.41,0 -0.73,0.14 -0.96,0.45c-0.23,0.3 -0.35,0.73 -0.35,1.27c0,0.55 0.11,0.98 0.34,1.29c0.21,0.3 0.53,0.46 0.96,0.46c0.73,0 1.14,-0.37 1.22,-1.09h1.09c-0.11,0.67 -0.37,1.17 -0.77,1.5c-0.38,0.32 -0.91,0.48 -1.55,0.48c-0.77,0 -1.37,-0.25 -1.8,-0.75c-0.41,-0.48 -0.62,-1.11 -0.62,-1.88c0,-0.75 0.21,-1.37 0.61,-1.85c0.44,-0.52 1.04,-0.78 1.83,-0.78zM118.176,245.107c0.65,0 1.16,0.15 1.55,0.44c0.39,0.31 0.65,0.77 0.74,1.4h-1.09c-0.07,-0.32 -0.2,-0.55 -0.4,-0.71c-0.2,-0.15 -0.47,-0.23 -0.8,-0.23c-0.4,0 -0.72,0.14 -0.95,0.45c-0.23,0.3 -0.35,0.73 -0.35,1.27c0,0.55 0.11,0.98 0.34,1.29c0.21,0.3 0.53,0.46 0.95,0.46c0.74,0 1.14,-0.37 1.23,-1.09h1.09c-0.11,0.67 -0.38,1.17 -0.77,1.5c-0.39,0.32 -0.91,0.48 -1.56,0.48c-0.77,0 -1.37,-0.25 -1.79,-0.75c-0.42,-0.48 -0.62,-1.11 -0.62,-1.88c0,-0.75 0.2,-1.37 0.61,-1.85c0.43,-0.52 1.04,-0.78 1.82,-0.78zM123.676,245.107c0.75,0 1.36,0.24 1.82,0.75c0.46,0.49 0.69,1.12 0.69,1.89c0,0.76 -0.23,1.39 -0.68,1.87c-0.46,0.5 -1.08,0.75 -1.83,0.75c-0.77,0 -1.37,-0.25 -1.84,-0.75c-0.45,-0.48 -0.67,-1.11 -0.67,-1.87c0,-0.77 0.22,-1.4 0.68,-1.89c0.46,-0.51 1.06,-0.75 1.83,-0.75zM122.616,246.547c-0.22,0.31 -0.32,0.72 -0.32,1.2c0,0.48 0.1,0.88 0.32,1.19c0.25,0.35 0.59,0.54 1.06,0.54c0.45,0 0.81,-0.19 1.06,-0.54c0.21,-0.32 0.33,-0.72 0.33,-1.19c0,-0.48 -0.12,-0.89 -0.33,-1.2c-0.25,-0.37 -0.61,-0.54 -1.06,-0.54c-0.47,0 -0.81,0.17 -1.06,0.54zM127.146,245.247h1.1v3.04c0,0.4 0.08,0.69 0.25,0.89c0.18,0.18 0.45,0.28 0.84,0.28c0.24,0 0.47,-0.11 0.69,-0.31c0.22,-0.21 0.39,-0.49 0.48,-0.85v-3.05h1.1v4.99h-1.1v-0.65c-0.42,0.52 -0.94,0.78 -1.56,0.78c-1.2,0 -1.8,-0.67 -1.8,-2.01zM135.346,245.107c1.25,0 1.87,0.68 1.87,2.05v3.08h-1.1v-2.98c0,-0.83 -0.37,-1.23 -1.13,-1.23c-0.27,0 -0.51,0.1 -0.71,0.29c-0.23,0.21 -0.37,0.52 -0.41,0.92v3h-1.1v-4.99h1.1v0.58c0.2,-0.24 0.42,-0.42 0.66,-0.53c0.25,-0.13 0.52,-0.19 0.82,-0.19zM139.946,243.627v1.62h1.11v0.9h-1.11v2.82c0,0.12 0.02,0.21 0.07,0.27c0.06,0.06 0.14,0.09 0.25,0.09h0.66v0.91h-0.84c-0.43,0 -0.75,-0.12 -0.96,-0.35c-0.19,-0.21 -0.28,-0.51 -0.28,-0.92v-2.82h-0.9v-0.9h0.9v-1.16z"></path><g opacity="1"  transform="translate(58.6201171875 242.7587890625)  rotate(0)"><path id="矩形 1" fill-rule="evenodd" style="fill:#2F8DE3" opacity="1" d="M4.1382 8.27998L4.1382 8.27998C4.51818 8.27998 4.82816 7.96998 4.82816 7.58998L4.82816 0.689999C4.82816 0.309999 4.51818 -4.62698e-09 4.1382 -2.98375e-09L4.1382 -2.98375e-09C3.75822 -1.34053e-09 3.44824 0.309999 3.44824 0.689999L3.44824 7.58998C3.44824 7.96998 3.75822 8.27998 4.1382 8.27998Z"></path><path id="矩形 1" fill-rule="evenodd" style="fill:#2F8DE3" opacity="1" d="M0.689999 4.82865L7.58998 4.82865C7.96998 4.82865 8.27998 4.51867 8.27998 4.13869L8.27998 4.13869C8.27998 3.75871 7.96998 3.44873 7.58998 3.44873L0.689999 3.44873C0.309999 3.44873 1.34053e-09 3.75871 2.98375e-09 4.13869L2.98375e-09 4.13869C4.62698e-09 4.51867 0.309999 4.82865 0.689999 4.82865Z"></path></g><path id="并集" fill-rule="evenodd" style="fill:#198DE2" opacity="1" d="M127.521,170.35h-37.5206c-2.21,0 -4,-1.79 -4,-4v-1.66c0,-2.21 1.79,-4 4,-4h37.5206c2.21,0 4,1.79 4,4v1.66c0,2.21 -1.79,4 -4,4zM130.829,166.661v-2.28c0,-1.66 -1.34,-3 -3,-3h-38.1401c-1.66,0 -3,1.34 -3,3v2.28c0,1.66 1.34,3 3,3h38.1401c1.66,0 3,-1.34 3,-3zM106.004,162.758c0.59,0 1.1,0.16 1.5,0.47c0.41,0.31 0.65,0.73 0.72,1.26h-0.59c-0.08,-0.38 -0.27,-0.68 -0.57,-0.89c-0.3,-0.2 -0.65,-0.3 -1.07,-0.3c-0.62,0 -1.1,0.22 -1.44,0.65c-0.32,0.4 -0.48,0.93 -0.48,1.59c0,0.66 0.15,1.19 0.47,1.58c0.33,0.41 0.8,0.61 1.44,0.61c0.42,0 0.78,-0.11 1.09,-0.33c0.31,-0.24 0.53,-0.59 0.63,-1.05h0.6c-0.12,0.62 -0.4,1.1 -0.84,1.44c-0.42,0.32 -0.91,0.49 -1.48,0.49c-0.84,0 -1.48,-0.28 -1.92,-0.82c-0.41,-0.49 -0.6,-1.13 -0.6,-1.92c0,-0.79 0.2,-1.43 0.61,-1.94c0.45,-0.56 1.1,-0.84 1.93,-0.84zM111.474,162.758c0.6,0 1.1,0.16 1.51,0.47c0.4,0.31 0.64,0.73 0.72,1.26h-0.6c-0.07,-0.38 -0.27,-0.68 -0.57,-0.89c-0.29,-0.2 -0.64,-0.3 -1.07,-0.3c-0.62,0 -1.1,0.22 -1.44,0.65c-0.31,0.4 -0.47,0.93 -0.47,1.59c0,0.66 0.15,1.19 0.46,1.58c0.33,0.41 0.81,0.61 1.44,0.61c0.43,0 0.79,-0.11 1.09,-0.33c0.32,-0.24 0.53,-0.59 0.64,-1.05h0.59c-0.12,0.62 -0.4,1.1 -0.84,1.44c-0.41,0.32 -0.91,0.49 -1.48,0.49c-0.84,0 -1.47,-0.28 -1.92,-0.82c-0.4,-0.49 -0.6,-1.13 -0.6,-1.92c0,-0.79 0.2,-1.43 0.62,-1.94c0.45,-0.56 1.09,-0.84 1.92,-0.84zM127.234,162.758c0.79,0 1.43,0.26 1.9,0.8c0.43,0.5 0.66,1.16 0.66,1.97c0,0.8 -0.23,1.45 -0.66,1.95c-0.47,0.53 -1.11,0.8 -1.91,0.8c-0.81,0 -1.44,-0.27 -1.9,-0.8c-0.45,-0.5 -0.67,-1.16 -0.67,-1.95c0,-0.81 0.22,-1.46 0.67,-1.97c0.46,-0.53 1.09,-0.8 1.91,-0.8zM88.4143,162.858h0.62v2.31h3.1v-2.31h0.62v5.31h-0.62v-2.47h-3.1v2.47h-0.62zM93.8243,162.858h1.93c0.85,0 1.49,0.24 1.92,0.73c0.4,0.45 0.61,1.1 0.61,1.93c0,0.82 -0.22,1.46 -0.65,1.92c-0.45,0.49 -1.1,0.73 -1.94,0.73h-1.87zM114.634,162.858h1.93c0.84,0 1.48,0.24 1.92,0.73c0.4,0.45 0.6,1.1 0.6,1.93c0,0.82 -0.22,1.46 -0.64,1.92c-0.46,0.49 -1.1,0.73 -1.94,0.73h-1.87zM121.514,162.858h0.71l2.12,5.31h-0.67l-0.57,-1.48h-2.47l-0.57,1.48h-0.66zM125.774,163.928c-0.33,0.41 -0.5,0.93 -0.5,1.6c0,0.65 0.17,1.18 0.5,1.58c0.34,0.42 0.83,0.62 1.45,0.62c0.61,0 1.1,-0.2 1.45,-0.61c0.33,-0.4 0.5,-0.92 0.5,-1.59c0,-0.68 -0.17,-1.22 -0.5,-1.62c-0.35,-0.41 -0.83,-0.61 -1.44,-0.61c-0.62,0 -1.11,0.21 -1.46,0.63zM94.4443,167.648h1.14c0.7,0 1.23,-0.19 1.58,-0.56c0.33,-0.35 0.51,-0.88 0.51,-1.57c0,-0.72 -0.16,-1.24 -0.47,-1.59c-0.33,-0.36 -0.84,-0.54 -1.55,-0.54h-1.21zM115.254,167.648h1.14c0.7,0 1.23,-0.19 1.58,-0.56c0.33,-0.35 0.5,-0.88 0.5,-1.57c0,-0.72 -0.16,-1.24 -0.46,-1.59c-0.33,-0.36 -0.85,-0.54 -1.55,-0.54h-1.21zM122.904,166.168l-1.01,-2.65h-0.03l-1.03,2.65zM100.614,164.368h0.52v1.62h1.63v0.51h-1.63v1.63h-0.52v-1.63h-1.6397v-0.51h1.6397z"></path><path id="并集" fill-rule="evenodd" style="fill:#198DE2" opacity="1" d="M143.829,102.737h-37.52c-2.21,0 -4,-1.79 -4,-3.9995v-1.66c0,-2.21 1.79,-4 4,-4h37.52c2.21,0 4,1.79 4,4v1.66c0,2.2095 -1.79,3.9995 -4,3.9995zM147.138,99.0455v-2.28c0,-1.66 -1.34,-3 -3,-3h-38.141c-1.66,0 -3,1.34 -3,3v2.28c0,1.6595 1.34,2.9995 3,2.9995h38.141c1.66,0 3,-1.34 3,-2.9995zM122.312,95.1456c0.59,0 1.1,0.16 1.5,0.47c0.41,0.31 0.65,0.73 0.72,1.26h-0.59c-0.08,-0.38 -0.27,-0.68 -0.57,-0.89c-0.3,-0.2 -0.65,-0.3 -1.07,-0.3c-0.62,0 -1.1,0.22 -1.44,0.65c-0.32,0.4 -0.48,0.93 -0.48,1.59c0,0.66 0.15,1.19 0.47,1.58c0.33,0.41 0.8,0.6104 1.44,0.6104c0.42,0 0.78,-0.11 1.09,-0.3304c0.31,-0.24 0.53,-0.59 0.63,-1.05h0.6c-0.12,0.62 -0.4,1.1 -0.84,1.4404c-0.42,0.32 -0.91,0.49 -1.48,0.49c-0.84,0 -1.48,-0.28 -1.92,-0.8204c-0.41,-0.49 -0.6,-1.13 -0.6,-1.92c0,-0.79 0.2,-1.43 0.61,-1.94c0.45,-0.56 1.1,-0.84 1.93,-0.84zM127.782,95.1456c0.6,0 1.1,0.16 1.51,0.47c0.4,0.31 0.64,0.73 0.72,1.26h-0.6c-0.07,-0.38 -0.27,-0.68 -0.57,-0.89c-0.29,-0.2 -0.64,-0.3 -1.07,-0.3c-0.62,0 -1.1,0.22 -1.44,0.65c-0.31,0.4 -0.47,0.93 -0.47,1.59c0,0.66 0.15,1.19 0.46,1.58c0.33,0.41 0.81,0.6104 1.44,0.6104c0.43,0 0.79,-0.11 1.09,-0.3304c0.32,-0.24 0.53,-0.59 0.64,-1.05h0.59c-0.12,0.62 -0.4,1.1 -0.84,1.4404c-0.41,0.32 -0.91,0.49 -1.48,0.49c-0.84,0 -1.47,-0.28 -1.92,-0.8204c-0.4,-0.49 -0.6,-1.13 -0.6,-1.92c0,-0.79 0.2,-1.43 0.62,-1.94c0.45,-0.56 1.09,-0.84 1.92,-0.84zM143.542,95.1456c0.79,0 1.43,0.26 1.9,0.8c0.43,0.5 0.66,1.16 0.66,1.97c0,0.8 -0.23,1.45 -0.66,1.95c-0.47,0.5304 -1.11,0.8004 -1.91,0.8004c-0.81,0 -1.44,-0.27 -1.9,-0.8004c-0.45,-0.5 -0.67,-1.16 -0.67,-1.95c0,-0.81 0.22,-1.46 0.67,-1.97c0.46,-0.53 1.09,-0.8 1.91,-0.8zM104.722,95.2456h0.62v2.31h3.1v-2.31h0.62v5.3104h-0.62v-2.4704h-3.1v2.4704h-0.62zM110.132,95.2456h1.93c0.85,0 1.49,0.24 1.92,0.73c0.4,0.45 0.61,1.1 0.61,1.93c0,0.82 -0.22,1.46 -0.65,1.92c-0.45,0.4904 -1.1,0.7304 -1.94,0.7304h-1.87zM130.942,95.2456h1.93c0.84,0 1.48,0.24 1.92,0.73c0.4,0.45 0.6,1.1 0.6,1.93c0,0.82 -0.22,1.46 -0.64,1.92c-0.46,0.4904 -1.1,0.7304 -1.94,0.7304h-1.87zM137.822,95.2456h0.71l2.12,5.3104h-0.67l-0.57,-1.4804h-2.47l-0.57,1.4804h-0.66zM142.082,96.3156c-0.33,0.41 -0.5,0.93 -0.5,1.6c0,0.65 0.17,1.18 0.5,1.58c0.34,0.42 0.83,0.6204 1.45,0.6204c0.61,0 1.1,-0.2004 1.45,-0.6104c0.33,-0.4 0.5,-0.92 0.5,-1.59c0,-0.68 -0.17,-1.22 -0.5,-1.62c-0.35,-0.41 -0.83,-0.61 -1.44,-0.61c-0.62,0 -1.11,0.21 -1.46,0.63zM110.752,100.036h1.14c0.7,0 1.23,-0.1904 1.58,-0.5604c0.33,-0.35 0.51,-0.88 0.51,-1.57c0,-0.72 -0.16,-1.24 -0.47,-1.59c-0.33,-0.36 -0.84,-0.54 -1.55,-0.54h-1.21zM131.562,100.036h1.14c0.7,0 1.23,-0.1904 1.58,-0.5604c0.33,-0.35 0.5,-0.88 0.5,-1.57c0,-0.72 -0.16,-1.24 -0.46,-1.59c-0.33,-0.36 -0.85,-0.54 -1.55,-0.54h-1.21zM139.212,98.5556l-1.01,-2.65h-0.03l-1.03,2.65zM116.922,96.7556h0.52v1.62h1.63v0.51h-1.63v1.6304h-0.52v-1.6304h-1.64v-0.51h1.64z"></path><path id="并集" fill-rule="evenodd" style="fill:#FFFFFF" opacity="1" d="M136.692,32.42h-37.5202c-2.21,0 -4,-1.79 -4,-4v-1.66c0,-2.21 1.79,-3.9999 4,-3.9999h37.5202c2.21,0 4,1.7899 4,3.9999v1.66c0,2.21 -1.79,4 -4,4zM140.003,28.7295v-2.28c0,-1.66 -1.34,-3 -3,-3h-38.1398c-1.66,0 -3,1.34 -3,3v2.28c0,1.66 1.34,3 3,3h38.1398c1.66,0 3,-1.34 3,-3zM115.176,24.8285c0.59,0 1.1,0.16 1.5,0.47c0.41,0.31 0.65,0.73 0.72,1.26h-0.59c-0.08,-0.38 -0.27,-0.68 -0.57,-0.89c-0.3,-0.2 -0.65,-0.3 -1.07,-0.3c-0.62,0 -1.1,0.22 -1.44,0.65c-0.32,0.4 -0.48,0.93 -0.48,1.59c0,0.66 0.15,1.19 0.47,1.58c0.33,0.41 0.8,0.61 1.44,0.61c0.42,0 0.78,-0.11 1.09,-0.33c0.31,-0.24 0.53,-0.59 0.63,-1.05h0.6c-0.12,0.62 -0.4,1.1 -0.84,1.44c-0.42,0.32 -0.91,0.49 -1.48,0.49c-0.84,0 -1.48,-0.28 -1.92,-0.82c-0.41,-0.49 -0.6,-1.13 -0.6,-1.92c0,-0.79 0.2,-1.43 0.61,-1.94c0.45,-0.56 1.1,-0.84 1.93,-0.84zM120.646,24.8285c0.6,0 1.1,0.16 1.51,0.47c0.4,0.31 0.64,0.73 0.72,1.26h-0.6c-0.07,-0.38 -0.27,-0.68 -0.57,-0.89c-0.29,-0.2 -0.64,-0.3 -1.07,-0.3c-0.62,0 -1.1,0.22 -1.44,0.65c-0.31,0.4 -0.47,0.93 -0.47,1.59c0,0.66 0.15,1.19 0.46,1.58c0.33,0.41 0.81,0.61 1.44,0.61c0.43,0 0.79,-0.11 1.09,-0.33c0.32,-0.24 0.53,-0.59 0.64,-1.05h0.59c-0.12,0.62 -0.4,1.1 -0.84,1.44c-0.41,0.32 -0.91,0.49 -1.48,0.49c-0.84,0 -1.47,-0.28 -1.92,-0.82c-0.4,-0.49 -0.6,-1.13 -0.6,-1.92c0,-0.79 0.2,-1.43 0.62,-1.94c0.45,-0.56 1.09,-0.84 1.92,-0.84zM136.406,24.8285c0.79,0 1.43,0.26 1.9,0.8c0.43,0.5 0.66,1.16 0.66,1.97c0,0.8 -0.23,1.45 -0.66,1.95c-0.47,0.53 -1.11,0.8 -1.91,0.8c-0.81,0 -1.44,-0.27 -1.9,-0.8c-0.45,-0.5 -0.67,-1.16 -0.67,-1.95c0,-0.81 0.22,-1.46 0.67,-1.97c0.46,-0.53 1.09,-0.8 1.91,-0.8zM97.5856,24.9285h0.62v2.31h3.1004v-2.31h0.62v5.31h-0.62v-2.47h-3.1004v2.47h-0.62zM102.996,24.9285h1.93c0.85,0 1.49,0.24 1.92,0.73c0.4,0.45 0.61,1.1 0.61,1.93c0,0.82 -0.22,1.46 -0.65,1.92c-0.45,0.49 -1.1,0.73 -1.94,0.73h-1.87zM123.806,24.9285h1.93c0.84,0 1.48,0.24 1.92,0.73c0.4,0.45 0.6,1.1 0.6,1.93c0,0.82 -0.22,1.46 -0.64,1.92c-0.46,0.49 -1.1,0.73 -1.94,0.73h-1.87zM130.686,24.9285h0.71l2.12,5.31h-0.67l-0.57,-1.48h-2.47l-0.57,1.48h-0.66zM134.946,25.9985c-0.33,0.41 -0.5,0.93 -0.5,1.6c0,0.65 0.17,1.18 0.5,1.58c0.34,0.42 0.83,0.62 1.45,0.62c0.61,0 1.1,-0.2 1.45,-0.61c0.33,-0.4 0.5,-0.92 0.5,-1.59c0,-0.68 -0.17,-1.22 -0.5,-1.62c-0.35,-0.41 -0.83,-0.61 -1.44,-0.61c-0.62,0 -1.11,0.21 -1.46,0.63zM103.616,29.7185h1.14c0.7,0 1.23,-0.19 1.58,-0.55c0.33,-0.36 0.51,-0.89 0.51,-1.58c0,-0.72 -0.16,-1.24 -0.47,-1.59c-0.33,-0.36 -0.84,-0.54 -1.55,-0.54h-1.21zM124.426,29.7185h1.14c0.7,0 1.23,-0.19 1.58,-0.55c0.33,-0.36 0.5,-0.89 0.5,-1.58c0,-0.72 -0.16,-1.24 -0.46,-1.59c-0.33,-0.36 -0.85,-0.54 -1.55,-0.54h-1.21zM132.076,28.2385l-1.01,-2.65h-0.03l-1.03,2.65zM109.786,26.4385h0.52v1.62h1.63v0.51h-1.63v1.63h-0.52v-1.63h-1.64v-0.51h1.64z"></path></g></g><defs><filter id="filter_7" x="116.53076171875" y="58.58544921875" width="33.7587890625" height="13.1640625" filterUnits="userSpaceOnUse" color-interpolation-filters="sRGB"><feFlood flood-opacity="0" result="BackgroundImageFix"/>
          <feBlend mode="normal" in="SourceGraphic" in2="BackgroundImageFix" result="shape"/>
          <feGaussianBlur stdDeviation="1.5" result="effect1_foregroundBlur" /></filter><filter id="filter_9" x="52.025390625" y="41.8525390625" width="37.8896484375" height="10.140625" filterUnits="userSpaceOnUse" color-interpolation-filters="sRGB"><feFlood flood-opacity="0" result="BackgroundImageFix"/>
          <feBlend mode="normal" in="SourceGraphic" in2="BackgroundImageFix" result="shape"/>
          <feGaussianBlur stdDeviation="1" result="effect1_foregroundBlur" /></filter><filter id="filter_12" x="19.16845703125" y="41.845703125" width="35.5537109375" height="11.66162109375" filterUnits="userSpaceOnUse" color-interpolation-filters="sRGB"><feFlood flood-opacity="0" result="BackgroundImageFix"/>
          <feBlend mode="normal" in="SourceGraphic" in2="BackgroundImageFix" result="shape"/>
          <feGaussianBlur stdDeviation="1" result="effect1_foregroundBlur" /></filter><filter id="filter_18" x="115.9306640625" y="127.27783203125" width="34.00634765625" height="13.287109375" filterUnits="userSpaceOnUse" color-interpolation-filters="sRGB"><feFlood flood-opacity="0" result="BackgroundImageFix"/>
          <feBlend mode="normal" in="SourceGraphic" in2="BackgroundImageFix" result="shape"/>
          <feGaussianBlur stdDeviation="1.5" result="effect1_foregroundBlur" /></filter><filter id="filter_20" x="19.05322265625" y="110.8173828125" width="70.86083984375" height="11.66357421875" filterUnits="userSpaceOnUse" color-interpolation-filters="sRGB"><feFlood flood-opacity="0" result="BackgroundImageFix"/>
          <feBlend mode="normal" in="SourceGraphic" in2="BackgroundImageFix" result="shape"/>
          <feGaussianBlur stdDeviation="1" result="effect1_foregroundBlur" /></filter><filter id="filter_30" x="54.55419921875" y="180.06884765625" width="35.60791015625" height="11.66162109375" filterUnits="userSpaceOnUse" color-interpolation-filters="sRGB"><feFlood flood-opacity="0" result="BackgroundImageFix"/>
          <feBlend mode="normal" in="SourceGraphic" in2="BackgroundImageFix" result="shape"/>
          <feGaussianBlur stdDeviation="1" result="effect1_foregroundBlur" /></filter><filter id="filter_32" x="18.8154296875" y="179.9296875" width="29.6181640625" height="10.140625" filterUnits="userSpaceOnUse" color-interpolation-filters="sRGB"><feFlood flood-opacity="0" result="BackgroundImageFix"/>
          <feBlend mode="normal" in="SourceGraphic" in2="BackgroundImageFix" result="shape"/>
          <feGaussianBlur stdDeviation="1" result="effect1_foregroundBlur" /></filter><filter id="filter_36" x="117" y="193.22998046875" width="33.88720703125" height="13.16162109375" filterUnits="userSpaceOnUse" color-interpolation-filters="sRGB"><feFlood flood-opacity="0" result="BackgroundImageFix"/>
          <feBlend mode="normal" in="SourceGraphic" in2="BackgroundImageFix" result="shape"/>
          <feGaussianBlur stdDeviation="1.5" result="effect1_foregroundBlur" /></filter></defs></svg>