<svg xmlns="http://www.w3.org/2000/svg" xmlns:xlink="http://www.w3.org/1999/xlink" width="1440" height="900" viewBox="0 0 1440 900" fill="none"><defs><path id="path_0"
        transform="translate(0 0) rotate(0 720 450)"
        d="M0,900L1440,900L1440,0L0,0L0,900Z" /><linearGradient id="linear_0" x1="50%" y1="0%" x2="51%" y2="100%" gradientUnits="objectBoundingBox"><stop offset="0" stop-color="#E6F3FF" stop-opacity="1" /><stop offset="1" stop-color="#D6ECFF" stop-opacity="1" /></linearGradient></defs><g opacity="1" transform="translate(0 0)  rotate(0 720 450)"><g opacity="1" transform="translate(0 0)  rotate(0 720 450)"><mask id="mask-0" fill="white"><use xlink:href="#path_0"></use></mask><g mask="url(#mask-0)"><path id="矩形 1" fill-rule="evenodd" style="fill:#DEEFFE" transform="translate(0 0)  rotate(0 720 450)" opacity="1" d="M0,900L1440,900L1440,0L0,0L0,900Z " /></g><g mask="url(#mask-0)"><path id="椭圆形" style="stroke:url(#linear_0); stroke-width:14; stroke-opacity:100; stroke-dasharray:0 0" transform="translate(-446.71848241199314 -23.044473750146196)  rotate(-10 1066.1028628610202 435.93321565692577)" d="M2132.21,435.93C2132.21,195.21 1654.8,0 1066.1,0C477.4,0 0,195.21 0,435.93C0,676.66 477.4,871.87 1066.1,871.87C1654.8,871.87 2132.21,676.66 2132.21,435.93Z " /></g></g><g opacity="0.8" transform="translate(1228 104)  rotate(0 50 35)"><g opacity="1" transform="translate(54.70085470085466 18.33333333333338)  rotate(0 22.64957264957267 17.9166666666667)"><g opacity="1" transform="translate(0 0)  rotate(0 22.64957264957267 17.9166666666667)"><path id="矩形" fill-rule="evenodd" style="fill:#A79C89" transform="translate(29.791843562357627 2.8517012774020145)  rotate(0 7.753650868393816 15.363778998212455)" opacity="1" d="M0,16.08L0,30.73L10.62,22.52L15.51,0L0,16.08Z " /><path id="矩形" fill-rule="evenodd" style="fill:#BDB9B2" transform="translate(0 2.8517012774018227)  rotate(0 22.649572649572566 8.706673084439563)" opacity="1" d="M29.79,17.41L45.3,0L0,12.05L29.79,17.41Z " /><path id="矩形" fill-rule="evenodd" style="fill:#F6F6F5" transform="translate(1.6342482922482304e-13 0)  rotate(0 22.649572649572587 7.451570448206791)" opacity="1" d="M26.42,9L45.3,2.85L23.58,0L0,14.9L26.42,9Z " /><path id="矩形" fill-rule="evenodd" style="fill:#ACA79E" transform="translate(1.6342482922482304e-13 14.903140896413191)  rotate(0 15.462078437769973 10.465096218460099)" opacity="1" d="M22.65,20.93L30.92,18.68L30.92,4.23L0,0L22.65,20.93Z " /></g></g><g opacity="1" transform="translate(0 0)  rotate(0 37.17948717948718 35)"><path id="矩形" fill-rule="evenodd" style="fill:#FFFFFF" transform="translate(33.530492621570104 0)  rotate(0 20.414240868702 19.73761818201526)" opacity="1" d="M0,39.48L40.83,36.52L29.16,18.86L8.38,0L0,39.48Z " /><path id="矩形" fill-rule="evenodd" style="fill:#A79C89" transform="translate(34.50085303984722 36.52018149189841)  rotate(0 19.34558742880059 16.340051608447823)" opacity="1" d="M0,32.68L30.12,26.38L38.69,0L0,32.68Z " /><path id="矩形" fill-rule="evenodd" style="fill:#BDB9B2" transform="translate(0 36.85277256934083)  rotate(0 17.932192772310618 16.573613715329593)" opacity="1" d="M35.86,33.15L35.67,0L0,2.82L35.86,33.15Z " /><path id="矩形" fill-rule="evenodd" style="fill:#F6F6F5" transform="translate(1.9433647473780507e-13 0)  rotate(0 21.3055876901574 19.835882598233837)" opacity="1" d="M34.5,37.99L42.61,0L0,39.67L34.5,37.99Z " /><path id="矩形" fill-rule="evenodd" style="fill:#ACA79E" transform="translate(34.69743908309576 35.379961161314085)  rotate(0 19.830767637939278 16.73990925405048)" opacity="1" d="M0,33.48L21.03,18.01L39.66,0L0,2.96L0,33.48Z " /></g></g><g opacity="1" transform="translate(189.29 697.8400000000001)  rotate(-10 66.0760502785509 42.00000000000001)"><g opacity="1" transform="translate(5.684341886080801e-14 20.2784896967496)  rotate(0 27.91861763940352 24.64492611876318)"><path id="矩形" fill-rule="evenodd" style="fill:#FFFFFF" transform="translate(4.390047913037279 0.1113749798823847)  rotate(0 21.5 12)" opacity="1" d="M0,2.34L34.42,24L43,19.39L36.4,0L0,2.34Z " /><path id="矩形" fill-rule="evenodd" style="fill:#BDB9B2" transform="translate(34.92255515780715 18.74499853160819)  rotate(0 10 15)" opacity="1" d="M3.31,4.68L0,30L20,3.3L11.84,0L3.31,4.68Z " /><path id="矩形" fill-rule="evenodd" style="fill:#BDB9B2" transform="translate(0.7219312478130178 2.178035710503195)  rotate(0 19 19)" opacity="1" d="M18.08,38L38,21.53L4.07,0L0,38L18.08,38Z " /><path id="矩形" fill-rule="evenodd" style="fill:#A4A29F" transform="translate(-1.13686837721616e-13 24.28985223752636)  rotate(0 19 12.5)" opacity="1" d="M34.72,25L38,0L0,16.63L34.72,25Z " /><path id="矩形" fill-rule="evenodd" style="fill:#A4A29F" transform="translate(40.83723527880704 0)  rotate(0 7.5 11.5)" opacity="1" d="M6.69,19.7L15,23L12.66,13.46L0,0L6.69,19.7Z " /></g><g opacity="1" transform="translate(95.15210055710185 16.6795630975073)  rotate(0 18.5 19)"><g opacity="1" transform="translate(0 0)  rotate(0 18.5 19)"><path id="矩形" fill-rule="evenodd" style="fill:#FFFFFF" transform="translate(0 0)  rotate(0 18.5 12.079937173709705)" opacity="1" d="M18.5,19.81L37,24.16L36.45,0L0,2.99L18.5,19.81Z " /><path id="矩形" fill-rule="evenodd" style="fill:#BDB9B2" transform="translate(13.12285494423022 19.26844304830467)  rotate(0 11.93857202599986 9.365778475847666)" opacity="1" d="M4.83,0L0,18.73L11.93,17.57L23.88,4.89L4.83,0Z " /><path id="矩形" fill-rule="evenodd" style="fill:#D4D4D3" transform="translate(0 2.994294718097319)  rotate(0 9.72889879002808 15.36555286476674)" opacity="1" d="M19.46,16.81L0,0L0,26.71L2.37,30.73L19.46,16.81Z " /><path id="矩形" fill-rule="evenodd" style="fill:#A4A29F" transform="translate(2.334438322117923 18.99999999999993)  rotate(0 8.56167962896911 9.50000000000002)" opacity="1" d="M10.79,19L17.12,0L0,14.79L10.79,19Z " /></g></g><g opacity="1" transform="translate(33.37429269024028 0)  rotate(0 35.49999999999998 42.00000000000001)"><path id="矩形" fill-rule="evenodd" style="fill:#FFFFFF" transform="translate(3.114035087719287 0)  rotate(0 33.94298245614031 25.98594018131818)" opacity="1" d="M21.13,0L0,17.64L13.7,38.19L44.85,51.97L67.89,31.54L51.02,5.78L21.13,0Z " /><path id="矩形" fill-rule="evenodd" style="fill:#CAC8C3" transform="translate(47.95614035087715 31.64634290046331)  rotate(0 11.52192982456139 18.477761329248196)" opacity="1" d="M0,19.71L20.26,36.96L23.04,0L0,19.71Z " /><path id="矩形" fill-rule="evenodd" style="fill:#BDB9B2" transform="translate(0 34.11004441102989)  rotate(0 7.785087719298235 24.94497779448506)" opacity="1" d="M14.86,0L0,11.34L15.57,49.89L14.86,0Z " /><path id="矩形" fill-rule="evenodd" style="fill:#D1CFCD" transform="translate(1.245614035087726 17.48005921470656)  rotate(0 7.16228070175438 14.16628368575695)" opacity="1" d="M2.82,0L0,28.33L14.32,17.09L2.82,0Z " /><path id="矩形" fill-rule="evenodd" style="fill:#A4A29F" transform="translate(14.32456140350882 33.49411903338819)  rotate(0 17.12719298245612 24.63701510566425)" opacity="1" d="M0,49.27L34.25,17.86L0,0L0,49.27Z " /><path id="矩形" fill-rule="evenodd" style="fill:#ACA8A3" transform="translate(14.32456140350871 51.35595498499481)  rotate(0 16.81578947368419 16.322022507502584)" opacity="1" d="M33.63,0L0,31.41L28.03,32.64L33.63,0Z " /><path id="矩形" fill-rule="evenodd" style="fill:#95938F" transform="translate(41.86842789199312 50.74002960735322)  rotate(0 13.320172018915516 16.62998519632339)" opacity="1" d="M6.09,0L0,33.26L26.64,17.37L6.09,0Z " /></g></g></g></svg>