<svg xmlns="http://www.w3.org/2000/svg" xmlns:xlink="http://www.w3.org/1999/xlink" width="1440" height="900" viewBox="0 0 1440 900" fill="none"><defs><path id="path_0"
        transform="translate(0 0) rotate(0 720 450)"
        d="M0,900L1440,900L1440,0L0,0L0,900Z" /><linearGradient id="linear_0" x1="50%" y1="0%" x2="51%" y2="100%" gradientUnits="objectBoundingBox"><stop offset="0" stop-color="#E6F3FF" stop-opacity="1" /><stop offset="1" stop-color="#D6ECFF" stop-opacity="1" /></linearGradient></defs><g opacity="1" transform="translate(0 0)  rotate(0 720 450)"><g opacity="1" transform="translate(0 0)  rotate(0 720 450)"><mask id="mask-0" fill="white"><use xlink:href="#path_0"></use></mask><g mask="url(#mask-0)"><path id="矩形 1" fill-rule="evenodd" style="fill:#DEEFFE" transform="translate(0 0)  rotate(0 720 450)" opacity="1" d="M0,900L1440,900L1440,0L0,0L0,900Z " /></g><g mask="url(#mask-0)"><path id="椭圆形" style="stroke:url(#linear_0); stroke-width:14; stroke-opacity:100; stroke-dasharray:0 0" transform="translate(-140.2927847726653 -148.20694680601946)  rotate(-20 1100.5040934183226 480.34210322891386)" d="M2201.01,480.34C2201.01,215.1 1708.2,0 1100.5,0C492.81,0 0,215.1 0,480.34C0,745.59 492.81,960.68 1100.5,960.68C1708.2,960.68 2201.01,745.59 2201.01,480.34Z " /></g></g><g opacity="1" transform="translate(200 168.84000000000015)  rotate(0 24.499999999999993 25.164864864864555)"><g opacity="1" transform="translate(0 0)  rotate(0 24.499999999999993 25.164864864864555)"><path id="矩形" fill-rule="evenodd" style="fill:#FFFFFF" transform="translate(0 0)  rotate(0 24.499999999999993 15.999472976445187)" opacity="1" d="M24.5,26.23L49,32L48.27,0L0,3.96L24.5,26.23Z " /><path id="矩形" fill-rule="evenodd" style="fill:#BDB9B2" transform="translate(17.37891600722379 25.52040870878557)  rotate(0 15.810541331729539 12.404660510471768)" opacity="1" d="M6.39,0L0,24.81L15.8,23.27L31.62,6.48L6.39,0Z " /><path id="矩形" fill-rule="evenodd" style="fill:#D4D4D3" transform="translate(0 3.965843260341933)  rotate(0 12.884217316523667 20.351161127146703)" opacity="1" d="M25.77,22.26L0,0L0,35.38L3.14,40.7L25.77,22.26Z " /><path id="矩形" fill-rule="evenodd" style="fill:#A4A29F" transform="translate(3.0915534536156293 25.16486486486445)  rotate(0 11.338440589715844 12.582432432432304)" opacity="1" d="M14.29,25.16L22.68,0L0,19.59L14.29,25.16Z " /></g></g><g opacity="1" transform="translate(1155 706)  rotate(0 58.50000000000005 41.999999999999915)"><g opacity="1" transform="translate(62 22)  rotate(0 27.500000000000046 21.499999999999996)"><g opacity="1" transform="translate(0 0)  rotate(0 27.500000000000046 21.499999999999996)"><path id="矩形" fill-rule="evenodd" style="fill:#A79C89" transform="translate(36.1717949667493 3.422041532882417)  rotate(0 9.414102516625325 18.43653479785491)" opacity="1" d="M0,19.3L0,36.87L12.89,27.02L18.83,0L0,19.3Z " /><path id="矩形" fill-rule="evenodd" style="fill:#BDB9B2" transform="translate(0 3.42204153288219)  rotate(0 27.49999999999992 10.448007701327455)" opacity="1" d="M36.17,20.9L55,0L0,14.46L36.17,20.9Z " /><path id="矩形" fill-rule="evenodd" style="fill:#F6F6F5" transform="translate(2.273736754432321e-13 0)  rotate(0 27.49999999999993 8.94188453784813)" opacity="1" d="M32.08,10.8L55,3.42L28.63,0L0,17.88L32.08,10.8Z " /><path id="矩形" fill-rule="evenodd" style="fill:#ACA79E" transform="translate(2.273736754432321e-13 17.8837690756958)  rotate(0 18.77329712208488 12.55811546215209)" opacity="1" d="M27.5,25.12L37.55,22.41L37.55,5.08L0,0L27.5,25.12Z " /></g></g><g opacity="1" transform="translate(0 0)  rotate(0 43.50000000000003 41.999999999999915)"><path id="矩形" fill-rule="evenodd" style="fill:#FFFFFF" transform="translate(39.23067636723704 0)  rotate(0 23.884661816381357 23.685141818418266)" opacity="1" d="M0,47.37L47.77,43.82L34.12,22.63L9.8,0L0,47.37Z " /><path id="矩形" fill-rule="evenodd" style="fill:#A79C89" transform="translate(40.36599805662127 43.824217790278)  rotate(0 22.634337291696713 19.60806193013734)" opacity="1" d="M0,39.22L35.24,31.66L45.27,0L0,39.22Z " /><path id="矩形" fill-rule="evenodd" style="fill:#BDB9B2" transform="translate(0 44.22332708320891)  rotate(0 20.980665543603436 19.888336458395475)" opacity="1" d="M41.96,39.78L41.73,0L0,3.38L41.96,39.78Z " /><path id="矩形" fill-rule="evenodd" style="fill:#F6F6F5" transform="translate(2.273736754432321e-13 0)  rotate(0 24.92753759748417 23.80305911788055)" opacity="1" d="M40.37,45.59L49.86,0L0,47.61L40.37,45.59Z " /><path id="矩形" fill-rule="evenodd" style="fill:#ACA79E" transform="translate(40.59600372722207 42.45595339357681)  rotate(0 23.201998136388966 20.08789110486054)" opacity="1" d="M0,40.18L24.61,21.61L46.4,0L0,3.55L0,40.18Z " /></g></g></g></svg>